<svg version="1.1" viewBox="0.0 0.0 600.0 371.0" fill="none" stroke="none" stroke-linecap="square" stroke-miterlimit="10" width="600" height="371" xmlns:xlink="http://www.w3.org/1999/xlink" xmlns="http://www.w3.org/2000/svg"><path fill="#ffffff" d="M0 0L600.0 0L600.0 371.0L0 371.0L0 0Z" fill-rule="nonzero"/><path fill="#0000b3" d="M410.13205 125.6417L453.8535 83.51754L453.8535 105.832535L410.13205 147.9567Z" fill-rule="nonzero"/><path fill="#0000b3" d="M366.41064 115.69753C382.11887 115.69753 397.42386 119.178566 410.13205 125.6417L410.13205 147.9567C397.42386 141.49356 382.11887 138.01254 366.41064 138.01254Z" fill-rule="nonzero"/><path fill="#0000ff" d="M366.41064 63.629204C397.82706 63.629204 428.43707 70.591255 453.8535 83.51754L410.13205 125.6417C397.42386 119.178566 382.11887 115.69753 366.41064 115.69753Z" fill-rule="nonzero"/><path fill="#6b00b3" d="M435.83087 234.65L479.5523 276.77417L479.5523 299.08917L435.83087 256.965Z" fill-rule="nonzero"/><path fill="#6b00b3" d="M540.8761 214.84084C540.8761 248.1755 518.0784 279.49554 479.5523 299.08917L479.5523 276.77417C518.0784 257.18054 540.8761 225.8605 540.8761 192.52583Z" fill-rule="nonzero"/><path fill="#6b00b3" d="M435.83087 150.40167C455.09396 160.19849 466.49277 175.8585 466.49277 192.52583L466.49277 214.84084C466.49277 198.1735 455.09396 182.51347 435.83087 172.71666Z" fill-rule="nonzero"/><path fill="#9900ff" d="M479.5523 108.277504C518.0784 127.871124 540.8761 159.19116 540.8761 192.52583C540.8761 225.8605 518.0784 257.18054 479.5523 276.77417L435.83087 234.65C455.09396 224.85318 466.49277 209.19316 466.49277 192.52583C466.49277 175.8585 455.09396 160.19849 435.83087 150.40167Z" fill-rule="nonzero"/><path fill="#00b300" d="M406.98926 307.13416C361.73117 330.15152 301.85248 333.4503 252.00775 315.67227C202.16301 297.89426 170.77974 262.04526 170.77974 222.88583L170.77974 200.57083C170.77974 239.73027 202.16301 275.57928 252.00775 293.35727C301.85248 311.13528 361.73117 307.83652 406.98926 284.81915Z" fill-rule="nonzero"/><path fill="#00b300" d="M245.16307 200.57083C245.16307 171.81429 278.4656 148.5025 319.5464 148.5025L319.5464 170.8175C278.4656 170.8175 245.16307 194.12929 245.16307 222.88583Z" fill-rule="nonzero"/><path fill="#00ff00" d="M406.98926 284.81915C354.84842 311.33694 284.2444 311.33694 232.10355 284.81915C179.9627 258.3014 158.14487 211.2975 178.0609 168.39084C197.97693 125.48417 255.09677 96.434166 319.5464 96.434166L319.5464 148.5025C287.3216 148.5025 258.76166 163.0275 248.80365 184.48083C238.84563 205.93417 249.75455 229.43611 275.82498 242.695C301.8954 255.95389 337.19742 255.95389 363.26782 242.695Z" fill-rule="nonzero"/><path fill="#ffffff" d="M392.10797 98.48598L390.8736 98.48598L390.8736 90.64223Q390.4361 91.0641 389.70172 91.5016Q388.98297 91.92348 388.42047 92.1266L388.42047 90.9391Q389.45172 90.45473 390.21735 89.76723Q390.9986 89.07973 391.3111 88.42348L392.10797 88.42348L392.10797 98.48598ZM395.46735 93.54848Q395.46735 91.76723 395.82672 90.6891Q396.20172 89.59535 396.92047 89.01723Q397.63922 88.42348 398.73297 88.42348Q399.54547 88.42348 400.15485 88.7516Q400.76422 89.07973 401.15485 89.6891Q401.5611 90.29848 401.77985 91.17348Q401.9986 92.04848 401.9986 93.54848Q401.9986 95.3141 401.63922 96.39223Q401.27985 97.47035 400.5611 98.0641Q399.84235 98.65785 398.73297 98.65785Q397.29547 98.65785 396.46735 97.61098Q395.46735 96.36098 395.46735 93.54848ZM396.73297 93.54848Q396.73297 96.01723 397.3111 96.82973Q397.88922 97.64223 398.73297 97.64223Q399.59235 97.64223 400.17047 96.82973Q400.7486 96.0016 400.7486 93.54848Q400.7486 91.0641 400.17047 90.2516Q399.59235 89.4391 398.71735 89.4391Q397.8736 89.4391 397.3736 90.15785Q396.73297 91.07973 396.73297 93.54848ZM403.70172 90.8766Q403.70172 89.79848 404.23297 89.04848Q404.77985 88.29848 405.8111 88.29848Q406.7486 88.29848 407.35797 88.97035Q407.98297 89.64223 407.98297 90.9391Q407.98297 92.22035 407.35797 92.90785Q406.73297 93.59535 405.82672 93.59535Q404.92047 93.59535 404.3111 92.92348Q403.70172 92.23598 403.70172 90.8766ZM405.84235 89.14223Q405.38922 89.14223 405.07672 89.54848Q404.77985 89.9391 404.77985 90.98598Q404.77985 91.95473 405.07672 92.34535Q405.38922 92.73598 405.84235 92.73598Q406.3111 92.73598 406.60797 92.34535Q406.92047 91.95473 406.92047 90.89223Q406.92047 89.92348 406.60797 89.53285Q406.29547 89.14223 405.84235 89.14223ZM405.84235 98.86098L411.32672 88.29848L412.32672 88.29848L406.8736 98.86098L405.84235 98.86098ZM410.1861 96.1266Q410.1861 95.04848 410.71735 94.3141Q411.26422 93.5641 412.29547 93.5641Q413.23297 93.5641 413.85797 94.23598Q414.48297 94.90785 414.48297 96.20473Q414.48297 97.48598 413.85797 98.17348Q413.23297 98.86098 412.29547 98.86098Q411.38922 98.86098 410.77985 98.1891Q410.1861 97.5016 410.1861 96.1266ZM412.32672 94.40785Q411.85797 94.40785 411.5611 94.8141Q411.26422 95.20473 411.26422 96.2516Q411.26422 97.22035 411.5611 97.61098Q411.8736 98.0016 412.32672 98.0016Q412.79547 98.0016 413.09235 97.61098Q413.40485 97.22035 413.40485 96.15785Q413.40485 95.1891 413.09235 94.79848Q412.79547 94.40785 412.32672 94.40785Z" fill-rule="nonzero"/><path fill="#ffffff" d="M494.95914 194.88521L496.1779 194.71333Q496.39664 195.76021 496.89664 196.22896Q497.41226 196.68208 498.14664 196.68208Q499.02164 196.68208 499.6154 196.08833Q500.20914 195.47896 500.20914 194.58833Q500.20914 193.74458 499.64664 193.19771Q499.09976 192.65083 498.256 192.65083Q497.89664 192.65083 497.381 192.77583L497.52164 191.69771Q497.64664 191.71333 497.70914 191.71333Q498.506 191.71333 499.131 191.30708Q499.756 190.90083 499.756 190.04146Q499.756 189.36958 499.3029 188.93208Q498.84976 188.47896 498.1154 188.47896Q497.39664 188.47896 496.91226 188.93208Q496.4435 189.36958 496.3029 190.27583L495.08414 190.05708Q495.3029 188.82271 496.09976 188.15083Q496.89664 187.46333 498.08414 187.46333Q498.91226 187.46333 499.59976 187.82271Q500.28726 188.16646 500.64664 188.77583Q501.02164 189.38521 501.02164 190.07271Q501.02164 190.71333 500.6779 191.24458Q500.33414 191.77583 499.64664 192.10396Q500.53726 192.30708 501.02164 192.94771Q501.52164 193.58833 501.52164 194.57271Q501.52164 195.88521 500.5529 196.79146Q499.59976 197.69771 498.14664 197.69771Q496.8185 197.69771 495.9435 196.91646Q495.08414 196.13521 494.95914 194.88521ZM502.9435 192.58833Q502.9435 190.80708 503.3029 189.72896Q503.6779 188.63521 504.39664 188.05708Q505.1154 187.46333 506.20914 187.46333Q507.02164 187.46333 507.631 187.79146Q508.2404 188.11958 508.631 188.72896Q509.03726 189.33833 509.256 190.21333Q509.47476 191.08833 509.47476 192.58833Q509.47476 194.35396 509.1154 195.43208Q508.756 196.51021 508.03726 197.10396Q507.3185 197.69771 506.20914 197.69771Q504.77164 197.69771 503.9435 196.65083Q502.9435 195.40083 502.9435 192.58833ZM504.20914 192.58833Q504.20914 195.05708 504.78726 195.86958Q505.3654 196.68208 506.20914 196.68208Q507.0685 196.68208 507.64664 195.86958Q508.22476 195.04146 508.22476 192.58833Q508.22476 190.10396 507.64664 189.29146Q507.0685 188.47896 506.1935 188.47896Q505.34976 188.47896 504.84976 189.19771Q504.20914 190.11958 504.20914 192.58833ZM511.1779 189.91646Q511.1779 188.83833 511.70914 188.08833Q512.256 187.33833 513.28723 187.33833Q514.22473 187.33833 514.8341 188.01021Q515.4591 188.68208 515.4591 189.97896Q515.4591 191.26021 514.8341 191.94771Q514.2091 192.63521 513.30286 192.63521Q512.3966 192.63521 511.78726 191.96333Q511.1779 191.27583 511.1779 189.91646ZM513.3185 188.18208Q512.86536 188.18208 512.55286 188.58833Q512.256 188.97896 512.256 190.02583Q512.256 190.99458 512.55286 191.38521Q512.86536 191.77583 513.3185 191.77583Q513.78723 191.77583 514.0841 191.38521Q514.3966 190.99458 514.3966 189.93208Q514.3966 188.96333 514.0841 188.57271Q513.7716 188.18208 513.3185 188.18208ZM513.3185 197.90083L518.80286 187.33833L519.80286 187.33833L514.34973 197.90083L513.3185 197.90083ZM517.66223 195.16646Q517.66223 194.08833 518.1935 193.35396Q518.74036 192.60396 519.7716 192.60396Q520.7091 192.60396 521.3341 193.27583Q521.9591 193.94771 521.9591 195.24458Q521.9591 196.52583 521.3341 197.21333Q520.7091 197.90083 519.7716 197.90083Q518.86536 197.90083 518.256 197.22896Q517.66223 196.54146 517.66223 195.16646ZM519.80286 193.44771Q519.3341 193.44771 519.03723 193.85396Q518.74036 194.24458 518.74036 195.29146Q518.74036 196.26021 519.03723 196.65083Q519.34973 197.04146 519.80286 197.04146Q520.2716 197.04146 520.5685 196.65083Q520.881 196.26021 520.881 195.19771Q520.881 194.22896 520.5685 193.83833Q520.2716 193.44771 519.80286 193.44771Z" fill-rule="nonzero"/><path fill="#ffffff" d="M206.40102 222.14333L205.18227 222.23708Q205.01039 221.5027 204.71352 221.17458Q204.21352 220.65895 203.47914 220.65895Q202.88539 220.65895 202.44789 220.98708Q201.86977 221.40895 201.52602 222.22145Q201.19789 223.03395 201.18227 224.53395Q201.61977 223.86208 202.26039 223.53395Q202.91664 223.20583 203.61977 223.20583Q204.85414 223.20583 205.71352 224.11208Q206.57289 225.01833 206.57289 226.45583Q206.57289 227.39333 206.16664 228.20583Q205.76039 229.01833 205.04164 229.45583Q204.33852 229.8777 203.43227 229.8777Q201.90102 229.8777 200.93227 228.7527Q199.96352 227.61208 199.96352 225.01833Q199.96352 222.11208 201.02602 220.78395Q201.96352 219.64333 203.55727 219.64333Q204.74477 219.64333 205.49477 220.3152Q206.24477 220.97145 206.40102 222.14333ZM201.36977 226.45583Q201.36977 227.09645 201.63539 227.67458Q201.91664 228.2527 202.40102 228.5652Q202.88539 228.86208 203.41664 228.86208Q204.19789 228.86208 204.76039 228.23708Q205.32289 227.61208 205.32289 226.53395Q205.32289 225.48708 204.76039 224.89333Q204.21352 224.28395 203.36977 224.28395Q202.54164 224.28395 201.94789 224.89333Q201.36977 225.48708 201.36977 226.45583ZM208.01039 224.76833Q208.01039 222.98708 208.36977 221.90895Q208.74477 220.8152 209.46352 220.23708Q210.18227 219.64333 211.27602 219.64333Q212.08852 219.64333 212.69789 219.97145Q213.30727 220.29958 213.69789 220.90895Q214.10414 221.51833 214.32289 222.39333Q214.54164 223.26833 214.54164 224.76833Q214.54164 226.53395 214.18227 227.61208Q213.82289 228.6902 213.10414 229.28395Q212.38539 229.8777 211.27602 229.8777Q209.83852 229.8777 209.01039 228.83083Q208.01039 227.58083 208.01039 224.76833ZM209.27602 224.76833Q209.27602 227.23708 209.85414 228.04958Q210.43227 228.86208 211.27602 228.86208Q212.13539 228.86208 212.71352 228.04958Q213.29164 227.22145 213.29164 224.76833Q213.29164 222.28395 212.71352 221.47145Q212.13539 220.65895 211.26039 220.65895Q210.41664 220.65895 209.91664 221.3777Q209.27602 222.29958 209.27602 224.76833ZM216.24477 222.09645Q216.24477 221.01833 216.77602 220.26833Q217.32289 219.51833 218.35414 219.51833Q219.29164 219.51833 219.90102 220.1902Q220.52602 220.86208 220.52602 222.15895Q220.52602 223.4402 219.90102 224.1277Q219.27602 224.8152 218.36977 224.8152Q217.46352 224.8152 216.85414 224.14333Q216.24477 223.45583 216.24477 222.09645ZM218.38539 220.36208Q217.93227 220.36208 217.61977 220.76833Q217.32289 221.15895 217.32289 222.20583Q217.32289 223.17458 217.61977 223.5652Q217.93227 223.95583 218.38539 223.95583Q218.85414 223.95583 219.15102 223.5652Q219.46352 223.17458 219.46352 222.11208Q219.46352 221.14333 219.15102 220.7527Q218.83852 220.36208 218.38539 220.36208ZM218.38539 230.08083L223.86977 219.51833L224.86977 219.51833L219.41664 230.08083L218.38539 230.08083ZM222.72914 227.34645Q222.72914 226.26833 223.26039 225.53395Q223.80727 224.78395 224.83852 224.78395Q225.77602 224.78395 226.40102 225.45583Q227.02602 226.1277 227.02602 227.42458Q227.02602 228.70583 226.40102 229.39333Q225.77602 230.08083 224.83852 230.08083Q223.93227 230.08083 223.32289 229.40895Q222.72914 228.72145 222.72914 227.34645ZM224.86977 225.6277Q224.40102 225.6277 224.10414 226.03395Q223.80727 226.42458 223.80727 227.47145Q223.80727 228.4402 224.10414 228.83083Q224.41664 229.22145 224.86977 229.22145Q225.33852 229.22145 225.63539 228.83083Q225.94789 228.4402 225.94789 227.3777Q225.94789 226.40895 225.63539 226.01833Q225.33852 225.6277 224.86977 225.6277Z" fill-rule="nonzero"/><path fill="#0000ff" d="M30.55 61.916668C30.55 65.23038 27.863708 67.916664 24.55 67.916664C21.236292 67.916664 18.55 65.23038 18.55 61.916668C18.55 58.60296 21.236292 55.916668 24.55 55.916668C27.863708 55.916668 30.55 58.60296 30.55 61.916668Z" fill-rule="nonzero"/><path fill="#1a1a1a" d="M38.925 64.05729L39.95625 63.90104Q40.05 64.52604 40.440624 64.854164Q40.846874 65.18229 41.58125 65.18229Q42.3 65.18229 42.64375 64.90104Q43.003124 64.604164 43.003124 64.197914Q43.003124 63.83854 42.690624 63.635414Q42.471874 63.49479 41.6125 63.27604Q40.45625 62.979164 40.003124 62.77604Q39.565624 62.55729 39.33125 62.18229Q39.096874 61.80729 39.096874 61.33854Q39.096874 60.93229 39.284374 60.572914Q39.471874 60.21354 39.8 59.979164Q40.05 59.80729 40.471874 59.68229Q40.89375 59.55729 41.39375 59.55729Q42.1125 59.55729 42.659374 59.77604Q43.221874 59.979164 43.4875 60.33854Q43.753124 60.697914 43.846874 61.291664L42.815624 61.43229Q42.753124 60.96354 42.409374 60.697914Q42.08125 60.416664 41.45625 60.416664Q40.7375 60.416664 40.425 60.666664Q40.1125 60.90104 40.1125 61.229164Q40.1125 61.43229 40.2375 61.58854Q40.378124 61.760414 40.64375 61.86979Q40.8 61.93229 41.58125 62.135414Q42.70625 62.447914 43.14375 62.635414Q43.58125 62.822914 43.83125 63.18229Q44.08125 63.541664 44.08125 64.08854Q44.08125 64.61979 43.76875 65.08854Q43.471874 65.541664 42.89375 65.80729Q42.315624 66.05729 41.58125 66.05729Q40.3625 66.05729 39.721874 65.55729Q39.096874 65.041664 38.925 64.05729ZM46.425 65.916664L46.425 57.322914L47.565624 57.322914L47.565624 61.58854L51.83125 57.322914L53.378124 57.322914L49.76875 60.80729L53.534374 65.916664L52.034374 65.916664L48.971874 61.572914L47.565624 62.93229L47.565624 65.916664L46.425 65.916664ZM54.346874 58.541664L54.346874 57.322914L55.409374 57.322914L55.409374 58.541664L54.346874 58.541664ZM54.346874 65.916664L54.346874 59.697914L55.409374 59.697914L55.409374 65.916664L54.346874 65.916664ZM57.346874 65.916664L57.346874 59.697914L58.284374 59.697914L58.284374 60.572914Q58.971874 59.55729 60.26875 59.55729Q60.83125 59.55729 61.3 59.760414Q61.784374 59.96354 62.01875 60.291664Q62.253124 60.61979 62.346874 61.05729Q62.39375 61.354164 62.39375 62.08854L62.39375 65.916664L61.346874 65.916664L61.346874 62.135414Q61.346874 61.479164 61.221874 61.166664Q61.096874 60.854164 60.784374 60.666664Q60.471874 60.46354 60.05 60.46354Q59.378124 60.46354 58.878124 60.90104Q58.39375 61.322914 58.39375 62.510414L58.39375 65.916664L57.346874 65.916664ZM64.14375 66.43229L65.175 66.58854Q65.2375 67.05729 65.53438 67.27604Q65.925 67.572914 66.59688 67.572914Q67.33125 67.572914 67.72188 67.27604Q68.12813 66.979164 68.26875 66.46354Q68.3625 66.135414 68.34688 65.104164Q67.65938 65.916664 66.62813 65.916664Q65.34688 65.916664 64.64375 64.99479Q63.940624 64.05729 63.940624 62.77604Q63.940624 61.885414 64.25313 61.135414Q64.58125 60.36979 65.19063 59.96354Q65.8 59.55729 66.62813 59.55729Q67.7375 59.55729 68.45625 60.447914L68.45625 59.697914L69.425 59.697914L69.425 65.072914Q69.425 66.52604 69.12813 67.135414Q68.83125 67.74479 68.19063 68.08854Q67.55 68.447914 66.6125 68.447914Q65.50313 68.447914 64.81563 67.947914Q64.12813 67.447914 64.14375 66.43229ZM65.01875 62.697914Q65.01875 63.916664 65.50313 64.479164Q65.9875 65.041664 66.72188 65.041664Q67.45625 65.041664 67.94063 64.479164Q68.44063 63.916664 68.44063 62.729164Q68.44063 61.58854 67.925 61.010414Q67.425 60.43229 66.70625 60.43229Q66.00313 60.43229 65.50313 61.010414Q65.01875 61.572914 65.01875 62.697914ZM76.925 65.916664L73.59688 57.322914L74.83125 57.322914L77.06563 63.572914Q77.33125 64.322914 77.51875 64.979164Q77.72188 64.27604 77.9875 63.572914L80.3 57.322914L81.45625 57.322914L78.09688 65.916664L76.925 65.916664ZM85.40938 65.15104Q84.81563 65.65104 84.26875 65.854164Q83.7375 66.05729 83.1125 66.05729Q82.08125 66.05729 81.53438 65.55729Q80.9875 65.05729 80.9875 64.27604Q80.9875 63.822914 81.19063 63.447914Q81.39375 63.05729 81.7375 62.83854Q82.08125 62.604164 82.50313 62.49479Q82.8 62.40104 83.44063 62.322914Q84.70625 62.18229 85.31563 61.96354Q85.31563 61.74479 85.31563 61.697914Q85.31563 61.041664 85.01875 60.77604Q84.6125 60.43229 83.81563 60.43229Q83.08125 60.43229 82.72188 60.697914Q82.3625 60.947914 82.19063 61.604164L81.15938 61.46354Q81.3 60.80729 81.62813 60.40104Q81.95625 59.99479 82.56563 59.77604Q83.175 59.55729 83.97188 59.55729Q84.76875 59.55729 85.26875 59.74479Q85.76875 59.93229 86.00313 60.21354Q86.2375 60.49479 86.33125 60.93229Q86.37813 61.197914 86.37813 61.90104L86.37813 63.30729Q86.37813 64.77604 86.44063 65.166664Q86.51875 65.55729 86.72188 65.916664L85.6125 65.916664Q85.45625 65.58854 85.40938 65.15104ZM85.31563 62.791664Q84.7375 63.02604 83.59688 63.197914Q82.94063 63.291664 82.675 63.416664Q82.40938 63.52604 82.25313 63.74479Q82.1125 63.96354 82.1125 64.24479Q82.1125 64.666664 82.425 64.947914Q82.75313 65.229164 83.3625 65.229164Q83.97188 65.229164 84.44063 64.96354Q84.925 64.697914 85.14375 64.229164Q85.31563 63.86979 85.31563 63.18229L85.31563 62.791664ZM92.425 65.916664L92.425 64.99479Q91.69063 66.05729 90.44063 66.05729Q89.89375 66.05729 89.40938 65.854164Q88.94063 65.635414 88.70625 65.322914Q88.47188 64.99479 88.37813 64.52604Q88.31563 64.229164 88.31563 63.541664L88.31563 59.697914L89.37813 59.697914L89.37813 63.15104Q89.37813 63.96354 89.44063 64.260414Q89.53438 64.666664 89.84688 64.916664Q90.175 65.15104 90.65938 65.15104Q91.12813 65.15104 91.53438 64.916664Q91.95625 64.666664 92.12813 64.24479Q92.31563 63.822914 92.31563 63.02604L92.31563 59.697914L93.3625 59.697914L93.3625 65.916664L92.425 65.916664ZM95.31563 65.916664L95.31563 57.322914L96.37813 57.322914L96.37813 65.916664L95.31563 65.916664ZM100.64375 64.979164L100.8 65.90104Q100.34688 65.99479 100.00313 65.99479Q99.425 65.99479 99.1125 65.822914Q98.8 65.635414 98.65938 65.33854Q98.53438 65.041664 98.53438 64.08854L98.53438 60.510414L97.76875 60.510414L97.76875 59.697914L98.53438 59.697914L98.53438 58.15104L99.58125 57.52604L99.58125 59.697914L100.64375 59.697914L100.64375 60.510414L99.58125 60.510414L99.58125 64.15104Q99.58125 64.604164 99.62813 64.729164Q99.69063 64.854164 99.81563 64.93229Q99.94063 65.010414 100.175 65.010414Q100.3625 65.010414 100.64375 64.979164Z" fill-rule="nonzero"/><path fill="#9900ff" d="M30.55 85.916664C30.55 89.23038 27.863708 91.916664 24.55 91.916664C21.236292 91.916664 18.55 89.23038 18.55 85.916664C18.55 82.60296 21.236292 79.916664 24.55 79.916664C27.863708 79.916664 30.55 82.60296 30.55 85.916664Z" fill-rule="nonzero"/><path fill="#1a1a1a" d="M40.4875 89.916664L38.58125 83.697914L39.675 83.697914L40.659374 87.291664L41.034374 88.61979Q41.065624 88.52604 41.3625 87.33854L42.346874 83.697914L43.425 83.697914L44.3625 87.30729L44.675 88.49479L45.034374 87.291664L46.096874 83.697914L47.128124 83.697914L45.175 89.916664L44.08125 89.916664L43.096874 86.18229L42.846874 85.135414L41.596874 89.916664L40.4875 89.916664ZM48.534374 89.916664L48.534374 81.322914L54.33125 81.322914L54.33125 82.33854L49.675 82.33854L49.675 84.99479L53.70625 84.99479L53.70625 86.010414L49.675 86.010414L49.675 89.916664L48.534374 89.916664ZM54.95625 86.80729Q54.95625 85.072914 55.909374 84.24479Q56.70625 83.55729 57.8625 83.55729Q59.14375 83.55729 59.95625 84.40104Q60.784374 85.229164 60.784374 86.71354Q60.784374 87.916664 60.425 88.604164Q60.065624 89.291664 59.3625 89.68229Q58.675 90.05729 57.8625 90.05729Q56.565624 90.05729 55.753124 89.229164Q54.95625 88.385414 54.95625 86.80729ZM56.034374 86.80729Q56.034374 87.99479 56.55 88.58854Q57.08125 89.18229 57.8625 89.18229Q58.659374 89.18229 59.175 88.58854Q59.690624 87.99479 59.690624 86.77604Q59.690624 85.61979 59.159374 85.02604Q58.64375 84.43229 57.8625 84.43229Q57.08125 84.43229 56.55 85.02604Q56.034374 85.604164 56.034374 86.80729ZM62.33125 89.916664L62.33125 83.697914L63.284374 83.697914L63.284374 84.635414Q63.64375 83.979164 63.940624 83.77604Q64.25313 83.55729 64.62813 83.55729Q65.15938 83.55729 65.70625 83.885414L65.34688 84.86979Q64.95625 84.635414 64.58125 84.635414Q64.22188 84.635414 63.940624 84.854164Q63.675 85.05729 63.565624 85.43229Q63.378124 85.99479 63.378124 86.65104L63.378124 89.916664L62.33125 89.916664ZM70.40938 87.635414L71.44063 87.77604Q71.26875 88.83854 70.56563 89.447914Q69.8625 90.05729 68.84688 90.05729Q67.56563 90.05729 66.78438 89.229164Q66.01875 88.385414 66.01875 86.822914Q66.01875 85.822914 66.34688 85.072914Q66.69063 84.30729 67.3625 83.93229Q68.05 83.55729 68.8625 83.55729Q69.8625 83.55729 70.50313 84.072914Q71.15938 84.572914 71.34688 85.52604L70.31563 85.68229Q70.175 85.05729 69.8 84.74479Q69.425 84.416664 68.89375 84.416664Q68.09688 84.416664 67.59688 84.99479Q67.09688 85.55729 67.09688 86.791664Q67.09688 88.05729 67.58125 88.61979Q68.06563 89.18229 68.83125 89.18229Q69.45625 89.18229 69.8625 88.80729Q70.28438 88.43229 70.40938 87.635414ZM76.59688 87.916664L77.69063 88.041664Q77.44063 88.99479 76.7375 89.52604Q76.03438 90.05729 74.95625 90.05729Q73.59688 90.05729 72.78438 89.21354Q71.9875 88.36979 71.9875 86.854164Q71.9875 85.291664 72.8 84.43229Q73.6125 83.55729 74.89375 83.55729Q76.14375 83.55729 76.925 84.40104Q77.72188 85.24479 77.72188 86.791664Q77.72188 86.885414 77.72188 87.072914L73.08125 87.072914Q73.14375 88.104164 73.65938 88.65104Q74.175 89.18229 74.95625 89.18229Q75.53438 89.18229 75.94063 88.885414Q76.3625 88.572914 76.59688 87.916664ZM73.14375 86.21354L76.6125 86.21354Q76.55 85.416664 76.22188 85.02604Q75.70625 84.416664 74.90938 84.416664Q74.175 84.416664 73.675 84.90104Q73.19063 85.385414 73.14375 86.21354ZM84.925 89.916664L81.59688 81.322914L82.83125 81.322914L85.06563 87.572914Q85.33125 88.322914 85.51875 88.979164Q85.72188 88.27604 85.9875 87.572914L88.3 81.322914L89.45625 81.322914L86.09688 89.916664L84.925 89.916664ZM93.40938 89.15104Q92.81563 89.65104 92.26875 89.854164Q91.7375 90.05729 91.1125 90.05729Q90.08125 90.05729 89.53438 89.55729Q88.9875 89.05729 88.9875 88.27604Q88.9875 87.822914 89.19063 87.447914Q89.39375 87.05729 89.7375 86.83854Q90.08125 86.604164 90.50313 86.49479Q90.8 86.40104 91.44063 86.322914Q92.70625 86.18229 93.31563 85.96354Q93.31563 85.74479 93.31563 85.697914Q93.31563 85.041664 93.01875 84.77604Q92.6125 84.43229 91.81563 84.43229Q91.08125 84.43229 90.72188 84.697914Q90.3625 84.947914 90.19063 85.604164L89.15938 85.46354Q89.3 84.80729 89.62813 84.40104Q89.95625 83.99479 90.56563 83.77604Q91.175 83.55729 91.97188 83.55729Q92.76875 83.55729 93.26875 83.74479Q93.76875 83.93229 94.00313 84.21354Q94.2375 84.49479 94.33125 84.93229Q94.37813 85.197914 94.37813 85.90104L94.37813 87.30729Q94.37813 88.77604 94.44063 89.166664Q94.51875 89.55729 94.72188 89.916664L93.6125 89.916664Q93.45625 89.58854 93.40938 89.15104ZM93.31563 86.791664Q92.7375 87.02604 91.59688 87.197914Q90.94063 87.291664 90.675 87.416664Q90.40938 87.52604 90.25313 87.74479Q90.1125 87.96354 90.1125 88.24479Q90.1125 88.666664 90.425 88.947914Q90.75313 89.229164 91.3625 89.229164Q91.97188 89.229164 92.44063 88.96354Q92.925 88.697914 93.14375 88.229164Q93.31563 87.86979 93.31563 87.18229L93.31563 86.791664ZM100.425 89.916664L100.425 88.99479Q99.69063 90.05729 98.44063 90.05729Q97.89375 90.05729 97.40938 89.854164Q96.94063 89.635414 96.70625 89.322914Q96.47188 88.99479 96.37813 88.52604Q96.31563 88.229164 96.31563 87.541664L96.31563 83.697914L97.37813 83.697914L97.37813 87.15104Q97.37813 87.96354 97.44063 88.260414Q97.53438 88.666664 97.84688 88.916664Q98.175 89.15104 98.65938 89.15104Q99.12813 89.15104 99.53438 88.916664Q99.95625 88.666664 100.12813 88.24479Q100.31563 87.822914 100.31563 87.02604L100.31563 83.697914L101.3625 83.697914L101.3625 89.916664L100.425 89.916664ZM103.31563 89.916664L103.31563 81.322914L104.37813 81.322914L104.37813 89.916664L103.31563 89.916664ZM108.64375 88.979164L108.8 89.90104Q108.34688 89.99479 108.00313 89.99479Q107.425 89.99479 107.1125 89.822914Q106.8 89.635414 106.65938 89.33854Q106.53438 89.041664 106.53438 88.08854L106.53438 84.510414L105.76875 84.510414L105.76875 83.697914L106.53438 83.697914L106.53438 82.15104L107.58125 81.52604L107.58125 83.697914L108.64375 83.697914L108.64375 84.510414L107.58125 84.510414L107.58125 88.15104Q107.58125 88.604164 107.62813 88.729164Q107.69063 88.854164 107.81563 88.93229Q107.94063 89.010414 108.175 89.010414Q108.3625 89.010414 108.64375 88.979164Z" fill-rule="nonzero"/><path fill="#00ff00" d="M30.55 109.916664C30.55 113.23038 27.863708 115.916664 24.55 115.916664C21.236292 115.916664 18.55 113.23038 18.55 109.916664C18.55 106.60296 21.236292 103.916664 24.55 103.916664C27.863708 103.916664 30.55 106.60296 30.55 109.916664Z" fill-rule="nonzero"/><path fill="#1a1a1a" d="M43.378124 113.916664L43.378124 113.135414Q42.784374 114.05729 41.64375 114.05729Q40.89375 114.05729 40.26875 113.65104Q39.64375 113.229164 39.3 112.49479Q38.95625 111.760414 38.95625 110.80729Q38.95625 109.885414 39.26875 109.11979Q39.58125 108.354164 40.20625 107.96354Q40.83125 107.55729 41.596874 107.55729Q42.159374 107.55729 42.596874 107.791664Q43.034374 108.02604 43.315624 108.40104L43.315624 105.322914L44.3625 105.322914L44.3625 113.916664L43.378124 113.916664ZM40.05 110.80729Q40.05 112.010414 40.55 112.604164Q41.05 113.18229 41.7375 113.18229Q42.425 113.18229 42.909374 112.61979Q43.39375 112.05729 43.39375 110.90104Q43.39375 109.61979 42.89375 109.02604Q42.409374 108.43229 41.690624 108.43229Q40.9875 108.43229 40.51875 109.010414Q40.05 109.572914 40.05 110.80729ZM50.503124 110.541664L50.503124 109.541664L54.128124 109.52604L54.128124 112.71354Q53.3 113.385414 52.409374 113.729164Q51.51875 114.05729 50.58125 114.05729Q49.315624 114.05729 48.26875 113.52604Q47.2375 112.979164 46.70625 111.96354Q46.190624 110.93229 46.190624 109.666664Q46.190624 108.40104 46.70625 107.322914Q47.2375 106.229164 48.221874 105.71354Q49.20625 105.18229 50.4875 105.18229Q51.425 105.18229 52.175 105.479164Q52.925 105.77604 53.346874 106.322914Q53.784374 106.854164 54.003124 107.729164L52.9875 108.010414Q52.784374 107.354164 52.4875 106.979164Q52.20625 106.604164 51.675 106.385414Q51.14375 106.15104 50.503124 106.15104Q49.721874 106.15104 49.14375 106.385414Q48.58125 106.61979 48.221874 107.010414Q47.878124 107.40104 47.690624 107.86979Q47.3625 108.666664 47.3625 109.58854Q47.3625 110.74479 47.753124 111.52604Q48.159374 112.291664 48.909374 112.666664Q49.659374 113.041664 50.51875 113.041664Q51.253124 113.041664 51.95625 112.760414Q52.659374 112.46354 53.01875 112.15104L53.01875 110.541664L50.503124 110.541664ZM59.425 113.916664L59.425 112.99479Q58.690624 114.05729 57.440624 114.05729Q56.89375 114.05729 56.409374 113.854164Q55.940624 113.635414 55.70625 113.322914Q55.471874 112.99479 55.378124 112.52604Q55.315624 112.229164 55.315624 111.541664L55.315624 107.697914L56.378124 107.697914L56.378124 111.15104Q56.378124 111.96354 56.440624 112.260414Q56.534374 112.666664 56.846874 112.916664Q57.175 113.15104 57.659374 113.15104Q58.128124 113.15104 58.534374 112.916664Q58.95625 112.666664 59.128124 112.24479Q59.315624 111.822914 59.315624 111.02604L59.315624 107.697914L60.3625 107.697914L60.3625 113.916664L59.425 113.916664ZM62.346874 106.541664L62.346874 105.322914L63.409374 105.322914L63.409374 106.541664L62.346874 106.541664ZM62.346874 113.916664L62.346874 107.697914L63.409374 107.697914L63.409374 113.916664L62.346874 113.916664ZM65.31563 113.916664L65.31563 105.322914L66.37813 105.322914L66.37813 113.916664L65.31563 113.916664ZM72.37813 113.916664L72.37813 113.135414Q71.78438 114.05729 70.64375 114.05729Q69.89375 114.05729 69.26875 113.65104Q68.64375 113.229164 68.3 112.49479Q67.95625 111.760414 67.95625 110.80729Q67.95625 109.885414 68.26875 109.11979Q68.58125 108.354164 69.20625 107.96354Q69.83125 107.55729 70.59688 107.55729Q71.15938 107.55729 71.59688 107.791664Q72.03438 108.02604 72.31563 108.40104L72.31563 105.322914L73.3625 105.322914L73.3625 113.916664L72.37813 113.916664ZM69.05 110.80729Q69.05 112.010414 69.55 112.604164Q70.05 113.18229 70.7375 113.18229Q71.425 113.18229 71.90938 112.61979Q72.39375 112.05729 72.39375 110.90104Q72.39375 109.61979 71.89375 109.02604Q71.40938 108.43229 70.69063 108.43229Q69.9875 108.43229 69.51875 109.010414Q69.05 109.572914 69.05 110.80729ZM80.925 113.916664L77.59688 105.322914L78.83125 105.322914L81.06563 111.572914Q81.33125 112.322914 81.51875 112.979164Q81.72188 112.27604 81.9875 111.572914L84.3 105.322914L85.45625 105.322914L82.09688 113.916664L80.925 113.916664ZM89.40938 113.15104Q88.81563 113.65104 88.26875 113.854164Q87.7375 114.05729 87.1125 114.05729Q86.08125 114.05729 85.53438 113.55729Q84.9875 113.05729 84.9875 112.27604Q84.9875 111.822914 85.19063 111.447914Q85.39375 111.05729 85.7375 110.83854Q86.08125 110.604164 86.50313 110.49479Q86.8 110.40104 87.44063 110.322914Q88.70625 110.18229 89.31563 109.96354Q89.31563 109.74479 89.31563 109.697914Q89.31563 109.041664 89.01875 108.77604Q88.6125 108.43229 87.81563 108.43229Q87.08125 108.43229 86.72188 108.697914Q86.3625 108.947914 86.19063 109.604164L85.15938 109.46354Q85.3 108.80729 85.62813 108.40104Q85.95625 107.99479 86.56563 107.77604Q87.175 107.55729 87.97188 107.55729Q88.76875 107.55729 89.26875 107.74479Q89.76875 107.93229 90.00313 108.21354Q90.2375 108.49479 90.33125 108.93229Q90.37813 109.197914 90.37813 109.90104L90.37813 111.30729Q90.37813 112.77604 90.44063 113.166664Q90.51875 113.55729 90.72188 113.916664L89.6125 113.916664Q89.45625 113.58854 89.40938 113.15104ZM89.31563 110.791664Q88.7375 111.02604 87.59688 111.197914Q86.94063 111.291664 86.675 111.416664Q86.40938 111.52604 86.25313 111.74479Q86.1125 111.96354 86.1125 112.24479Q86.1125 112.666664 86.425 112.947914Q86.75313 113.229164 87.3625 113.229164Q87.97188 113.229164 88.44063 112.96354Q88.925 112.697914 89.14375 112.229164Q89.31563 111.86979 89.31563 111.18229L89.31563 110.791664ZM96.425 113.916664L96.425 112.99479Q95.69063 114.05729 94.44063 114.05729Q93.89375 114.05729 93.40938 113.854164Q92.94063 113.635414 92.70625 113.322914Q92.47188 112.99479 92.37813 112.52604Q92.31563 112.229164 92.31563 111.541664L92.31563 107.697914L93.37813 107.697914L93.37813 111.15104Q93.37813 111.96354 93.44063 112.260414Q93.53438 112.666664 93.84688 112.916664Q94.175 113.15104 94.65938 113.15104Q95.12813 113.15104 95.53438 112.916664Q95.95625 112.666664 96.12813 112.24479Q96.31563 111.822914 96.31563 111.02604L96.31563 107.697914L97.3625 107.697914L97.3625 113.916664L96.425 113.916664ZM99.31563 113.916664L99.31563 105.322914L100.37813 105.322914L100.37813 113.916664L99.31563 113.916664ZM104.64375 112.979164L104.8 113.90104Q104.34688 113.99479 104.00313 113.99479Q103.425 113.99479 103.1125 113.822914Q102.8 113.635414 102.65938 113.33854Q102.53438 113.041664 102.53438 112.08854L102.53438 108.510414L101.76875 108.510414L101.76875 107.697914L102.53438 107.697914L102.53438 106.15104L103.58125 105.52604L103.58125 107.697914L104.64375 107.697914L104.64375 108.510414L103.58125 108.510414L103.58125 112.15104Q103.58125 112.604164 103.62813 112.729164Q103.69063 112.854164 103.81563 112.93229Q103.94063 113.010414 104.175 113.010414Q104.3625 113.010414 104.64375 112.979164Z" fill-rule="nonzero"/><path fill="#000000" d="M20.096874 37.55L20.096874 23.2375L25.01875 23.2375Q26.690624 23.2375 27.58125 23.440624Q28.8 23.721874 29.675 24.45625Q30.8 25.425 31.3625 26.909374Q31.925 28.39375 31.925 30.315624Q31.925 31.940624 31.55 33.20625Q31.175 34.45625 30.565624 35.284374Q29.971874 36.1125 29.26875 36.596874Q28.565624 37.065624 27.565624 37.315624Q26.565624 37.55 25.253124 37.55L20.096874 37.55ZM21.9875 35.8625L25.05 35.8625Q26.45625 35.8625 27.253124 35.596874Q28.065624 35.33125 28.55 34.846874Q29.221874 34.175 29.596874 33.05Q29.971874 31.909374 29.971874 30.284374Q29.971874 28.034374 29.2375 26.83125Q28.503124 25.628124 27.440624 25.221874Q26.690624 24.925 25.003124 24.925L21.9875 24.925L21.9875 35.8625ZM33.878124 25.253124L33.878124 23.2375L35.64375 23.2375L35.64375 25.253124L33.878124 25.253124ZM33.878124 37.55L33.878124 27.175L35.64375 27.175L35.64375 37.55L33.878124 37.55ZM37.159374 34.45625L38.909374 34.175Q39.05 35.221874 39.721874 35.784374Q40.39375 36.33125 41.596874 36.33125Q42.8 36.33125 43.378124 35.846874Q43.971874 35.346874 43.971874 34.690624Q43.971874 34.096874 43.45625 33.753124Q43.096874 33.51875 41.659374 33.159374Q39.721874 32.659374 38.971874 32.315624Q38.2375 31.95625 37.846874 31.33125Q37.45625 30.690624 37.45625 29.925Q37.45625 29.2375 37.76875 28.64375Q38.096874 28.05 38.64375 27.659374Q39.05 27.3625 39.753124 27.159374Q40.471874 26.940624 41.284374 26.940624Q42.503124 26.940624 43.425 27.3Q44.346874 27.64375 44.784374 28.253124Q45.221874 28.846874 45.39375 29.846874L43.675 30.08125Q43.55 29.284374 42.9875 28.846874Q42.425 28.39375 41.409374 28.39375Q40.190624 28.39375 39.675 28.8Q39.159374 29.190624 39.159374 29.721874Q39.159374 30.065624 39.378124 30.346874Q39.58125 30.628124 40.05 30.815624Q40.315624 30.909374 41.596874 31.253124Q43.471874 31.753124 44.20625 32.08125Q44.940624 32.39375 45.3625 33.003124Q45.784374 33.596874 45.784374 34.503124Q45.784374 35.378124 45.26875 36.159374Q44.753124 36.940624 43.784374 37.3625Q42.815624 37.784374 41.596874 37.784374Q39.58125 37.784374 38.51875 36.940624Q37.45625 36.096874 37.159374 34.45625ZM51.70625 35.971874L51.95625 37.534374Q51.221874 37.690624 50.628124 37.690624Q49.675 37.690624 49.14375 37.39375Q48.628124 37.08125 48.409374 36.596874Q48.190624 36.096874 48.190624 34.51875L48.190624 28.55L46.909374 28.55L46.909374 27.175L48.190624 27.175L48.190624 24.6125L49.940624 23.55L49.940624 27.175L51.70625 27.175L51.70625 28.55L49.940624 28.55L49.940624 34.6125Q49.940624 35.3625 50.034374 35.58125Q50.128124 35.784374 50.33125 35.925Q50.55 36.05 50.940624 36.05Q51.221874 36.05 51.70625 35.971874ZM53.846874 37.55L53.846874 27.175L55.425 27.175L55.425 28.753124Q56.034374 27.64375 56.55 27.3Q57.065624 26.940624 57.675 26.940624Q58.565624 26.940624 59.4875 27.503124L58.878124 29.14375Q58.2375 28.753124 57.596874 28.753124Q57.01875 28.753124 56.55 29.1125Q56.096874 29.45625 55.89375 30.065624Q55.6125 31.003124 55.6125 32.1125L55.6125 37.55L53.846874 37.55ZM60.878124 25.253124L60.878124 23.2375L62.64375 23.2375L62.64375 25.253124L60.878124 25.253124ZM60.878124 37.55L60.878124 27.175L62.64375 27.175L62.64375 37.55L60.878124 37.55ZM66.4875 37.55L64.8625 37.55L64.8625 23.2375L66.6125 23.2375L66.6125 28.346874Q67.7375 26.940624 69.45625 26.940624Q70.40938 26.940624 71.26875 27.33125Q72.12813 27.721874 72.675 28.425Q73.22188 29.1125 73.53438 30.096874Q73.84688 31.08125 73.84688 32.20625Q73.84688 34.878124 72.53438 36.33125Q71.22188 37.784374 69.37813 37.784374Q67.53438 37.784374 66.4875 36.253124L66.4875 37.55ZM66.47188 32.284374Q66.47188 34.14375 66.97188 34.9875Q67.81563 36.33125 69.22188 36.33125Q70.37813 36.33125 71.20625 35.33125Q72.05 34.33125 72.05 32.346874Q72.05 30.315624 71.2375 29.3625Q70.44063 28.39375 69.3 28.39375Q68.14375 28.39375 67.3 29.39375Q66.47188 30.39375 66.47188 32.284374ZM82.65938 37.55L82.65938 36.01875Q81.45625 37.784374 79.37813 37.784374Q78.45625 37.784374 77.65938 37.440624Q76.8625 37.08125 76.47188 36.55Q76.09688 36.01875 75.94063 35.2375Q75.83125 34.721874 75.83125 33.596874L75.83125 27.175L77.58125 27.175L77.58125 32.925Q77.58125 34.3 77.69063 34.784374Q77.8625 35.471874 78.39375 35.878124Q78.94063 36.26875 79.72188 36.26875Q80.51875 36.26875 81.20625 35.8625Q81.90938 35.45625 82.19063 34.76875Q82.4875 34.065624 82.4875 32.7375L82.4875 27.175L84.2375 27.175L84.2375 37.55L82.65938 37.55ZM89.70625 35.971874L89.95625 37.534374Q89.22188 37.690624 88.62813 37.690624Q87.675 37.690624 87.14375 37.39375Q86.62813 37.08125 86.40938 36.596874Q86.19063 36.096874 86.19063 34.51875L86.19063 28.55L84.90938 28.55L84.90938 27.175L86.19063 27.175L86.19063 24.6125L87.94063 23.55L87.94063 27.175L89.70625 27.175L89.70625 28.55L87.94063 28.55L87.94063 34.6125Q87.94063 35.3625 88.03438 35.58125Q88.12813 35.784374 88.33125 35.925Q88.55 36.05 88.94063 36.05Q89.22188 36.05 89.70625 35.971874ZM91.87813 25.253124L91.87813 23.2375L93.64375 23.2375L93.64375 25.253124L91.87813 25.253124ZM91.87813 37.55L91.87813 27.175L93.64375 27.175L93.64375 37.55L91.87813 37.55ZM95.22188 32.3625Q95.22188 29.4875 96.81563 28.096874Q98.15938 26.940624 100.08125 26.940624Q102.22188 26.940624 103.56563 28.346874Q104.925 29.753124 104.925 32.221874Q104.925 34.221874 104.33125 35.378124Q103.7375 36.51875 102.58125 37.159374Q101.44063 37.784374 100.08125 37.784374Q97.89375 37.784374 96.55 36.39375Q95.22188 34.9875 95.22188 32.3625ZM97.01875 32.3625Q97.01875 34.3625 97.87813 35.346874Q98.75313 36.33125 100.08125 36.33125Q101.39375 36.33125 102.25313 35.346874Q103.12813 34.346874 103.12813 32.3Q103.12813 30.378124 102.25313 29.39375Q101.37813 28.39375 100.08125 28.39375Q98.75313 28.39375 97.87813 29.39375Q97.01875 30.378124 97.01875 32.3625ZM106.8625 37.55L106.8625 27.175L108.45625 27.175L108.45625 28.659374Q109.59688 26.940624 111.75313 26.940624Q112.69063 26.940624 113.47188 27.284374Q114.26875 27.6125 114.65938 28.159374Q115.05 28.70625 115.20625 29.45625Q115.3 29.95625 115.3 31.175L115.3 37.55L113.53438 37.55L113.53438 31.2375Q113.53438 30.159374 113.33125 29.628124Q113.12813 29.096874 112.59688 28.784374Q112.08125 28.471874 111.37813 28.471874Q110.25313 28.471874 109.44063 29.190624Q108.62813 29.89375 108.62813 31.878124L108.62813 37.55L106.8625 37.55ZM123.28438 37.55L123.28438 28.55L121.7375 28.55L121.7375 27.175L123.28438 27.175L123.28438 26.08125Q123.28438 25.034374 123.47188 24.51875Q123.72188 23.83125 124.3625 23.409374Q125.00313 22.9875 126.15938 22.9875Q126.90938 22.9875 127.8 23.159374L127.53438 24.690624Q126.9875 24.596874 126.50313 24.596874Q125.70625 24.596874 125.3625 24.940624Q125.03438 25.284374 125.03438 26.221874L125.03438 27.175L127.06563 27.175L127.06563 28.55L125.03438 28.55L125.03438 37.55L123.28438 37.55ZM128.84688 37.55L128.84688 27.175L130.425 27.175L130.425 28.753124Q131.03438 27.64375 131.55 27.3Q132.06563 26.940624 132.675 26.940624Q133.56563 26.940624 134.4875 27.503124L133.87813 29.14375Q133.2375 28.753124 132.59688 28.753124Q132.01875 28.753124 131.55 29.1125Q131.09688 29.45625 130.89375 30.065624Q130.6125 31.003124 130.6125 32.1125L130.6125 37.55L128.84688 37.55ZM135.22188 32.3625Q135.22188 29.4875 136.81563 28.096874Q138.15938 26.940624 140.08125 26.940624Q142.22188 26.940624 143.56563 28.346874Q144.925 29.753124 144.925 32.221874Q144.925 34.221874 144.33125 35.378124Q143.7375 36.51875 142.58125 37.159374Q141.44063 37.784374 140.08125 37.784374Q137.89375 37.784374 136.55 36.39375Q135.22188 34.9875 135.22188 32.3625ZM137.01875 32.3625Q137.01875 34.3625 137.87813 35.346874Q138.75313 36.33125 140.08125 36.33125Q141.39375 36.33125 142.25313 35.346874Q143.12813 34.346874 143.12813 32.3Q143.12813 30.378124 142.25313 29.39375Q141.37813 28.39375 140.08125 28.39375Q138.75313 28.39375 137.87813 29.39375Q137.01875 30.378124 137.01875 32.3625ZM146.8625 37.55L146.8625 27.175L148.44063 27.175L148.44063 28.628124Q148.925 27.878124 149.7375 27.409374Q150.55 26.940624 151.58125 26.940624Q152.7375 26.940624 153.47188 27.425Q154.20625 27.89375 154.51875 28.753124Q155.75313 26.940624 157.72188 26.940624Q159.26875 26.940624 160.09688 27.8Q160.925 28.659374 160.925 30.425L160.925 37.55L159.175 37.55L159.175 31.01875Q159.175 29.95625 159.00313 29.503124Q158.83125 29.034374 158.37813 28.753124Q157.94063 28.471874 157.33125 28.471874Q156.2375 28.471874 155.50313 29.20625Q154.78438 29.925 154.78438 31.51875L154.78438 37.55L153.03438 37.55L153.03438 30.815624Q153.03438 29.64375 152.59688 29.065624Q152.175 28.471874 151.19063 28.471874Q150.45625 28.471874 149.81563 28.8625Q149.19063 29.253124 148.90938 30.003124Q148.62813 30.753124 148.62813 32.175L148.62813 37.55L146.8625 37.55ZM169.12813 37.55L169.12813 23.2375L179.4875 23.2375L179.4875 24.925L171.03438 24.925L171.03438 29.3L178.94063 29.3L178.94063 30.9875L171.03438 30.9875L171.03438 35.8625L179.81563 35.8625L179.81563 37.55L169.12813 37.55ZM188.64375 33.753124L190.3625 33.971874Q190.08125 35.76875 188.90938 36.784374Q187.75313 37.784374 186.05 37.784374Q183.925 37.784374 182.62813 36.39375Q181.33125 35.003124 181.33125 32.409374Q181.33125 30.721874 181.87813 29.471874Q182.44063 28.20625 183.58125 27.58125Q184.72188 26.940624 186.06563 26.940624Q187.75313 26.940624 188.81563 27.8Q189.89375 28.659374 190.20625 30.221874L188.4875 30.4875Q188.25313 29.440624 187.62813 28.925Q187.00313 28.39375 186.12813 28.39375Q184.8 28.39375 183.97188 29.346874Q183.14375 30.3 183.14375 32.346874Q183.14375 34.440624 183.94063 35.39375Q184.7375 36.33125 186.03438 36.33125Q187.06563 36.33125 187.75313 35.70625Q188.45625 35.065624 188.64375 33.753124ZM191.22188 32.3625Q191.22188 29.4875 192.81563 28.096874Q194.15938 26.940624 196.08125 26.940624Q198.22188 26.940624 199.56563 28.346874Q200.925 29.753124 200.925 32.221874Q200.925 34.221874 200.33125 35.378124Q199.7375 36.51875 198.58125 37.159374Q197.44063 37.784374 196.08125 37.784374Q193.89375 37.784374 192.55 36.39375Q191.22188 34.9875 191.22188 32.3625ZM193.01875 32.3625Q193.01875 34.3625 193.87813 35.346874Q194.75313 36.33125 196.08125 36.33125Q197.39375 36.33125 198.25313 35.346874Q199.12813 34.346874 199.12813 32.3Q199.12813 30.378124 198.25313 29.39375Q197.37813 28.39375 196.08125 28.39375Q194.75313 28.39375 193.87813 29.39375Q193.01875 30.378124 193.01875 32.3625ZM202.15938 34.45625L203.90938 34.175Q204.05 35.221874 204.72188 35.784374Q205.39375 36.33125 206.59688 36.33125Q207.8 36.33125 208.37813 35.846874Q208.97188 35.346874 208.97188 34.690624Q208.97188 34.096874 208.45625 33.753124Q208.09688 33.51875 206.65938 33.159374Q204.72188 32.659374 203.97188 32.315624Q203.2375 31.95625 202.84688 31.33125Q202.45625 30.690624 202.45625 29.925Q202.45625 29.2375 202.76875 28.64375Q203.09688 28.05 203.64375 27.659374Q204.05 27.3625 204.75313 27.159374Q205.47188 26.940624 206.28438 26.940624Q207.50313 26.940624 208.425 27.3Q209.34688 27.64375 209.78438 28.253124Q210.22188 28.846874 210.39375 29.846874L208.675 30.08125Q208.55 29.284374 207.9875 28.846874Q207.425 28.39375 206.40938 28.39375Q205.19063 28.39375 204.675 28.8Q204.15938 29.190624 204.15938 29.721874Q204.15938 30.065624 204.37813 30.346874Q204.58125 30.628124 205.05 30.815624Q205.31563 30.909374 206.59688 31.253124Q208.47188 31.753124 209.20625 32.08125Q209.94063 32.39375 210.3625 33.003124Q210.78438 33.596874 210.78438 34.503124Q210.78438 35.378124 210.26875 36.159374Q209.75313 36.940624 208.78438 37.3625Q207.81563 37.784374 206.59688 37.784374Q204.58125 37.784374 203.51875 36.940624Q202.45625 36.096874 202.15938 34.45625ZM212.78438 41.55L212.59688 39.89375Q213.175 40.05 213.59688 40.05Q214.19063 40.05 214.53438 39.846874Q214.89375 39.659374 215.1125 39.315624Q215.28438 39.05 215.65938 38.003124Q215.70625 37.846874 215.81563 37.565624L211.87813 27.175L213.76875 27.175L215.925 33.190624Q216.34688 34.33125 216.675 35.58125Q216.9875 34.378124 217.39375 33.221874L219.6125 27.175L221.37813 27.175L217.425 37.721874Q216.8 39.440624 216.44063 40.08125Q215.97188 40.95625 215.3625 41.346874Q214.76875 41.753124 213.925 41.753124Q213.40938 41.753124 212.78438 41.55ZM222.15938 34.45625L223.90938 34.175Q224.05 35.221874 224.72188 35.784374Q225.39375 36.33125 226.59688 36.33125Q227.8 36.33125 228.37813 35.846874Q228.97188 35.346874 228.97188 34.690624Q228.97188 34.096874 228.45625 33.753124Q228.09688 33.51875 226.65938 33.159374Q224.72188 32.659374 223.97188 32.315624Q223.2375 31.95625 222.84688 31.33125Q222.45625 30.690624 222.45625 29.925Q222.45625 29.2375 222.76875 28.64375Q223.09688 28.05 223.64375 27.659374Q224.05 27.3625 224.75313 27.159374Q225.47188 26.940624 226.28438 26.940624Q227.50313 26.940624 228.425 27.3Q229.34688 27.64375 229.78438 28.253124Q230.22188 28.846874 230.39375 29.846874L228.675 30.08125Q228.55 29.284374 227.9875 28.846874Q227.425 28.39375 226.40938 28.39375Q225.19063 28.39375 224.675 28.8Q224.15938 29.190624 224.15938 29.721874Q224.15938 30.065624 224.37813 30.346874Q224.58125 30.628124 225.05 30.815624Q225.31563 30.909374 226.59688 31.253124Q228.47188 31.753124 229.20625 32.08125Q229.94063 32.39375 230.3625 33.003124Q230.78438 33.596874 230.78438 34.503124Q230.78438 35.378124 230.26875 36.159374Q229.75313 36.940624 228.78438 37.3625Q227.81563 37.784374 226.59688 37.784374Q224.58125 37.784374 223.51875 36.940624Q222.45625 36.096874 222.15938 34.45625ZM236.70625 35.971874L236.95625 37.534374Q236.22188 37.690624 235.62813 37.690624Q234.675 37.690624 234.14375 37.39375Q233.62813 37.08125 233.40938 36.596874Q233.19063 36.096874 233.19063 34.51875L233.19063 28.55L231.90938 28.55L231.90938 27.175L233.19063 27.175L233.19063 24.6125L234.94063 23.55L234.94063 27.175L236.70625 27.175L236.70625 28.55L234.94063 28.55L234.94063 34.6125Q234.94063 35.3625 235.03438 35.58125Q235.12813 35.784374 235.33125 35.925Q235.55 36.05 235.94063 36.05Q236.22188 36.05 236.70625 35.971874ZM245.97188 34.20625L247.78438 34.440624Q247.3625 36.01875 246.19063 36.909374Q245.03438 37.784374 243.22188 37.784374Q240.95625 37.784374 239.6125 36.39375Q238.28438 34.9875 238.28438 32.45625Q238.28438 29.83125 239.62813 28.39375Q240.97188 26.940624 243.12813 26.940624Q245.20625 26.940624 246.51875 28.3625Q247.84688 29.76875 247.84688 32.346874Q247.84688 32.503124 247.83125 32.815624L240.09688 32.815624Q240.19063 34.51875 241.06563 35.425Q241.94063 36.33125 243.2375 36.33125Q244.20625 36.33125 244.87813 35.83125Q245.56563 35.315624 245.97188 34.20625ZM240.19063 31.3625L245.9875 31.3625Q245.87813 30.065624 245.33125 29.409374Q244.4875 28.39375 243.14375 28.39375Q241.94063 28.39375 241.1125 29.20625Q240.28438 30.003124 240.19063 31.3625ZM249.8625 37.55L249.8625 27.175L251.44063 27.175L251.44063 28.628124Q251.925 27.878124 252.7375 27.409374Q253.55 26.940624 254.58125 26.940624Q255.7375 26.940624 256.47186 27.425Q257.20624 27.89375 257.51874 28.753124Q258.7531 26.940624 260.72186 26.940624Q262.26874 26.940624 263.09686 27.8Q263.925 28.659374 263.925 30.425L263.925 37.55L262.175 37.55L262.175 31.01875Q262.175 29.95625 262.0031 29.503124Q261.83124 29.034374 261.3781 28.753124Q260.9406 28.471874 260.33124 28.471874Q259.2375 28.471874 258.5031 29.20625Q257.78436 29.925 257.78436 31.51875L257.78436 37.55L256.03436 37.55L256.03436 30.815624Q256.03436 29.64375 255.59688 29.065624Q255.175 28.471874 254.19063 28.471874Q253.45625 28.471874 252.81563 28.8625Q252.19063 29.253124 251.90938 30.003124Q251.62813 30.753124 251.62813 32.175L251.62813 37.55L249.8625 37.55Z" fill-rule="nonzero"/></svg>