<svg version="1.1" viewBox="0.0 0.0 600.0 371.0" fill="none" stroke="none" stroke-linecap="square" stroke-miterlimit="10" width="600" height="371" xmlns:xlink="http://www.w3.org/1999/xlink" xmlns="http://www.w3.org/2000/svg"><path fill="#ffffff" d="M0 0L600.0 0L600.0 371.0L0 371.0L0 0Z" fill-rule="nonzero"/><path fill="#9900ff" d="M389.98398 54.919598C390.29526 54.917645 390.6065 54.916668 390.9178 54.916668L390.9178 129.3C390.76215 129.3 390.6065 129.30049 390.4509 129.30147Z" fill-rule="nonzero"/><path fill="#0000ff" d="M390.9178 54.916668C472.9882 54.916668 539.5555 121.37958 539.68427 203.44989C539.81305 285.5202 473.45468 352.19168 391.38467 352.44928C309.31467 352.70685 242.53912 286.4532 242.15276 204.38368C241.7664 122.31418 307.9152 55.434742 389.98398 54.919598L390.4509 129.30147C349.41647 129.55904 316.3421 162.99875 316.53528 204.03351C316.72845 245.06825 350.1162 278.1951 391.1512 278.0663C432.18622 277.9375 465.36542 244.60176 465.30103 203.5666C465.23663 162.53145 431.95297 129.3 390.9178 129.3Z" fill-rule="nonzero"/><path fill="#000000" d="M378.5198 330.80768L377.28543 330.80768L377.28543 322.96393Q376.84793 323.3858 376.11356 323.8233Q375.3948 324.24518 374.8323 324.4483L374.8323 323.2608Q375.86356 322.77643 376.62918 322.08893Q377.41043 321.40143 377.72293 320.74518L378.5198 320.74518L378.5198 330.80768ZM381.87918 325.87018Q381.87918 324.08893 382.23856 323.0108Q382.61356 321.91705 383.3323 321.33893Q384.05106 320.74518 385.1448 320.74518Q385.9573 320.74518 386.56668 321.0733Q387.17606 321.40143 387.56668 322.0108Q387.97293 322.62018 388.19168 323.49518Q388.41043 324.37018 388.41043 325.87018Q388.41043 327.6358 388.05106 328.71393Q387.69168 329.79205 386.97293 330.3858Q386.25418 330.97955 385.1448 330.97955Q383.7073 330.97955 382.87918 329.93268Q381.87918 328.68268 381.87918 325.87018ZM383.1448 325.87018Q383.1448 328.33893 383.72293 329.15143Q384.30106 329.96393 385.1448 329.96393Q386.00418 329.96393 386.5823 329.15143Q387.16043 328.3233 387.16043 325.87018Q387.16043 323.3858 386.5823 322.5733Q386.00418 321.7608 385.12918 321.7608Q384.28543 321.7608 383.78543 322.47955Q383.1448 323.40143 383.1448 325.87018ZM389.87918 325.87018Q389.87918 324.08893 390.23856 323.0108Q390.61356 321.91705 391.3323 321.33893Q392.05106 320.74518 393.1448 320.74518Q393.9573 320.74518 394.56668 321.0733Q395.17606 321.40143 395.56668 322.0108Q395.97293 322.62018 396.19168 323.49518Q396.41043 324.37018 396.41043 325.87018Q396.41043 327.6358 396.05106 328.71393Q395.69168 329.79205 394.97293 330.3858Q394.25418 330.97955 393.1448 330.97955Q391.7073 330.97955 390.87918 329.93268Q389.87918 328.68268 389.87918 325.87018ZM391.1448 325.87018Q391.1448 328.33893 391.72293 329.15143Q392.30106 329.96393 393.1448 329.96393Q394.00418 329.96393 394.5823 329.15143Q395.16043 328.3233 395.16043 325.87018Q395.16043 323.3858 394.5823 322.5733Q394.00418 321.7608 393.12918 321.7608Q392.28543 321.7608 391.78543 322.47955Q391.1448 323.40143 391.1448 325.87018ZM398.11356 323.1983Q398.11356 322.12018 398.6448 321.37018Q399.19168 320.62018 400.22293 320.62018Q401.16043 320.62018 401.7698 321.29205Q402.3948 321.96393 402.3948 323.2608Q402.3948 324.54205 401.7698 325.22955Q401.1448 325.91705 400.23856 325.91705Q399.3323 325.91705 398.72293 325.24518Q398.11356 324.55768 398.11356 323.1983ZM400.25418 321.46393Q399.80106 321.46393 399.48856 321.87018Q399.19168 322.2608 399.19168 323.30768Q399.19168 324.27643 399.48856 324.66705Q399.80106 325.05768 400.25418 325.05768Q400.72293 325.05768 401.0198 324.66705Q401.3323 324.27643 401.3323 323.21393Q401.3323 322.24518 401.0198 321.85455Q400.7073 321.46393 400.25418 321.46393ZM400.25418 331.18268L405.73856 320.62018L406.73856 320.62018L401.28543 331.18268L400.25418 331.18268ZM404.59793 328.4483Q404.59793 327.37018 405.12918 326.6358Q405.67606 325.8858 406.7073 325.8858Q407.6448 325.8858 408.2698 326.55768Q408.8948 327.22955 408.8948 328.52643Q408.8948 329.80768 408.2698 330.49518Q407.6448 331.18268 406.7073 331.18268Q405.80106 331.18268 405.19168 330.5108Q404.59793 329.8233 404.59793 328.4483ZM406.73856 326.72955Q406.2698 326.72955 405.97293 327.1358Q405.67606 327.52643 405.67606 328.5733Q405.67606 329.54205 405.97293 329.93268Q406.28543 330.3233 406.73856 330.3233Q407.2073 330.3233 407.50418 329.93268Q407.81668 329.54205 407.81668 328.47955Q407.81668 327.5108 407.50418 327.12018Q407.2073 326.72955 406.73856 326.72955Z" fill-rule="nonzero"/><path fill="#0000ff" d="M30.55 61.916668C30.55 65.23038 27.863708 67.916664 24.55 67.916664C21.236292 67.916664 18.55 65.23038 18.55 61.916668C18.55 58.60296 21.236292 55.916668 24.55 55.916668C27.863708 55.916668 30.55 58.60296 30.55 61.916668Z" fill-rule="nonzero"/><path fill="#1a1a1a" d="M39.675 65.916664L39.675 57.322914L40.8 57.322914L40.8 65.916664L39.675 65.916664ZM42.346874 65.916664L42.346874 59.697914L43.284374 59.697914L43.284374 60.572914Q43.971874 59.55729 45.26875 59.55729Q45.83125 59.55729 46.3 59.760414Q46.784374 59.96354 47.01875 60.291664Q47.253124 60.61979 47.346874 61.05729Q47.39375 61.354164 47.39375 62.08854L47.39375 65.916664L46.346874 65.916664L46.346874 62.135414Q46.346874 61.479164 46.221874 61.166664Q46.096874 60.854164 45.784374 60.666664Q45.471874 60.46354 45.05 60.46354Q44.378124 60.46354 43.878124 60.90104Q43.39375 61.322914 43.39375 62.510414L43.39375 65.916664L42.346874 65.916664ZM51.065624 65.916664L48.70625 59.697914L49.815624 59.697914L51.159374 63.416664Q51.3625 64.02604 51.55 64.666664Q51.690624 64.18229 51.940624 63.49479L53.33125 59.697914L54.409374 59.697914L52.05 65.916664L51.065624 65.916664ZM58.596874 63.916664L59.690624 64.041664Q59.440624 64.99479 58.7375 65.52604Q58.034374 66.05729 56.95625 66.05729Q55.596874 66.05729 54.784374 65.21354Q53.9875 64.36979 53.9875 62.854164Q53.9875 61.291664 54.8 60.43229Q55.6125 59.55729 56.89375 59.55729Q58.14375 59.55729 58.925 60.40104Q59.721874 61.24479 59.721874 62.791664Q59.721874 62.885414 59.721874 63.072914L55.08125 63.072914Q55.14375 64.104164 55.659374 64.65104Q56.175 65.18229 56.95625 65.18229Q57.534374 65.18229 57.940624 64.885414Q58.3625 64.572914 58.596874 63.916664ZM55.14375 62.21354L58.6125 62.21354Q58.55 61.416664 58.221874 61.02604Q57.70625 60.416664 56.909374 60.416664Q56.175 60.416664 55.675 60.90104Q55.190624 61.385414 55.14375 62.21354ZM60.925 64.05729L61.95625 63.90104Q62.05 64.52604 62.440624 64.854164Q62.846874 65.18229 63.58125 65.18229Q64.3 65.18229 64.64375 64.90104Q65.00313 64.604164 65.00313 64.197914Q65.00313 63.83854 64.69063 63.635414Q64.47188 63.49479 63.6125 63.27604Q62.45625 62.979164 62.003124 62.77604Q61.565624 62.55729 61.33125 62.18229Q61.096874 61.80729 61.096874 61.33854Q61.096874 60.93229 61.284374 60.572914Q61.471874 60.21354 61.8 59.979164Q62.05 59.80729 62.471874 59.68229Q62.89375 59.55729 63.39375 59.55729Q64.1125 59.55729 64.65938 59.77604Q65.22188 59.979164 65.4875 60.33854Q65.75313 60.697914 65.84688 61.291664L64.81563 61.43229Q64.75313 60.96354 64.40938 60.697914Q64.08125 60.416664 63.45625 60.416664Q62.7375 60.416664 62.425 60.666664Q62.1125 60.90104 62.1125 61.229164Q62.1125 61.43229 62.2375 61.58854Q62.378124 61.760414 62.64375 61.86979Q62.8 61.93229 63.58125 62.135414Q64.70625 62.447914 65.14375 62.635414Q65.58125 62.822914 65.83125 63.18229Q66.08125 63.541664 66.08125 64.08854Q66.08125 64.61979 65.76875 65.08854Q65.47188 65.541664 64.89375 65.80729Q64.31563 66.05729 63.58125 66.05729Q62.3625 66.05729 61.721874 65.55729Q61.096874 65.041664 60.925 64.05729ZM70.64375 64.979164L70.8 65.90104Q70.34688 65.99479 70.00313 65.99479Q69.425 65.99479 69.1125 65.822914Q68.8 65.635414 68.65938 65.33854Q68.53438 65.041664 68.53438 64.08854L68.53438 60.510414L67.76875 60.510414L67.76875 59.697914L68.53438 59.697914L68.53438 58.15104L69.58125 57.52604L69.58125 59.697914L70.64375 59.697914L70.64375 60.510414L69.58125 60.510414L69.58125 64.15104Q69.58125 64.604164 69.62813 64.729164Q69.69063 64.854164 69.81563 64.93229Q69.94063 65.010414 70.175 65.010414Q70.3625 65.010414 70.64375 64.979164ZM70.95625 62.80729Q70.95625 61.072914 71.90938 60.24479Q72.70625 59.55729 73.8625 59.55729Q75.14375 59.55729 75.95625 60.40104Q76.78438 61.229164 76.78438 62.71354Q76.78438 63.916664 76.425 64.604164Q76.06563 65.291664 75.3625 65.68229Q74.675 66.05729 73.8625 66.05729Q72.56563 66.05729 71.75313 65.229164Q70.95625 64.385414 70.95625 62.80729ZM72.03438 62.80729Q72.03438 63.99479 72.55 64.58854Q73.08125 65.18229 73.8625 65.18229Q74.65938 65.18229 75.175 64.58854Q75.69063 63.99479 75.69063 62.77604Q75.69063 61.61979 75.15938 61.02604Q74.64375 60.43229 73.8625 60.43229Q73.08125 60.43229 72.55 61.02604Q72.03438 61.604164 72.03438 62.80729ZM78.33125 65.916664L78.33125 59.697914L79.28438 59.697914L79.28438 60.635414Q79.64375 59.979164 79.94063 59.77604Q80.25313 59.55729 80.62813 59.55729Q81.15938 59.55729 81.70625 59.885414L81.34688 60.86979Q80.95625 60.635414 80.58125 60.635414Q80.22188 60.635414 79.94063 60.854164Q79.675 61.05729 79.56563 61.43229Q79.37813 61.99479 79.37813 62.65104L79.37813 65.916664L78.33125 65.916664ZM81.925 64.05729L82.95625 63.90104Q83.05 64.52604 83.44063 64.854164Q83.84688 65.18229 84.58125 65.18229Q85.3 65.18229 85.64375 64.90104Q86.00313 64.604164 86.00313 64.197914Q86.00313 63.83854 85.69063 63.635414Q85.47188 63.49479 84.6125 63.27604Q83.45625 62.979164 83.00313 62.77604Q82.56563 62.55729 82.33125 62.18229Q82.09688 61.80729 82.09688 61.33854Q82.09688 60.93229 82.28438 60.572914Q82.47188 60.21354 82.8 59.979164Q83.05 59.80729 83.47188 59.68229Q83.89375 59.55729 84.39375 59.55729Q85.1125 59.55729 85.65938 59.77604Q86.22188 59.979164 86.4875 60.33854Q86.75313 60.697914 86.84688 61.291664L85.81563 61.43229Q85.75313 60.96354 85.40938 60.697914Q85.08125 60.416664 84.45625 60.416664Q83.7375 60.416664 83.425 60.666664Q83.1125 60.90104 83.1125 61.229164Q83.1125 61.43229 83.2375 61.58854Q83.37813 61.760414 83.64375 61.86979Q83.8 61.93229 84.58125 62.135414Q85.70625 62.447914 86.14375 62.635414Q86.58125 62.822914 86.83125 63.18229Q87.08125 63.541664 87.08125 64.08854Q87.08125 64.61979 86.76875 65.08854Q86.47188 65.541664 85.89375 65.80729Q85.31563 66.05729 84.58125 66.05729Q83.3625 66.05729 82.72188 65.55729Q82.09688 65.041664 81.925 64.05729ZM96.40938 65.15104Q95.81563 65.65104 95.26875 65.854164Q94.7375 66.05729 94.1125 66.05729Q93.08125 66.05729 92.53438 65.55729Q91.9875 65.05729 91.9875 64.27604Q91.9875 63.822914 92.19063 63.447914Q92.39375 63.05729 92.7375 62.83854Q93.08125 62.604164 93.50313 62.49479Q93.8 62.40104 94.44063 62.322914Q95.70625 62.18229 96.31563 61.96354Q96.31563 61.74479 96.31563 61.697914Q96.31563 61.041664 96.01875 60.77604Q95.6125 60.43229 94.81563 60.43229Q94.08125 60.43229 93.72188 60.697914Q93.3625 60.947914 93.19063 61.604164L92.15938 61.46354Q92.3 60.80729 92.62813 60.40104Q92.95625 59.99479 93.56563 59.77604Q94.175 59.55729 94.97188 59.55729Q95.76875 59.55729 96.26875 59.74479Q96.76875 59.93229 97.00313 60.21354Q97.2375 60.49479 97.33125 60.93229Q97.37813 61.197914 97.37813 61.90104L97.37813 63.30729Q97.37813 64.77604 97.44063 65.166664Q97.51875 65.55729 97.72188 65.916664L96.6125 65.916664Q96.45625 65.58854 96.40938 65.15104ZM96.31563 62.791664Q95.7375 63.02604 94.59688 63.197914Q93.94063 63.291664 93.675 63.416664Q93.40938 63.52604 93.25313 63.74479Q93.1125 63.96354 93.1125 64.24479Q93.1125 64.666664 93.425 64.947914Q93.75313 65.229164 94.3625 65.229164Q94.97188 65.229164 95.44063 64.96354Q95.925 64.697914 96.14375 64.229164Q96.31563 63.86979 96.31563 63.18229L96.31563 62.791664ZM99.34688 65.916664L99.34688 59.697914L100.28438 59.697914L100.28438 60.572914Q100.97188 59.55729 102.26875 59.55729Q102.83125 59.55729 103.3 59.760414Q103.78438 59.96354 104.01875 60.291664Q104.25313 60.61979 104.34688 61.05729Q104.39375 61.354164 104.39375 62.08854L104.39375 65.916664L103.34688 65.916664L103.34688 62.135414Q103.34688 61.479164 103.22188 61.166664Q103.09688 60.854164 102.78438 60.666664Q102.47188 60.46354 102.05 60.46354Q101.37813 60.46354 100.87813 60.90104Q100.39375 61.322914 100.39375 62.510414L100.39375 65.916664L99.34688 65.916664ZM110.37813 65.916664L110.37813 65.135414Q109.78438 66.05729 108.64375 66.05729Q107.89375 66.05729 107.26875 65.65104Q106.64375 65.229164 106.3 64.49479Q105.95625 63.760414 105.95625 62.80729Q105.95625 61.885414 106.26875 61.11979Q106.58125 60.354164 107.20625 59.96354Q107.83125 59.55729 108.59688 59.55729Q109.15938 59.55729 109.59688 59.791664Q110.03438 60.02604 110.31563 60.40104L110.31563 57.322914L111.3625 57.322914L111.3625 65.916664L110.37813 65.916664ZM107.05 62.80729Q107.05 64.010414 107.55 64.604164Q108.05 65.18229 108.7375 65.18229Q109.425 65.18229 109.90938 64.61979Q110.39375 64.05729 110.39375 62.90104Q110.39375 61.61979 109.89375 61.02604Q109.40938 60.43229 108.69063 60.43229Q107.9875 60.43229 107.51875 61.010414Q107.05 61.572914 107.05 62.80729ZM116.47188 65.916664L116.47188 57.322914L119.72188 57.322914Q120.56563 57.322914 121.01875 57.40104Q121.65938 57.510414 122.08125 57.80729Q122.51875 58.104164 122.76875 58.635414Q123.03438 59.166664 123.03438 59.80729Q123.03438 60.90104 122.33125 61.666664Q121.64375 62.416664 119.81563 62.416664L117.6125 62.416664L117.6125 65.916664L116.47188 65.916664ZM117.6125 61.416664L119.83125 61.416664Q120.94063 61.416664 121.39375 61.010414Q121.8625 60.58854 121.8625 59.83854Q121.8625 59.30729 121.58125 58.93229Q121.31563 58.541664 120.87813 58.416664Q120.58125 58.33854 119.81563 58.33854L117.6125 58.33854L117.6125 61.416664ZM128.40938 65.15104Q127.81563 65.65104 127.26875 65.854164Q126.7375 66.05729 126.1125 66.05729Q125.08125 66.05729 124.53438 65.55729Q123.9875 65.05729 123.9875 64.27604Q123.9875 63.822914 124.19063 63.447914Q124.39375 63.05729 124.7375 62.83854Q125.08125 62.604164 125.50313 62.49479Q125.8 62.40104 126.44063 62.322914Q127.70625 62.18229 128.31563 61.96354Q128.31563 61.74479 128.31563 61.697914Q128.31563 61.041664 128.01875 60.77604Q127.6125 60.43229 126.81563 60.43229Q126.08125 60.43229 125.72188 60.697914Q125.3625 60.947914 125.19063 61.604164L124.15938 61.46354Q124.3 60.80729 124.62813 60.40104Q124.95625 59.99479 125.56563 59.77604Q126.175 59.55729 126.97188 59.55729Q127.76875 59.55729 128.26875 59.74479Q128.76875 59.93229 129.00313 60.21354Q129.2375 60.49479 129.33125 60.93229Q129.37813 61.197914 129.37813 61.90104L129.37813 63.30729Q129.37813 64.77604 129.44063 65.166664Q129.51875 65.55729 129.72188 65.916664L128.6125 65.916664Q128.45625 65.58854 128.40938 65.15104ZM128.31563 62.791664Q127.7375 63.02604 126.59688 63.197914Q125.94063 63.291664 125.675 63.416664Q125.40938 63.52604 125.25313 63.74479Q125.1125 63.96354 125.1125 64.24479Q125.1125 64.666664 125.425 64.947914Q125.75313 65.229164 126.3625 65.229164Q126.97188 65.229164 127.44063 64.96354Q127.925 64.697914 128.14375 64.229164Q128.31563 63.86979 128.31563 63.18229L128.31563 62.791664ZM131.33125 65.916664L131.33125 59.697914L132.28438 59.697914L132.28438 60.635414Q132.64375 59.979164 132.94063 59.77604Q133.25313 59.55729 133.62813 59.55729Q134.15938 59.55729 134.70625 59.885414L134.34688 60.86979Q133.95625 60.635414 133.58125 60.635414Q133.22188 60.635414 132.94063 60.854164Q132.675 61.05729 132.56563 61.43229Q132.37813 61.99479 132.37813 62.65104L132.37813 65.916664L131.33125 65.916664ZM137.64375 64.979164L137.8 65.90104Q137.34688 65.99479 137.00313 65.99479Q136.425 65.99479 136.1125 65.822914Q135.8 65.635414 135.65938 65.33854Q135.53438 65.041664 135.53438 64.08854L135.53438 60.510414L134.76875 60.510414L134.76875 59.697914L135.53438 59.697914L135.53438 58.15104L136.58125 57.52604L136.58125 59.697914L137.64375 59.697914L137.64375 60.510414L136.58125 60.510414L136.58125 64.15104Q136.58125 64.604164 136.62813 64.729164Q136.69063 64.854164 136.81563 64.93229Q136.94063 65.010414 137.175 65.010414Q137.3625 65.010414 137.64375 64.979164ZM138.34688 65.916664L138.34688 59.697914L139.28438 59.697914L139.28438 60.572914Q139.97188 59.55729 141.26875 59.55729Q141.83125 59.55729 142.3 59.760414Q142.78438 59.96354 143.01875 60.291664Q143.25313 60.61979 143.34688 61.05729Q143.39375 61.354164 143.39375 62.08854L143.39375 65.916664L142.34688 65.916664L142.34688 62.135414Q142.34688 61.479164 142.22188 61.166664Q142.09688 60.854164 141.78438 60.666664Q141.47188 60.46354 141.05 60.46354Q140.37813 60.46354 139.87813 60.90104Q139.39375 61.322914 139.39375 62.510414L139.39375 65.916664L138.34688 65.916664ZM149.59688 63.916664L150.69063 64.041664Q150.44063 64.99479 149.7375 65.52604Q149.03438 66.05729 147.95625 66.05729Q146.59688 66.05729 145.78438 65.21354Q144.9875 64.36979 144.9875 62.854164Q144.9875 61.291664 145.8 60.43229Q146.6125 59.55729 147.89375 59.55729Q149.14375 59.55729 149.925 60.40104Q150.72188 61.24479 150.72188 62.791664Q150.72188 62.885414 150.72188 63.072914L146.08125 63.072914Q146.14375 64.104164 146.65938 64.65104Q147.175 65.18229 147.95625 65.18229Q148.53438 65.18229 148.94063 64.885414Q149.3625 64.572914 149.59688 63.916664ZM146.14375 62.21354L149.6125 62.21354Q149.55 61.416664 149.22188 61.02604Q148.70625 60.416664 147.90938 60.416664Q147.175 60.416664 146.675 60.90104Q146.19063 61.385414 146.14375 62.21354ZM152.33125 65.916664L152.33125 59.697914L153.28438 59.697914L153.28438 60.635414Q153.64375 59.979164 153.94063 59.77604Q154.25313 59.55729 154.62813 59.55729Q155.15938 59.55729 155.70625 59.885414L155.34688 60.86979Q154.95625 60.635414 154.58125 60.635414Q154.22188 60.635414 153.94063 60.854164Q153.675 61.05729 153.56563 61.43229Q153.37813 61.99479 153.37813 62.65104L153.37813 65.916664L152.33125 65.916664ZM155.925 64.05729L156.95625 63.90104Q157.05 64.52604 157.44063 64.854164Q157.84688 65.18229 158.58125 65.18229Q159.3 65.18229 159.64375 64.90104Q160.00313 64.604164 160.00313 64.197914Q160.00313 63.83854 159.69063 63.635414Q159.47188 63.49479 158.6125 63.27604Q157.45625 62.979164 157.00313 62.77604Q156.56563 62.55729 156.33125 62.18229Q156.09688 61.80729 156.09688 61.33854Q156.09688 60.93229 156.28438 60.572914Q156.47188 60.21354 156.8 59.979164Q157.05 59.80729 157.47188 59.68229Q157.89375 59.55729 158.39375 59.55729Q159.1125 59.55729 159.65938 59.77604Q160.22188 59.979164 160.4875 60.33854Q160.75313 60.697914 160.84688 61.291664L159.81563 61.43229Q159.75313 60.96354 159.40938 60.697914Q159.08125 60.416664 158.45625 60.416664Q157.7375 60.416664 157.425 60.666664Q157.1125 60.90104 157.1125 61.229164Q157.1125 61.43229 157.2375 61.58854Q157.37813 61.760414 157.64375 61.86979Q157.8 61.93229 158.58125 62.135414Q159.70625 62.447914 160.14375 62.635414Q160.58125 62.822914 160.83125 63.18229Q161.08125 63.541664 161.08125 64.08854Q161.08125 64.61979 160.76875 65.08854Q160.47188 65.541664 159.89375 65.80729Q159.31563 66.05729 158.58125 66.05729Q157.3625 66.05729 156.72188 65.55729Q156.09688 65.041664 155.925 64.05729Z" fill-rule="nonzero"/><path fill="#9900ff" d="M30.55 85.916664C30.55 89.23038 27.863708 91.916664 24.55 91.916664C21.236292 91.916664 18.55 89.23038 18.55 85.916664C18.55 82.60296 21.236292 79.916664 24.55 79.916664C27.863708 79.916664 30.55 82.60296 30.55 85.916664Z" fill-rule="nonzero"/><path fill="#1a1a1a" d="M39.440624 89.916664L39.440624 81.322914L41.159374 81.322914L43.190624 87.40104Q43.471874 88.260414 43.596874 88.68229Q43.7375 88.21354 44.05 87.30729L46.1125 81.322914L47.64375 81.322914L47.64375 89.916664L46.55 89.916664L46.55 82.729164L44.05 89.916664L43.01875 89.916664L40.534374 82.604164L40.534374 89.916664L39.440624 89.916664ZM52.596874 87.916664L53.690624 88.041664Q53.440624 88.99479 52.7375 89.52604Q52.034374 90.05729 50.95625 90.05729Q49.596874 90.05729 48.784374 89.21354Q47.9875 88.36979 47.9875 86.854164Q47.9875 85.291664 48.8 84.43229Q49.6125 83.55729 50.89375 83.55729Q52.14375 83.55729 52.925 84.40104Q53.721874 85.24479 53.721874 86.791664Q53.721874 86.885414 53.721874 87.072914L49.08125 87.072914Q49.14375 88.104164 49.659374 88.65104Q50.175 89.18229 50.95625 89.18229Q51.534374 89.18229 51.940624 88.885414Q52.3625 88.572914 52.596874 87.916664ZM49.14375 86.21354L52.6125 86.21354Q52.55 85.416664 52.221874 85.02604Q51.70625 84.416664 50.909374 84.416664Q50.175 84.416664 49.675 84.90104Q49.190624 85.385414 49.14375 86.21354ZM55.346874 89.916664L55.346874 83.697914L56.284374 83.697914L56.284374 84.572914Q56.58125 84.104164 57.065624 83.83854Q57.55 83.55729 58.175 83.55729Q58.8625 83.55729 59.3 83.83854Q59.753124 84.11979 59.925 84.635414Q60.675 83.55729 61.846874 83.55729Q62.784374 83.55729 63.26875 84.072914Q63.76875 84.572914 63.76875 85.65104L63.76875 89.916664L62.721874 89.916664L62.721874 85.99479Q62.721874 85.36979 62.6125 85.08854Q62.51875 84.80729 62.253124 84.635414Q61.9875 84.46354 61.6125 84.46354Q60.95625 84.46354 60.51875 84.90104Q60.096874 85.33854 60.096874 86.30729L60.096874 89.916664L59.034374 89.916664L59.034374 85.86979Q59.034374 85.166664 58.76875 84.822914Q58.51875 84.46354 57.940624 84.46354Q57.4875 84.46354 57.1125 84.697914Q56.7375 84.93229 56.565624 85.385414Q56.39375 85.83854 56.39375 86.68229L56.39375 89.916664L55.346874 89.916664ZM67.31563 89.916664L66.33125 89.916664L66.33125 81.322914L67.39375 81.322914L67.39375 84.385414Q68.06563 83.55729 69.09688 83.55729Q69.675 83.55729 70.175 83.791664Q70.69063 84.010414 71.01875 84.43229Q71.3625 84.854164 71.55 85.447914Q71.7375 86.041664 71.7375 86.71354Q71.7375 88.30729 70.94063 89.18229Q70.14375 90.05729 69.05 90.05729Q67.94063 90.05729 67.31563 89.135414L67.31563 89.916664ZM67.3 86.760414Q67.3 87.86979 67.6125 88.36979Q68.1125 89.18229 68.95625 89.18229Q69.64375 89.18229 70.14375 88.58854Q70.65938 87.99479 70.65938 86.791664Q70.65938 85.572914 70.175 84.99479Q69.69063 84.416664 69.00313 84.416664Q68.31563 84.416664 67.8 85.02604Q67.3 85.61979 67.3 86.760414ZM77.59688 87.916664L78.69063 88.041664Q78.44063 88.99479 77.7375 89.52604Q77.03438 90.05729 75.95625 90.05729Q74.59688 90.05729 73.78438 89.21354Q72.9875 88.36979 72.9875 86.854164Q72.9875 85.291664 73.8 84.43229Q74.6125 83.55729 75.89375 83.55729Q77.14375 83.55729 77.925 84.40104Q78.72188 85.24479 78.72188 86.791664Q78.72188 86.885414 78.72188 87.072914L74.08125 87.072914Q74.14375 88.104164 74.65938 88.65104Q75.175 89.18229 75.95625 89.18229Q76.53438 89.18229 76.94063 88.885414Q77.3625 88.572914 77.59688 87.916664ZM74.14375 86.21354L77.6125 86.21354Q77.55 85.416664 77.22188 85.02604Q76.70625 84.416664 75.90938 84.416664Q75.175 84.416664 74.675 84.90104Q74.19063 85.385414 74.14375 86.21354ZM80.33125 89.916664L80.33125 83.697914L81.28438 83.697914L81.28438 84.635414Q81.64375 83.979164 81.94063 83.77604Q82.25313 83.55729 82.62813 83.55729Q83.15938 83.55729 83.70625 83.885414L83.34688 84.86979Q82.95625 84.635414 82.58125 84.635414Q82.22188 84.635414 81.94063 84.854164Q81.675 85.05729 81.56563 85.43229Q81.37813 85.99479 81.37813 86.65104L81.37813 89.916664L80.33125 89.916664ZM83.925 88.05729L84.95625 87.90104Q85.05 88.52604 85.44063 88.854164Q85.84688 89.18229 86.58125 89.18229Q87.3 89.18229 87.64375 88.90104Q88.00313 88.604164 88.00313 88.197914Q88.00313 87.83854 87.69063 87.635414Q87.47188 87.49479 86.6125 87.27604Q85.45625 86.979164 85.00313 86.77604Q84.56563 86.55729 84.33125 86.18229Q84.09688 85.80729 84.09688 85.33854Q84.09688 84.93229 84.28438 84.572914Q84.47188 84.21354 84.8 83.979164Q85.05 83.80729 85.47188 83.68229Q85.89375 83.55729 86.39375 83.55729Q87.1125 83.55729 87.65938 83.77604Q88.22188 83.979164 88.4875 84.33854Q88.75313 84.697914 88.84688 85.291664L87.81563 85.43229Q87.75313 84.96354 87.40938 84.697914Q87.08125 84.416664 86.45625 84.416664Q85.7375 84.416664 85.425 84.666664Q85.1125 84.90104 85.1125 85.229164Q85.1125 85.43229 85.2375 85.58854Q85.37813 85.760414 85.64375 85.86979Q85.8 85.93229 86.58125 86.135414Q87.70625 86.447914 88.14375 86.635414Q88.58125 86.822914 88.83125 87.18229Q89.08125 87.541664 89.08125 88.08854Q89.08125 88.61979 88.76875 89.08854Q88.47188 89.541664 87.89375 89.80729Q87.31563 90.05729 86.58125 90.05729Q85.3625 90.05729 84.72188 89.55729Q84.09688 89.041664 83.925 88.05729ZM98.40938 89.15104Q97.81563 89.65104 97.26875 89.854164Q96.7375 90.05729 96.1125 90.05729Q95.08125 90.05729 94.53438 89.55729Q93.9875 89.05729 93.9875 88.27604Q93.9875 87.822914 94.19063 87.447914Q94.39375 87.05729 94.7375 86.83854Q95.08125 86.604164 95.50313 86.49479Q95.8 86.40104 96.44063 86.322914Q97.70625 86.18229 98.31563 85.96354Q98.31563 85.74479 98.31563 85.697914Q98.31563 85.041664 98.01875 84.77604Q97.6125 84.43229 96.81563 84.43229Q96.08125 84.43229 95.72188 84.697914Q95.3625 84.947914 95.19063 85.604164L94.15938 85.46354Q94.3 84.80729 94.62813 84.40104Q94.95625 83.99479 95.56563 83.77604Q96.175 83.55729 96.97188 83.55729Q97.76875 83.55729 98.26875 83.74479Q98.76875 83.93229 99.00313 84.21354Q99.2375 84.49479 99.33125 84.93229Q99.37813 85.197914 99.37813 85.90104L99.37813 87.30729Q99.37813 88.77604 99.44063 89.166664Q99.51875 89.55729 99.72188 89.916664L98.6125 89.916664Q98.45625 89.58854 98.40938 89.15104ZM98.31563 86.791664Q97.7375 87.02604 96.59688 87.197914Q95.94063 87.291664 95.675 87.416664Q95.40938 87.52604 95.25313 87.74479Q95.1125 87.96354 95.1125 88.24479Q95.1125 88.666664 95.425 88.947914Q95.75313 89.229164 96.3625 89.229164Q96.97188 89.229164 97.44063 88.96354Q97.925 88.697914 98.14375 88.229164Q98.31563 87.86979 98.31563 87.18229L98.31563 86.791664ZM101.34688 89.916664L101.34688 83.697914L102.28438 83.697914L102.28438 84.572914Q102.97188 83.55729 104.26875 83.55729Q104.83125 83.55729 105.3 83.760414Q105.78438 83.96354 106.01875 84.291664Q106.25313 84.61979 106.34688 85.05729Q106.39375 85.354164 106.39375 86.08854L106.39375 89.916664L105.34688 89.916664L105.34688 86.135414Q105.34688 85.479164 105.22188 85.166664Q105.09688 84.854164 104.78438 84.666664Q104.47188 84.46354 104.05 84.46354Q103.37813 84.46354 102.87813 84.90104Q102.39375 85.322914 102.39375 86.510414L102.39375 89.916664L101.34688 89.916664ZM112.37813 89.916664L112.37813 89.135414Q111.78438 90.05729 110.64375 90.05729Q109.89375 90.05729 109.26875 89.65104Q108.64375 89.229164 108.3 88.49479Q107.95625 87.760414 107.95625 86.80729Q107.95625 85.885414 108.26875 85.11979Q108.58125 84.354164 109.20625 83.96354Q109.83125 83.55729 110.59688 83.55729Q111.15938 83.55729 111.59688 83.791664Q112.03438 84.02604 112.31563 84.40104L112.31563 81.322914L113.3625 81.322914L113.3625 89.916664L112.37813 89.916664ZM109.05 86.80729Q109.05 88.010414 109.55 88.604164Q110.05 89.18229 110.7375 89.18229Q111.425 89.18229 111.90938 88.61979Q112.39375 88.05729 112.39375 86.90104Q112.39375 85.61979 111.89375 85.02604Q111.40938 84.43229 110.69063 84.43229Q109.9875 84.43229 109.51875 85.010414Q109.05 85.572914 109.05 86.80729ZM124.6125 86.90104L125.7375 87.197914Q125.37813 88.58854 124.45625 89.322914Q123.53438 90.05729 122.19063 90.05729Q120.8 90.05729 119.925 89.49479Q119.05 88.93229 118.59688 87.86979Q118.14375 86.791664 118.14375 85.55729Q118.14375 84.21354 118.65938 83.21354Q119.175 82.21354 120.1125 81.697914Q121.06563 81.18229 122.20625 81.18229Q123.4875 81.18229 124.3625 81.83854Q125.25313 82.49479 125.59688 83.68229L124.47188 83.947914Q124.175 83.010414 123.59688 82.58854Q123.03438 82.15104 122.175 82.15104Q121.19063 82.15104 120.51875 82.635414Q119.8625 83.104164 119.58125 83.90104Q119.31563 84.697914 119.31563 85.55729Q119.31563 86.65104 119.62813 87.46354Q119.95625 88.27604 120.62813 88.68229Q121.3 89.08854 122.09688 89.08854Q123.05 89.08854 123.70625 88.541664Q124.37813 87.99479 124.6125 86.90104ZM126.95625 86.80729Q126.95625 85.072914 127.90938 84.24479Q128.70625 83.55729 129.8625 83.55729Q131.14375 83.55729 131.95625 84.40104Q132.78438 85.229164 132.78438 86.71354Q132.78438 87.916664 132.425 88.604164Q132.06563 89.291664 131.3625 89.68229Q130.675 90.05729 129.8625 90.05729Q128.56563 90.05729 127.75313 89.229164Q126.95625 88.385414 126.95625 86.80729ZM128.03438 86.80729Q128.03438 87.99479 128.55 88.58854Q129.08125 89.18229 129.8625 89.18229Q130.65938 89.18229 131.175 88.58854Q131.69063 87.99479 131.69063 86.77604Q131.69063 85.61979 131.15938 85.02604Q130.64375 84.43229 129.8625 84.43229Q129.08125 84.43229 128.55 85.02604Q128.03438 85.604164 128.03438 86.80729ZM134.34688 89.916664L134.34688 83.697914L135.28438 83.697914L135.28438 84.572914Q135.58125 84.104164 136.06563 83.83854Q136.55 83.55729 137.175 83.55729Q137.8625 83.55729 138.3 83.83854Q138.75313 84.11979 138.925 84.635414Q139.675 83.55729 140.84688 83.55729Q141.78438 83.55729 142.26875 84.072914Q142.76875 84.572914 142.76875 85.65104L142.76875 89.916664L141.72188 89.916664L141.72188 85.99479Q141.72188 85.36979 141.6125 85.08854Q141.51875 84.80729 141.25313 84.635414Q140.9875 84.46354 140.6125 84.46354Q139.95625 84.46354 139.51875 84.90104Q139.09688 85.33854 139.09688 86.30729L139.09688 89.916664L138.03438 89.916664L138.03438 85.86979Q138.03438 85.166664 137.76875 84.822914Q137.51875 84.46354 136.94063 84.46354Q136.4875 84.46354 136.1125 84.697914Q135.7375 84.93229 135.56563 85.385414Q135.39375 85.83854 135.39375 86.68229L135.39375 89.916664L134.34688 89.916664ZM145.34688 89.916664L145.34688 83.697914L146.28438 83.697914L146.28438 84.572914Q146.58125 84.104164 147.06563 83.83854Q147.55 83.55729 148.175 83.55729Q148.8625 83.55729 149.3 83.83854Q149.75313 84.11979 149.925 84.635414Q150.675 83.55729 151.84688 83.55729Q152.78438 83.55729 153.26875 84.072914Q153.76875 84.572914 153.76875 85.65104L153.76875 89.916664L152.72188 89.916664L152.72188 85.99479Q152.72188 85.36979 152.6125 85.08854Q152.51875 84.80729 152.25313 84.635414Q151.9875 84.46354 151.6125 84.46354Q150.95625 84.46354 150.51875 84.90104Q150.09688 85.33854 150.09688 86.30729L150.09688 89.916664L149.03438 89.916664L149.03438 85.86979Q149.03438 85.166664 148.76875 84.822914Q148.51875 84.46354 147.94063 84.46354Q147.4875 84.46354 147.1125 84.697914Q146.7375 84.93229 146.56563 85.385414Q146.39375 85.83854 146.39375 86.68229L146.39375 89.916664L145.34688 89.916664ZM160.425 89.916664L160.425 88.99479Q159.69063 90.05729 158.44063 90.05729Q157.89375 90.05729 157.40938 89.854164Q156.94063 89.635414 156.70625 89.322914Q156.47188 88.99479 156.37813 88.52604Q156.31563 88.229164 156.31563 87.541664L156.31563 83.697914L157.37813 83.697914L157.37813 87.15104Q157.37813 87.96354 157.44063 88.260414Q157.53438 88.666664 157.84688 88.916664Q158.175 89.15104 158.65938 89.15104Q159.12813 89.15104 159.53438 88.916664Q159.95625 88.666664 160.12813 88.24479Q160.31563 87.822914 160.31563 87.02604L160.31563 83.697914L161.3625 83.697914L161.3625 89.916664L160.425 89.916664ZM163.34688 89.916664L163.34688 83.697914L164.28438 83.697914L164.28438 84.572914Q164.97188 83.55729 166.26875 83.55729Q166.83125 83.55729 167.3 83.760414Q167.78438 83.96354 168.01875 84.291664Q168.25313 84.61979 168.34688 85.05729Q168.39375 85.354164 168.39375 86.08854L168.39375 89.916664L167.34688 89.916664L167.34688 86.135414Q167.34688 85.479164 167.22188 85.166664Q167.09688 84.854164 166.78438 84.666664Q166.47188 84.46354 166.05 84.46354Q165.37813 84.46354 164.87813 84.90104Q164.39375 85.322914 164.39375 86.510414L164.39375 89.916664L163.34688 89.916664ZM170.34688 82.541664L170.34688 81.322914L171.40938 81.322914L171.40938 82.541664L170.34688 82.541664ZM170.34688 89.916664L170.34688 83.697914L171.40938 83.697914L171.40938 89.916664L170.34688 89.916664ZM175.64375 88.979164L175.8 89.90104Q175.34688 89.99479 175.00313 89.99479Q174.425 89.99479 174.1125 89.822914Q173.8 89.635414 173.65938 89.33854Q173.53438 89.041664 173.53438 88.08854L173.53438 84.510414L172.76875 84.510414L172.76875 83.697914L173.53438 83.697914L173.53438 82.15104L174.58125 81.52604L174.58125 83.697914L175.64375 83.697914L175.64375 84.510414L174.58125 84.510414L174.58125 88.15104Q174.58125 88.604164 174.62813 88.729164Q174.69063 88.854164 174.81563 88.93229Q174.94063 89.010414 175.175 89.010414Q175.3625 89.010414 175.64375 88.979164ZM176.3 92.30729L176.175 91.322914Q176.51875 91.416664 176.78438 91.416664Q177.12813 91.416664 177.33125 91.291664Q177.55 91.18229 177.69063 90.979164Q177.78438 90.80729 178.01875 90.18229Q178.03438 90.104164 178.1125 89.93229L175.7375 83.697914L176.87813 83.697914L178.175 87.291664Q178.425 87.979164 178.62813 88.74479Q178.81563 88.010414 179.06563 87.322914L180.39375 83.697914L181.44063 83.697914L179.08125 90.02604Q178.69063 91.041664 178.4875 91.43229Q178.20625 91.96354 177.83125 92.197914Q177.47188 92.447914 176.97188 92.447914Q176.675 92.447914 176.3 92.30729Z" fill-rule="nonzero"/><path fill="#757575" d="M20.409374 37.55L20.409374 23.2375L22.315624 23.2375L22.315624 37.55L20.409374 37.55ZM26.08125 37.55L26.08125 23.2375L28.01875 23.2375L35.534374 34.471874L35.534374 23.2375L37.346874 23.2375L37.346874 37.55L35.409374 37.55L27.89375 26.3L27.89375 37.55L26.08125 37.55ZM42.7375 37.55L42.7375 24.925L38.01875 24.925L38.01875 23.2375L49.3625 23.2375L49.3625 24.925L44.628124 24.925L44.628124 37.55L42.7375 37.55ZM63.64375 36.26875Q62.659374 37.096874 61.753124 37.440624Q60.846874 37.784374 59.815624 37.784374Q58.1125 37.784374 57.190624 36.95625Q56.26875 36.1125 56.26875 34.815624Q56.26875 34.05 56.6125 33.425Q56.971874 32.8 57.534374 32.425Q58.096874 32.034374 58.8 31.83125Q59.315624 31.70625 60.3625 31.565624Q62.4875 31.315624 63.4875 30.971874Q63.503124 30.6125 63.503124 30.503124Q63.503124 29.440624 63.003124 28.9875Q62.33125 28.39375 61.003124 28.39375Q59.753124 28.39375 59.159374 28.83125Q58.58125 29.26875 58.3 30.378124L56.58125 30.14375Q56.815624 29.034374 57.346874 28.3625Q57.878124 27.675 58.89375 27.315624Q59.909374 26.940624 61.253124 26.940624Q62.58125 26.940624 63.409374 27.253124Q64.2375 27.565624 64.62813 28.05Q65.01875 28.51875 65.175 29.2375Q65.26875 29.690624 65.26875 30.8625L65.26875 33.20625Q65.26875 35.659374 65.37813 36.315624Q65.4875 36.95625 65.83125 37.55L63.9875 37.55Q63.721874 37.003124 63.64375 36.26875ZM63.4875 32.346874Q62.534374 32.7375 60.6125 33.003124Q59.534374 33.159374 59.08125 33.3625Q58.64375 33.55 58.39375 33.925Q58.14375 34.3 58.14375 34.76875Q58.14375 35.471874 58.675 35.940624Q59.20625 36.409374 60.2375 36.409374Q61.253124 36.409374 62.034374 35.971874Q62.83125 35.51875 63.20625 34.753124Q63.4875 34.14375 63.4875 32.9875L63.4875 32.346874ZM67.83125 37.55L67.83125 23.2375L69.58125 23.2375L69.58125 37.55L67.83125 37.55ZM71.83125 37.55L71.83125 23.2375L73.58125 23.2375L73.58125 37.55L71.83125 37.55ZM75.22188 32.3625Q75.22188 29.4875 76.81563 28.096874Q78.15938 26.940624 80.08125 26.940624Q82.22188 26.940624 83.56563 28.346874Q84.925 29.753124 84.925 32.221874Q84.925 34.221874 84.33125 35.378124Q83.7375 36.51875 82.58125 37.159374Q81.44063 37.784374 80.08125 37.784374Q77.89375 37.784374 76.55 36.39375Q75.22188 34.9875 75.22188 32.3625ZM77.01875 32.3625Q77.01875 34.3625 77.87813 35.346874Q78.75313 36.33125 80.08125 36.33125Q81.39375 36.33125 82.25313 35.346874Q83.12813 34.346874 83.12813 32.3Q83.12813 30.378124 82.25313 29.39375Q81.37813 28.39375 80.08125 28.39375Q78.75313 28.39375 77.87813 29.39375Q77.01875 30.378124 77.01875 32.3625ZM93.64375 33.753124L95.3625 33.971874Q95.08125 35.76875 93.90938 36.784374Q92.75313 37.784374 91.05 37.784374Q88.925 37.784374 87.62813 36.39375Q86.33125 35.003124 86.33125 32.409374Q86.33125 30.721874 86.87813 29.471874Q87.44063 28.20625 88.58125 27.58125Q89.72188 26.940624 91.06563 26.940624Q92.75313 26.940624 93.81563 27.8Q94.89375 28.659374 95.20625 30.221874L93.4875 30.4875Q93.25313 29.440624 92.62813 28.925Q92.00313 28.39375 91.12813 28.39375Q89.8 28.39375 88.97188 29.346874Q88.14375 30.3 88.14375 32.346874Q88.14375 34.440624 88.94063 35.39375Q89.7375 36.33125 91.03438 36.33125Q92.06563 36.33125 92.75313 35.70625Q93.45625 35.065624 93.64375 33.753124ZM103.64375 36.26875Q102.65938 37.096874 101.75313 37.440624Q100.84688 37.784374 99.81563 37.784374Q98.1125 37.784374 97.19063 36.95625Q96.26875 36.1125 96.26875 34.815624Q96.26875 34.05 96.6125 33.425Q96.97188 32.8 97.53438 32.425Q98.09688 32.034374 98.8 31.83125Q99.31563 31.70625 100.3625 31.565624Q102.4875 31.315624 103.4875 30.971874Q103.50313 30.6125 103.50313 30.503124Q103.50313 29.440624 103.00313 28.9875Q102.33125 28.39375 101.00313 28.39375Q99.75313 28.39375 99.15938 28.83125Q98.58125 29.26875 98.3 30.378124L96.58125 30.14375Q96.81563 29.034374 97.34688 28.3625Q97.87813 27.675 98.89375 27.315624Q99.90938 26.940624 101.25313 26.940624Q102.58125 26.940624 103.40938 27.253124Q104.2375 27.565624 104.62813 28.05Q105.01875 28.51875 105.175 29.2375Q105.26875 29.690624 105.26875 30.8625L105.26875 33.20625Q105.26875 35.659374 105.37813 36.315624Q105.4875 36.95625 105.83125 37.55L103.9875 37.55Q103.72188 37.003124 103.64375 36.26875ZM103.4875 32.346874Q102.53438 32.7375 100.6125 33.003124Q99.53438 33.159374 99.08125 33.3625Q98.64375 33.55 98.39375 33.925Q98.14375 34.3 98.14375 34.76875Q98.14375 35.471874 98.675 35.940624Q99.20625 36.409374 100.2375 36.409374Q101.25313 36.409374 102.03438 35.971874Q102.83125 35.51875 103.20625 34.753124Q103.4875 34.14375 103.4875 32.9875L103.4875 32.346874ZM111.70625 35.971874L111.95625 37.534374Q111.22188 37.690624 110.62813 37.690624Q109.675 37.690624 109.14375 37.39375Q108.62813 37.08125 108.40938 36.596874Q108.19063 36.096874 108.19063 34.51875L108.19063 28.55L106.90938 28.55L106.90938 27.175L108.19063 27.175L108.19063 24.6125L109.94063 23.55L109.94063 27.175L111.70625 27.175L111.70625 28.55L109.94063 28.55L109.94063 34.6125Q109.94063 35.3625 110.03438 35.58125Q110.12813 35.784374 110.33125 35.925Q110.55 36.05 110.94063 36.05Q111.22188 36.05 111.70625 35.971874ZM113.87813 25.253124L113.87813 23.2375L115.64375 23.2375L115.64375 25.253124L113.87813 25.253124ZM113.87813 37.55L113.87813 27.175L115.64375 27.175L115.64375 37.55L113.87813 37.55ZM117.22188 32.3625Q117.22188 29.4875 118.81563 28.096874Q120.15938 26.940624 122.08125 26.940624Q124.22188 26.940624 125.56563 28.346874Q126.925 29.753124 126.925 32.221874Q126.925 34.221874 126.33125 35.378124Q125.7375 36.51875 124.58125 37.159374Q123.44063 37.784374 122.08125 37.784374Q119.89375 37.784374 118.55 36.39375Q117.22188 34.9875 117.22188 32.3625ZM119.01875 32.3625Q119.01875 34.3625 119.87813 35.346874Q120.75313 36.33125 122.08125 36.33125Q123.39375 36.33125 124.25313 35.346874Q125.12813 34.346874 125.12813 32.3Q125.12813 30.378124 124.25313 29.39375Q123.37813 28.39375 122.08125 28.39375Q120.75313 28.39375 119.87813 29.39375Q119.01875 30.378124 119.01875 32.3625ZM128.8625 37.55L128.8625 27.175L130.45625 27.175L130.45625 28.659374Q131.59688 26.940624 133.75313 26.940624Q134.69063 26.940624 135.47188 27.284374Q136.26875 27.6125 136.65938 28.159374Q137.05 28.70625 137.20625 29.45625Q137.3 29.95625 137.3 31.175L137.3 37.55L135.53438 37.55L135.53438 31.2375Q135.53438 30.159374 135.33125 29.628124Q135.12813 29.096874 134.59688 28.784374Q134.08125 28.471874 133.37813 28.471874Q132.25313 28.471874 131.44063 29.190624Q130.62813 29.89375 130.62813 31.878124L130.62813 37.55L128.8625 37.55Z" fill-rule="nonzero"/></svg>