<svg version="1.1" viewBox="0.0 0.0 600.0 371.0" fill="none" stroke="none" stroke-linecap="square" stroke-miterlimit="10" width="600" height="371" xmlns:xlink="http://www.w3.org/1999/xlink" xmlns="http://www.w3.org/2000/svg"><path fill="#ffffff" d="M0 0L600.0 0L600.0 371.0L0 371.0L0 0Z" fill-rule="nonzero"/><path fill="#fbbc04" d="M392.9177 54.916668C392.91772 54.916668 392.91776 54.916668 392.9178 54.916668L392.9178 129.3C392.91776 129.3 392.91776 129.3 392.91772 129.3Z" fill-rule="nonzero"/><path fill="#0000ff" d="M251.43225 157.71198C271.34824 96.41673 328.46808 54.916706 392.9177 54.916668L392.91772 129.3C360.69293 129.30002 332.13303 150.05003 322.17502 180.69766Z" fill-rule="nonzero"/><path fill="#9900ff" d="M392.9178 54.916668C457.3674 54.916668 514.48724 96.41666 534.40326 157.71188C554.31934 219.00711 532.50146 286.15552 480.36066 324.0381C428.21982 361.92062 357.6158 361.92065 305.47498 324.03812C253.33412 286.1556 231.51625 219.00722 251.43225 157.71198L322.17502 180.69766C312.217 211.34528 323.12595 244.91948 349.19638 263.86072C375.2668 282.802 410.56882 282.80197 436.63922 263.86072C462.70963 244.91943 473.61856 211.34523 463.66052 180.69762C453.7025 150.05 425.14258 129.3 392.9178 129.3Z" fill-rule="nonzero"/><path fill="#ffffff" d="M447.77982 294.62833Q447.0142 294.34708 446.6392 293.83145Q446.27982 293.31583 446.27982 292.58145Q446.27982 291.4877 447.06107 290.75333Q447.85794 290.00333 449.15482 290.00333Q450.46732 290.00333 451.2642 290.76895Q452.0767 291.53458 452.0767 292.62833Q452.0767 293.31583 451.7017 293.83145Q451.34232 294.34708 450.59232 294.62833Q451.5142 294.9252 451.99857 295.59708Q452.48294 296.26895 452.48294 297.20645Q452.48294 298.4877 451.5767 299.3627Q450.67044 300.2377 449.18607 300.2377Q447.7017 300.2377 446.77982 299.3627Q445.87357 298.47208 445.87357 297.15958Q445.87357 296.19083 446.37357 295.53458Q446.87357 294.8627 447.77982 294.62833ZM447.54544 292.5502Q447.54544 293.25333 447.99857 293.70645Q448.4517 294.15958 449.18607 294.15958Q449.90482 294.15958 450.35794 293.72208Q450.81107 293.26895 450.81107 292.6127Q450.81107 291.94083 450.34232 291.4877Q449.87357 291.01895 449.17044 291.01895Q448.46732 291.01895 447.99857 291.47208Q447.54544 291.90958 447.54544 292.5502ZM447.1392 297.1752Q447.1392 297.70645 447.3892 298.20645Q447.6392 298.69083 448.12357 298.95645Q448.62357 299.22208 449.2017 299.22208Q450.0767 299.22208 450.6392 298.65958Q451.21732 298.09708 451.21732 297.22208Q451.21732 296.33145 450.62357 295.75333Q450.04544 295.15958 449.15482 295.15958Q448.27982 295.15958 447.7017 295.7377Q447.1392 296.31583 447.1392 297.1752ZM453.8892 295.12833Q453.8892 293.34708 454.24857 292.26895Q454.62357 291.1752 455.34232 290.59708Q456.06107 290.00333 457.15482 290.00333Q457.96732 290.00333 458.5767 290.33145Q459.18607 290.65958 459.5767 291.26895Q459.98294 291.87833 460.2017 292.75333Q460.42044 293.62833 460.42044 295.12833Q460.42044 296.89395 460.06107 297.97208Q459.7017 299.0502 458.98294 299.64395Q458.2642 300.2377 457.15482 300.2377Q455.71732 300.2377 454.8892 299.19083Q453.8892 297.94083 453.8892 295.12833ZM455.15482 295.12833Q455.15482 297.59708 455.73294 298.40958Q456.31107 299.22208 457.15482 299.22208Q458.0142 299.22208 458.59232 298.40958Q459.17044 297.58145 459.17044 295.12833Q459.17044 292.64395 458.59232 291.83145Q458.0142 291.01895 457.1392 291.01895Q456.29544 291.01895 455.79544 291.7377Q455.15482 292.65958 455.15482 295.12833ZM462.12357 292.45645Q462.12357 291.37833 462.65482 290.62833Q463.2017 289.87833 464.23294 289.87833Q465.17044 289.87833 465.77982 290.5502Q466.40482 291.22208 466.40482 292.51895Q466.40482 293.8002 465.77982 294.4877Q465.15482 295.1752 464.24857 295.1752Q463.34232 295.1752 462.73294 294.50333Q462.12357 293.81583 462.12357 292.45645ZM464.2642 290.72208Q463.81107 290.72208 463.49857 291.12833Q463.2017 291.51895 463.2017 292.56583Q463.2017 293.53458 463.49857 293.9252Q463.81107 294.31583 464.2642 294.31583Q464.73294 294.31583 465.02982 293.9252Q465.34232 293.53458 465.34232 292.47208Q465.34232 291.50333 465.02982 291.1127Q464.71732 290.72208 464.2642 290.72208ZM464.2642 300.44083L469.74857 289.87833L470.74857 289.87833L465.29544 300.44083L464.2642 300.44083ZM468.60794 297.70645Q468.60794 296.62833 469.1392 295.89395Q469.68607 295.14395 470.71732 295.14395Q471.65482 295.14395 472.27982 295.81583Q472.90482 296.4877 472.90482 297.78458Q472.90482 299.06583 472.27982 299.75333Q471.65482 300.44083 470.71732 300.44083Q469.81107 300.44083 469.2017 299.76895Q468.60794 299.08145 468.60794 297.70645ZM470.74857 295.9877Q470.27982 295.9877 469.98294 296.39395Q469.68607 296.78458 469.68607 297.83145Q469.68607 298.8002 469.98294 299.19083Q470.29544 299.58145 470.74857 299.58145Q471.21732 299.58145 471.5142 299.19083Q471.8267 298.8002 471.8267 297.7377Q471.8267 296.76895 471.5142 296.37833Q471.21732 295.9877 470.74857 295.9877Z" fill-rule="nonzero"/><path fill="#ffffff" d="M319.57132 116.113365L319.57132 117.300865L312.94632 117.300865Q312.9307 116.863365 313.08694 116.44149Q313.35257 115.769615 313.89944 115.113365Q314.46194 114.457115 315.50882 113.59774Q317.14944 112.25399 317.71194 111.47274Q318.29007 110.69149 318.29007 109.988365Q318.29007 109.25399 317.75882 108.75399Q317.2432 108.25399 316.41507 108.25399Q315.52444 108.25399 314.97757 108.78524Q314.44632 109.31649 314.44632 110.269615L313.1807 110.12899Q313.3057 108.72274 314.14944 107.988365Q315.00882 107.238365 316.4307 107.238365Q317.88382 107.238365 318.71194 108.03524Q319.5557 108.832115 319.5557 110.019615Q319.5557 110.62899 319.3057 111.207115Q319.07132 111.78524 318.4932 112.425865Q317.9307 113.06649 316.60257 114.19149Q315.4932 115.113365 315.1807 115.457115Q314.8682 115.78524 314.66507 116.113365L319.57132 116.113365ZM321.10257 112.363365Q321.10257 110.582115 321.46194 109.50399Q321.83694 108.41024 322.5557 107.832115Q323.27444 107.238365 324.3682 107.238365Q325.1807 107.238365 325.79007 107.56649Q326.39944 107.894615 326.79007 108.50399Q327.19632 109.113365 327.41507 109.988365Q327.63382 110.863365 327.63382 112.363365Q327.63382 114.12899 327.27444 115.207115Q326.91507 116.28524 326.19632 116.87899Q325.47757 117.47274 324.3682 117.47274Q322.9307 117.47274 322.10257 116.425865Q321.10257 115.175865 321.10257 112.363365ZM322.3682 112.363365Q322.3682 114.832115 322.94632 115.644615Q323.52444 116.457115 324.3682 116.457115Q325.22757 116.457115 325.8057 115.644615Q326.38382 114.81649 326.38382 112.363365Q326.38382 109.87899 325.8057 109.06649Q325.22757 108.25399 324.35257 108.25399Q323.50882 108.25399 323.00882 108.97274Q322.3682 109.894615 322.3682 112.363365ZM329.33694 109.69149Q329.33694 108.613365 329.8682 107.863365Q330.41507 107.113365 331.44632 107.113365Q332.38382 107.113365 332.9932 107.78524Q333.6182 108.457115 333.6182 109.75399Q333.6182 111.03524 332.9932 111.72274Q332.3682 112.41024 331.46194 112.41024Q330.5557 112.41024 329.94632 111.738365Q329.33694 111.050865 329.33694 109.69149ZM331.47757 107.957115Q331.02444 107.957115 330.71194 108.363365Q330.41507 108.75399 330.41507 109.800865Q330.41507 110.769615 330.71194 111.16024Q331.02444 111.550865 331.47757 111.550865Q331.94632 111.550865 332.2432 111.16024Q332.5557 110.769615 332.5557 109.707115Q332.5557 108.738365 332.2432 108.34774Q331.9307 107.957115 331.47757 107.957115ZM331.47757 117.675865L336.96194 107.113365L337.96194 107.113365L332.50882 117.675865L331.47757 117.675865ZM335.82132 114.94149Q335.82132 113.863365 336.35257 113.12899Q336.89944 112.37899 337.9307 112.37899Q338.8682 112.37899 339.4932 113.050865Q340.1182 113.72274 340.1182 115.019615Q340.1182 116.300865 339.4932 116.988365Q338.8682 117.675865 337.9307 117.675865Q337.02444 117.675865 336.41507 117.00399Q335.82132 116.31649 335.82132 114.94149ZM337.96194 113.22274Q337.4932 113.22274 337.19632 113.62899Q336.89944 114.019615 336.89944 115.06649Q336.89944 116.03524 337.19632 116.425865Q337.50882 116.81649 337.96194 116.81649Q338.4307 116.81649 338.72757 116.425865Q339.04007 116.03524 339.04007 114.97274Q339.04007 114.00399 338.72757 113.613365Q338.4307 113.22274 337.96194 113.22274Z" fill-rule="nonzero"/><path fill="#9900ff" d="M30.55 61.916668C30.55 65.23038 27.863708 67.916664 24.55 67.916664C21.236292 67.916664 18.55 65.23038 18.55 61.916668C18.55 58.60296 21.236292 55.916668 24.55 55.916668C27.863708 55.916668 30.55 58.60296 30.55 61.916668Z" fill-rule="nonzero"/><path fill="#1a1a1a" d="M39.128124 61.729164Q39.128124 59.58854 40.26875 58.385414Q41.425 57.166664 43.2375 57.166664Q44.440624 57.166664 45.39375 57.74479Q46.346874 58.30729 46.846874 59.322914Q47.346874 60.33854 47.346874 61.635414Q47.346874 62.93229 46.815624 63.96354Q46.284374 64.99479 45.315624 65.52604Q44.3625 66.05729 43.2375 66.05729Q42.01875 66.05729 41.065624 65.479164Q40.1125 64.885414 39.6125 63.885414Q39.128124 62.86979 39.128124 61.729164ZM40.3 61.74479Q40.3 63.30729 41.128124 64.197914Q41.971874 65.08854 43.2375 65.08854Q44.51875 65.08854 45.346874 64.197914Q46.175 63.291664 46.175 61.61979Q46.175 60.572914 45.815624 59.791664Q45.471874 59.010414 44.784374 58.58854Q44.096874 58.15104 43.253124 58.15104Q42.05 58.15104 41.175 58.979164Q40.3 59.80729 40.3 61.74479ZM49.4875 65.916664L47.58125 59.697914L48.675 59.697914L49.659374 63.291664L50.034374 64.61979Q50.065624 64.52604 50.3625 63.33854L51.346874 59.697914L52.425 59.697914L53.3625 63.30729L53.675 64.49479L54.034374 63.291664L55.096874 59.697914L56.128124 59.697914L54.175 65.916664L53.08125 65.916664L52.096874 62.18229L51.846874 61.135414L50.596874 65.916664L49.4875 65.916664ZM57.346874 65.916664L57.346874 59.697914L58.284374 59.697914L58.284374 60.572914Q58.971874 59.55729 60.26875 59.55729Q60.83125 59.55729 61.3 59.760414Q61.784374 59.96354 62.01875 60.291664Q62.253124 60.61979 62.346874 61.05729Q62.39375 61.354164 62.39375 62.08854L62.39375 65.916664L61.346874 65.916664L61.346874 62.135414Q61.346874 61.479164 61.221874 61.166664Q61.096874 60.854164 60.784374 60.666664Q60.471874 60.46354 60.05 60.46354Q59.378124 60.46354 58.878124 60.90104Q58.39375 61.322914 58.39375 62.510414L58.39375 65.916664L57.346874 65.916664ZM68.59688 63.916664L69.69063 64.041664Q69.44063 64.99479 68.7375 65.52604Q68.03438 66.05729 66.95625 66.05729Q65.59688 66.05729 64.78438 65.21354Q63.9875 64.36979 63.9875 62.854164Q63.9875 61.291664 64.8 60.43229Q65.6125 59.55729 66.89375 59.55729Q68.14375 59.55729 68.925 60.40104Q69.72188 61.24479 69.72188 62.791664Q69.72188 62.885414 69.72188 63.072914L65.08125 63.072914Q65.14375 64.104164 65.65938 64.65104Q66.175 65.18229 66.95625 65.18229Q67.53438 65.18229 67.94063 64.885414Q68.3625 64.572914 68.59688 63.916664ZM65.14375 62.21354L68.6125 62.21354Q68.55 61.416664 68.22188 61.02604Q67.70625 60.416664 66.90938 60.416664Q66.175 60.416664 65.675 60.90104Q65.19063 61.385414 65.14375 62.21354ZM71.33125 65.916664L71.33125 59.697914L72.28438 59.697914L72.28438 60.635414Q72.64375 59.979164 72.94063 59.77604Q73.25313 59.55729 73.62813 59.55729Q74.15938 59.55729 74.70625 59.885414L74.34688 60.86979Q73.95625 60.635414 73.58125 60.635414Q73.22188 60.635414 72.94063 60.854164Q72.675 61.05729 72.56563 61.43229Q72.37813 61.99479 72.37813 62.65104L72.37813 65.916664L71.33125 65.916664ZM74.925 64.05729L75.95625 63.90104Q76.05 64.52604 76.44063 64.854164Q76.84688 65.18229 77.58125 65.18229Q78.3 65.18229 78.64375 64.90104Q79.00313 64.604164 79.00313 64.197914Q79.00313 63.83854 78.69063 63.635414Q78.47188 63.49479 77.6125 63.27604Q76.45625 62.979164 76.00313 62.77604Q75.56563 62.55729 75.33125 62.18229Q75.09688 61.80729 75.09688 61.33854Q75.09688 60.93229 75.28438 60.572914Q75.47188 60.21354 75.8 59.979164Q76.05 59.80729 76.47188 59.68229Q76.89375 59.55729 77.39375 59.55729Q78.1125 59.55729 78.65938 59.77604Q79.22188 59.979164 79.4875 60.33854Q79.75313 60.697914 79.84688 61.291664L78.81563 61.43229Q78.75313 60.96354 78.40938 60.697914Q78.08125 60.416664 77.45625 60.416664Q76.7375 60.416664 76.425 60.666664Q76.1125 60.90104 76.1125 61.229164Q76.1125 61.43229 76.2375 61.58854Q76.37813 61.760414 76.64375 61.86979Q76.8 61.93229 77.58125 62.135414Q78.70625 62.447914 79.14375 62.635414Q79.58125 62.822914 79.83125 63.18229Q80.08125 63.541664 80.08125 64.08854Q80.08125 64.61979 79.76875 65.08854Q79.47188 65.541664 78.89375 65.80729Q78.31563 66.05729 77.58125 66.05729Q76.3625 66.05729 75.72188 65.55729Q75.09688 65.041664 74.925 64.05729ZM82.34688 65.916664L82.34688 57.322914L83.39375 57.322914L83.39375 60.40104Q84.12813 59.55729 85.25313 59.55729Q85.95625 59.55729 86.45625 59.83854Q86.97188 60.104164 87.19063 60.58854Q87.40938 61.05729 87.40938 61.979164L87.40938 65.916664L86.3625 65.916664L86.3625 61.979164Q86.3625 61.18229 86.01875 60.822914Q85.675 60.46354 85.05 60.46354Q84.58125 60.46354 84.15938 60.71354Q83.75313 60.947914 83.56563 61.36979Q83.39375 61.77604 83.39375 62.510414L83.39375 65.916664L82.34688 65.916664ZM89.34688 58.541664L89.34688 57.322914L90.40938 57.322914L90.40938 58.541664L89.34688 58.541664ZM89.34688 65.916664L89.34688 59.697914L90.40938 59.697914L90.40938 65.916664L89.34688 65.916664ZM92.34688 68.30729L92.34688 59.697914L93.3 59.697914L93.3 60.49479Q93.64375 60.02604 94.06563 59.791664Q94.50313 59.55729 95.1125 59.55729Q95.90938 59.55729 96.51875 59.96354Q97.12813 60.36979 97.425 61.11979Q97.7375 61.86979 97.7375 62.760414Q97.7375 63.71354 97.39375 64.479164Q97.06563 65.24479 96.40938 65.65104Q95.75313 66.05729 95.03438 66.05729Q94.50313 66.05729 94.08125 65.83854Q93.65938 65.604164 93.39375 65.27604L93.39375 68.30729L92.34688 68.30729ZM93.3 62.83854Q93.3 64.041664 93.78438 64.61979Q94.26875 65.18229 94.95625 65.18229Q95.65938 65.18229 96.15938 64.58854Q96.65938 63.99479 96.65938 62.74479Q96.65938 61.55729 96.175 60.979164Q95.69063 60.385414 95.00313 60.385414Q94.33125 60.385414 93.81563 61.010414Q93.3 61.635414 93.3 62.83854ZM103.31563 65.916664L102.33125 65.916664L102.33125 57.322914L103.39375 57.322914L103.39375 60.385414Q104.06563 59.55729 105.09688 59.55729Q105.675 59.55729 106.175 59.791664Q106.69063 60.010414 107.01875 60.43229Q107.3625 60.854164 107.55 61.447914Q107.7375 62.041664 107.7375 62.71354Q107.7375 64.30729 106.94063 65.18229Q106.14375 66.05729 105.05 66.05729Q103.94063 66.05729 103.31563 65.135414L103.31563 65.916664ZM103.3 62.760414Q103.3 63.86979 103.6125 64.36979Q104.1125 65.18229 104.95625 65.18229Q105.64375 65.18229 106.14375 64.58854Q106.65938 63.99479 106.65938 62.791664Q106.65938 61.572914 106.175 60.99479Q105.69063 60.416664 105.00313 60.416664Q104.31563 60.416664 103.8 61.02604Q103.3 61.61979 103.3 62.760414ZM109.3 68.30729L109.175 67.322914Q109.51875 67.416664 109.78438 67.416664Q110.12813 67.416664 110.33125 67.291664Q110.55 67.18229 110.69063 66.979164Q110.78438 66.80729 111.01875 66.18229Q111.03438 66.104164 111.1125 65.93229L108.7375 59.697914L109.87813 59.697914L111.175 63.291664Q111.425 63.979164 111.62813 64.74479Q111.81563 64.010414 112.06563 63.322914L113.39375 59.697914L114.44063 59.697914L112.08125 66.02604Q111.69063 67.041664 111.4875 67.43229Q111.20625 67.96354 110.83125 68.197914Q110.47188 68.447914 109.97188 68.447914Q109.675 68.447914 109.3 68.30729ZM118.4875 65.916664L116.58125 59.697914L117.675 59.697914L118.65938 63.291664L119.03438 64.61979Q119.06563 64.52604 119.3625 63.33854L120.34688 59.697914L121.425 59.697914L122.3625 63.30729L122.675 64.49479L123.03438 63.291664L124.09688 59.697914L125.12813 59.697914L123.175 65.916664L122.08125 65.916664L121.09688 62.18229L120.84688 61.135414L119.59688 65.916664L118.4875 65.916664ZM126.53438 65.916664L126.53438 57.322914L132.33125 57.322914L132.33125 58.33854L127.675 58.33854L127.675 60.99479L131.70625 60.99479L131.70625 62.010414L127.675 62.010414L127.675 65.916664L126.53438 65.916664ZM132.95625 62.80729Q132.95625 61.072914 133.90938 60.24479Q134.70625 59.55729 135.8625 59.55729Q137.14375 59.55729 137.95625 60.40104Q138.78438 61.229164 138.78438 62.71354Q138.78438 63.916664 138.425 64.604164Q138.06563 65.291664 137.3625 65.68229Q136.675 66.05729 135.8625 66.05729Q134.56563 66.05729 133.75313 65.229164Q132.95625 64.385414 132.95625 62.80729ZM134.03438 62.80729Q134.03438 63.99479 134.55 64.58854Q135.08125 65.18229 135.8625 65.18229Q136.65938 65.18229 137.175 64.58854Q137.69063 63.99479 137.69063 62.77604Q137.69063 61.61979 137.15938 61.02604Q136.64375 60.43229 135.8625 60.43229Q135.08125 60.43229 134.55 61.02604Q134.03438 61.604164 134.03438 62.80729ZM140.33125 65.916664L140.33125 59.697914L141.28438 59.697914L141.28438 60.635414Q141.64375 59.979164 141.94063 59.77604Q142.25313 59.55729 142.62813 59.55729Q143.15938 59.55729 143.70625 59.885414L143.34688 60.86979Q142.95625 60.635414 142.58125 60.635414Q142.22188 60.635414 141.94063 60.854164Q141.675 61.05729 141.56563 61.43229Q141.37813 61.99479 141.37813 62.65104L141.37813 65.916664L140.33125 65.916664ZM148.40938 63.635414L149.44063 63.77604Q149.26875 64.83854 148.56563 65.447914Q147.8625 66.05729 146.84688 66.05729Q145.56563 66.05729 144.78438 65.229164Q144.01875 64.385414 144.01875 62.822914Q144.01875 61.822914 144.34688 61.072914Q144.69063 60.30729 145.3625 59.93229Q146.05 59.55729 146.8625 59.55729Q147.8625 59.55729 148.50313 60.072914Q149.15938 60.572914 149.34688 61.52604L148.31563 61.68229Q148.175 61.05729 147.8 60.74479Q147.425 60.416664 146.89375 60.416664Q146.09688 60.416664 145.59688 60.99479Q145.09688 61.55729 145.09688 62.791664Q145.09688 64.05729 145.58125 64.61979Q146.06563 65.18229 146.83125 65.18229Q147.45625 65.18229 147.8625 64.80729Q148.28438 64.43229 148.40938 63.635414ZM154.59688 63.916664L155.69063 64.041664Q155.44063 64.99479 154.7375 65.52604Q154.03438 66.05729 152.95625 66.05729Q151.59688 66.05729 150.78438 65.21354Q149.9875 64.36979 149.9875 62.854164Q149.9875 61.291664 150.8 60.43229Q151.6125 59.55729 152.89375 59.55729Q154.14375 59.55729 154.925 60.40104Q155.72188 61.24479 155.72188 62.791664Q155.72188 62.885414 155.72188 63.072914L151.08125 63.072914Q151.14375 64.104164 151.65938 64.65104Q152.175 65.18229 152.95625 65.18229Q153.53438 65.18229 153.94063 64.885414Q154.3625 64.572914 154.59688 63.916664ZM151.14375 62.21354L154.6125 62.21354Q154.55 61.416664 154.22188 61.02604Q153.70625 60.416664 152.90938 60.416664Q152.175 60.416664 151.675 60.90104Q151.19063 61.385414 151.14375 62.21354ZM162.06563 65.916664L159.70625 59.697914L160.81563 59.697914L162.15938 63.416664Q162.3625 64.02604 162.55 64.666664Q162.69063 64.18229 162.94063 63.49479L164.33125 59.697914L165.40938 59.697914L163.05 65.916664L162.06563 65.916664ZM169.40938 65.15104Q168.81563 65.65104 168.26875 65.854164Q167.7375 66.05729 167.1125 66.05729Q166.08125 66.05729 165.53438 65.55729Q164.9875 65.05729 164.9875 64.27604Q164.9875 63.822914 165.19063 63.447914Q165.39375 63.05729 165.7375 62.83854Q166.08125 62.604164 166.50313 62.49479Q166.8 62.40104 167.44063 62.322914Q168.70625 62.18229 169.31563 61.96354Q169.31563 61.74479 169.31563 61.697914Q169.31563 61.041664 169.01875 60.77604Q168.6125 60.43229 167.81563 60.43229Q167.08125 60.43229 166.72188 60.697914Q166.3625 60.947914 166.19063 61.604164L165.15938 61.46354Q165.3 60.80729 165.62813 60.40104Q165.95625 59.99479 166.56563 59.77604Q167.175 59.55729 167.97188 59.55729Q168.76875 59.55729 169.26875 59.74479Q169.76875 59.93229 170.00313 60.21354Q170.2375 60.49479 170.33125 60.93229Q170.37813 61.197914 170.37813 61.90104L170.37813 63.30729Q170.37813 64.77604 170.44063 65.166664Q170.51875 65.55729 170.72188 65.916664L169.6125 65.916664Q169.45625 65.58854 169.40938 65.15104ZM169.31563 62.791664Q168.7375 63.02604 167.59688 63.197914Q166.94063 63.291664 166.675 63.416664Q166.40938 63.52604 166.25313 63.74479Q166.1125 63.96354 166.1125 64.24479Q166.1125 64.666664 166.425 64.947914Q166.75313 65.229164 167.3625 65.229164Q167.97188 65.229164 168.44063 64.96354Q168.925 64.697914 169.14375 64.229164Q169.31563 63.86979 169.31563 63.18229L169.31563 62.791664ZM176.425 65.916664L176.425 64.99479Q175.69063 66.05729 174.44063 66.05729Q173.89375 66.05729 173.40938 65.854164Q172.94063 65.635414 172.70625 65.322914Q172.47188 64.99479 172.37813 64.52604Q172.31563 64.229164 172.31563 63.541664L172.31563 59.697914L173.37813 59.697914L173.37813 63.15104Q173.37813 63.96354 173.44063 64.260414Q173.53438 64.666664 173.84688 64.916664Q174.175 65.15104 174.65938 65.15104Q175.12813 65.15104 175.53438 64.916664Q175.95625 64.666664 176.12813 64.24479Q176.31563 63.822914 176.31563 63.02604L176.31563 59.697914L177.3625 59.697914L177.3625 65.916664L176.425 65.916664ZM179.31563 65.916664L179.31563 57.322914L180.37813 57.322914L180.37813 65.916664L179.31563 65.916664ZM184.64375 64.979164L184.8 65.90104Q184.34688 65.99479 184.00313 65.99479Q183.425 65.99479 183.1125 65.822914Q182.8 65.635414 182.65938 65.33854Q182.53438 65.041664 182.53438 64.08854L182.53438 60.510414L181.76875 60.510414L181.76875 59.697914L182.53438 59.697914L182.53438 58.15104L183.58125 57.52604L183.58125 59.697914L184.64375 59.697914L184.64375 60.510414L183.58125 60.510414L183.58125 64.15104Q183.58125 64.604164 183.62813 64.729164Q183.69063 64.854164 183.81563 64.93229Q183.94063 65.010414 184.175 65.010414Q184.3625 65.010414 184.64375 64.979164Z" fill-rule="nonzero"/><path fill="#0000ff" d="M30.55 85.916664C30.55 89.23038 27.863708 91.916664 24.55 91.916664C21.236292 91.916664 18.55 89.23038 18.55 85.916664C18.55 82.60296 21.236292 79.916664 24.55 79.916664C27.863708 79.916664 30.55 82.60296 30.55 85.916664Z" fill-rule="nonzero"/><path fill="#1a1a1a" d="M39.128124 85.729164Q39.128124 83.58854 40.26875 82.385414Q41.425 81.166664 43.2375 81.166664Q44.440624 81.166664 45.39375 81.74479Q46.346874 82.30729 46.846874 83.322914Q47.346874 84.33854 47.346874 85.635414Q47.346874 86.93229 46.815624 87.96354Q46.284374 88.99479 45.315624 89.52604Q44.3625 90.05729 43.2375 90.05729Q42.01875 90.05729 41.065624 89.479164Q40.1125 88.885414 39.6125 87.885414Q39.128124 86.86979 39.128124 85.729164ZM40.3 85.74479Q40.3 87.30729 41.128124 88.197914Q41.971874 89.08854 43.2375 89.08854Q44.51875 89.08854 45.346874 88.197914Q46.175 87.291664 46.175 85.61979Q46.175 84.572914 45.815624 83.791664Q45.471874 83.010414 44.784374 82.58854Q44.096874 82.15104 43.253124 82.15104Q42.05 82.15104 41.175 82.979164Q40.3 83.80729 40.3 85.74479ZM49.4875 89.916664L47.58125 83.697914L48.675 83.697914L49.659374 87.291664L50.034374 88.61979Q50.065624 88.52604 50.3625 87.33854L51.346874 83.697914L52.425 83.697914L53.3625 87.30729L53.675 88.49479L54.034374 87.291664L55.096874 83.697914L56.128124 83.697914L54.175 89.916664L53.08125 89.916664L52.096874 86.18229L51.846874 85.135414L50.596874 89.916664L49.4875 89.916664ZM57.346874 89.916664L57.346874 83.697914L58.284374 83.697914L58.284374 84.572914Q58.971874 83.55729 60.26875 83.55729Q60.83125 83.55729 61.3 83.760414Q61.784374 83.96354 62.01875 84.291664Q62.253124 84.61979 62.346874 85.05729Q62.39375 85.354164 62.39375 86.08854L62.39375 89.916664L61.346874 89.916664L61.346874 86.135414Q61.346874 85.479164 61.221874 85.166664Q61.096874 84.854164 60.784374 84.666664Q60.471874 84.46354 60.05 84.46354Q59.378124 84.46354 58.878124 84.90104Q58.39375 85.322914 58.39375 86.510414L58.39375 89.916664L57.346874 89.916664ZM68.59688 87.916664L69.69063 88.041664Q69.44063 88.99479 68.7375 89.52604Q68.03438 90.05729 66.95625 90.05729Q65.59688 90.05729 64.78438 89.21354Q63.9875 88.36979 63.9875 86.854164Q63.9875 85.291664 64.8 84.43229Q65.6125 83.55729 66.89375 83.55729Q68.14375 83.55729 68.925 84.40104Q69.72188 85.24479 69.72188 86.791664Q69.72188 86.885414 69.72188 87.072914L65.08125 87.072914Q65.14375 88.104164 65.65938 88.65104Q66.175 89.18229 66.95625 89.18229Q67.53438 89.18229 67.94063 88.885414Q68.3625 88.572914 68.59688 87.916664ZM65.14375 86.21354L68.6125 86.21354Q68.55 85.416664 68.22188 85.02604Q67.70625 84.416664 66.90938 84.416664Q66.175 84.416664 65.675 84.90104Q65.19063 85.385414 65.14375 86.21354ZM71.33125 89.916664L71.33125 83.697914L72.28438 83.697914L72.28438 84.635414Q72.64375 83.979164 72.94063 83.77604Q73.25313 83.55729 73.62813 83.55729Q74.15938 83.55729 74.70625 83.885414L74.34688 84.86979Q73.95625 84.635414 73.58125 84.635414Q73.22188 84.635414 72.94063 84.854164Q72.675 85.05729 72.56563 85.43229Q72.37813 85.99479 72.37813 86.65104L72.37813 89.916664L71.33125 89.916664ZM74.925 88.05729L75.95625 87.90104Q76.05 88.52604 76.44063 88.854164Q76.84688 89.18229 77.58125 89.18229Q78.3 89.18229 78.64375 88.90104Q79.00313 88.604164 79.00313 88.197914Q79.00313 87.83854 78.69063 87.635414Q78.47188 87.49479 77.6125 87.27604Q76.45625 86.979164 76.00313 86.77604Q75.56563 86.55729 75.33125 86.18229Q75.09688 85.80729 75.09688 85.33854Q75.09688 84.93229 75.28438 84.572914Q75.47188 84.21354 75.8 83.979164Q76.05 83.80729 76.47188 83.68229Q76.89375 83.55729 77.39375 83.55729Q78.1125 83.55729 78.65938 83.77604Q79.22188 83.979164 79.4875 84.33854Q79.75313 84.697914 79.84688 85.291664L78.81563 85.43229Q78.75313 84.96354 78.40938 84.697914Q78.08125 84.416664 77.45625 84.416664Q76.7375 84.416664 76.425 84.666664Q76.1125 84.90104 76.1125 85.229164Q76.1125 85.43229 76.2375 85.58854Q76.37813 85.760414 76.64375 85.86979Q76.8 85.93229 77.58125 86.135414Q78.70625 86.447914 79.14375 86.635414Q79.58125 86.822914 79.83125 87.18229Q80.08125 87.541664 80.08125 88.08854Q80.08125 88.61979 79.76875 89.08854Q79.47188 89.541664 78.89375 89.80729Q78.31563 90.05729 77.58125 90.05729Q76.3625 90.05729 75.72188 89.55729Q75.09688 89.041664 74.925 88.05729ZM82.34688 89.916664L82.34688 81.322914L83.39375 81.322914L83.39375 84.40104Q84.12813 83.55729 85.25313 83.55729Q85.95625 83.55729 86.45625 83.83854Q86.97188 84.104164 87.19063 84.58854Q87.40938 85.05729 87.40938 85.979164L87.40938 89.916664L86.3625 89.916664L86.3625 85.979164Q86.3625 85.18229 86.01875 84.822914Q85.675 84.46354 85.05 84.46354Q84.58125 84.46354 84.15938 84.71354Q83.75313 84.947914 83.56563 85.36979Q83.39375 85.77604 83.39375 86.510414L83.39375 89.916664L82.34688 89.916664ZM89.34688 82.541664L89.34688 81.322914L90.40938 81.322914L90.40938 82.541664L89.34688 82.541664ZM89.34688 89.916664L89.34688 83.697914L90.40938 83.697914L90.40938 89.916664L89.34688 89.916664ZM92.34688 92.30729L92.34688 83.697914L93.3 83.697914L93.3 84.49479Q93.64375 84.02604 94.06563 83.791664Q94.50313 83.55729 95.1125 83.55729Q95.90938 83.55729 96.51875 83.96354Q97.12813 84.36979 97.425 85.11979Q97.7375 85.86979 97.7375 86.760414Q97.7375 87.71354 97.39375 88.479164Q97.06563 89.24479 96.40938 89.65104Q95.75313 90.05729 95.03438 90.05729Q94.50313 90.05729 94.08125 89.83854Q93.65938 89.604164 93.39375 89.27604L93.39375 92.30729L92.34688 92.30729ZM93.3 86.83854Q93.3 88.041664 93.78438 88.61979Q94.26875 89.18229 94.95625 89.18229Q95.65938 89.18229 96.15938 88.58854Q96.65938 87.99479 96.65938 86.74479Q96.65938 85.55729 96.175 84.979164Q95.69063 84.385414 95.00313 84.385414Q94.33125 84.385414 93.81563 85.010414Q93.3 85.635414 93.3 86.83854ZM103.31563 89.916664L102.33125 89.916664L102.33125 81.322914L103.39375 81.322914L103.39375 84.385414Q104.06563 83.55729 105.09688 83.55729Q105.675 83.55729 106.175 83.791664Q106.69063 84.010414 107.01875 84.43229Q107.3625 84.854164 107.55 85.447914Q107.7375 86.041664 107.7375 86.71354Q107.7375 88.30729 106.94063 89.18229Q106.14375 90.05729 105.05 90.05729Q103.94063 90.05729 103.31563 89.135414L103.31563 89.916664ZM103.3 86.760414Q103.3 87.86979 103.6125 88.36979Q104.1125 89.18229 104.95625 89.18229Q105.64375 89.18229 106.14375 88.58854Q106.65938 87.99479 106.65938 86.791664Q106.65938 85.572914 106.175 84.99479Q105.69063 84.416664 105.00313 84.416664Q104.31563 84.416664 103.8 85.02604Q103.3 85.61979 103.3 86.760414ZM109.3 92.30729L109.175 91.322914Q109.51875 91.416664 109.78438 91.416664Q110.12813 91.416664 110.33125 91.291664Q110.55 91.18229 110.69063 90.979164Q110.78438 90.80729 111.01875 90.18229Q111.03438 90.104164 111.1125 89.93229L108.7375 83.697914L109.87813 83.697914L111.175 87.291664Q111.425 87.979164 111.62813 88.74479Q111.81563 88.010414 112.06563 87.322914L113.39375 83.697914L114.44063 83.697914L112.08125 90.02604Q111.69063 91.041664 111.4875 91.43229Q111.20625 91.96354 110.83125 92.197914Q110.47188 92.447914 109.97188 92.447914Q109.675 92.447914 109.3 92.30729ZM116.925 88.05729L117.95625 87.90104Q118.05 88.52604 118.44063 88.854164Q118.84688 89.18229 119.58125 89.18229Q120.3 89.18229 120.64375 88.90104Q121.00313 88.604164 121.00313 88.197914Q121.00313 87.83854 120.69063 87.635414Q120.47188 87.49479 119.6125 87.27604Q118.45625 86.979164 118.00313 86.77604Q117.56563 86.55729 117.33125 86.18229Q117.09688 85.80729 117.09688 85.33854Q117.09688 84.93229 117.28438 84.572914Q117.47188 84.21354 117.8 83.979164Q118.05 83.80729 118.47188 83.68229Q118.89375 83.55729 119.39375 83.55729Q120.1125 83.55729 120.65938 83.77604Q121.22188 83.979164 121.4875 84.33854Q121.75313 84.697914 121.84688 85.291664L120.81563 85.43229Q120.75313 84.96354 120.40938 84.697914Q120.08125 84.416664 119.45625 84.416664Q118.7375 84.416664 118.425 84.666664Q118.1125 84.90104 118.1125 85.229164Q118.1125 85.43229 118.2375 85.58854Q118.37813 85.760414 118.64375 85.86979Q118.8 85.93229 119.58125 86.135414Q120.70625 86.447914 121.14375 86.635414Q121.58125 86.822914 121.83125 87.18229Q122.08125 87.541664 122.08125 88.08854Q122.08125 88.61979 121.76875 89.08854Q121.47188 89.541664 120.89375 89.80729Q120.31563 90.05729 119.58125 90.05729Q118.3625 90.05729 117.72188 89.55729Q117.09688 89.041664 116.925 88.05729ZM124.425 89.916664L124.425 81.322914L125.56563 81.322914L125.56563 85.58854L129.83125 81.322914L131.37813 81.322914L127.76875 84.80729L131.53438 89.916664L130.03438 89.916664L126.97188 85.572914L125.56563 86.93229L125.56563 89.916664L124.425 89.916664ZM132.34688 82.541664L132.34688 81.322914L133.40938 81.322914L133.40938 82.541664L132.34688 82.541664ZM132.34688 89.916664L132.34688 83.697914L133.40938 83.697914L133.40938 89.916664L132.34688 89.916664ZM135.34688 89.916664L135.34688 83.697914L136.28438 83.697914L136.28438 84.572914Q136.97188 83.55729 138.26875 83.55729Q138.83125 83.55729 139.3 83.760414Q139.78438 83.96354 140.01875 84.291664Q140.25313 84.61979 140.34688 85.05729Q140.39375 85.354164 140.39375 86.08854L140.39375 89.916664L139.34688 89.916664L139.34688 86.135414Q139.34688 85.479164 139.22188 85.166664Q139.09688 84.854164 138.78438 84.666664Q138.47188 84.46354 138.05 84.46354Q137.37813 84.46354 136.87813 84.90104Q136.39375 85.322914 136.39375 86.510414L136.39375 89.916664L135.34688 89.916664ZM142.14375 90.43229L143.175 90.58854Q143.2375 91.05729 143.53438 91.27604Q143.925 91.572914 144.59688 91.572914Q145.33125 91.572914 145.72188 91.27604Q146.12813 90.979164 146.26875 90.46354Q146.3625 90.135414 146.34688 89.104164Q145.65938 89.916664 144.62813 89.916664Q143.34688 89.916664 142.64375 88.99479Q141.94063 88.05729 141.94063 86.77604Q141.94063 85.885414 142.25313 85.135414Q142.58125 84.36979 143.19063 83.96354Q143.8 83.55729 144.62813 83.55729Q145.7375 83.55729 146.45625 84.447914L146.45625 83.697914L147.425 83.697914L147.425 89.072914Q147.425 90.52604 147.12813 91.135414Q146.83125 91.74479 146.19063 92.08854Q145.55 92.447914 144.6125 92.447914Q143.50313 92.447914 142.81563 91.947914Q142.12813 91.447914 142.14375 90.43229ZM143.01875 86.697914Q143.01875 87.916664 143.50313 88.479164Q143.9875 89.041664 144.72188 89.041664Q145.45625 89.041664 145.94063 88.479164Q146.44063 87.916664 146.44063 86.729164Q146.44063 85.58854 145.925 85.010414Q145.425 84.43229 144.70625 84.43229Q144.00313 84.43229 143.50313 85.010414Q143.01875 85.572914 143.01875 86.697914ZM154.06563 89.916664L151.70625 83.697914L152.81563 83.697914L154.15938 87.416664Q154.3625 88.02604 154.55 88.666664Q154.69063 88.18229 154.94063 87.49479L156.33125 83.697914L157.40938 83.697914L155.05 89.916664L154.06563 89.916664ZM161.40938 89.15104Q160.81563 89.65104 160.26875 89.854164Q159.7375 90.05729 159.1125 90.05729Q158.08125 90.05729 157.53438 89.55729Q156.9875 89.05729 156.9875 88.27604Q156.9875 87.822914 157.19063 87.447914Q157.39375 87.05729 157.7375 86.83854Q158.08125 86.604164 158.50313 86.49479Q158.8 86.40104 159.44063 86.322914Q160.70625 86.18229 161.31563 85.96354Q161.31563 85.74479 161.31563 85.697914Q161.31563 85.041664 161.01875 84.77604Q160.6125 84.43229 159.81563 84.43229Q159.08125 84.43229 158.72188 84.697914Q158.3625 84.947914 158.19063 85.604164L157.15938 85.46354Q157.3 84.80729 157.62813 84.40104Q157.95625 83.99479 158.56563 83.77604Q159.175 83.55729 159.97188 83.55729Q160.76875 83.55729 161.26875 83.74479Q161.76875 83.93229 162.00313 84.21354Q162.2375 84.49479 162.33125 84.93229Q162.37813 85.197914 162.37813 85.90104L162.37813 87.30729Q162.37813 88.77604 162.44063 89.166664Q162.51875 89.55729 162.72188 89.916664L161.6125 89.916664Q161.45625 89.58854 161.40938 89.15104ZM161.31563 86.791664Q160.7375 87.02604 159.59688 87.197914Q158.94063 87.291664 158.675 87.416664Q158.40938 87.52604 158.25313 87.74479Q158.1125 87.96354 158.1125 88.24479Q158.1125 88.666664 158.425 88.947914Q158.75313 89.229164 159.3625 89.229164Q159.97188 89.229164 160.44063 88.96354Q160.925 88.697914 161.14375 88.229164Q161.31563 87.86979 161.31563 87.18229L161.31563 86.791664ZM168.425 89.916664L168.425 88.99479Q167.69063 90.05729 166.44063 90.05729Q165.89375 90.05729 165.40938 89.854164Q164.94063 89.635414 164.70625 89.322914Q164.47188 88.99479 164.37813 88.52604Q164.31563 88.229164 164.31563 87.541664L164.31563 83.697914L165.37813 83.697914L165.37813 87.15104Q165.37813 87.96354 165.44063 88.260414Q165.53438 88.666664 165.84688 88.916664Q166.175 89.15104 166.65938 89.15104Q167.12813 89.15104 167.53438 88.916664Q167.95625 88.666664 168.12813 88.24479Q168.31563 87.822914 168.31563 87.02604L168.31563 83.697914L169.3625 83.697914L169.3625 89.916664L168.425 89.916664ZM171.31563 89.916664L171.31563 81.322914L172.37813 81.322914L172.37813 89.916664L171.31563 89.916664ZM176.64375 88.979164L176.8 89.90104Q176.34688 89.99479 176.00313 89.99479Q175.425 89.99479 175.1125 89.822914Q174.8 89.635414 174.65938 89.33854Q174.53438 89.041664 174.53438 88.08854L174.53438 84.510414L173.76875 84.510414L173.76875 83.697914L174.53438 83.697914L174.53438 82.15104L175.58125 81.52604L175.58125 83.697914L176.64375 83.697914L176.64375 84.510414L175.58125 84.510414L175.58125 88.15104Q175.58125 88.604164 175.62813 88.729164Q175.69063 88.854164 175.81563 88.93229Q175.94063 89.010414 176.175 89.010414Q176.3625 89.010414 176.64375 88.979164Z" fill-rule="nonzero"/><path fill="#fbbc04" d="M30.55 109.916664C30.55 113.23038 27.863708 115.916664 24.55 115.916664C21.236292 115.916664 18.55 113.23038 18.55 109.916664C18.55 106.60296 21.236292 103.916664 24.55 103.916664C27.863708 103.916664 30.55 106.60296 30.55 109.916664Z" fill-rule="nonzero"/><path fill="#1a1a1a" d="M39.128124 109.729164Q39.128124 107.58854 40.26875 106.385414Q41.425 105.166664 43.2375 105.166664Q44.440624 105.166664 45.39375 105.74479Q46.346874 106.30729 46.846874 107.322914Q47.346874 108.33854 47.346874 109.635414Q47.346874 110.93229 46.815624 111.96354Q46.284374 112.99479 45.315624 113.52604Q44.3625 114.05729 43.2375 114.05729Q42.01875 114.05729 41.065624 113.479164Q40.1125 112.885414 39.6125 111.885414Q39.128124 110.86979 39.128124 109.729164ZM40.3 109.74479Q40.3 111.30729 41.128124 112.197914Q41.971874 113.08854 43.2375 113.08854Q44.51875 113.08854 45.346874 112.197914Q46.175 111.291664 46.175 109.61979Q46.175 108.572914 45.815624 107.791664Q45.471874 107.010414 44.784374 106.58854Q44.096874 106.15104 43.253124 106.15104Q42.05 106.15104 41.175 106.979164Q40.3 107.80729 40.3 109.74479ZM49.4875 113.916664L47.58125 107.697914L48.675 107.697914L49.659374 111.291664L50.034374 112.61979Q50.065624 112.52604 50.3625 111.33854L51.346874 107.697914L52.425 107.697914L53.3625 111.30729L53.675 112.49479L54.034374 111.291664L55.096874 107.697914L56.128124 107.697914L54.175 113.916664L53.08125 113.916664L52.096874 110.18229L51.846874 109.135414L50.596874 113.916664L49.4875 113.916664ZM57.346874 113.916664L57.346874 107.697914L58.284374 107.697914L58.284374 108.572914Q58.971874 107.55729 60.26875 107.55729Q60.83125 107.55729 61.3 107.760414Q61.784374 107.96354 62.01875 108.291664Q62.253124 108.61979 62.346874 109.05729Q62.39375 109.354164 62.39375 110.08854L62.39375 113.916664L61.346874 113.916664L61.346874 110.135414Q61.346874 109.479164 61.221874 109.166664Q61.096874 108.854164 60.784374 108.666664Q60.471874 108.46354 60.05 108.46354Q59.378124 108.46354 58.878124 108.90104Q58.39375 109.322914 58.39375 110.510414L58.39375 113.916664L57.346874 113.916664ZM68.59688 111.916664L69.69063 112.041664Q69.44063 112.99479 68.7375 113.52604Q68.03438 114.05729 66.95625 114.05729Q65.59688 114.05729 64.78438 113.21354Q63.9875 112.36979 63.9875 110.854164Q63.9875 109.291664 64.8 108.43229Q65.6125 107.55729 66.89375 107.55729Q68.14375 107.55729 68.925 108.40104Q69.72188 109.24479 69.72188 110.791664Q69.72188 110.885414 69.72188 111.072914L65.08125 111.072914Q65.14375 112.104164 65.65938 112.65104Q66.175 113.18229 66.95625 113.18229Q67.53438 113.18229 67.94063 112.885414Q68.3625 112.572914 68.59688 111.916664ZM65.14375 110.21354L68.6125 110.21354Q68.55 109.416664 68.22188 109.02604Q67.70625 108.416664 66.90938 108.416664Q66.175 108.416664 65.675 108.90104Q65.19063 109.385414 65.14375 110.21354ZM71.33125 113.916664L71.33125 107.697914L72.28438 107.697914L72.28438 108.635414Q72.64375 107.979164 72.94063 107.77604Q73.25313 107.55729 73.62813 107.55729Q74.15938 107.55729 74.70625 107.885414L74.34688 108.86979Q73.95625 108.635414 73.58125 108.635414Q73.22188 108.635414 72.94063 108.854164Q72.675 109.05729 72.56563 109.43229Q72.37813 109.99479 72.37813 110.65104L72.37813 113.916664L71.33125 113.916664ZM74.925 112.05729L75.95625 111.90104Q76.05 112.52604 76.44063 112.854164Q76.84688 113.18229 77.58125 113.18229Q78.3 113.18229 78.64375 112.90104Q79.00313 112.604164 79.00313 112.197914Q79.00313 111.83854 78.69063 111.635414Q78.47188 111.49479 77.6125 111.27604Q76.45625 110.979164 76.00313 110.77604Q75.56563 110.55729 75.33125 110.18229Q75.09688 109.80729 75.09688 109.33854Q75.09688 108.93229 75.28438 108.572914Q75.47188 108.21354 75.8 107.979164Q76.05 107.80729 76.47188 107.68229Q76.89375 107.55729 77.39375 107.55729Q78.1125 107.55729 78.65938 107.77604Q79.22188 107.979164 79.4875 108.33854Q79.75313 108.697914 79.84688 109.291664L78.81563 109.43229Q78.75313 108.96354 78.40938 108.697914Q78.08125 108.416664 77.45625 108.416664Q76.7375 108.416664 76.425 108.666664Q76.1125 108.90104 76.1125 109.229164Q76.1125 109.43229 76.2375 109.58854Q76.37813 109.760414 76.64375 109.86979Q76.8 109.93229 77.58125 110.135414Q78.70625 110.447914 79.14375 110.635414Q79.58125 110.822914 79.83125 111.18229Q80.08125 111.541664 80.08125 112.08854Q80.08125 112.61979 79.76875 113.08854Q79.47188 113.541664 78.89375 113.80729Q78.31563 114.05729 77.58125 114.05729Q76.3625 114.05729 75.72188 113.55729Q75.09688 113.041664 74.925 112.05729ZM82.34688 113.916664L82.34688 105.322914L83.39375 105.322914L83.39375 108.40104Q84.12813 107.55729 85.25313 107.55729Q85.95625 107.55729 86.45625 107.83854Q86.97188 108.104164 87.19063 108.58854Q87.40938 109.05729 87.40938 109.979164L87.40938 113.916664L86.3625 113.916664L86.3625 109.979164Q86.3625 109.18229 86.01875 108.822914Q85.675 108.46354 85.05 108.46354Q84.58125 108.46354 84.15938 108.71354Q83.75313 108.947914 83.56563 109.36979Q83.39375 109.77604 83.39375 110.510414L83.39375 113.916664L82.34688 113.916664ZM89.34688 106.541664L89.34688 105.322914L90.40938 105.322914L90.40938 106.541664L89.34688 106.541664ZM89.34688 113.916664L89.34688 107.697914L90.40938 107.697914L90.40938 113.916664L89.34688 113.916664ZM92.34688 116.30729L92.34688 107.697914L93.3 107.697914L93.3 108.49479Q93.64375 108.02604 94.06563 107.791664Q94.50313 107.55729 95.1125 107.55729Q95.90938 107.55729 96.51875 107.96354Q97.12813 108.36979 97.425 109.11979Q97.7375 109.86979 97.7375 110.760414Q97.7375 111.71354 97.39375 112.479164Q97.06563 113.24479 96.40938 113.65104Q95.75313 114.05729 95.03438 114.05729Q94.50313 114.05729 94.08125 113.83854Q93.65938 113.604164 93.39375 113.27604L93.39375 116.30729L92.34688 116.30729ZM93.3 110.83854Q93.3 112.041664 93.78438 112.61979Q94.26875 113.18229 94.95625 113.18229Q95.65938 113.18229 96.15938 112.58854Q96.65938 111.99479 96.65938 110.74479Q96.65938 109.55729 96.175 108.979164Q95.69063 108.385414 95.00313 108.385414Q94.33125 108.385414 93.81563 109.010414Q93.3 109.635414 93.3 110.83854ZM103.31563 113.916664L102.33125 113.916664L102.33125 105.322914L103.39375 105.322914L103.39375 108.385414Q104.06563 107.55729 105.09688 107.55729Q105.675 107.55729 106.175 107.791664Q106.69063 108.010414 107.01875 108.43229Q107.3625 108.854164 107.55 109.447914Q107.7375 110.041664 107.7375 110.71354Q107.7375 112.30729 106.94063 113.18229Q106.14375 114.05729 105.05 114.05729Q103.94063 114.05729 103.31563 113.135414L103.31563 113.916664ZM103.3 110.760414Q103.3 111.86979 103.6125 112.36979Q104.1125 113.18229 104.95625 113.18229Q105.64375 113.18229 106.14375 112.58854Q106.65938 111.99479 106.65938 110.791664Q106.65938 109.572914 106.175 108.99479Q105.69063 108.416664 105.00313 108.416664Q104.31563 108.416664 103.8 109.02604Q103.3 109.61979 103.3 110.760414ZM109.3 116.30729L109.175 115.322914Q109.51875 115.416664 109.78438 115.416664Q110.12813 115.416664 110.33125 115.291664Q110.55 115.18229 110.69063 114.979164Q110.78438 114.80729 111.01875 114.18229Q111.03438 114.104164 111.1125 113.93229L108.7375 107.697914L109.87813 107.697914L111.175 111.291664Q111.425 111.979164 111.62813 112.74479Q111.81563 112.010414 112.06563 111.322914L113.39375 107.697914L114.44063 107.697914L112.08125 114.02604Q111.69063 115.041664 111.4875 115.43229Q111.20625 115.96354 110.83125 116.197914Q110.47188 116.447914 109.97188 116.447914Q109.675 116.447914 109.3 116.30729ZM121.37813 113.916664L121.37813 113.135414Q120.78438 114.05729 119.64375 114.05729Q118.89375 114.05729 118.26875 113.65104Q117.64375 113.229164 117.3 112.49479Q116.95625 111.760414 116.95625 110.80729Q116.95625 109.885414 117.26875 109.11979Q117.58125 108.354164 118.20625 107.96354Q118.83125 107.55729 119.59688 107.55729Q120.15938 107.55729 120.59688 107.791664Q121.03438 108.02604 121.31563 108.40104L121.31563 105.322914L122.3625 105.322914L122.3625 113.916664L121.37813 113.916664ZM118.05 110.80729Q118.05 112.010414 118.55 112.604164Q119.05 113.18229 119.7375 113.18229Q120.425 113.18229 120.90938 112.61979Q121.39375 112.05729 121.39375 110.90104Q121.39375 109.61979 120.89375 109.02604Q120.40938 108.43229 119.69063 108.43229Q118.9875 108.43229 118.51875 109.010414Q118.05 109.572914 118.05 110.80729ZM128.50313 110.541664L128.50313 109.541664L132.12813 109.52604L132.12813 112.71354Q131.3 113.385414 130.40938 113.729164Q129.51875 114.05729 128.58125 114.05729Q127.31563 114.05729 126.26875 113.52604Q125.2375 112.979164 124.70625 111.96354Q124.19063 110.93229 124.19063 109.666664Q124.19063 108.40104 124.70625 107.322914Q125.2375 106.229164 126.22188 105.71354Q127.20625 105.18229 128.4875 105.18229Q129.425 105.18229 130.175 105.479164Q130.925 105.77604 131.34688 106.322914Q131.78438 106.854164 132.00313 107.729164L130.9875 108.010414Q130.78438 107.354164 130.4875 106.979164Q130.20625 106.604164 129.675 106.385414Q129.14375 106.15104 128.50313 106.15104Q127.72188 106.15104 127.14375 106.385414Q126.58125 106.61979 126.22188 107.010414Q125.87813 107.40104 125.69063 107.86979Q125.3625 108.666664 125.3625 109.58854Q125.3625 110.74479 125.75313 111.52604Q126.15938 112.291664 126.90938 112.666664Q127.65938 113.041664 128.51875 113.041664Q129.25313 113.041664 129.95625 112.760414Q130.65938 112.46354 131.01875 112.15104L131.01875 110.541664L128.50313 110.541664ZM137.425 113.916664L137.425 112.99479Q136.69063 114.05729 135.44063 114.05729Q134.89375 114.05729 134.40938 113.854164Q133.94063 113.635414 133.70625 113.322914Q133.47188 112.99479 133.37813 112.52604Q133.31563 112.229164 133.31563 111.541664L133.31563 107.697914L134.37813 107.697914L134.37813 111.15104Q134.37813 111.96354 134.44063 112.260414Q134.53438 112.666664 134.84688 112.916664Q135.175 113.15104 135.65938 113.15104Q136.12813 113.15104 136.53438 112.916664Q136.95625 112.666664 137.12813 112.24479Q137.31563 111.822914 137.31563 111.02604L137.31563 107.697914L138.3625 107.697914L138.3625 113.916664L137.425 113.916664ZM140.34688 106.541664L140.34688 105.322914L141.40938 105.322914L141.40938 106.541664L140.34688 106.541664ZM140.34688 113.916664L140.34688 107.697914L141.40938 107.697914L141.40938 113.916664L140.34688 113.916664ZM143.31563 113.916664L143.31563 105.322914L144.37813 105.322914L144.37813 113.916664L143.31563 113.916664ZM150.37813 113.916664L150.37813 113.135414Q149.78438 114.05729 148.64375 114.05729Q147.89375 114.05729 147.26875 113.65104Q146.64375 113.229164 146.3 112.49479Q145.95625 111.760414 145.95625 110.80729Q145.95625 109.885414 146.26875 109.11979Q146.58125 108.354164 147.20625 107.96354Q147.83125 107.55729 148.59688 107.55729Q149.15938 107.55729 149.59688 107.791664Q150.03438 108.02604 150.31563 108.40104L150.31563 105.322914L151.3625 105.322914L151.3625 113.916664L150.37813 113.916664ZM147.05 110.80729Q147.05 112.010414 147.55 112.604164Q148.05 113.18229 148.7375 113.18229Q149.425 113.18229 149.90938 112.61979Q150.39375 112.05729 150.39375 110.90104Q150.39375 109.61979 149.89375 109.02604Q149.40938 108.43229 148.69063 108.43229Q147.9875 108.43229 147.51875 109.010414Q147.05 109.572914 147.05 110.80729ZM158.06563 113.916664L155.70625 107.697914L156.81563 107.697914L158.15938 111.416664Q158.3625 112.02604 158.55 112.666664Q158.69063 112.18229 158.94063 111.49479L160.33125 107.697914L161.40938 107.697914L159.05 113.916664L158.06563 113.916664ZM165.40938 113.15104Q164.81563 113.65104 164.26875 113.854164Q163.7375 114.05729 163.1125 114.05729Q162.08125 114.05729 161.53438 113.55729Q160.9875 113.05729 160.9875 112.27604Q160.9875 111.822914 161.19063 111.447914Q161.39375 111.05729 161.7375 110.83854Q162.08125 110.604164 162.50313 110.49479Q162.8 110.40104 163.44063 110.322914Q164.70625 110.18229 165.31563 109.96354Q165.31563 109.74479 165.31563 109.697914Q165.31563 109.041664 165.01875 108.77604Q164.6125 108.43229 163.81563 108.43229Q163.08125 108.43229 162.72188 108.697914Q162.3625 108.947914 162.19063 109.604164L161.15938 109.46354Q161.3 108.80729 161.62813 108.40104Q161.95625 107.99479 162.56563 107.77604Q163.175 107.55729 163.97188 107.55729Q164.76875 107.55729 165.26875 107.74479Q165.76875 107.93229 166.00313 108.21354Q166.2375 108.49479 166.33125 108.93229Q166.37813 109.197914 166.37813 109.90104L166.37813 111.30729Q166.37813 112.77604 166.44063 113.166664Q166.51875 113.55729 166.72188 113.916664L165.6125 113.916664Q165.45625 113.58854 165.40938 113.15104ZM165.31563 110.791664Q164.7375 111.02604 163.59688 111.197914Q162.94063 111.291664 162.675 111.416664Q162.40938 111.52604 162.25313 111.74479Q162.1125 111.96354 162.1125 112.24479Q162.1125 112.666664 162.425 112.947914Q162.75313 113.229164 163.3625 113.229164Q163.97188 113.229164 164.44063 112.96354Q164.925 112.697914 165.14375 112.229164Q165.31563 111.86979 165.31563 111.18229L165.31563 110.791664ZM172.425 113.916664L172.425 112.99479Q171.69063 114.05729 170.44063 114.05729Q169.89375 114.05729 169.40938 113.854164Q168.94063 113.635414 168.70625 113.322914Q168.47188 112.99479 168.37813 112.52604Q168.31563 112.229164 168.31563 111.541664L168.31563 107.697914L169.37813 107.697914L169.37813 111.15104Q169.37813 111.96354 169.44063 112.260414Q169.53438 112.666664 169.84688 112.916664Q170.175 113.15104 170.65938 113.15104Q171.12813 113.15104 171.53438 112.916664Q171.95625 112.666664 172.12813 112.24479Q172.31563 111.822914 172.31563 111.02604L172.31563 107.697914L173.3625 107.697914L173.3625 113.916664L172.425 113.916664ZM175.31563 113.916664L175.31563 105.322914L176.37813 105.322914L176.37813 113.916664L175.31563 113.916664ZM180.64375 112.979164L180.8 113.90104Q180.34688 113.99479 180.00313 113.99479Q179.425 113.99479 179.1125 113.822914Q178.8 113.635414 178.65938 113.33854Q178.53438 113.041664 178.53438 112.08854L178.53438 108.510414L177.76875 108.510414L177.76875 107.697914L178.53438 107.697914L178.53438 106.15104L179.58125 105.52604L179.58125 107.697914L180.64375 107.697914L180.64375 108.510414L179.58125 108.510414L179.58125 112.15104Q179.58125 112.604164 179.62813 112.729164Q179.69063 112.854164 179.81563 112.93229Q179.94063 113.010414 180.175 113.010414Q180.3625 113.010414 180.64375 112.979164Z" fill-rule="nonzero"/><path fill="#757575" d="M19.51875 30.58125Q19.51875 27.01875 21.425 25.003124Q23.346874 22.971874 26.378124 22.971874Q28.3625 22.971874 29.940624 23.925Q31.534374 24.878124 32.3625 26.58125Q33.20625 28.26875 33.20625 30.409374Q33.20625 32.58125 32.33125 34.3Q31.45625 36.01875 29.83125 36.909374Q28.221874 37.8 26.3625 37.8Q24.346874 37.8 22.753124 36.83125Q21.159374 35.846874 20.33125 34.159374Q19.51875 32.45625 19.51875 30.58125ZM21.471874 30.6125Q21.471874 33.190624 22.8625 34.690624Q24.253124 36.175 26.346874 36.175Q28.4875 36.175 29.8625 34.675Q31.253124 33.159374 31.253124 30.39375Q31.253124 28.659374 30.659374 27.3625Q30.08125 26.05 28.940624 25.33125Q27.8 24.6125 26.378124 24.6125Q24.378124 24.6125 22.925 26.003124Q21.471874 27.378124 21.471874 30.6125ZM37.784374 37.55L34.6125 27.175L36.425 27.175L38.08125 33.159374L38.690624 35.39375Q38.7375 35.221874 39.221874 33.253124L40.878124 27.175L42.690624 27.175L44.2375 33.190624L44.753124 35.175L45.346874 33.175L47.128124 27.175L48.83125 27.175L45.596874 37.55L43.76875 37.55L42.1125 31.33125L41.721874 29.565624L39.6125 37.55L37.784374 37.55ZM50.8625 37.55L50.8625 27.175L52.45625 27.175L52.45625 28.659374Q53.596874 26.940624 55.753124 26.940624Q56.690624 26.940624 57.471874 27.284374Q58.26875 27.6125 58.659374 28.159374Q59.05 28.70625 59.20625 29.45625Q59.3 29.95625 59.3 31.175L59.3 37.55L57.534374 37.55L57.534374 31.2375Q57.534374 30.159374 57.33125 29.628124Q57.128124 29.096874 56.596874 28.784374Q56.08125 28.471874 55.378124 28.471874Q54.253124 28.471874 53.440624 29.190624Q52.628124 29.89375 52.628124 31.878124L52.628124 37.55L50.8625 37.55ZM67.97188 34.20625L69.78438 34.440624Q69.3625 36.01875 68.19063 36.909374Q67.03438 37.784374 65.22188 37.784374Q62.95625 37.784374 61.6125 36.39375Q60.284374 34.9875 60.284374 32.45625Q60.284374 29.83125 61.628124 28.39375Q62.971874 26.940624 65.12813 26.940624Q67.20625 26.940624 68.51875 28.3625Q69.84688 29.76875 69.84688 32.346874Q69.84688 32.503124 69.83125 32.815624L62.096874 32.815624Q62.190624 34.51875 63.065624 35.425Q63.940624 36.33125 65.2375 36.33125Q66.20625 36.33125 66.87813 35.83125Q67.56563 35.315624 67.97188 34.20625ZM62.190624 31.3625L67.9875 31.3625Q67.87813 30.065624 67.33125 29.409374Q66.4875 28.39375 65.14375 28.39375Q63.940624 28.39375 63.1125 29.20625Q62.284374 30.003124 62.190624 31.3625ZM71.84688 37.55L71.84688 27.175L73.425 27.175L73.425 28.753124Q74.03438 27.64375 74.55 27.3Q75.06563 26.940624 75.675 26.940624Q76.56563 26.940624 77.4875 27.503124L76.87813 29.14375Q76.2375 28.753124 75.59688 28.753124Q75.01875 28.753124 74.55 29.1125Q74.09688 29.45625 73.89375 30.065624Q73.6125 31.003124 73.6125 32.1125L73.6125 37.55L71.84688 37.55ZM78.15938 34.45625L79.90938 34.175Q80.05 35.221874 80.72188 35.784374Q81.39375 36.33125 82.59688 36.33125Q83.8 36.33125 84.37813 35.846874Q84.97188 35.346874 84.97188 34.690624Q84.97188 34.096874 84.45625 33.753124Q84.09688 33.51875 82.65938 33.159374Q80.72188 32.659374 79.97188 32.315624Q79.2375 31.95625 78.84688 31.33125Q78.45625 30.690624 78.45625 29.925Q78.45625 29.2375 78.76875 28.64375Q79.09688 28.05 79.64375 27.659374Q80.05 27.3625 80.75313 27.159374Q81.47188 26.940624 82.28438 26.940624Q83.50313 26.940624 84.425 27.3Q85.34688 27.64375 85.78438 28.253124Q86.22188 28.846874 86.39375 29.846874L84.675 30.08125Q84.55 29.284374 83.9875 28.846874Q83.425 28.39375 82.40938 28.39375Q81.19063 28.39375 80.675 28.8Q80.15938 29.190624 80.15938 29.721874Q80.15938 30.065624 80.37813 30.346874Q80.58125 30.628124 81.05 30.815624Q81.31563 30.909374 82.59688 31.253124Q84.47188 31.753124 85.20625 32.08125Q85.94063 32.39375 86.3625 33.003124Q86.78438 33.596874 86.78438 34.503124Q86.78438 35.378124 86.26875 36.159374Q85.75313 36.940624 84.78438 37.3625Q83.81563 37.784374 82.59688 37.784374Q80.58125 37.784374 79.51875 36.940624Q78.45625 36.096874 78.15938 34.45625ZM88.8625 37.55L88.8625 23.2375L90.62813 23.2375L90.62813 28.3625Q91.8625 26.940624 93.7375 26.940624Q94.87813 26.940624 95.72188 27.39375Q96.58125 27.846874 96.94063 28.659374Q97.31563 29.45625 97.31563 30.971874L97.31563 37.55L95.56563 37.55L95.56563 30.971874Q95.56563 29.659374 94.9875 29.065624Q94.40938 28.45625 93.37813 28.45625Q92.59688 28.45625 91.89375 28.8625Q91.20625 29.26875 90.90938 29.971874Q90.62813 30.659374 90.62813 31.878124L90.62813 37.55L88.8625 37.55ZM98.87813 25.253124L98.87813 23.2375L100.64375 23.2375L100.64375 25.253124L98.87813 25.253124ZM98.87813 37.55L98.87813 27.175L100.64375 27.175L100.64375 37.55L98.87813 37.55ZM102.8625 41.51875L102.8625 27.175L104.47188 27.175L104.47188 28.51875Q105.03438 27.7375 105.7375 27.346874Q106.45625 26.940624 107.47188 26.940624Q108.8 26.940624 109.81563 27.628124Q110.83125 28.315624 111.34688 29.565624Q111.87813 30.8 111.87813 32.284374Q111.87813 33.878124 111.3 35.159374Q110.7375 36.425 109.64375 37.1125Q108.55 37.784374 107.34688 37.784374Q106.47188 37.784374 105.76875 37.409374Q105.08125 37.034374 104.62813 36.471874L104.62813 41.51875L102.8625 41.51875ZM104.45625 32.425Q104.45625 34.425 105.26875 35.378124Q106.08125 36.33125 107.2375 36.33125Q108.40938 36.33125 109.2375 35.346874Q110.08125 34.3625 110.08125 32.26875Q110.08125 30.3 109.25313 29.315624Q108.44063 28.315624 107.31563 28.315624Q106.19063 28.315624 105.31563 29.378124Q104.45625 30.425 104.45625 32.425ZM121.4875 37.55L119.8625 37.55L119.8625 23.2375L121.6125 23.2375L121.6125 28.346874Q122.7375 26.940624 124.45625 26.940624Q125.40938 26.940624 126.26875 27.33125Q127.12813 27.721874 127.675 28.425Q128.22188 29.1125 128.53438 30.096874Q128.84688 31.08125 128.84688 32.20625Q128.84688 34.878124 127.53438 36.33125Q126.22188 37.784374 124.37813 37.784374Q122.53438 37.784374 121.4875 36.253124L121.4875 37.55ZM121.47188 32.284374Q121.47188 34.14375 121.97188 34.9875Q122.81563 36.33125 124.22188 36.33125Q125.37813 36.33125 126.20625 35.33125Q127.05 34.33125 127.05 32.346874Q127.05 30.315624 126.2375 29.3625Q125.44063 28.39375 124.3 28.39375Q123.14375 28.39375 122.3 29.39375Q121.47188 30.39375 121.47188 32.284374ZM130.78438 41.55L130.59688 39.89375Q131.175 40.05 131.59688 40.05Q132.19063 40.05 132.53438 39.846874Q132.89375 39.659374 133.1125 39.315624Q133.28438 39.05 133.65938 38.003124Q133.70625 37.846874 133.81563 37.565624L129.87813 27.175L131.76875 27.175L133.925 33.190624Q134.34688 34.33125 134.675 35.58125Q134.9875 34.378124 135.39375 33.221874L137.6125 27.175L139.37813 27.175L135.425 37.721874Q134.8 39.440624 134.44063 40.08125Q133.97188 40.95625 133.3625 41.346874Q132.76875 41.753124 131.925 41.753124Q131.40938 41.753124 130.78438 41.55ZM151.19063 37.55L145.64375 23.2375L147.69063 23.2375L151.40938 33.628124Q151.8625 34.878124 152.15938 35.971874Q152.4875 34.8 152.94063 33.628124L156.8 23.2375L158.7375 23.2375L153.12813 37.55L151.19063 37.55ZM166.64375 36.26875Q165.65938 37.096874 164.75313 37.440624Q163.84688 37.784374 162.81563 37.784374Q161.1125 37.784374 160.19063 36.95625Q159.26875 36.1125 159.26875 34.815624Q159.26875 34.05 159.6125 33.425Q159.97188 32.8 160.53438 32.425Q161.09688 32.034374 161.8 31.83125Q162.31563 31.70625 163.3625 31.565624Q165.4875 31.315624 166.4875 30.971874Q166.50313 30.6125 166.50313 30.503124Q166.50313 29.440624 166.00313 28.9875Q165.33125 28.39375 164.00313 28.39375Q162.75313 28.39375 162.15938 28.83125Q161.58125 29.26875 161.3 30.378124L159.58125 30.14375Q159.81563 29.034374 160.34688 28.3625Q160.87813 27.675 161.89375 27.315624Q162.90938 26.940624 164.25313 26.940624Q165.58125 26.940624 166.40938 27.253124Q167.2375 27.565624 167.62813 28.05Q168.01875 28.51875 168.175 29.2375Q168.26875 29.690624 168.26875 30.8625L168.26875 33.20625Q168.26875 35.659374 168.37813 36.315624Q168.4875 36.95625 168.83125 37.55L166.9875 37.55Q166.72188 37.003124 166.64375 36.26875ZM166.4875 32.346874Q165.53438 32.7375 163.6125 33.003124Q162.53438 33.159374 162.08125 33.3625Q161.64375 33.55 161.39375 33.925Q161.14375 34.3 161.14375 34.76875Q161.14375 35.471874 161.675 35.940624Q162.20625 36.409374 163.2375 36.409374Q164.25313 36.409374 165.03438 35.971874Q165.83125 35.51875 166.20625 34.753124Q166.4875 34.14375 166.4875 32.9875L166.4875 32.346874ZM177.65938 37.55L177.65938 36.01875Q176.45625 37.784374 174.37813 37.784374Q173.45625 37.784374 172.65938 37.440624Q171.8625 37.08125 171.47188 36.55Q171.09688 36.01875 170.94063 35.2375Q170.83125 34.721874 170.83125 33.596874L170.83125 27.175L172.58125 27.175L172.58125 32.925Q172.58125 34.3 172.69063 34.784374Q172.8625 35.471874 173.39375 35.878124Q173.94063 36.26875 174.72188 36.26875Q175.51875 36.26875 176.20625 35.8625Q176.90938 35.45625 177.19063 34.76875Q177.4875 34.065624 177.4875 32.7375L177.4875 27.175L179.2375 27.175L179.2375 37.55L177.65938 37.55ZM180.83125 37.55L180.83125 23.2375L182.58125 23.2375L182.58125 37.55L180.83125 37.55ZM188.70625 35.971874L188.95625 37.534374Q188.22188 37.690624 187.62813 37.690624Q186.675 37.690624 186.14375 37.39375Q185.62813 37.08125 185.40938 36.596874Q185.19063 36.096874 185.19063 34.51875L185.19063 28.55L183.90938 28.55L183.90938 27.175L185.19063 27.175L185.19063 24.6125L186.94063 23.55L186.94063 27.175L188.70625 27.175L188.70625 28.55L186.94063 28.55L186.94063 34.6125Q186.94063 35.3625 187.03438 35.58125Q187.12813 35.784374 187.33125 35.925Q187.55 36.05 187.94063 36.05Q188.22188 36.05 188.70625 35.971874ZM190.15938 34.45625L191.90938 34.175Q192.05 35.221874 192.72188 35.784374Q193.39375 36.33125 194.59688 36.33125Q195.8 36.33125 196.37813 35.846874Q196.97188 35.346874 196.97188 34.690624Q196.97188 34.096874 196.45625 33.753124Q196.09688 33.51875 194.65938 33.159374Q192.72188 32.659374 191.97188 32.315624Q191.2375 31.95625 190.84688 31.33125Q190.45625 30.690624 190.45625 29.925Q190.45625 29.2375 190.76875 28.64375Q191.09688 28.05 191.64375 27.659374Q192.05 27.3625 192.75313 27.159374Q193.47188 26.940624 194.28438 26.940624Q195.50313 26.940624 196.425 27.3Q197.34688 27.64375 197.78438 28.253124Q198.22188 28.846874 198.39375 29.846874L196.675 30.08125Q196.55 29.284374 195.9875 28.846874Q195.425 28.39375 194.40938 28.39375Q193.19063 28.39375 192.675 28.8Q192.15938 29.190624 192.15938 29.721874Q192.15938 30.065624 192.37813 30.346874Q192.58125 30.628124 193.05 30.815624Q193.31563 30.909374 194.59688 31.253124Q196.47188 31.753124 197.20625 32.08125Q197.94063 32.39375 198.3625 33.003124Q198.78438 33.596874 198.78438 34.503124Q198.78438 35.378124 198.26875 36.159374Q197.75313 36.940624 196.78438 37.3625Q195.81563 37.784374 194.59688 37.784374Q192.58125 37.784374 191.51875 36.940624Q190.45625 36.096874 190.15938 34.45625Z" fill-rule="nonzero"/></svg>