<svg version="1.1" viewBox="0.0 0.0 600.0 371.0" fill="none" stroke="none" stroke-linecap="square" stroke-miterlimit="10" width="600" height="371" xmlns:xlink="http://www.w3.org/1999/xlink" xmlns="http://www.w3.org/2000/svg"><path fill="#ffffff" d="M0 0L600.0 0L600.0 371.0L0 371.0L0 0Z" fill-rule="nonzero"/><path fill="#0000b3" d="M410.13205 125.6417L453.8535 83.51754L453.8535 105.832535L410.13205 147.9567Z" fill-rule="nonzero"/><path fill="#0000b3" d="M366.41064 115.69753C382.11887 115.69753 397.42386 119.178566 410.13205 125.6417L410.13205 147.9567C397.42386 141.49356 382.11887 138.01254 366.41064 138.01254Z" fill-rule="nonzero"/><path fill="#0000ff" d="M366.41064 63.629204C397.82706 63.629204 428.43707 70.591255 453.8535 83.51754L410.13205 125.6417C397.42386 119.178566 382.11887 115.69753 366.41064 115.69753Z" fill-rule="nonzero"/><path fill="#6b00b3" d="M539.05585 222.88583C539.05585 280.39893 472.4507 327.0225 390.28915 327.0225L390.28915 304.7075C472.4507 304.7075 539.05585 258.08392 539.05585 200.57083Z" fill-rule="nonzero"/><path fill="#6b00b3" d="M434.0106 158.44667C453.27365 168.24348 464.6725 183.9035 464.6725 200.57083L464.6725 222.88583C464.6725 206.2185 453.27365 190.55849 434.0106 180.76167Z" fill-rule="nonzero"/><path fill="#9900ff" d="M477.732 116.3225C529.87286 142.84027 551.6907 189.84416 531.77466 232.75084C511.85864 275.6575 454.73877 304.7075 390.28915 304.7075L390.28915 252.63916C422.51398 252.63916 451.07388 238.11417 461.03192 216.66083C470.98993 195.2075 460.081 171.70555 434.0106 158.44667Z" fill-rule="nonzero"/><path fill="#00b300" d="M317.7261 318.9775C235.56454 318.9775 168.95944 272.3539 168.95944 214.84084L168.95944 192.52583C168.95944 250.03893 235.56454 296.6625 317.7261 296.6625Z" fill-rule="nonzero"/><path fill="#00b300" d="M243.34277 192.52583C243.34277 163.76929 276.64532 140.4575 317.7261 140.4575L317.7261 162.7725C276.64532 162.7725 243.34277 186.08429 243.34277 214.84084Z" fill-rule="nonzero"/><path fill="#00ff00" d="M317.7261 296.6625C235.56454 296.6625 168.95944 250.03893 168.95944 192.52583C168.95944 135.01274 235.56454 88.38917 317.7261 88.38917L317.7261 140.4575C276.64532 140.4575 243.34277 163.76929 243.34277 192.52583C243.34277 221.28238 276.64532 244.59416 317.7261 244.59416Z" fill-rule="nonzero"/><path fill="#ffffff" d="M392.10797 98.48598L390.8736 98.48598L390.8736 90.64223Q390.4361 91.0641 389.70172 91.5016Q388.98297 91.92348 388.42047 92.1266L388.42047 90.9391Q389.45172 90.45473 390.21735 89.76723Q390.9986 89.07973 391.3111 88.42348L392.10797 88.42348L392.10797 98.48598ZM395.46735 93.54848Q395.46735 91.76723 395.82672 90.6891Q396.20172 89.59535 396.92047 89.01723Q397.63922 88.42348 398.73297 88.42348Q399.54547 88.42348 400.15485 88.7516Q400.76422 89.07973 401.15485 89.6891Q401.5611 90.29848 401.77985 91.17348Q401.9986 92.04848 401.9986 93.54848Q401.9986 95.3141 401.63922 96.39223Q401.27985 97.47035 400.5611 98.0641Q399.84235 98.65785 398.73297 98.65785Q397.29547 98.65785 396.46735 97.61098Q395.46735 96.36098 395.46735 93.54848ZM396.73297 93.54848Q396.73297 96.01723 397.3111 96.82973Q397.88922 97.64223 398.73297 97.64223Q399.59235 97.64223 400.17047 96.82973Q400.7486 96.0016 400.7486 93.54848Q400.7486 91.0641 400.17047 90.2516Q399.59235 89.4391 398.71735 89.4391Q397.8736 89.4391 397.3736 90.15785Q396.73297 91.07973 396.73297 93.54848ZM403.70172 90.8766Q403.70172 89.79848 404.23297 89.04848Q404.77985 88.29848 405.8111 88.29848Q406.7486 88.29848 407.35797 88.97035Q407.98297 89.64223 407.98297 90.9391Q407.98297 92.22035 407.35797 92.90785Q406.73297 93.59535 405.82672 93.59535Q404.92047 93.59535 404.3111 92.92348Q403.70172 92.23598 403.70172 90.8766ZM405.84235 89.14223Q405.38922 89.14223 405.07672 89.54848Q404.77985 89.9391 404.77985 90.98598Q404.77985 91.95473 405.07672 92.34535Q405.38922 92.73598 405.84235 92.73598Q406.3111 92.73598 406.60797 92.34535Q406.92047 91.95473 406.92047 90.89223Q406.92047 89.92348 406.60797 89.53285Q406.29547 89.14223 405.84235 89.14223ZM405.84235 98.86098L411.32672 88.29848L412.32672 88.29848L406.8736 98.86098L405.84235 98.86098ZM410.1861 96.1266Q410.1861 95.04848 410.71735 94.3141Q411.26422 93.5641 412.29547 93.5641Q413.23297 93.5641 413.85797 94.23598Q414.48297 94.90785 414.48297 96.20473Q414.48297 97.48598 413.85797 98.17348Q413.23297 98.86098 412.29547 98.86098Q411.38922 98.86098 410.77985 98.1891Q410.1861 97.5016 410.1861 96.1266ZM412.32672 94.40785Q411.85797 94.40785 411.5611 94.8141Q411.26422 95.20473 411.26422 96.2516Q411.26422 97.22035 411.5611 97.61098Q411.8736 98.0016 412.32672 98.0016Q412.79547 98.0016 413.09235 97.61098Q413.40485 97.22035 413.40485 96.15785Q413.40485 95.1891 413.09235 94.79848Q412.79547 94.40785 412.32672 94.40785Z" fill-rule="nonzero"/><path fill="#ffffff" d="M486.93454 229.70583L486.93454 227.29958L482.57516 227.29958L482.57516 226.17458L487.1533 219.6902L488.1533 219.6902L488.1533 226.17458L489.51266 226.17458L489.51266 227.29958L488.1533 227.29958L488.1533 229.70583L486.93454 229.70583ZM486.93454 226.17458L486.93454 221.65895L483.7939 226.17458L486.93454 226.17458ZM490.9814 224.76833Q490.9814 222.98708 491.3408 221.90895Q491.7158 220.8152 492.43454 220.23708Q493.1533 219.64333 494.24704 219.64333Q495.05954 219.64333 495.6689 219.97145Q496.2783 220.29958 496.6689 220.90895Q497.07516 221.51833 497.2939 222.39333Q497.51266 223.26833 497.51266 224.76833Q497.51266 226.53395 497.1533 227.61208Q496.7939 228.6902 496.07516 229.28395Q495.3564 229.8777 494.24704 229.8777Q492.80954 229.8777 491.9814 228.83083Q490.9814 227.58083 490.9814 224.76833ZM492.24704 224.76833Q492.24704 227.23708 492.82516 228.04958Q493.4033 228.86208 494.24704 228.86208Q495.1064 228.86208 495.68454 228.04958Q496.26266 227.22145 496.26266 224.76833Q496.26266 222.28395 495.68454 221.47145Q495.1064 220.65895 494.2314 220.65895Q493.38766 220.65895 492.88766 221.3777Q492.24704 222.29958 492.24704 224.76833ZM499.2158 222.09645Q499.2158 221.01833 499.74704 220.26833Q500.2939 219.51833 501.32516 219.51833Q502.26266 219.51833 502.87204 220.1902Q503.49704 220.86208 503.49704 222.15895Q503.49704 223.4402 502.87204 224.1277Q502.24704 224.8152 501.3408 224.8152Q500.43454 224.8152 499.82516 224.14333Q499.2158 223.45583 499.2158 222.09645ZM501.3564 220.36208Q500.9033 220.36208 500.5908 220.76833Q500.2939 221.15895 500.2939 222.20583Q500.2939 223.17458 500.5908 223.5652Q500.9033 223.95583 501.3564 223.95583Q501.82516 223.95583 502.12204 223.5652Q502.43454 223.17458 502.43454 222.11208Q502.43454 221.14333 502.12204 220.7527Q501.80954 220.36208 501.3564 220.36208ZM501.3564 230.08083L506.8408 219.51833L507.8408 219.51833L502.38766 230.08083L501.3564 230.08083ZM505.70016 227.34645Q505.70016 226.26833 506.2314 225.53395Q506.7783 224.78395 507.80954 224.78395Q508.74704 224.78395 509.37204 225.45583Q509.99704 226.1277 509.99704 227.42458Q509.99704 228.70583 509.37204 229.39333Q508.74704 230.08083 507.80954 230.08083Q506.9033 230.08083 506.2939 229.40895Q505.70016 228.72145 505.70016 227.34645ZM507.8408 225.6277Q507.37204 225.6277 507.07516 226.03395Q506.7783 226.42458 506.7783 227.47145Q506.7783 228.4402 507.07516 228.83083Q507.38766 229.22145 507.8408 229.22145Q508.30954 229.22145 508.6064 228.83083Q508.9189 228.4402 508.9189 227.3777Q508.9189 226.40895 508.6064 226.01833Q508.30954 225.6277 507.8408 225.6277Z" fill-rule="nonzero"/><path fill="#ffffff" d="M188.04828 194.90083L189.34515 194.79146Q189.48578 195.72896 190.0014 196.21333Q190.53265 196.68208 191.26703 196.68208Q192.15765 196.68208 192.76703 196.01021Q193.39203 195.33833 193.39203 194.24458Q193.39203 193.18208 192.79828 192.57271Q192.20453 191.96333 191.2514 191.96333Q190.65765 191.96333 190.17328 192.24458Q189.70453 192.51021 189.42328 192.93208L188.26703 192.79146L189.23578 187.63521L194.22015 187.63521L194.22015 188.82271L190.22015 188.82271L189.6889 191.51021Q190.59515 190.88521 191.57953 190.88521Q192.89203 190.88521 193.78265 191.79146Q194.6889 192.69771 194.6889 194.13521Q194.6889 195.49458 193.90765 196.47896Q192.9389 197.69771 191.26703 197.69771Q189.90765 197.69771 189.03265 196.93208Q188.17328 196.16646 188.04828 194.90083ZM196.04828 192.58833Q196.04828 190.80708 196.40765 189.72896Q196.78265 188.63521 197.5014 188.05708Q198.22015 187.46333 199.3139 187.46333Q200.1264 187.46333 200.73578 187.79146Q201.34515 188.11958 201.73578 188.72896Q202.14203 189.33833 202.36078 190.21333Q202.57953 191.08833 202.57953 192.58833Q202.57953 194.35396 202.22015 195.43208Q201.86078 196.51021 201.14203 197.10396Q200.42328 197.69771 199.3139 197.69771Q197.8764 197.69771 197.04828 196.65083Q196.04828 195.40083 196.04828 192.58833ZM197.3139 192.58833Q197.3139 195.05708 197.89203 195.86958Q198.47015 196.68208 199.3139 196.68208Q200.17328 196.68208 200.7514 195.86958Q201.32953 195.04146 201.32953 192.58833Q201.32953 190.10396 200.7514 189.29146Q200.17328 188.47896 199.29828 188.47896Q198.45453 188.47896 197.95453 189.19771Q197.3139 190.11958 197.3139 192.58833ZM204.28265 189.91646Q204.28265 188.83833 204.8139 188.08833Q205.36078 187.33833 206.39203 187.33833Q207.32953 187.33833 207.9389 188.01021Q208.5639 188.68208 208.5639 189.97896Q208.5639 191.26021 207.9389 191.94771Q207.3139 192.63521 206.40765 192.63521Q205.5014 192.63521 204.89203 191.96333Q204.28265 191.27583 204.28265 189.91646ZM206.42328 188.18208Q205.97015 188.18208 205.65765 188.58833Q205.36078 188.97896 205.36078 190.02583Q205.36078 190.99458 205.65765 191.38521Q205.97015 191.77583 206.42328 191.77583Q206.89203 191.77583 207.1889 191.38521Q207.5014 190.99458 207.5014 189.93208Q207.5014 188.96333 207.1889 188.57271Q206.8764 188.18208 206.42328 188.18208ZM206.42328 197.90083L211.90765 187.33833L212.90765 187.33833L207.45453 197.90083L206.42328 197.90083ZM210.76703 195.16646Q210.76703 194.08833 211.29828 193.35396Q211.84515 192.60396 212.8764 192.60396Q213.8139 192.60396 214.4389 193.27583Q215.0639 193.94771 215.0639 195.24458Q215.0639 196.52583 214.4389 197.21333Q213.8139 197.90083 212.8764 197.90083Q211.97015 197.90083 211.36078 197.22896Q210.76703 196.54146 210.76703 195.16646ZM212.90765 193.44771Q212.4389 193.44771 212.14203 193.85396Q211.84515 194.24458 211.84515 195.29146Q211.84515 196.26021 212.14203 196.65083Q212.45453 197.04146 212.90765 197.04146Q213.3764 197.04146 213.67328 196.65083Q213.98578 196.26021 213.98578 195.19771Q213.98578 194.22896 213.67328 193.83833Q213.3764 193.44771 212.90765 193.44771Z" fill-rule="nonzero"/><path fill="#0000ff" d="M30.55 61.916668C30.55 65.23038 27.863708 67.916664 24.55 67.916664C21.236292 67.916664 18.55 65.23038 18.55 61.916668C18.55 58.60296 21.236292 55.916668 24.55 55.916668C27.863708 55.916668 30.55 58.60296 30.55 61.916668Z" fill-rule="nonzero"/><path fill="#1a1a1a" d="M38.925 64.05729L39.95625 63.90104Q40.05 64.52604 40.440624 64.854164Q40.846874 65.18229 41.58125 65.18229Q42.3 65.18229 42.64375 64.90104Q43.003124 64.604164 43.003124 64.197914Q43.003124 63.83854 42.690624 63.635414Q42.471874 63.49479 41.6125 63.27604Q40.45625 62.979164 40.003124 62.77604Q39.565624 62.55729 39.33125 62.18229Q39.096874 61.80729 39.096874 61.33854Q39.096874 60.93229 39.284374 60.572914Q39.471874 60.21354 39.8 59.979164Q40.05 59.80729 40.471874 59.68229Q40.89375 59.55729 41.39375 59.55729Q42.1125 59.55729 42.659374 59.77604Q43.221874 59.979164 43.4875 60.33854Q43.753124 60.697914 43.846874 61.291664L42.815624 61.43229Q42.753124 60.96354 42.409374 60.697914Q42.08125 60.416664 41.45625 60.416664Q40.7375 60.416664 40.425 60.666664Q40.1125 60.90104 40.1125 61.229164Q40.1125 61.43229 40.2375 61.58854Q40.378124 61.760414 40.64375 61.86979Q40.8 61.93229 41.58125 62.135414Q42.70625 62.447914 43.14375 62.635414Q43.58125 62.822914 43.83125 63.18229Q44.08125 63.541664 44.08125 64.08854Q44.08125 64.61979 43.76875 65.08854Q43.471874 65.541664 42.89375 65.80729Q42.315624 66.05729 41.58125 66.05729Q40.3625 66.05729 39.721874 65.55729Q39.096874 65.041664 38.925 64.05729ZM46.425 65.916664L46.425 57.322914L47.565624 57.322914L47.565624 61.58854L51.83125 57.322914L53.378124 57.322914L49.76875 60.80729L53.534374 65.916664L52.034374 65.916664L48.971874 61.572914L47.565624 62.93229L47.565624 65.916664L46.425 65.916664ZM54.346874 58.541664L54.346874 57.322914L55.409374 57.322914L55.409374 58.541664L54.346874 58.541664ZM54.346874 65.916664L54.346874 59.697914L55.409374 59.697914L55.409374 65.916664L54.346874 65.916664ZM57.346874 65.916664L57.346874 59.697914L58.284374 59.697914L58.284374 60.572914Q58.971874 59.55729 60.26875 59.55729Q60.83125 59.55729 61.3 59.760414Q61.784374 59.96354 62.01875 60.291664Q62.253124 60.61979 62.346874 61.05729Q62.39375 61.354164 62.39375 62.08854L62.39375 65.916664L61.346874 65.916664L61.346874 62.135414Q61.346874 61.479164 61.221874 61.166664Q61.096874 60.854164 60.784374 60.666664Q60.471874 60.46354 60.05 60.46354Q59.378124 60.46354 58.878124 60.90104Q58.39375 61.322914 58.39375 62.510414L58.39375 65.916664L57.346874 65.916664ZM64.14375 66.43229L65.175 66.58854Q65.2375 67.05729 65.53438 67.27604Q65.925 67.572914 66.59688 67.572914Q67.33125 67.572914 67.72188 67.27604Q68.12813 66.979164 68.26875 66.46354Q68.3625 66.135414 68.34688 65.104164Q67.65938 65.916664 66.62813 65.916664Q65.34688 65.916664 64.64375 64.99479Q63.940624 64.05729 63.940624 62.77604Q63.940624 61.885414 64.25313 61.135414Q64.58125 60.36979 65.19063 59.96354Q65.8 59.55729 66.62813 59.55729Q67.7375 59.55729 68.45625 60.447914L68.45625 59.697914L69.425 59.697914L69.425 65.072914Q69.425 66.52604 69.12813 67.135414Q68.83125 67.74479 68.19063 68.08854Q67.55 68.447914 66.6125 68.447914Q65.50313 68.447914 64.81563 67.947914Q64.12813 67.447914 64.14375 66.43229ZM65.01875 62.697914Q65.01875 63.916664 65.50313 64.479164Q65.9875 65.041664 66.72188 65.041664Q67.45625 65.041664 67.94063 64.479164Q68.44063 63.916664 68.44063 62.729164Q68.44063 61.58854 67.925 61.010414Q67.425 60.43229 66.70625 60.43229Q66.00313 60.43229 65.50313 61.010414Q65.01875 61.572914 65.01875 62.697914ZM76.925 65.916664L73.59688 57.322914L74.83125 57.322914L77.06563 63.572914Q77.33125 64.322914 77.51875 64.979164Q77.72188 64.27604 77.9875 63.572914L80.3 57.322914L81.45625 57.322914L78.09688 65.916664L76.925 65.916664ZM85.40938 65.15104Q84.81563 65.65104 84.26875 65.854164Q83.7375 66.05729 83.1125 66.05729Q82.08125 66.05729 81.53438 65.55729Q80.9875 65.05729 80.9875 64.27604Q80.9875 63.822914 81.19063 63.447914Q81.39375 63.05729 81.7375 62.83854Q82.08125 62.604164 82.50313 62.49479Q82.8 62.40104 83.44063 62.322914Q84.70625 62.18229 85.31563 61.96354Q85.31563 61.74479 85.31563 61.697914Q85.31563 61.041664 85.01875 60.77604Q84.6125 60.43229 83.81563 60.43229Q83.08125 60.43229 82.72188 60.697914Q82.3625 60.947914 82.19063 61.604164L81.15938 61.46354Q81.3 60.80729 81.62813 60.40104Q81.95625 59.99479 82.56563 59.77604Q83.175 59.55729 83.97188 59.55729Q84.76875 59.55729 85.26875 59.74479Q85.76875 59.93229 86.00313 60.21354Q86.2375 60.49479 86.33125 60.93229Q86.37813 61.197914 86.37813 61.90104L86.37813 63.30729Q86.37813 64.77604 86.44063 65.166664Q86.51875 65.55729 86.72188 65.916664L85.6125 65.916664Q85.45625 65.58854 85.40938 65.15104ZM85.31563 62.791664Q84.7375 63.02604 83.59688 63.197914Q82.94063 63.291664 82.675 63.416664Q82.40938 63.52604 82.25313 63.74479Q82.1125 63.96354 82.1125 64.24479Q82.1125 64.666664 82.425 64.947914Q82.75313 65.229164 83.3625 65.229164Q83.97188 65.229164 84.44063 64.96354Q84.925 64.697914 85.14375 64.229164Q85.31563 63.86979 85.31563 63.18229L85.31563 62.791664ZM92.425 65.916664L92.425 64.99479Q91.69063 66.05729 90.44063 66.05729Q89.89375 66.05729 89.40938 65.854164Q88.94063 65.635414 88.70625 65.322914Q88.47188 64.99479 88.37813 64.52604Q88.31563 64.229164 88.31563 63.541664L88.31563 59.697914L89.37813 59.697914L89.37813 63.15104Q89.37813 63.96354 89.44063 64.260414Q89.53438 64.666664 89.84688 64.916664Q90.175 65.15104 90.65938 65.15104Q91.12813 65.15104 91.53438 64.916664Q91.95625 64.666664 92.12813 64.24479Q92.31563 63.822914 92.31563 63.02604L92.31563 59.697914L93.3625 59.697914L93.3625 65.916664L92.425 65.916664ZM95.31563 65.916664L95.31563 57.322914L96.37813 57.322914L96.37813 65.916664L95.31563 65.916664ZM100.64375 64.979164L100.8 65.90104Q100.34688 65.99479 100.00313 65.99479Q99.425 65.99479 99.1125 65.822914Q98.8 65.635414 98.65938 65.33854Q98.53438 65.041664 98.53438 64.08854L98.53438 60.510414L97.76875 60.510414L97.76875 59.697914L98.53438 59.697914L98.53438 58.15104L99.58125 57.52604L99.58125 59.697914L100.64375 59.697914L100.64375 60.510414L99.58125 60.510414L99.58125 64.15104Q99.58125 64.604164 99.62813 64.729164Q99.69063 64.854164 99.81563 64.93229Q99.94063 65.010414 100.175 65.010414Q100.3625 65.010414 100.64375 64.979164Z" fill-rule="nonzero"/><path fill="#9900ff" d="M30.55 85.916664C30.55 89.23038 27.863708 91.916664 24.55 91.916664C21.236292 91.916664 18.55 89.23038 18.55 85.916664C18.55 82.60296 21.236292 79.916664 24.55 79.916664C27.863708 79.916664 30.55 82.60296 30.55 85.916664Z" fill-rule="nonzero"/><path fill="#1a1a1a" d="M40.4875 89.916664L38.58125 83.697914L39.675 83.697914L40.659374 87.291664L41.034374 88.61979Q41.065624 88.52604 41.3625 87.33854L42.346874 83.697914L43.425 83.697914L44.3625 87.30729L44.675 88.49479L45.034374 87.291664L46.096874 83.697914L47.128124 83.697914L45.175 89.916664L44.08125 89.916664L43.096874 86.18229L42.846874 85.135414L41.596874 89.916664L40.4875 89.916664ZM48.534374 89.916664L48.534374 81.322914L54.33125 81.322914L54.33125 82.33854L49.675 82.33854L49.675 84.99479L53.70625 84.99479L53.70625 86.010414L49.675 86.010414L49.675 89.916664L48.534374 89.916664ZM54.95625 86.80729Q54.95625 85.072914 55.909374 84.24479Q56.70625 83.55729 57.8625 83.55729Q59.14375 83.55729 59.95625 84.40104Q60.784374 85.229164 60.784374 86.71354Q60.784374 87.916664 60.425 88.604164Q60.065624 89.291664 59.3625 89.68229Q58.675 90.05729 57.8625 90.05729Q56.565624 90.05729 55.753124 89.229164Q54.95625 88.385414 54.95625 86.80729ZM56.034374 86.80729Q56.034374 87.99479 56.55 88.58854Q57.08125 89.18229 57.8625 89.18229Q58.659374 89.18229 59.175 88.58854Q59.690624 87.99479 59.690624 86.77604Q59.690624 85.61979 59.159374 85.02604Q58.64375 84.43229 57.8625 84.43229Q57.08125 84.43229 56.55 85.02604Q56.034374 85.604164 56.034374 86.80729ZM62.33125 89.916664L62.33125 83.697914L63.284374 83.697914L63.284374 84.635414Q63.64375 83.979164 63.940624 83.77604Q64.25313 83.55729 64.62813 83.55729Q65.15938 83.55729 65.70625 83.885414L65.34688 84.86979Q64.95625 84.635414 64.58125 84.635414Q64.22188 84.635414 63.940624 84.854164Q63.675 85.05729 63.565624 85.43229Q63.378124 85.99479 63.378124 86.65104L63.378124 89.916664L62.33125 89.916664ZM70.40938 87.635414L71.44063 87.77604Q71.26875 88.83854 70.56563 89.447914Q69.8625 90.05729 68.84688 90.05729Q67.56563 90.05729 66.78438 89.229164Q66.01875 88.385414 66.01875 86.822914Q66.01875 85.822914 66.34688 85.072914Q66.69063 84.30729 67.3625 83.93229Q68.05 83.55729 68.8625 83.55729Q69.8625 83.55729 70.50313 84.072914Q71.15938 84.572914 71.34688 85.52604L70.31563 85.68229Q70.175 85.05729 69.8 84.74479Q69.425 84.416664 68.89375 84.416664Q68.09688 84.416664 67.59688 84.99479Q67.09688 85.55729 67.09688 86.791664Q67.09688 88.05729 67.58125 88.61979Q68.06563 89.18229 68.83125 89.18229Q69.45625 89.18229 69.8625 88.80729Q70.28438 88.43229 70.40938 87.635414ZM76.59688 87.916664L77.69063 88.041664Q77.44063 88.99479 76.7375 89.52604Q76.03438 90.05729 74.95625 90.05729Q73.59688 90.05729 72.78438 89.21354Q71.9875 88.36979 71.9875 86.854164Q71.9875 85.291664 72.8 84.43229Q73.6125 83.55729 74.89375 83.55729Q76.14375 83.55729 76.925 84.40104Q77.72188 85.24479 77.72188 86.791664Q77.72188 86.885414 77.72188 87.072914L73.08125 87.072914Q73.14375 88.104164 73.65938 88.65104Q74.175 89.18229 74.95625 89.18229Q75.53438 89.18229 75.94063 88.885414Q76.3625 88.572914 76.59688 87.916664ZM73.14375 86.21354L76.6125 86.21354Q76.55 85.416664 76.22188 85.02604Q75.70625 84.416664 74.90938 84.416664Q74.175 84.416664 73.675 84.90104Q73.19063 85.385414 73.14375 86.21354ZM84.925 89.916664L81.59688 81.322914L82.83125 81.322914L85.06563 87.572914Q85.33125 88.322914 85.51875 88.979164Q85.72188 88.27604 85.9875 87.572914L88.3 81.322914L89.45625 81.322914L86.09688 89.916664L84.925 89.916664ZM93.40938 89.15104Q92.81563 89.65104 92.26875 89.854164Q91.7375 90.05729 91.1125 90.05729Q90.08125 90.05729 89.53438 89.55729Q88.9875 89.05729 88.9875 88.27604Q88.9875 87.822914 89.19063 87.447914Q89.39375 87.05729 89.7375 86.83854Q90.08125 86.604164 90.50313 86.49479Q90.8 86.40104 91.44063 86.322914Q92.70625 86.18229 93.31563 85.96354Q93.31563 85.74479 93.31563 85.697914Q93.31563 85.041664 93.01875 84.77604Q92.6125 84.43229 91.81563 84.43229Q91.08125 84.43229 90.72188 84.697914Q90.3625 84.947914 90.19063 85.604164L89.15938 85.46354Q89.3 84.80729 89.62813 84.40104Q89.95625 83.99479 90.56563 83.77604Q91.175 83.55729 91.97188 83.55729Q92.76875 83.55729 93.26875 83.74479Q93.76875 83.93229 94.00313 84.21354Q94.2375 84.49479 94.33125 84.93229Q94.37813 85.197914 94.37813 85.90104L94.37813 87.30729Q94.37813 88.77604 94.44063 89.166664Q94.51875 89.55729 94.72188 89.916664L93.6125 89.916664Q93.45625 89.58854 93.40938 89.15104ZM93.31563 86.791664Q92.7375 87.02604 91.59688 87.197914Q90.94063 87.291664 90.675 87.416664Q90.40938 87.52604 90.25313 87.74479Q90.1125 87.96354 90.1125 88.24479Q90.1125 88.666664 90.425 88.947914Q90.75313 89.229164 91.3625 89.229164Q91.97188 89.229164 92.44063 88.96354Q92.925 88.697914 93.14375 88.229164Q93.31563 87.86979 93.31563 87.18229L93.31563 86.791664ZM100.425 89.916664L100.425 88.99479Q99.69063 90.05729 98.44063 90.05729Q97.89375 90.05729 97.40938 89.854164Q96.94063 89.635414 96.70625 89.322914Q96.47188 88.99479 96.37813 88.52604Q96.31563 88.229164 96.31563 87.541664L96.31563 83.697914L97.37813 83.697914L97.37813 87.15104Q97.37813 87.96354 97.44063 88.260414Q97.53438 88.666664 97.84688 88.916664Q98.175 89.15104 98.65938 89.15104Q99.12813 89.15104 99.53438 88.916664Q99.95625 88.666664 100.12813 88.24479Q100.31563 87.822914 100.31563 87.02604L100.31563 83.697914L101.3625 83.697914L101.3625 89.916664L100.425 89.916664ZM103.31563 89.916664L103.31563 81.322914L104.37813 81.322914L104.37813 89.916664L103.31563 89.916664ZM108.64375 88.979164L108.8 89.90104Q108.34688 89.99479 108.00313 89.99479Q107.425 89.99479 107.1125 89.822914Q106.8 89.635414 106.65938 89.33854Q106.53438 89.041664 106.53438 88.08854L106.53438 84.510414L105.76875 84.510414L105.76875 83.697914L106.53438 83.697914L106.53438 82.15104L107.58125 81.52604L107.58125 83.697914L108.64375 83.697914L108.64375 84.510414L107.58125 84.510414L107.58125 88.15104Q107.58125 88.604164 107.62813 88.729164Q107.69063 88.854164 107.81563 88.93229Q107.94063 89.010414 108.175 89.010414Q108.3625 89.010414 108.64375 88.979164Z" fill-rule="nonzero"/><path fill="#00ff00" d="M30.55 109.916664C30.55 113.23038 27.863708 115.916664 24.55 115.916664C21.236292 115.916664 18.55 113.23038 18.55 109.916664C18.55 106.60296 21.236292 103.916664 24.55 103.916664C27.863708 103.916664 30.55 106.60296 30.55 109.916664Z" fill-rule="nonzero"/><path fill="#1a1a1a" d="M43.378124 113.916664L43.378124 113.135414Q42.784374 114.05729 41.64375 114.05729Q40.89375 114.05729 40.26875 113.65104Q39.64375 113.229164 39.3 112.49479Q38.95625 111.760414 38.95625 110.80729Q38.95625 109.885414 39.26875 109.11979Q39.58125 108.354164 40.20625 107.96354Q40.83125 107.55729 41.596874 107.55729Q42.159374 107.55729 42.596874 107.791664Q43.034374 108.02604 43.315624 108.40104L43.315624 105.322914L44.3625 105.322914L44.3625 113.916664L43.378124 113.916664ZM40.05 110.80729Q40.05 112.010414 40.55 112.604164Q41.05 113.18229 41.7375 113.18229Q42.425 113.18229 42.909374 112.61979Q43.39375 112.05729 43.39375 110.90104Q43.39375 109.61979 42.89375 109.02604Q42.409374 108.43229 41.690624 108.43229Q40.9875 108.43229 40.51875 109.010414Q40.05 109.572914 40.05 110.80729ZM50.503124 110.541664L50.503124 109.541664L54.128124 109.52604L54.128124 112.71354Q53.3 113.385414 52.409374 113.729164Q51.51875 114.05729 50.58125 114.05729Q49.315624 114.05729 48.26875 113.52604Q47.2375 112.979164 46.70625 111.96354Q46.190624 110.93229 46.190624 109.666664Q46.190624 108.40104 46.70625 107.322914Q47.2375 106.229164 48.221874 105.71354Q49.20625 105.18229 50.4875 105.18229Q51.425 105.18229 52.175 105.479164Q52.925 105.77604 53.346874 106.322914Q53.784374 106.854164 54.003124 107.729164L52.9875 108.010414Q52.784374 107.354164 52.4875 106.979164Q52.20625 106.604164 51.675 106.385414Q51.14375 106.15104 50.503124 106.15104Q49.721874 106.15104 49.14375 106.385414Q48.58125 106.61979 48.221874 107.010414Q47.878124 107.40104 47.690624 107.86979Q47.3625 108.666664 47.3625 109.58854Q47.3625 110.74479 47.753124 111.52604Q48.159374 112.291664 48.909374 112.666664Q49.659374 113.041664 50.51875 113.041664Q51.253124 113.041664 51.95625 112.760414Q52.659374 112.46354 53.01875 112.15104L53.01875 110.541664L50.503124 110.541664ZM59.425 113.916664L59.425 112.99479Q58.690624 114.05729 57.440624 114.05729Q56.89375 114.05729 56.409374 113.854164Q55.940624 113.635414 55.70625 113.322914Q55.471874 112.99479 55.378124 112.52604Q55.315624 112.229164 55.315624 111.541664L55.315624 107.697914L56.378124 107.697914L56.378124 111.15104Q56.378124 111.96354 56.440624 112.260414Q56.534374 112.666664 56.846874 112.916664Q57.175 113.15104 57.659374 113.15104Q58.128124 113.15104 58.534374 112.916664Q58.95625 112.666664 59.128124 112.24479Q59.315624 111.822914 59.315624 111.02604L59.315624 107.697914L60.3625 107.697914L60.3625 113.916664L59.425 113.916664ZM62.346874 106.541664L62.346874 105.322914L63.409374 105.322914L63.409374 106.541664L62.346874 106.541664ZM62.346874 113.916664L62.346874 107.697914L63.409374 107.697914L63.409374 113.916664L62.346874 113.916664ZM65.31563 113.916664L65.31563 105.322914L66.37813 105.322914L66.37813 113.916664L65.31563 113.916664ZM72.37813 113.916664L72.37813 113.135414Q71.78438 114.05729 70.64375 114.05729Q69.89375 114.05729 69.26875 113.65104Q68.64375 113.229164 68.3 112.49479Q67.95625 111.760414 67.95625 110.80729Q67.95625 109.885414 68.26875 109.11979Q68.58125 108.354164 69.20625 107.96354Q69.83125 107.55729 70.59688 107.55729Q71.15938 107.55729 71.59688 107.791664Q72.03438 108.02604 72.31563 108.40104L72.31563 105.322914L73.3625 105.322914L73.3625 113.916664L72.37813 113.916664ZM69.05 110.80729Q69.05 112.010414 69.55 112.604164Q70.05 113.18229 70.7375 113.18229Q71.425 113.18229 71.90938 112.61979Q72.39375 112.05729 72.39375 110.90104Q72.39375 109.61979 71.89375 109.02604Q71.40938 108.43229 70.69063 108.43229Q69.9875 108.43229 69.51875 109.010414Q69.05 109.572914 69.05 110.80729ZM80.925 113.916664L77.59688 105.322914L78.83125 105.322914L81.06563 111.572914Q81.33125 112.322914 81.51875 112.979164Q81.72188 112.27604 81.9875 111.572914L84.3 105.322914L85.45625 105.322914L82.09688 113.916664L80.925 113.916664ZM89.40938 113.15104Q88.81563 113.65104 88.26875 113.854164Q87.7375 114.05729 87.1125 114.05729Q86.08125 114.05729 85.53438 113.55729Q84.9875 113.05729 84.9875 112.27604Q84.9875 111.822914 85.19063 111.447914Q85.39375 111.05729 85.7375 110.83854Q86.08125 110.604164 86.50313 110.49479Q86.8 110.40104 87.44063 110.322914Q88.70625 110.18229 89.31563 109.96354Q89.31563 109.74479 89.31563 109.697914Q89.31563 109.041664 89.01875 108.77604Q88.6125 108.43229 87.81563 108.43229Q87.08125 108.43229 86.72188 108.697914Q86.3625 108.947914 86.19063 109.604164L85.15938 109.46354Q85.3 108.80729 85.62813 108.40104Q85.95625 107.99479 86.56563 107.77604Q87.175 107.55729 87.97188 107.55729Q88.76875 107.55729 89.26875 107.74479Q89.76875 107.93229 90.00313 108.21354Q90.2375 108.49479 90.33125 108.93229Q90.37813 109.197914 90.37813 109.90104L90.37813 111.30729Q90.37813 112.77604 90.44063 113.166664Q90.51875 113.55729 90.72188 113.916664L89.6125 113.916664Q89.45625 113.58854 89.40938 113.15104ZM89.31563 110.791664Q88.7375 111.02604 87.59688 111.197914Q86.94063 111.291664 86.675 111.416664Q86.40938 111.52604 86.25313 111.74479Q86.1125 111.96354 86.1125 112.24479Q86.1125 112.666664 86.425 112.947914Q86.75313 113.229164 87.3625 113.229164Q87.97188 113.229164 88.44063 112.96354Q88.925 112.697914 89.14375 112.229164Q89.31563 111.86979 89.31563 111.18229L89.31563 110.791664ZM96.425 113.916664L96.425 112.99479Q95.69063 114.05729 94.44063 114.05729Q93.89375 114.05729 93.40938 113.854164Q92.94063 113.635414 92.70625 113.322914Q92.47188 112.99479 92.37813 112.52604Q92.31563 112.229164 92.31563 111.541664L92.31563 107.697914L93.37813 107.697914L93.37813 111.15104Q93.37813 111.96354 93.44063 112.260414Q93.53438 112.666664 93.84688 112.916664Q94.175 113.15104 94.65938 113.15104Q95.12813 113.15104 95.53438 112.916664Q95.95625 112.666664 96.12813 112.24479Q96.31563 111.822914 96.31563 111.02604L96.31563 107.697914L97.3625 107.697914L97.3625 113.916664L96.425 113.916664ZM99.31563 113.916664L99.31563 105.322914L100.37813 105.322914L100.37813 113.916664L99.31563 113.916664ZM104.64375 112.979164L104.8 113.90104Q104.34688 113.99479 104.00313 113.99479Q103.425 113.99479 103.1125 113.822914Q102.8 113.635414 102.65938 113.33854Q102.53438 113.041664 102.53438 112.08854L102.53438 108.510414L101.76875 108.510414L101.76875 107.697914L102.53438 107.697914L102.53438 106.15104L103.58125 105.52604L103.58125 107.697914L104.64375 107.697914L104.64375 108.510414L103.58125 108.510414L103.58125 112.15104Q103.58125 112.604164 103.62813 112.729164Q103.69063 112.854164 103.81563 112.93229Q103.94063 113.010414 104.175 113.010414Q104.3625 113.010414 104.64375 112.979164Z" fill-rule="nonzero"/><path fill="#000000" d="M20.096874 37.55L20.096874 23.2375L25.4875 23.2375Q26.925 23.2375 27.675 23.3625Q28.721874 23.55 29.440624 24.05Q30.159374 24.534374 30.58125 25.425Q31.01875 26.315624 31.01875 27.378124Q31.01875 29.20625 29.846874 30.471874Q28.690624 31.721874 25.659374 31.721874L21.9875 31.721874L21.9875 37.55L20.096874 37.55ZM21.9875 30.034374L25.690624 30.034374Q27.51875 30.034374 28.284374 29.3625Q29.065624 28.675 29.065624 27.425Q29.065624 26.534374 28.6125 25.89375Q28.159374 25.253124 27.425 25.05Q26.940624 24.925 25.64375 24.925L21.9875 24.925L21.9875 30.034374ZM32.846874 37.55L32.846874 27.175L34.425 27.175L34.425 28.753124Q35.034374 27.64375 35.55 27.3Q36.065624 26.940624 36.675 26.940624Q37.565624 26.940624 38.4875 27.503124L37.878124 29.14375Q37.2375 28.753124 36.596874 28.753124Q36.01875 28.753124 35.55 29.1125Q35.096874 29.45625 34.89375 30.065624Q34.6125 31.003124 34.6125 32.1125L34.6125 37.55L32.846874 37.55ZM39.221874 32.3625Q39.221874 29.4875 40.815624 28.096874Q42.159374 26.940624 44.08125 26.940624Q46.221874 26.940624 47.565624 28.346874Q48.925 29.753124 48.925 32.221874Q48.925 34.221874 48.33125 35.378124Q47.7375 36.51875 46.58125 37.159374Q45.440624 37.784374 44.08125 37.784374Q41.89375 37.784374 40.55 36.39375Q39.221874 34.9875 39.221874 32.3625ZM41.01875 32.3625Q41.01875 34.3625 41.878124 35.346874Q42.753124 36.33125 44.08125 36.33125Q45.39375 36.33125 46.253124 35.346874Q47.128124 34.346874 47.128124 32.3Q47.128124 30.378124 46.253124 29.39375Q45.378124 28.39375 44.08125 28.39375Q42.753124 28.39375 41.878124 29.39375Q41.01875 30.378124 41.01875 32.3625ZM51.284374 37.55L51.284374 28.55L49.7375 28.55L49.7375 27.175L51.284374 27.175L51.284374 26.08125Q51.284374 25.034374 51.471874 24.51875Q51.721874 23.83125 52.3625 23.409374Q53.003124 22.9875 54.159374 22.9875Q54.909374 22.9875 55.8 23.159374L55.534374 24.690624Q54.9875 24.596874 54.503124 24.596874Q53.70625 24.596874 53.3625 24.940624Q53.034374 25.284374 53.034374 26.221874L53.034374 27.175L55.065624 27.175L55.065624 28.55L53.034374 28.55L53.034374 37.55L51.284374 37.55ZM56.878124 25.253124L56.878124 23.2375L58.64375 23.2375L58.64375 25.253124L56.878124 25.253124ZM56.878124 37.55L56.878124 27.175L58.64375 27.175L58.64375 37.55L56.878124 37.55ZM64.70625 35.971874L64.95625 37.534374Q64.22188 37.690624 63.628124 37.690624Q62.675 37.690624 62.14375 37.39375Q61.628124 37.08125 61.409374 36.596874Q61.190624 36.096874 61.190624 34.51875L61.190624 28.55L59.909374 28.55L59.909374 27.175L61.190624 27.175L61.190624 24.6125L62.940624 23.55L62.940624 27.175L64.70625 27.175L64.70625 28.55L62.940624 28.55L62.940624 34.6125Q62.940624 35.3625 63.034374 35.58125Q63.128124 35.784374 63.33125 35.925Q63.55 36.05 63.940624 36.05Q64.22188 36.05 64.70625 35.971874ZM79.59688 37.55L79.59688 36.2375Q78.6125 37.784374 76.69063 37.784374Q75.45625 37.784374 74.40938 37.096874Q73.37813 36.409374 72.8 35.190624Q72.2375 33.971874 72.2375 32.378124Q72.2375 30.815624 72.75313 29.55Q73.26875 28.284374 74.3 27.6125Q75.34688 26.940624 76.6125 26.940624Q77.55 26.940624 78.28438 27.346874Q79.01875 27.7375 79.4875 28.3625L79.4875 23.2375L81.22188 23.2375L81.22188 37.55L79.59688 37.55ZM74.03438 32.378124Q74.03438 34.3625 74.87813 35.346874Q75.72188 36.33125 76.8625 36.33125Q78.01875 36.33125 78.81563 35.39375Q79.62813 34.45625 79.62813 32.51875Q79.62813 30.39375 78.8 29.39375Q77.9875 28.39375 76.78438 28.39375Q75.6125 28.39375 74.81563 29.3625Q74.03438 30.315624 74.03438 32.378124ZM83.87813 25.253124L83.87813 23.2375L85.64375 23.2375L85.64375 25.253124L83.87813 25.253124ZM83.87813 37.55L83.87813 27.175L85.64375 27.175L85.64375 37.55L83.87813 37.55ZM87.15938 34.45625L88.90938 34.175Q89.05 35.221874 89.72188 35.784374Q90.39375 36.33125 91.59688 36.33125Q92.8 36.33125 93.37813 35.846874Q93.97188 35.346874 93.97188 34.690624Q93.97188 34.096874 93.45625 33.753124Q93.09688 33.51875 91.65938 33.159374Q89.72188 32.659374 88.97188 32.315624Q88.2375 31.95625 87.84688 31.33125Q87.45625 30.690624 87.45625 29.925Q87.45625 29.2375 87.76875 28.64375Q88.09688 28.05 88.64375 27.659374Q89.05 27.3625 89.75313 27.159374Q90.47188 26.940624 91.28438 26.940624Q92.50313 26.940624 93.425 27.3Q94.34688 27.64375 94.78438 28.253124Q95.22188 28.846874 95.39375 29.846874L93.675 30.08125Q93.55 29.284374 92.9875 28.846874Q92.425 28.39375 91.40938 28.39375Q90.19063 28.39375 89.675 28.8Q89.15938 29.190624 89.15938 29.721874Q89.15938 30.065624 89.37813 30.346874Q89.58125 30.628124 90.05 30.815624Q90.31563 30.909374 91.59688 31.253124Q93.47188 31.753124 94.20625 32.08125Q94.94063 32.39375 95.3625 33.003124Q95.78438 33.596874 95.78438 34.503124Q95.78438 35.378124 95.26875 36.159374Q94.75313 36.940624 93.78438 37.3625Q92.81563 37.784374 91.59688 37.784374Q89.58125 37.784374 88.51875 36.940624Q87.45625 36.096874 87.15938 34.45625ZM101.70625 35.971874L101.95625 37.534374Q101.22188 37.690624 100.62813 37.690624Q99.675 37.690624 99.14375 37.39375Q98.62813 37.08125 98.40938 36.596874Q98.19063 36.096874 98.19063 34.51875L98.19063 28.55L96.90938 28.55L96.90938 27.175L98.19063 27.175L98.19063 24.6125L99.94063 23.55L99.94063 27.175L101.70625 27.175L101.70625 28.55L99.94063 28.55L99.94063 34.6125Q99.94063 35.3625 100.03438 35.58125Q100.12813 35.784374 100.33125 35.925Q100.55 36.05 100.94063 36.05Q101.22188 36.05 101.70625 35.971874ZM103.84688 37.55L103.84688 27.175L105.425 27.175L105.425 28.753124Q106.03438 27.64375 106.55 27.3Q107.06563 26.940624 107.675 26.940624Q108.56563 26.940624 109.4875 27.503124L108.87813 29.14375Q108.2375 28.753124 107.59688 28.753124Q107.01875 28.753124 106.55 29.1125Q106.09688 29.45625 105.89375 30.065624Q105.6125 31.003124 105.6125 32.1125L105.6125 37.55L103.84688 37.55ZM110.87813 25.253124L110.87813 23.2375L112.64375 23.2375L112.64375 25.253124L110.87813 25.253124ZM110.87813 37.55L110.87813 27.175L112.64375 27.175L112.64375 37.55L110.87813 37.55ZM116.4875 37.55L114.8625 37.55L114.8625 23.2375L116.6125 23.2375L116.6125 28.346874Q117.7375 26.940624 119.45625 26.940624Q120.40938 26.940624 121.26875 27.33125Q122.12813 27.721874 122.675 28.425Q123.22188 29.1125 123.53438 30.096874Q123.84688 31.08125 123.84688 32.20625Q123.84688 34.878124 122.53438 36.33125Q121.22188 37.784374 119.37813 37.784374Q117.53438 37.784374 116.4875 36.253124L116.4875 37.55ZM116.47188 32.284374Q116.47188 34.14375 116.97188 34.9875Q117.81563 36.33125 119.22188 36.33125Q120.37813 36.33125 121.20625 35.33125Q122.05 34.33125 122.05 32.346874Q122.05 30.315624 121.2375 29.3625Q120.44063 28.39375 119.3 28.39375Q118.14375 28.39375 117.3 29.39375Q116.47188 30.39375 116.47188 32.284374ZM132.65938 37.55L132.65938 36.01875Q131.45625 37.784374 129.37813 37.784374Q128.45625 37.784374 127.65938 37.440624Q126.8625 37.08125 126.47188 36.55Q126.09688 36.01875 125.94063 35.2375Q125.83125 34.721874 125.83125 33.596874L125.83125 27.175L127.58125 27.175L127.58125 32.925Q127.58125 34.3 127.69063 34.784374Q127.8625 35.471874 128.39375 35.878124Q128.94063 36.26875 129.72188 36.26875Q130.51875 36.26875 131.20625 35.8625Q131.90938 35.45625 132.19063 34.76875Q132.4875 34.065624 132.4875 32.7375L132.4875 27.175L134.2375 27.175L134.2375 37.55L132.65938 37.55ZM139.70625 35.971874L139.95625 37.534374Q139.22188 37.690624 138.62813 37.690624Q137.675 37.690624 137.14375 37.39375Q136.62813 37.08125 136.40938 36.596874Q136.19063 36.096874 136.19063 34.51875L136.19063 28.55L134.90938 28.55L134.90938 27.175L136.19063 27.175L136.19063 24.6125L137.94063 23.55L137.94063 27.175L139.70625 27.175L139.70625 28.55L137.94063 28.55L137.94063 34.6125Q137.94063 35.3625 138.03438 35.58125Q138.12813 35.784374 138.33125 35.925Q138.55 36.05 138.94063 36.05Q139.22188 36.05 139.70625 35.971874ZM141.87813 25.253124L141.87813 23.2375L143.64375 23.2375L143.64375 25.253124L141.87813 25.253124ZM141.87813 37.55L141.87813 27.175L143.64375 27.175L143.64375 37.55L141.87813 37.55ZM145.22188 32.3625Q145.22188 29.4875 146.81563 28.096874Q148.15938 26.940624 150.08125 26.940624Q152.22188 26.940624 153.56563 28.346874Q154.925 29.753124 154.925 32.221874Q154.925 34.221874 154.33125 35.378124Q153.7375 36.51875 152.58125 37.159374Q151.44063 37.784374 150.08125 37.784374Q147.89375 37.784374 146.55 36.39375Q145.22188 34.9875 145.22188 32.3625ZM147.01875 32.3625Q147.01875 34.3625 147.87813 35.346874Q148.75313 36.33125 150.08125 36.33125Q151.39375 36.33125 152.25313 35.346874Q153.12813 34.346874 153.12813 32.3Q153.12813 30.378124 152.25313 29.39375Q151.37813 28.39375 150.08125 28.39375Q148.75313 28.39375 147.87813 29.39375Q147.01875 30.378124 147.01875 32.3625ZM156.8625 37.55L156.8625 27.175L158.45625 27.175L158.45625 28.659374Q159.59688 26.940624 161.75313 26.940624Q162.69063 26.940624 163.47188 27.284374Q164.26875 27.6125 164.65938 28.159374Q165.05 28.70625 165.20625 29.45625Q165.3 29.95625 165.3 31.175L165.3 37.55L163.53438 37.55L163.53438 31.2375Q163.53438 30.159374 163.33125 29.628124Q163.12813 29.096874 162.59688 28.784374Q162.08125 28.471874 161.37813 28.471874Q160.25313 28.471874 159.44063 29.190624Q158.62813 29.89375 158.62813 31.878124L158.62813 37.55L156.8625 37.55Z" fill-rule="nonzero"/></svg>