<svg version="1.1" viewBox="0.0 0.0 600.0 371.0" fill="none" stroke="none" stroke-linecap="square" stroke-miterlimit="10" width="600" height="371" xmlns:xlink="http://www.w3.org/1999/xlink" xmlns="http://www.w3.org/2000/svg"><path fill="#ffffff" d="M0 0L600.0 0L600.0 371.0L0 371.0L0 0Z" fill-rule="nonzero"/><path fill="#0000b3" d="M423.63205 125.6417L467.3535 83.51754L467.3535 105.832535L423.63205 147.9567Z" fill-rule="nonzero"/><path fill="#0000b3" d="M379.91064 115.69753C395.61887 115.69753 410.92386 119.178566 423.63205 125.6417L423.63205 147.9567C410.92386 141.49356 395.61887 138.01254 379.91064 138.01254Z" fill-rule="nonzero"/><path fill="#0000ff" d="M379.91064 63.629204C411.32706 63.629204 441.93707 70.591255 467.3535 83.51754L423.63205 125.6417C410.92386 119.178566 395.61887 115.69753 379.91064 115.69753Z" fill-rule="nonzero"/><path fill="#6b00b3" d="M449.33087 234.65L493.0523 276.77417L493.0523 299.08917L449.33087 256.965Z" fill-rule="nonzero"/><path fill="#6b00b3" d="M554.3761 214.84084C554.3761 248.1755 531.5784 279.49554 493.0523 299.08917L493.0523 276.77417C531.5784 257.18054 554.3761 225.8605 554.3761 192.52583Z" fill-rule="nonzero"/><path fill="#6b00b3" d="M449.33087 150.40167C468.59396 160.19849 479.99277 175.8585 479.99277 192.52583L479.99277 214.84084C479.99277 198.1735 468.59396 182.51347 449.33087 172.71666Z" fill-rule="nonzero"/><path fill="#9900ff" d="M493.0523 108.277504C531.5784 127.871124 554.3761 159.19116 554.3761 192.52583C554.3761 225.8605 531.5784 257.18054 493.0523 276.77417L449.33087 234.65C468.59396 224.85318 479.99277 209.19316 479.99277 192.52583C479.99277 175.8585 468.59396 160.19849 449.33087 150.40167Z" fill-rule="nonzero"/><path fill="#b36b00" d="M313.2035 125.6417L269.48206 83.51754L269.48206 105.832535L313.2035 147.9567Z" fill-rule="nonzero"/><path fill="#b36b00" d="M313.2035 125.6417C325.9117 119.178566 341.2167 115.69753 356.92493 115.69753L356.92493 138.01254C341.2167 138.01254 325.9117 141.49356 313.2035 147.9567Z" fill-rule="nonzero"/><path fill="#ff9900" d="M269.48206 83.51754C294.8985 70.591255 325.50848 63.629204 356.92493 63.629204L356.92493 115.69753C341.2167 115.69753 325.9117 119.178566 313.2035 125.6417Z" fill-rule="nonzero"/><path fill="#00b300" d="M425.77194 314.39166C380.51385 337.409 320.63516 340.7078 270.79044 322.92978C220.9457 305.15176 189.56242 269.30276 189.56242 230.14333L189.56242 207.82834C189.56242 246.98776 220.9457 282.83676 270.79044 300.61478C320.63516 318.3928 380.51385 315.094 425.77194 292.07666Z" fill-rule="nonzero"/><path fill="#00b300" d="M263.94574 207.82834C263.94574 191.161 275.34457 175.50098 294.60767 165.70416L294.60767 188.01917C275.34457 197.81598 263.94574 213.476 263.94574 230.14333Z" fill-rule="nonzero"/><path fill="#00ff00" d="M425.77194 292.07666C359.30185 325.88202 266.26767 315.5674 217.97432 269.03833C169.68097 222.50926 184.41614 157.38535 250.88623 123.58L294.60767 165.70416C261.37262 182.60684 254.00504 215.1688 278.1517 238.43333C302.29837 261.69788 348.81546 266.85516 382.0505 249.9525Z" fill-rule="nonzero"/><path fill="#ffffff" d="M405.60797 98.48598L404.3736 98.48598L404.3736 90.64223Q403.9361 91.0641 403.20172 91.5016Q402.48297 91.92348 401.92047 92.1266L401.92047 90.9391Q402.95172 90.45473 403.71735 89.76723Q404.4986 89.07973 404.8111 88.42348L405.60797 88.42348L405.60797 98.48598ZM408.96735 93.54848Q408.96735 91.76723 409.32672 90.6891Q409.70172 89.59535 410.42047 89.01723Q411.13922 88.42348 412.23297 88.42348Q413.04547 88.42348 413.65485 88.7516Q414.26422 89.07973 414.65485 89.6891Q415.0611 90.29848 415.27985 91.17348Q415.4986 92.04848 415.4986 93.54848Q415.4986 95.3141 415.13922 96.39223Q414.77985 97.47035 414.0611 98.0641Q413.34235 98.65785 412.23297 98.65785Q410.79547 98.65785 409.96735 97.61098Q408.96735 96.36098 408.96735 93.54848ZM410.23297 93.54848Q410.23297 96.01723 410.8111 96.82973Q411.38922 97.64223 412.23297 97.64223Q413.09235 97.64223 413.67047 96.82973Q414.2486 96.0016 414.2486 93.54848Q414.2486 91.0641 413.67047 90.2516Q413.09235 89.4391 412.21735 89.4391Q411.3736 89.4391 410.8736 90.15785Q410.23297 91.07973 410.23297 93.54848ZM417.20172 90.8766Q417.20172 89.79848 417.73297 89.04848Q418.27985 88.29848 419.3111 88.29848Q420.2486 88.29848 420.85797 88.97035Q421.48297 89.64223 421.48297 90.9391Q421.48297 92.22035 420.85797 92.90785Q420.23297 93.59535 419.32672 93.59535Q418.42047 93.59535 417.8111 92.92348Q417.20172 92.23598 417.20172 90.8766ZM419.34235 89.14223Q418.88922 89.14223 418.57672 89.54848Q418.27985 89.9391 418.27985 90.98598Q418.27985 91.95473 418.57672 92.34535Q418.88922 92.73598 419.34235 92.73598Q419.8111 92.73598 420.10797 92.34535Q420.42047 91.95473 420.42047 90.89223Q420.42047 89.92348 420.10797 89.53285Q419.79547 89.14223 419.34235 89.14223ZM419.34235 98.86098L424.82672 88.29848L425.82672 88.29848L420.3736 98.86098L419.34235 98.86098ZM423.6861 96.1266Q423.6861 95.04848 424.21735 94.3141Q424.76422 93.5641 425.79547 93.5641Q426.73297 93.5641 427.35797 94.23598Q427.98297 94.90785 427.98297 96.20473Q427.98297 97.48598 427.35797 98.17348Q426.73297 98.86098 425.79547 98.86098Q424.88922 98.86098 424.27985 98.1891Q423.6861 97.5016 423.6861 96.1266ZM425.82672 94.40785Q425.35797 94.40785 425.0611 94.8141Q424.76422 95.20473 424.76422 96.2516Q424.76422 97.22035 425.0611 97.61098Q425.3736 98.0016 425.82672 98.0016Q426.29547 98.0016 426.59235 97.61098Q426.90485 97.22035 426.90485 96.15785Q426.90485 95.1891 426.59235 94.79848Q426.29547 94.40785 425.82672 94.40785Z" fill-rule="nonzero"/><path fill="#ffffff" d="M508.45914 194.88521L509.6779 194.71333Q509.89664 195.76021 510.39664 196.22896Q510.91226 196.68208 511.64664 196.68208Q512.5216 196.68208 513.11536 196.08833Q513.7091 195.47896 513.7091 194.58833Q513.7091 193.74458 513.1466 193.19771Q512.59973 192.65083 511.756 192.65083Q511.39664 192.65083 510.881 192.77583L511.02164 191.69771Q511.14664 191.71333 511.20914 191.71333Q512.006 191.71333 512.631 191.30708Q513.256 190.90083 513.256 190.04146Q513.256 189.36958 512.80286 188.93208Q512.34973 188.47896 511.6154 188.47896Q510.89664 188.47896 510.41226 188.93208Q509.9435 189.36958 509.8029 190.27583L508.58414 190.05708Q508.8029 188.82271 509.59976 188.15083Q510.39664 187.46333 511.58414 187.46333Q512.41223 187.46333 513.09973 187.82271Q513.78723 188.16646 514.1466 188.77583Q514.5216 189.38521 514.5216 190.07271Q514.5216 190.71333 514.17786 191.24458Q513.8341 191.77583 513.1466 192.10396Q514.03723 192.30708 514.5216 192.94771Q515.0216 193.58833 515.0216 194.57271Q515.0216 195.88521 514.05286 196.79146Q513.09973 197.69771 511.64664 197.69771Q510.3185 197.69771 509.4435 196.91646Q508.58414 196.13521 508.45914 194.88521ZM516.4435 192.58833Q516.4435 190.80708 516.80286 189.72896Q517.17786 188.63521 517.8966 188.05708Q518.61536 187.46333 519.7091 187.46333Q520.5216 187.46333 521.131 187.79146Q521.74036 188.11958 522.131 188.72896Q522.53723 189.33833 522.756 190.21333Q522.97473 191.08833 522.97473 192.58833Q522.97473 194.35396 522.61536 195.43208Q522.256 196.51021 521.53723 197.10396Q520.8185 197.69771 519.7091 197.69771Q518.2716 197.69771 517.4435 196.65083Q516.4435 195.40083 516.4435 192.58833ZM517.7091 192.58833Q517.7091 195.05708 518.28723 195.86958Q518.86536 196.68208 519.7091 196.68208Q520.5685 196.68208 521.1466 195.86958Q521.72473 195.04146 521.72473 192.58833Q521.72473 190.10396 521.1466 189.29146Q520.5685 188.47896 519.6935 188.47896Q518.84973 188.47896 518.34973 189.19771Q517.7091 190.11958 517.7091 192.58833ZM524.67786 189.91646Q524.67786 188.83833 525.2091 188.08833Q525.756 187.33833 526.78723 187.33833Q527.72473 187.33833 528.3341 188.01021Q528.9591 188.68208 528.9591 189.97896Q528.9591 191.26021 528.3341 191.94771Q527.7091 192.63521 526.80286 192.63521Q525.8966 192.63521 525.28723 191.96333Q524.67786 191.27583 524.67786 189.91646ZM526.8185 188.18208Q526.36536 188.18208 526.05286 188.58833Q525.756 188.97896 525.756 190.02583Q525.756 190.99458 526.05286 191.38521Q526.36536 191.77583 526.8185 191.77583Q527.28723 191.77583 527.5841 191.38521Q527.8966 190.99458 527.8966 189.93208Q527.8966 188.96333 527.5841 188.57271Q527.2716 188.18208 526.8185 188.18208ZM526.8185 197.90083L532.30286 187.33833L533.30286 187.33833L527.84973 197.90083L526.8185 197.90083ZM531.16223 195.16646Q531.16223 194.08833 531.6935 193.35396Q532.24036 192.60396 533.2716 192.60396Q534.2091 192.60396 534.8341 193.27583Q535.4591 193.94771 535.4591 195.24458Q535.4591 196.52583 534.8341 197.21333Q534.2091 197.90083 533.2716 197.90083Q532.36536 197.90083 531.756 197.22896Q531.16223 196.54146 531.16223 195.16646ZM533.30286 193.44771Q532.8341 193.44771 532.53723 193.85396Q532.24036 194.24458 532.24036 195.29146Q532.24036 196.26021 532.53723 196.65083Q532.84973 197.04146 533.30286 197.04146Q533.7716 197.04146 534.0685 196.65083Q534.381 196.26021 534.381 195.19771Q534.381 194.22896 534.0685 193.83833Q533.7716 193.44771 533.30286 193.44771Z" fill-rule="nonzero"/><path fill="#ffffff" d="M234.64114 256.11084L235.93802 256.00146Q236.07864 256.93896 236.59427 257.42334Q237.12552 257.8921 237.8599 257.8921Q238.75052 257.8921 239.3599 257.2202Q239.9849 256.54834 239.9849 255.45459Q239.9849 254.39209 239.39114 253.78271Q238.7974 253.17334 237.84427 253.17334Q237.25052 253.17334 236.76614 253.45459Q236.2974 253.72021 236.01614 254.14209L234.8599 254.00146L235.82864 248.84521L240.81302 248.84521L240.81302 250.03271L236.81302 250.03271L236.28177 252.72021Q237.18802 252.09521 238.1724 252.09521Q239.4849 252.09521 240.37552 253.00146Q241.28177 253.90771 241.28177 255.34521Q241.28177 256.7046 240.50052 257.68896Q239.53177 258.9077 237.8599 258.9077Q236.50052 258.9077 235.62552 258.1421Q234.76614 257.37646 234.64114 256.11084ZM242.64114 253.79834Q242.64114 252.01709 243.00052 250.93896Q243.37552 249.84521 244.09427 249.26709Q244.81302 248.67334 245.90677 248.67334Q246.71927 248.67334 247.32864 249.00146Q247.93802 249.32959 248.32864 249.93896Q248.7349 250.54834 248.95364 251.42334Q249.1724 252.29834 249.1724 253.79834Q249.1724 255.56396 248.81302 256.6421Q248.45364 257.7202 247.7349 258.31396Q247.01614 258.9077 245.90677 258.9077Q244.46927 258.9077 243.64114 257.86084Q242.64114 256.61084 242.64114 253.79834ZM243.90677 253.79834Q243.90677 256.2671 244.4849 257.0796Q245.06302 257.8921 245.90677 257.8921Q246.76614 257.8921 247.34427 257.0796Q247.9224 256.25146 247.9224 253.79834Q247.9224 251.31396 247.34427 250.50146Q246.76614 249.68896 245.89114 249.68896Q245.0474 249.68896 244.5474 250.40771Q243.90677 251.32959 243.90677 253.79834ZM250.87552 251.12646Q250.87552 250.04834 251.40677 249.29834Q251.95364 248.54834 252.9849 248.54834Q253.9224 248.54834 254.53177 249.22021Q255.15677 249.89209 255.15677 251.18896Q255.15677 252.47021 254.53177 253.15771Q253.90677 253.84521 253.00052 253.84521Q252.09427 253.84521 251.4849 253.17334Q250.87552 252.48584 250.87552 251.12646ZM253.01614 249.39209Q252.56302 249.39209 252.25052 249.79834Q251.95364 250.18896 251.95364 251.23584Q251.95364 252.20459 252.25052 252.59521Q252.56302 252.98584 253.01614 252.98584Q253.4849 252.98584 253.78177 252.59521Q254.09427 252.20459 254.09427 251.14209Q254.09427 250.17334 253.78177 249.78271Q253.46927 249.39209 253.01614 249.39209ZM253.01614 259.11084L258.50052 248.54834L259.50052 248.54834L254.0474 259.11084L253.01614 259.11084ZM257.3599 256.37646Q257.3599 255.29834 257.89114 254.56396Q258.43802 253.81396 259.46927 253.81396Q260.40677 253.81396 261.03177 254.48584Q261.65677 255.15771 261.65677 256.4546Q261.65677 257.73584 261.03177 258.42334Q260.40677 259.11084 259.46927 259.11084Q258.56302 259.11084 257.95364 258.43896Q257.3599 257.75146 257.3599 256.37646ZM259.50052 254.65771Q259.03177 254.65771 258.7349 255.06396Q258.43802 255.45459 258.43802 256.50146Q258.43802 257.4702 258.7349 257.86084Q259.0474 258.25146 259.50052 258.25146Q259.96927 258.25146 260.26614 257.86084Q260.57864 257.4702 260.57864 256.4077Q260.57864 255.43896 260.26614 255.04834Q259.96927 254.65771 259.50052 254.65771Z" fill-rule="nonzero"/><path fill="#ffffff" d="M313.6651 98.48598L312.43073 98.48598L312.43073 90.64223Q311.99323 91.0641 311.25885 91.5016Q310.5401 91.92348 309.9776 92.1266L309.9776 90.9391Q311.00885 90.45473 311.77448 89.76723Q312.55573 89.07973 312.86823 88.42348L313.6651 88.42348L313.6651 98.48598ZM317.02448 93.54848Q317.02448 91.76723 317.38385 90.6891Q317.75885 89.59535 318.4776 89.01723Q319.19635 88.42348 320.2901 88.42348Q321.1026 88.42348 321.71198 88.7516Q322.32135 89.07973 322.71198 89.6891Q323.11823 90.29848 323.33698 91.17348Q323.55573 92.04848 323.55573 93.54848Q323.55573 95.3141 323.19635 96.39223Q322.83698 97.47035 322.11823 98.0641Q321.39948 98.65785 320.2901 98.65785Q318.8526 98.65785 318.02448 97.61098Q317.02448 96.36098 317.02448 93.54848ZM318.2901 93.54848Q318.2901 96.01723 318.86823 96.82973Q319.44635 97.64223 320.2901 97.64223Q321.14948 97.64223 321.7276 96.82973Q322.30573 96.0016 322.30573 93.54848Q322.30573 91.0641 321.7276 90.2516Q321.14948 89.4391 320.27448 89.4391Q319.43073 89.4391 318.93073 90.15785Q318.2901 91.07973 318.2901 93.54848ZM325.25885 90.8766Q325.25885 89.79848 325.7901 89.04848Q326.33698 88.29848 327.36823 88.29848Q328.30573 88.29848 328.9151 88.97035Q329.5401 89.64223 329.5401 90.9391Q329.5401 92.22035 328.9151 92.90785Q328.2901 93.59535 327.38385 93.59535Q326.4776 93.59535 325.86823 92.92348Q325.25885 92.23598 325.25885 90.8766ZM327.39948 89.14223Q326.94635 89.14223 326.63385 89.54848Q326.33698 89.9391 326.33698 90.98598Q326.33698 91.95473 326.63385 92.34535Q326.94635 92.73598 327.39948 92.73598Q327.86823 92.73598 328.1651 92.34535Q328.4776 91.95473 328.4776 90.89223Q328.4776 89.92348 328.1651 89.53285Q327.8526 89.14223 327.39948 89.14223ZM327.39948 98.86098L332.88385 88.29848L333.88385 88.29848L328.43073 98.86098L327.39948 98.86098ZM331.74323 96.1266Q331.74323 95.04848 332.27448 94.3141Q332.82135 93.5641 333.8526 93.5641Q334.7901 93.5641 335.4151 94.23598Q336.0401 94.90785 336.0401 96.20473Q336.0401 97.48598 335.4151 98.17348Q334.7901 98.86098 333.8526 98.86098Q332.94635 98.86098 332.33698 98.1891Q331.74323 97.5016 331.74323 96.1266ZM333.88385 94.40785Q333.4151 94.40785 333.11823 94.8141Q332.82135 95.20473 332.82135 96.2516Q332.82135 97.22035 333.11823 97.61098Q333.43073 98.0016 333.88385 98.0016Q334.3526 98.0016 334.64948 97.61098Q334.96198 97.22035 334.96198 96.15785Q334.96198 95.1891 334.64948 94.79848Q334.3526 94.40785 333.88385 94.40785Z" fill-rule="nonzero"/><path fill="#0000ff" d="M30.55 61.916668C30.55 65.23038 27.863708 67.916664 24.55 67.916664C21.236292 67.916664 18.55 65.23038 18.55 61.916668C18.55 58.60296 21.236292 55.916668 24.55 55.916668C27.863708 55.916668 30.55 58.60296 30.55 61.916668Z" fill-rule="nonzero"/><path fill="#1a1a1a" d="M39.675 65.916664L39.675 57.322914L40.8 57.322914L40.8 65.916664L39.675 65.916664ZM42.471874 65.916664L42.471874 57.322914L43.628124 57.322914L48.14375 64.072914L48.14375 57.322914L49.2375 57.322914L49.2375 65.916664L48.065624 65.916664L43.55 59.166664L43.55 65.916664L42.471874 65.916664ZM53.659374 65.916664L53.659374 58.33854L50.83125 58.33854L50.83125 57.322914L57.64375 57.322914L57.64375 58.33854L54.8 58.33854L54.8 65.916664L53.659374 65.916664ZM63.925 65.916664L60.596874 57.322914L61.83125 57.322914L64.06563 63.572914Q64.33125 64.322914 64.51875 64.979164Q64.72188 64.27604 64.9875 63.572914L67.3 57.322914L68.45625 57.322914L65.09688 65.916664L63.925 65.916664ZM72.40938 65.15104Q71.81563 65.65104 71.26875 65.854164Q70.7375 66.05729 70.1125 66.05729Q69.08125 66.05729 68.53438 65.55729Q67.9875 65.05729 67.9875 64.27604Q67.9875 63.822914 68.19063 63.447914Q68.39375 63.05729 68.7375 62.83854Q69.08125 62.604164 69.50313 62.49479Q69.8 62.40104 70.44063 62.322914Q71.70625 62.18229 72.31563 61.96354Q72.31563 61.74479 72.31563 61.697914Q72.31563 61.041664 72.01875 60.77604Q71.6125 60.43229 70.81563 60.43229Q70.08125 60.43229 69.72188 60.697914Q69.3625 60.947914 69.19063 61.604164L68.15938 61.46354Q68.3 60.80729 68.62813 60.40104Q68.95625 59.99479 69.56563 59.77604Q70.175 59.55729 70.97188 59.55729Q71.76875 59.55729 72.26875 59.74479Q72.76875 59.93229 73.00313 60.21354Q73.2375 60.49479 73.33125 60.93229Q73.37813 61.197914 73.37813 61.90104L73.37813 63.30729Q73.37813 64.77604 73.44063 65.166664Q73.51875 65.55729 73.72188 65.916664L72.6125 65.916664Q72.45625 65.58854 72.40938 65.15104ZM72.31563 62.791664Q71.7375 63.02604 70.59688 63.197914Q69.94063 63.291664 69.675 63.416664Q69.40938 63.52604 69.25313 63.74479Q69.1125 63.96354 69.1125 64.24479Q69.1125 64.666664 69.425 64.947914Q69.75313 65.229164 70.3625 65.229164Q70.97188 65.229164 71.44063 64.96354Q71.925 64.697914 72.14375 64.229164Q72.31563 63.86979 72.31563 63.18229L72.31563 62.791664ZM79.425 65.916664L79.425 64.99479Q78.69063 66.05729 77.44063 66.05729Q76.89375 66.05729 76.40938 65.854164Q75.94063 65.635414 75.70625 65.322914Q75.47188 64.99479 75.37813 64.52604Q75.31563 64.229164 75.31563 63.541664L75.31563 59.697914L76.37813 59.697914L76.37813 63.15104Q76.37813 63.96354 76.44063 64.260414Q76.53438 64.666664 76.84688 64.916664Q77.175 65.15104 77.65938 65.15104Q78.12813 65.15104 78.53438 64.916664Q78.95625 64.666664 79.12813 64.24479Q79.31563 63.822914 79.31563 63.02604L79.31563 59.697914L80.3625 59.697914L80.3625 65.916664L79.425 65.916664ZM82.31563 65.916664L82.31563 57.322914L83.37813 57.322914L83.37813 65.916664L82.31563 65.916664ZM87.64375 64.979164L87.8 65.90104Q87.34688 65.99479 87.00313 65.99479Q86.425 65.99479 86.1125 65.822914Q85.8 65.635414 85.65938 65.33854Q85.53438 65.041664 85.53438 64.08854L85.53438 60.510414L84.76875 60.510414L84.76875 59.697914L85.53438 59.697914L85.53438 58.15104L86.58125 57.52604L86.58125 59.697914L87.64375 59.697914L87.64375 60.510414L86.58125 60.510414L86.58125 64.15104Q86.58125 64.604164 86.62813 64.729164Q86.69063 64.854164 86.81563 64.93229Q86.94063 65.010414 87.175 65.010414Q87.3625 65.010414 87.64375 64.979164Z" fill-rule="nonzero"/><path fill="#9900ff" d="M30.55 85.916664C30.55 89.23038 27.863708 91.916664 24.55 91.916664C21.236292 91.916664 18.55 89.23038 18.55 85.916664C18.55 82.60296 21.236292 79.916664 24.55 79.916664C27.863708 79.916664 30.55 82.60296 30.55 85.916664Z" fill-rule="nonzero"/><path fill="#1a1a1a" d="M40.971874 89.916664L38.690624 81.322914L39.8625 81.322914L41.175 86.96354Q41.378124 87.83854 41.534374 88.71354Q41.8625 87.33854 41.925 87.11979L43.55 81.322914L44.925 81.322914L46.159374 85.666664Q46.6125 87.291664 46.83125 88.71354Q46.9875 87.90104 47.253124 86.83854L48.596874 81.322914L49.7375 81.322914L47.39375 89.916664L46.284374 89.916664L44.4875 83.36979Q44.253124 82.55729 44.20625 82.36979Q44.08125 82.947914 43.95625 83.36979L42.14375 89.916664L40.971874 89.916664ZM50.534374 89.916664L50.534374 81.322914L56.33125 81.322914L56.33125 82.33854L51.675 82.33854L51.675 84.99479L55.70625 84.99479L55.70625 86.010414L51.675 86.010414L51.675 89.916664L50.534374 89.916664ZM59.659374 89.916664L59.659374 82.33854L56.83125 82.33854L56.83125 81.322914L63.64375 81.322914L63.64375 82.33854L60.8 82.33854L60.8 89.916664L59.659374 89.916664ZM69.925 89.916664L66.59688 81.322914L67.83125 81.322914L70.06563 87.572914Q70.33125 88.322914 70.51875 88.979164Q70.72188 88.27604 70.9875 87.572914L73.3 81.322914L74.45625 81.322914L71.09688 89.916664L69.925 89.916664ZM78.40938 89.15104Q77.81563 89.65104 77.26875 89.854164Q76.7375 90.05729 76.1125 90.05729Q75.08125 90.05729 74.53438 89.55729Q73.9875 89.05729 73.9875 88.27604Q73.9875 87.822914 74.19063 87.447914Q74.39375 87.05729 74.7375 86.83854Q75.08125 86.604164 75.50313 86.49479Q75.8 86.40104 76.44063 86.322914Q77.70625 86.18229 78.31563 85.96354Q78.31563 85.74479 78.31563 85.697914Q78.31563 85.041664 78.01875 84.77604Q77.6125 84.43229 76.81563 84.43229Q76.08125 84.43229 75.72188 84.697914Q75.3625 84.947914 75.19063 85.604164L74.15938 85.46354Q74.3 84.80729 74.62813 84.40104Q74.95625 83.99479 75.56563 83.77604Q76.175 83.55729 76.97188 83.55729Q77.76875 83.55729 78.26875 83.74479Q78.76875 83.93229 79.00313 84.21354Q79.2375 84.49479 79.33125 84.93229Q79.37813 85.197914 79.37813 85.90104L79.37813 87.30729Q79.37813 88.77604 79.44063 89.166664Q79.51875 89.55729 79.72188 89.916664L78.6125 89.916664Q78.45625 89.58854 78.40938 89.15104ZM78.31563 86.791664Q77.7375 87.02604 76.59688 87.197914Q75.94063 87.291664 75.675 87.416664Q75.40938 87.52604 75.25313 87.74479Q75.1125 87.96354 75.1125 88.24479Q75.1125 88.666664 75.425 88.947914Q75.75313 89.229164 76.3625 89.229164Q76.97188 89.229164 77.44063 88.96354Q77.925 88.697914 78.14375 88.229164Q78.31563 87.86979 78.31563 87.18229L78.31563 86.791664ZM85.425 89.916664L85.425 88.99479Q84.69063 90.05729 83.44063 90.05729Q82.89375 90.05729 82.40938 89.854164Q81.94063 89.635414 81.70625 89.322914Q81.47188 88.99479 81.37813 88.52604Q81.31563 88.229164 81.31563 87.541664L81.31563 83.697914L82.37813 83.697914L82.37813 87.15104Q82.37813 87.96354 82.44063 88.260414Q82.53438 88.666664 82.84688 88.916664Q83.175 89.15104 83.65938 89.15104Q84.12813 89.15104 84.53438 88.916664Q84.95625 88.666664 85.12813 88.24479Q85.31563 87.822914 85.31563 87.02604L85.31563 83.697914L86.3625 83.697914L86.3625 89.916664L85.425 89.916664ZM88.31563 89.916664L88.31563 81.322914L89.37813 81.322914L89.37813 89.916664L88.31563 89.916664ZM93.64375 88.979164L93.8 89.90104Q93.34688 89.99479 93.00313 89.99479Q92.425 89.99479 92.1125 89.822914Q91.8 89.635414 91.65938 89.33854Q91.53438 89.041664 91.53438 88.08854L91.53438 84.510414L90.76875 84.510414L90.76875 83.697914L91.53438 83.697914L91.53438 82.15104L92.58125 81.52604L92.58125 83.697914L93.64375 83.697914L93.64375 84.510414L92.58125 84.510414L92.58125 88.15104Q92.58125 88.604164 92.62813 88.729164Q92.69063 88.854164 92.81563 88.93229Q92.94063 89.010414 93.175 89.010414Q93.3625 89.010414 93.64375 88.979164Z" fill-rule="nonzero"/><path fill="#00ff00" d="M30.55 109.916664C30.55 113.23038 27.863708 115.916664 24.55 115.916664C21.236292 115.916664 18.55 113.23038 18.55 109.916664C18.55 106.60296 21.236292 103.916664 24.55 103.916664C27.863708 103.916664 30.55 106.60296 30.55 109.916664Z" fill-rule="nonzero"/><path fill="#1a1a1a" d="M43.378124 113.916664L43.378124 113.135414Q42.784374 114.05729 41.64375 114.05729Q40.89375 114.05729 40.26875 113.65104Q39.64375 113.229164 39.3 112.49479Q38.95625 111.760414 38.95625 110.80729Q38.95625 109.885414 39.26875 109.11979Q39.58125 108.354164 40.20625 107.96354Q40.83125 107.55729 41.596874 107.55729Q42.159374 107.55729 42.596874 107.791664Q43.034374 108.02604 43.315624 108.40104L43.315624 105.322914L44.3625 105.322914L44.3625 113.916664L43.378124 113.916664ZM40.05 110.80729Q40.05 112.010414 40.55 112.604164Q41.05 113.18229 41.7375 113.18229Q42.425 113.18229 42.909374 112.61979Q43.39375 112.05729 43.39375 110.90104Q43.39375 109.61979 42.89375 109.02604Q42.409374 108.43229 41.690624 108.43229Q40.9875 108.43229 40.51875 109.010414Q40.05 109.572914 40.05 110.80729ZM50.503124 110.541664L50.503124 109.541664L54.128124 109.52604L54.128124 112.71354Q53.3 113.385414 52.409374 113.729164Q51.51875 114.05729 50.58125 114.05729Q49.315624 114.05729 48.26875 113.52604Q47.2375 112.979164 46.70625 111.96354Q46.190624 110.93229 46.190624 109.666664Q46.190624 108.40104 46.70625 107.322914Q47.2375 106.229164 48.221874 105.71354Q49.20625 105.18229 50.4875 105.18229Q51.425 105.18229 52.175 105.479164Q52.925 105.77604 53.346874 106.322914Q53.784374 106.854164 54.003124 107.729164L52.9875 108.010414Q52.784374 107.354164 52.4875 106.979164Q52.20625 106.604164 51.675 106.385414Q51.14375 106.15104 50.503124 106.15104Q49.721874 106.15104 49.14375 106.385414Q48.58125 106.61979 48.221874 107.010414Q47.878124 107.40104 47.690624 107.86979Q47.3625 108.666664 47.3625 109.58854Q47.3625 110.74479 47.753124 111.52604Q48.159374 112.291664 48.909374 112.666664Q49.659374 113.041664 50.51875 113.041664Q51.253124 113.041664 51.95625 112.760414Q52.659374 112.46354 53.01875 112.15104L53.01875 110.541664L50.503124 110.541664ZM59.425 113.916664L59.425 112.99479Q58.690624 114.05729 57.440624 114.05729Q56.89375 114.05729 56.409374 113.854164Q55.940624 113.635414 55.70625 113.322914Q55.471874 112.99479 55.378124 112.52604Q55.315624 112.229164 55.315624 111.541664L55.315624 107.697914L56.378124 107.697914L56.378124 111.15104Q56.378124 111.96354 56.440624 112.260414Q56.534374 112.666664 56.846874 112.916664Q57.175 113.15104 57.659374 113.15104Q58.128124 113.15104 58.534374 112.916664Q58.95625 112.666664 59.128124 112.24479Q59.315624 111.822914 59.315624 111.02604L59.315624 107.697914L60.3625 107.697914L60.3625 113.916664L59.425 113.916664ZM62.346874 106.541664L62.346874 105.322914L63.409374 105.322914L63.409374 106.541664L62.346874 106.541664ZM62.346874 113.916664L62.346874 107.697914L63.409374 107.697914L63.409374 113.916664L62.346874 113.916664ZM65.31563 113.916664L65.31563 105.322914L66.37813 105.322914L66.37813 113.916664L65.31563 113.916664ZM72.37813 113.916664L72.37813 113.135414Q71.78438 114.05729 70.64375 114.05729Q69.89375 114.05729 69.26875 113.65104Q68.64375 113.229164 68.3 112.49479Q67.95625 111.760414 67.95625 110.80729Q67.95625 109.885414 68.26875 109.11979Q68.58125 108.354164 69.20625 107.96354Q69.83125 107.55729 70.59688 107.55729Q71.15938 107.55729 71.59688 107.791664Q72.03438 108.02604 72.31563 108.40104L72.31563 105.322914L73.3625 105.322914L73.3625 113.916664L72.37813 113.916664ZM69.05 110.80729Q69.05 112.010414 69.55 112.604164Q70.05 113.18229 70.7375 113.18229Q71.425 113.18229 71.90938 112.61979Q72.39375 112.05729 72.39375 110.90104Q72.39375 109.61979 71.89375 109.02604Q71.40938 108.43229 70.69063 108.43229Q69.9875 108.43229 69.51875 109.010414Q69.05 109.572914 69.05 110.80729ZM80.925 113.916664L77.59688 105.322914L78.83125 105.322914L81.06563 111.572914Q81.33125 112.322914 81.51875 112.979164Q81.72188 112.27604 81.9875 111.572914L84.3 105.322914L85.45625 105.322914L82.09688 113.916664L80.925 113.916664ZM89.40938 113.15104Q88.81563 113.65104 88.26875 113.854164Q87.7375 114.05729 87.1125 114.05729Q86.08125 114.05729 85.53438 113.55729Q84.9875 113.05729 84.9875 112.27604Q84.9875 111.822914 85.19063 111.447914Q85.39375 111.05729 85.7375 110.83854Q86.08125 110.604164 86.50313 110.49479Q86.8 110.40104 87.44063 110.322914Q88.70625 110.18229 89.31563 109.96354Q89.31563 109.74479 89.31563 109.697914Q89.31563 109.041664 89.01875 108.77604Q88.6125 108.43229 87.81563 108.43229Q87.08125 108.43229 86.72188 108.697914Q86.3625 108.947914 86.19063 109.604164L85.15938 109.46354Q85.3 108.80729 85.62813 108.40104Q85.95625 107.99479 86.56563 107.77604Q87.175 107.55729 87.97188 107.55729Q88.76875 107.55729 89.26875 107.74479Q89.76875 107.93229 90.00313 108.21354Q90.2375 108.49479 90.33125 108.93229Q90.37813 109.197914 90.37813 109.90104L90.37813 111.30729Q90.37813 112.77604 90.44063 113.166664Q90.51875 113.55729 90.72188 113.916664L89.6125 113.916664Q89.45625 113.58854 89.40938 113.15104ZM89.31563 110.791664Q88.7375 111.02604 87.59688 111.197914Q86.94063 111.291664 86.675 111.416664Q86.40938 111.52604 86.25313 111.74479Q86.1125 111.96354 86.1125 112.24479Q86.1125 112.666664 86.425 112.947914Q86.75313 113.229164 87.3625 113.229164Q87.97188 113.229164 88.44063 112.96354Q88.925 112.697914 89.14375 112.229164Q89.31563 111.86979 89.31563 111.18229L89.31563 110.791664ZM96.425 113.916664L96.425 112.99479Q95.69063 114.05729 94.44063 114.05729Q93.89375 114.05729 93.40938 113.854164Q92.94063 113.635414 92.70625 113.322914Q92.47188 112.99479 92.37813 112.52604Q92.31563 112.229164 92.31563 111.541664L92.31563 107.697914L93.37813 107.697914L93.37813 111.15104Q93.37813 111.96354 93.44063 112.260414Q93.53438 112.666664 93.84688 112.916664Q94.175 113.15104 94.65938 113.15104Q95.12813 113.15104 95.53438 112.916664Q95.95625 112.666664 96.12813 112.24479Q96.31563 111.822914 96.31563 111.02604L96.31563 107.697914L97.3625 107.697914L97.3625 113.916664L96.425 113.916664ZM99.31563 113.916664L99.31563 105.322914L100.37813 105.322914L100.37813 113.916664L99.31563 113.916664ZM104.64375 112.979164L104.8 113.90104Q104.34688 113.99479 104.00313 113.99479Q103.425 113.99479 103.1125 113.822914Q102.8 113.635414 102.65938 113.33854Q102.53438 113.041664 102.53438 112.08854L102.53438 108.510414L101.76875 108.510414L101.76875 107.697914L102.53438 107.697914L102.53438 106.15104L103.58125 105.52604L103.58125 107.697914L104.64375 107.697914L104.64375 108.510414L103.58125 108.510414L103.58125 112.15104Q103.58125 112.604164 103.62813 112.729164Q103.69063 112.854164 103.81563 112.93229Q103.94063 113.010414 104.175 113.010414Q104.3625 113.010414 104.64375 112.979164Z" fill-rule="nonzero"/><path fill="#ff9900" d="M30.55 133.91667C30.55 137.23038 27.863708 139.91667 24.55 139.91667C21.236292 139.91667 18.55 137.23038 18.55 133.91667C18.55 130.60295 21.236292 127.916664 24.55 127.916664C27.863708 127.916664 30.55 130.60295 30.55 133.91667Z" fill-rule="nonzero"/><path fill="#1a1a1a" d="M39.471874 137.91667L39.471874 129.32292L40.628124 129.32292L45.14375 136.07292L45.14375 129.32292L46.2375 129.32292L46.2375 137.91667L45.065624 137.91667L40.55 131.16667L40.55 137.91667L39.471874 137.91667ZM48.534374 137.91667L48.534374 129.32292L54.33125 129.32292L54.33125 130.33855L49.675 130.33855L49.675 132.9948L53.70625 132.9948L53.70625 134.01042L49.675 134.01042L49.675 137.91667L48.534374 137.91667ZM57.659374 137.91667L57.659374 130.33855L54.83125 130.33855L54.83125 129.32292L61.64375 129.32292L61.64375 130.33855L58.8 130.33855L58.8 137.91667L57.659374 137.91667ZM65.59688 137.91667L65.59688 132.51042L64.65938 132.51042L64.65938 131.69792L65.59688 131.69792L65.59688 131.02605Q65.59688 130.40105 65.70625 130.10417Q65.8625 129.6823 66.2375 129.4323Q66.62813 129.1823 67.31563 129.1823Q67.76875 129.1823 68.3 129.29167L68.14375 130.19792Q67.81563 130.15105 67.51875 130.15105Q67.03438 130.15105 66.83125 130.35417Q66.64375 130.5573 66.64375 131.1198L66.64375 131.69792L67.8625 131.69792L67.8625 132.51042L66.64375 132.51042L66.64375 137.91667L65.59688 137.91667ZM72.425 137.91667L72.425 136.9948Q71.69063 138.0573 70.44063 138.0573Q69.89375 138.0573 69.40938 137.85417Q68.94063 137.63542 68.70625 137.32292Q68.47188 136.9948 68.37813 136.52605Q68.31563 136.22917 68.31563 135.54167L68.31563 131.69792L69.37813 131.69792L69.37813 135.15105Q69.37813 135.96355 69.44063 136.26042Q69.53438 136.66667 69.84688 136.91667Q70.175 137.15105 70.65938 137.15105Q71.12813 137.15105 71.53438 136.91667Q71.95625 136.66667 72.12813 136.2448Q72.31563 135.82292 72.31563 135.02605L72.31563 131.69792L73.3625 131.69792L73.3625 137.91667L72.425 137.91667ZM75.34688 137.91667L75.34688 131.69792L76.28438 131.69792L76.28438 132.57292Q76.97188 131.5573 78.26875 131.5573Q78.83125 131.5573 79.3 131.76042Q79.78438 131.96355 80.01875 132.29167Q80.25313 132.6198 80.34688 133.0573Q80.39375 133.35417 80.39375 134.08855L80.39375 137.91667L79.34688 137.91667L79.34688 134.13542Q79.34688 133.47917 79.22188 133.16667Q79.09688 132.85417 78.78438 132.66667Q78.47188 132.46355 78.05 132.46355Q77.37813 132.46355 76.87813 132.90105Q76.39375 133.32292 76.39375 134.51042L76.39375 137.91667L75.34688 137.91667ZM86.37813 137.91667L86.37813 137.13542Q85.78438 138.0573 84.64375 138.0573Q83.89375 138.0573 83.26875 137.65105Q82.64375 137.22917 82.3 136.4948Q81.95625 135.76042 81.95625 134.8073Q81.95625 133.88542 82.26875 133.1198Q82.58125 132.35417 83.20625 131.96355Q83.83125 131.5573 84.59688 131.5573Q85.15938 131.5573 85.59688 131.79167Q86.03438 132.02605 86.31563 132.40105L86.31563 129.32292L87.3625 129.32292L87.3625 137.91667L86.37813 137.91667ZM83.05 134.8073Q83.05 136.01042 83.55 136.60417Q84.05 137.1823 84.7375 137.1823Q85.425 137.1823 85.90938 136.6198Q86.39375 136.0573 86.39375 134.90105Q86.39375 133.6198 85.89375 133.02605Q85.40938 132.4323 84.69063 132.4323Q83.9875 132.4323 83.51875 133.01042Q83.05 133.57292 83.05 134.8073ZM89.34688 130.54167L89.34688 129.32292L90.40938 129.32292L90.40938 130.54167L89.34688 130.54167ZM89.34688 137.91667L89.34688 131.69792L90.40938 131.69792L90.40938 137.91667L89.34688 137.91667ZM92.34688 137.91667L92.34688 131.69792L93.28438 131.69792L93.28438 132.57292Q93.97188 131.5573 95.26875 131.5573Q95.83125 131.5573 96.3 131.76042Q96.78438 131.96355 97.01875 132.29167Q97.25313 132.6198 97.34688 133.0573Q97.39375 133.35417 97.39375 134.08855L97.39375 137.91667L96.34688 137.91667L96.34688 134.13542Q96.34688 133.47917 96.22188 133.16667Q96.09688 132.85417 95.78438 132.66667Q95.47188 132.46355 95.05 132.46355Q94.37813 132.46355 93.87813 132.90105Q93.39375 133.32292 93.39375 134.51042L93.39375 137.91667L92.34688 137.91667ZM99.14375 138.4323L100.175 138.58855Q100.2375 139.0573 100.53438 139.27605Q100.925 139.57292 101.59688 139.57292Q102.33125 139.57292 102.72188 139.27605Q103.12813 138.97917 103.26875 138.46355Q103.3625 138.13542 103.34688 137.10417Q102.65938 137.91667 101.62813 137.91667Q100.34688 137.91667 99.64375 136.9948Q98.94063 136.0573 98.94063 134.77605Q98.94063 133.88542 99.25313 133.13542Q99.58125 132.3698 100.19063 131.96355Q100.8 131.5573 101.62813 131.5573Q102.7375 131.5573 103.45625 132.44792L103.45625 131.69792L104.425 131.69792L104.425 137.07292Q104.425 138.52605 104.12813 139.13542Q103.83125 139.7448 103.19063 140.08855Q102.55 140.44792 101.6125 140.44792Q100.50313 140.44792 99.81563 139.94792Q99.12813 139.44792 99.14375 138.4323ZM100.01875 134.69792Q100.01875 135.91667 100.50313 136.47917Q100.9875 137.04167 101.72188 137.04167Q102.45625 137.04167 102.94063 136.47917Q103.44063 135.91667 103.44063 134.72917Q103.44063 133.58855 102.925 133.01042Q102.425 132.4323 101.70625 132.4323Q101.00313 132.4323 100.50313 133.01042Q100.01875 133.57292 100.01875 134.69792ZM111.925 137.91667L108.59688 129.32292L109.83125 129.32292L112.06563 135.57292Q112.33125 136.32292 112.51875 136.97917Q112.72188 136.27605 112.9875 135.57292L115.3 129.32292L116.45625 129.32292L113.09688 137.91667L111.925 137.91667ZM120.40938 137.15105Q119.81563 137.65105 119.26875 137.85417Q118.7375 138.0573 118.1125 138.0573Q117.08125 138.0573 116.53438 137.5573Q115.9875 137.0573 115.9875 136.27605Q115.9875 135.82292 116.19063 135.44792Q116.39375 135.0573 116.7375 134.83855Q117.08125 134.60417 117.50313 134.4948Q117.8 134.40105 118.44063 134.32292Q119.70625 134.1823 120.31563 133.96355Q120.31563 133.7448 120.31563 133.69792Q120.31563 133.04167 120.01875 132.77605Q119.6125 132.4323 118.81563 132.4323Q118.08125 132.4323 117.72188 132.69792Q117.3625 132.94792 117.19063 133.60417L116.15938 133.46355Q116.3 132.8073 116.62813 132.40105Q116.95625 131.9948 117.56563 131.77605Q118.175 131.5573 118.97188 131.5573Q119.76875 131.5573 120.26875 131.7448Q120.76875 131.9323 121.00313 132.21355Q121.2375 132.4948 121.33125 132.9323Q121.37813 133.19792 121.37813 133.90105L121.37813 135.3073Q121.37813 136.77605 121.44063 137.16667Q121.51875 137.5573 121.72188 137.91667L120.6125 137.91667Q120.45625 137.58855 120.40938 137.15105ZM120.31563 134.79167Q119.7375 135.02605 118.59688 135.19792Q117.94063 135.29167 117.675 135.41667Q117.40938 135.52605 117.25313 135.7448Q117.1125 135.96355 117.1125 136.2448Q117.1125 136.66667 117.425 136.94792Q117.75313 137.22917 118.3625 137.22917Q118.97188 137.22917 119.44063 136.96355Q119.925 136.69792 120.14375 136.22917Q120.31563 135.8698 120.31563 135.1823L120.31563 134.79167ZM127.425 137.91667L127.425 136.9948Q126.69063 138.0573 125.44063 138.0573Q124.89375 138.0573 124.40938 137.85417Q123.94063 137.63542 123.70625 137.32292Q123.47188 136.9948 123.37813 136.52605Q123.31563 136.22917 123.31563 135.54167L123.31563 131.69792L124.37813 131.69792L124.37813 135.15105Q124.37813 135.96355 124.44063 136.26042Q124.53438 136.66667 124.84688 136.91667Q125.175 137.15105 125.65938 137.15105Q126.12813 137.15105 126.53438 136.91667Q126.95625 136.66667 127.12813 136.2448Q127.31563 135.82292 127.31563 135.02605L127.31563 131.69792L128.3625 131.69792L128.3625 137.91667L127.425 137.91667ZM130.31563 137.91667L130.31563 129.32292L131.37813 129.32292L131.37813 137.91667L130.31563 137.91667ZM135.64375 136.97917L135.8 137.90105Q135.34688 137.9948 135.00313 137.9948Q134.425 137.9948 134.1125 137.82292Q133.8 137.63542 133.65938 137.33855Q133.53438 137.04167 133.53438 136.08855L133.53438 132.51042L132.76875 132.51042L132.76875 131.69792L133.53438 131.69792L133.53438 130.15105L134.58125 129.52605L134.58125 131.69792L135.64375 131.69792L135.64375 132.51042L134.58125 132.51042L134.58125 136.15105Q134.58125 136.60417 134.62813 136.72917Q134.69063 136.85417 134.81563 136.9323Q134.94063 137.01042 135.175 137.01042Q135.3625 137.01042 135.64375 136.97917Z" fill-rule="nonzero"/><path fill="#000000" d="M20.096874 37.55L20.096874 23.2375L25.4875 23.2375Q26.925 23.2375 27.675 23.3625Q28.721874 23.55 29.440624 24.05Q30.159374 24.534374 30.58125 25.425Q31.01875 26.315624 31.01875 27.378124Q31.01875 29.20625 29.846874 30.471874Q28.690624 31.721874 25.659374 31.721874L21.9875 31.721874L21.9875 37.55L20.096874 37.55ZM21.9875 30.034374L25.690624 30.034374Q27.51875 30.034374 28.284374 29.3625Q29.065624 28.675 29.065624 27.425Q29.065624 26.534374 28.6125 25.89375Q28.159374 25.253124 27.425 25.05Q26.940624 24.925 25.64375 24.925L21.9875 24.925L21.9875 30.034374ZM32.846874 37.55L32.846874 27.175L34.425 27.175L34.425 28.753124Q35.034374 27.64375 35.55 27.3Q36.065624 26.940624 36.675 26.940624Q37.565624 26.940624 38.4875 27.503124L37.878124 29.14375Q37.2375 28.753124 36.596874 28.753124Q36.01875 28.753124 35.55 29.1125Q35.096874 29.45625 34.89375 30.065624Q34.6125 31.003124 34.6125 32.1125L34.6125 37.55L32.846874 37.55ZM39.221874 32.3625Q39.221874 29.4875 40.815624 28.096874Q42.159374 26.940624 44.08125 26.940624Q46.221874 26.940624 47.565624 28.346874Q48.925 29.753124 48.925 32.221874Q48.925 34.221874 48.33125 35.378124Q47.7375 36.51875 46.58125 37.159374Q45.440624 37.784374 44.08125 37.784374Q41.89375 37.784374 40.55 36.39375Q39.221874 34.9875 39.221874 32.3625ZM41.01875 32.3625Q41.01875 34.3625 41.878124 35.346874Q42.753124 36.33125 44.08125 36.33125Q45.39375 36.33125 46.253124 35.346874Q47.128124 34.346874 47.128124 32.3Q47.128124 30.378124 46.253124 29.39375Q45.378124 28.39375 44.08125 28.39375Q42.753124 28.39375 41.878124 29.39375Q41.01875 30.378124 41.01875 32.3625ZM51.284374 37.55L51.284374 28.55L49.7375 28.55L49.7375 27.175L51.284374 27.175L51.284374 26.08125Q51.284374 25.034374 51.471874 24.51875Q51.721874 23.83125 52.3625 23.409374Q53.003124 22.9875 54.159374 22.9875Q54.909374 22.9875 55.8 23.159374L55.534374 24.690624Q54.9875 24.596874 54.503124 24.596874Q53.70625 24.596874 53.3625 24.940624Q53.034374 25.284374 53.034374 26.221874L53.034374 27.175L55.065624 27.175L55.065624 28.55L53.034374 28.55L53.034374 37.55L51.284374 37.55ZM56.878124 25.253124L56.878124 23.2375L58.64375 23.2375L58.64375 25.253124L56.878124 25.253124ZM56.878124 37.55L56.878124 27.175L58.64375 27.175L58.64375 37.55L56.878124 37.55ZM64.70625 35.971874L64.95625 37.534374Q64.22188 37.690624 63.628124 37.690624Q62.675 37.690624 62.14375 37.39375Q61.628124 37.08125 61.409374 36.596874Q61.190624 36.096874 61.190624 34.51875L61.190624 28.55L59.909374 28.55L59.909374 27.175L61.190624 27.175L61.190624 24.6125L62.940624 23.55L62.940624 27.175L64.70625 27.175L64.70625 28.55L62.940624 28.55L62.940624 34.6125Q62.940624 35.3625 63.034374 35.58125Q63.128124 35.784374 63.33125 35.925Q63.55 36.05 63.940624 36.05Q64.22188 36.05 64.70625 35.971874ZM79.59688 37.55L79.59688 36.2375Q78.6125 37.784374 76.69063 37.784374Q75.45625 37.784374 74.40938 37.096874Q73.37813 36.409374 72.8 35.190624Q72.2375 33.971874 72.2375 32.378124Q72.2375 30.815624 72.75313 29.55Q73.26875 28.284374 74.3 27.6125Q75.34688 26.940624 76.6125 26.940624Q77.55 26.940624 78.28438 27.346874Q79.01875 27.7375 79.4875 28.3625L79.4875 23.2375L81.22188 23.2375L81.22188 37.55L79.59688 37.55ZM74.03438 32.378124Q74.03438 34.3625 74.87813 35.346874Q75.72188 36.33125 76.8625 36.33125Q78.01875 36.33125 78.81563 35.39375Q79.62813 34.45625 79.62813 32.51875Q79.62813 30.39375 78.8 29.39375Q77.9875 28.39375 76.78438 28.39375Q75.6125 28.39375 74.81563 29.3625Q74.03438 30.315624 74.03438 32.378124ZM83.87813 25.253124L83.87813 23.2375L85.64375 23.2375L85.64375 25.253124L83.87813 25.253124ZM83.87813 37.55L83.87813 27.175L85.64375 27.175L85.64375 37.55L83.87813 37.55ZM87.15938 34.45625L88.90938 34.175Q89.05 35.221874 89.72188 35.784374Q90.39375 36.33125 91.59688 36.33125Q92.8 36.33125 93.37813 35.846874Q93.97188 35.346874 93.97188 34.690624Q93.97188 34.096874 93.45625 33.753124Q93.09688 33.51875 91.65938 33.159374Q89.72188 32.659374 88.97188 32.315624Q88.2375 31.95625 87.84688 31.33125Q87.45625 30.690624 87.45625 29.925Q87.45625 29.2375 87.76875 28.64375Q88.09688 28.05 88.64375 27.659374Q89.05 27.3625 89.75313 27.159374Q90.47188 26.940624 91.28438 26.940624Q92.50313 26.940624 93.425 27.3Q94.34688 27.64375 94.78438 28.253124Q95.22188 28.846874 95.39375 29.846874L93.675 30.08125Q93.55 29.284374 92.9875 28.846874Q92.425 28.39375 91.40938 28.39375Q90.19063 28.39375 89.675 28.8Q89.15938 29.190624 89.15938 29.721874Q89.15938 30.065624 89.37813 30.346874Q89.58125 30.628124 90.05 30.815624Q90.31563 30.909374 91.59688 31.253124Q93.47188 31.753124 94.20625 32.08125Q94.94063 32.39375 95.3625 33.003124Q95.78438 33.596874 95.78438 34.503124Q95.78438 35.378124 95.26875 36.159374Q94.75313 36.940624 93.78438 37.3625Q92.81563 37.784374 91.59688 37.784374Q89.58125 37.784374 88.51875 36.940624Q87.45625 36.096874 87.15938 34.45625ZM101.70625 35.971874L101.95625 37.534374Q101.22188 37.690624 100.62813 37.690624Q99.675 37.690624 99.14375 37.39375Q98.62813 37.08125 98.40938 36.596874Q98.19063 36.096874 98.19063 34.51875L98.19063 28.55L96.90938 28.55L96.90938 27.175L98.19063 27.175L98.19063 24.6125L99.94063 23.55L99.94063 27.175L101.70625 27.175L101.70625 28.55L99.94063 28.55L99.94063 34.6125Q99.94063 35.3625 100.03438 35.58125Q100.12813 35.784374 100.33125 35.925Q100.55 36.05 100.94063 36.05Q101.22188 36.05 101.70625 35.971874ZM103.84688 37.55L103.84688 27.175L105.425 27.175L105.425 28.753124Q106.03438 27.64375 106.55 27.3Q107.06563 26.940624 107.675 26.940624Q108.56563 26.940624 109.4875 27.503124L108.87813 29.14375Q108.2375 28.753124 107.59688 28.753124Q107.01875 28.753124 106.55 29.1125Q106.09688 29.45625 105.89375 30.065624Q105.6125 31.003124 105.6125 32.1125L105.6125 37.55L103.84688 37.55ZM110.87813 25.253124L110.87813 23.2375L112.64375 23.2375L112.64375 25.253124L110.87813 25.253124ZM110.87813 37.55L110.87813 27.175L112.64375 27.175L112.64375 37.55L110.87813 37.55ZM116.4875 37.55L114.8625 37.55L114.8625 23.2375L116.6125 23.2375L116.6125 28.346874Q117.7375 26.940624 119.45625 26.940624Q120.40938 26.940624 121.26875 27.33125Q122.12813 27.721874 122.675 28.425Q123.22188 29.1125 123.53438 30.096874Q123.84688 31.08125 123.84688 32.20625Q123.84688 34.878124 122.53438 36.33125Q121.22188 37.784374 119.37813 37.784374Q117.53438 37.784374 116.4875 36.253124L116.4875 37.55ZM116.47188 32.284374Q116.47188 34.14375 116.97188 34.9875Q117.81563 36.33125 119.22188 36.33125Q120.37813 36.33125 121.20625 35.33125Q122.05 34.33125 122.05 32.346874Q122.05 30.315624 121.2375 29.3625Q120.44063 28.39375 119.3 28.39375Q118.14375 28.39375 117.3 29.39375Q116.47188 30.39375 116.47188 32.284374ZM132.65938 37.55L132.65938 36.01875Q131.45625 37.784374 129.37813 37.784374Q128.45625 37.784374 127.65938 37.440624Q126.8625 37.08125 126.47188 36.55Q126.09688 36.01875 125.94063 35.2375Q125.83125 34.721874 125.83125 33.596874L125.83125 27.175L127.58125 27.175L127.58125 32.925Q127.58125 34.3 127.69063 34.784374Q127.8625 35.471874 128.39375 35.878124Q128.94063 36.26875 129.72188 36.26875Q130.51875 36.26875 131.20625 35.8625Q131.90938 35.45625 132.19063 34.76875Q132.4875 34.065624 132.4875 32.7375L132.4875 27.175L134.2375 27.175L134.2375 37.55L132.65938 37.55ZM139.70625 35.971874L139.95625 37.534374Q139.22188 37.690624 138.62813 37.690624Q137.675 37.690624 137.14375 37.39375Q136.62813 37.08125 136.40938 36.596874Q136.19063 36.096874 136.19063 34.51875L136.19063 28.55L134.90938 28.55L134.90938 27.175L136.19063 27.175L136.19063 24.6125L137.94063 23.55L137.94063 27.175L139.70625 27.175L139.70625 28.55L137.94063 28.55L137.94063 34.6125Q137.94063 35.3625 138.03438 35.58125Q138.12813 35.784374 138.33125 35.925Q138.55 36.05 138.94063 36.05Q139.22188 36.05 139.70625 35.971874ZM141.87813 25.253124L141.87813 23.2375L143.64375 23.2375L143.64375 25.253124L141.87813 25.253124ZM141.87813 37.55L141.87813 27.175L143.64375 27.175L143.64375 37.55L141.87813 37.55ZM145.22188 32.3625Q145.22188 29.4875 146.81563 28.096874Q148.15938 26.940624 150.08125 26.940624Q152.22188 26.940624 153.56563 28.346874Q154.925 29.753124 154.925 32.221874Q154.925 34.221874 154.33125 35.378124Q153.7375 36.51875 152.58125 37.159374Q151.44063 37.784374 150.08125 37.784374Q147.89375 37.784374 146.55 36.39375Q145.22188 34.9875 145.22188 32.3625ZM147.01875 32.3625Q147.01875 34.3625 147.87813 35.346874Q148.75313 36.33125 150.08125 36.33125Q151.39375 36.33125 152.25313 35.346874Q153.12813 34.346874 153.12813 32.3Q153.12813 30.378124 152.25313 29.39375Q151.37813 28.39375 150.08125 28.39375Q148.75313 28.39375 147.87813 29.39375Q147.01875 30.378124 147.01875 32.3625ZM156.8625 37.55L156.8625 27.175L158.45625 27.175L158.45625 28.659374Q159.59688 26.940624 161.75313 26.940624Q162.69063 26.940624 163.47188 27.284374Q164.26875 27.6125 164.65938 28.159374Q165.05 28.70625 165.20625 29.45625Q165.3 29.95625 165.3 31.175L165.3 37.55L163.53438 37.55L163.53438 31.2375Q163.53438 30.159374 163.33125 29.628124Q163.12813 29.096874 162.59688 28.784374Q162.08125 28.471874 161.37813 28.471874Q160.25313 28.471874 159.44063 29.190624Q158.62813 29.89375 158.62813 31.878124L158.62813 37.55L156.8625 37.55Z" fill-rule="nonzero"/></svg>