<svg version="1.1" viewBox="0.0 0.0 600.0 371.0" fill="none" stroke="none" stroke-linecap="square" stroke-miterlimit="10" width="600" height="371" xmlns:xlink="http://www.w3.org/1999/xlink" xmlns="http://www.w3.org/2000/svg"><path fill="#ffffff" d="M0 0L600.0 0L600.0 371.0L0 371.0L0 0Z" fill-rule="nonzero"/><path fill="#0000ff" d="M239.43227 157.7119C259.3483 96.416664 316.46814 54.916668 380.9178 54.916668L380.9178 129.3C348.69296 129.3 320.13303 150.05 310.17502 180.69762Z" fill-rule="nonzero"/><path fill="#9900ff" d="M380.9178 54.916668C445.3674 54.916668 502.48724 96.416664 522.40326 157.7119C542.31934 219.00714 520.50146 286.15555 468.36063 324.0381C416.2198 361.92062 345.61578 361.92062 293.4749 324.0381C241.33408 286.15555 219.51624 219.00714 239.43227 157.7119L310.17502 180.69762C300.217 211.34525 311.12592 244.91945 337.19635 263.86072C363.26678 282.80197 398.5688 282.80197 424.6392 263.86072C450.70963 244.91945 461.61856 211.34525 451.66052 180.69762C441.7025 150.05 413.14258 129.3 380.9178 129.3Z" fill-rule="nonzero"/><path fill="#000000" d="M435.77982 294.62833Q435.0142 294.34708 434.6392 293.83145Q434.27982 293.31583 434.27982 292.58145Q434.27982 291.4877 435.06107 290.75333Q435.85794 290.00333 437.15482 290.00333Q438.46732 290.00333 439.2642 290.76895Q440.0767 291.53458 440.0767 292.62833Q440.0767 293.31583 439.7017 293.83145Q439.34232 294.34708 438.59232 294.62833Q439.5142 294.9252 439.99857 295.59708Q440.48294 296.26895 440.48294 297.20645Q440.48294 298.4877 439.5767 299.3627Q438.67044 300.2377 437.18607 300.2377Q435.7017 300.2377 434.77982 299.3627Q433.87357 298.47208 433.87357 297.15958Q433.87357 296.19083 434.37357 295.53458Q434.87357 294.8627 435.77982 294.62833ZM435.54544 292.5502Q435.54544 293.25333 435.99857 293.70645Q436.4517 294.15958 437.18607 294.15958Q437.90482 294.15958 438.35794 293.72208Q438.81107 293.26895 438.81107 292.6127Q438.81107 291.94083 438.34232 291.4877Q437.87357 291.01895 437.17044 291.01895Q436.46732 291.01895 435.99857 291.47208Q435.54544 291.90958 435.54544 292.5502ZM435.1392 297.1752Q435.1392 297.70645 435.3892 298.20645Q435.6392 298.69083 436.12357 298.95645Q436.62357 299.22208 437.2017 299.22208Q438.0767 299.22208 438.6392 298.65958Q439.21732 298.09708 439.21732 297.22208Q439.21732 296.33145 438.62357 295.75333Q438.04544 295.15958 437.15482 295.15958Q436.27982 295.15958 435.7017 295.7377Q435.1392 296.31583 435.1392 297.1752ZM441.8892 295.12833Q441.8892 293.34708 442.24857 292.26895Q442.62357 291.1752 443.34232 290.59708Q444.06107 290.00333 445.15482 290.00333Q445.96732 290.00333 446.5767 290.33145Q447.18607 290.65958 447.5767 291.26895Q447.98294 291.87833 448.2017 292.75333Q448.42044 293.62833 448.42044 295.12833Q448.42044 296.89395 448.06107 297.97208Q447.7017 299.0502 446.98294 299.64395Q446.2642 300.2377 445.15482 300.2377Q443.71732 300.2377 442.8892 299.19083Q441.8892 297.94083 441.8892 295.12833ZM443.15482 295.12833Q443.15482 297.59708 443.73294 298.40958Q444.31107 299.22208 445.15482 299.22208Q446.0142 299.22208 446.59232 298.40958Q447.17044 297.58145 447.17044 295.12833Q447.17044 292.64395 446.59232 291.83145Q446.0142 291.01895 445.1392 291.01895Q444.29544 291.01895 443.79544 291.7377Q443.15482 292.65958 443.15482 295.12833ZM450.12357 292.45645Q450.12357 291.37833 450.65482 290.62833Q451.2017 289.87833 452.23294 289.87833Q453.17044 289.87833 453.77982 290.5502Q454.40482 291.22208 454.40482 292.51895Q454.40482 293.8002 453.77982 294.4877Q453.15482 295.1752 452.24857 295.1752Q451.34232 295.1752 450.73294 294.50333Q450.12357 293.81583 450.12357 292.45645ZM452.2642 290.72208Q451.81107 290.72208 451.49857 291.12833Q451.2017 291.51895 451.2017 292.56583Q451.2017 293.53458 451.49857 293.9252Q451.81107 294.31583 452.2642 294.31583Q452.73294 294.31583 453.02982 293.9252Q453.34232 293.53458 453.34232 292.47208Q453.34232 291.50333 453.02982 291.1127Q452.71732 290.72208 452.2642 290.72208ZM452.2642 300.44083L457.74857 289.87833L458.74857 289.87833L453.29544 300.44083L452.2642 300.44083ZM456.60794 297.70645Q456.60794 296.62833 457.1392 295.89395Q457.68607 295.14395 458.71732 295.14395Q459.65482 295.14395 460.27982 295.81583Q460.90482 296.4877 460.90482 297.78458Q460.90482 299.06583 460.27982 299.75333Q459.65482 300.44083 458.71732 300.44083Q457.81107 300.44083 457.2017 299.76895Q456.60794 299.08145 456.60794 297.70645ZM458.74857 295.9877Q458.27982 295.9877 457.98294 296.39395Q457.68607 296.78458 457.68607 297.83145Q457.68607 298.8002 457.98294 299.19083Q458.29544 299.58145 458.74857 299.58145Q459.21732 299.58145 459.5142 299.19083Q459.8267 298.8002 459.8267 297.7377Q459.8267 296.76895 459.5142 296.37833Q459.21732 295.9877 458.74857 295.9877Z" fill-rule="nonzero"/><path fill="#000000" d="M307.57138 116.11333L307.57138 117.30083L300.94638 117.30083Q300.93076 116.86333 301.087 116.44145Q301.35263 115.76958 301.8995 115.11333Q302.462 114.45708 303.50888 113.5977Q305.1495 112.25395 305.712 111.4727Q306.29013 110.69145 306.29013 109.98833Q306.29013 109.25395 305.75888 108.75395Q305.24326 108.25395 304.41513 108.25395Q303.5245 108.25395 302.97763 108.7852Q302.44638 109.31645 302.44638 110.26958L301.18076 110.12895Q301.30576 108.7227 302.1495 107.98833Q303.00888 107.23833 304.43076 107.23833Q305.88388 107.23833 306.712 108.0352Q307.55576 108.83208 307.55576 110.01958Q307.55576 110.62895 307.30576 111.20708Q307.07138 111.7852 306.49326 112.42583Q305.93076 113.06645 304.60263 114.19145Q303.49326 115.11333 303.18076 115.45708Q302.86826 115.7852 302.66513 116.11333L307.57138 116.11333ZM309.10263 112.36333Q309.10263 110.58208 309.462 109.50395Q309.837 108.4102 310.55576 107.83208Q311.2745 107.23833 312.36826 107.23833Q313.18076 107.23833 313.79013 107.56645Q314.3995 107.89458 314.79013 108.50395Q315.19638 109.11333 315.41513 109.98833Q315.63388 110.86333 315.63388 112.36333Q315.63388 114.12895 315.2745 115.20708Q314.91513 116.2852 314.19638 116.87895Q313.47763 117.4727 312.36826 117.4727Q310.93076 117.4727 310.10263 116.42583Q309.10263 115.17583 309.10263 112.36333ZM310.36826 112.36333Q310.36826 114.83208 310.94638 115.64458Q311.5245 116.45708 312.36826 116.45708Q313.22763 116.45708 313.80576 115.64458Q314.38388 114.81645 314.38388 112.36333Q314.38388 109.87895 313.80576 109.06645Q313.22763 108.25395 312.35263 108.25395Q311.50888 108.25395 311.00888 108.9727Q310.36826 109.89458 310.36826 112.36333ZM317.337 109.69145Q317.337 108.61333 317.86826 107.86333Q318.41513 107.11333 319.44638 107.11333Q320.38388 107.11333 320.99326 107.7852Q321.61826 108.45708 321.61826 109.75395Q321.61826 111.0352 320.99326 111.7227Q320.36826 112.4102 319.462 112.4102Q318.55576 112.4102 317.94638 111.73833Q317.337 111.05083 317.337 109.69145ZM319.47763 107.95708Q319.0245 107.95708 318.712 108.36333Q318.41513 108.75395 318.41513 109.80083Q318.41513 110.76958 318.712 111.1602Q319.0245 111.55083 319.47763 111.55083Q319.94638 111.55083 320.24326 111.1602Q320.55576 110.76958 320.55576 109.70708Q320.55576 108.73833 320.24326 108.3477Q319.93076 107.95708 319.47763 107.95708ZM319.47763 117.67583L324.962 107.11333L325.962 107.11333L320.50888 117.67583L319.47763 117.67583ZM323.82138 114.94145Q323.82138 113.86333 324.35263 113.12895Q324.8995 112.37895 325.93076 112.37895Q326.86826 112.37895 327.49326 113.05083Q328.11826 113.7227 328.11826 115.01958Q328.11826 116.30083 327.49326 116.98833Q326.86826 117.67583 325.93076 117.67583Q325.0245 117.67583 324.41513 117.00395Q323.82138 116.31645 323.82138 114.94145ZM325.962 113.2227Q325.49326 113.2227 325.19638 113.62895Q324.8995 114.01958 324.8995 115.06645Q324.8995 116.0352 325.19638 116.42583Q325.50888 116.81645 325.962 116.81645Q326.43076 116.81645 326.72763 116.42583Q327.04013 116.0352 327.04013 114.9727Q327.04013 114.00395 326.72763 113.61333Q326.43076 113.2227 325.962 113.2227Z" fill-rule="nonzero"/><path fill="#9900ff" d="M30.55 61.916668C30.55 65.23038 27.863708 67.916664 24.55 67.916664C21.236292 67.916664 18.55 65.23038 18.55 61.916668C18.55 58.60296 21.236292 55.916668 24.55 55.916668C27.863708 55.916668 30.55 58.60296 30.55 61.916668Z" fill-rule="nonzero"/><path fill="#1a1a1a" d="M39.096874 63.15104L40.159374 63.05729Q40.2375 63.71354 40.51875 64.11979Q40.8 64.52604 41.378124 64.791664Q41.971874 65.041664 42.70625 65.041664Q43.346874 65.041664 43.846874 64.854164Q44.346874 64.65104 44.58125 64.322914Q44.83125 63.979164 44.83125 63.58854Q44.83125 63.18229 44.596874 62.885414Q44.3625 62.572914 43.83125 62.36979Q43.471874 62.229164 42.284374 61.947914Q41.1125 61.666664 40.64375 61.416664Q40.01875 61.08854 39.721874 60.61979Q39.425 60.135414 39.425 59.541664Q39.425 58.90104 39.784374 58.33854Q40.159374 57.760414 40.8625 57.479164Q41.58125 57.18229 42.440624 57.18229Q43.39375 57.18229 44.128124 57.49479Q44.8625 57.791664 45.253124 58.40104Q45.64375 58.99479 45.675 59.74479L44.58125 59.822914Q44.4875 59.010414 43.971874 58.604164Q43.471874 58.18229 42.4875 58.18229Q41.45625 58.18229 40.9875 58.55729Q40.51875 58.93229 40.51875 59.46354Q40.51875 59.93229 40.846874 60.229164Q41.175 60.52604 42.55 60.83854Q43.940624 61.15104 44.45625 61.385414Q45.20625 61.74479 45.565624 62.27604Q45.925 62.791664 45.925 63.49479Q45.925 64.18229 45.534374 64.791664Q45.14375 65.385414 44.409374 65.729164Q43.675 66.05729 42.753124 66.05729Q41.58125 66.05729 40.784374 65.729164Q40.003124 65.385414 39.55 64.697914Q39.1125 64.010414 39.096874 63.15104ZM49.659374 65.916664L49.659374 58.33854L46.83125 58.33854L46.83125 57.322914L53.64375 57.322914L53.64375 58.33854L50.8 58.33854L50.8 65.916664L49.659374 65.916664ZM54.128124 61.729164Q54.128124 59.58854 55.26875 58.385414Q56.425 57.166664 58.2375 57.166664Q59.440624 57.166664 60.39375 57.74479Q61.346874 58.30729 61.846874 59.322914Q62.346874 60.33854 62.346874 61.635414Q62.346874 62.93229 61.815624 63.96354Q61.284374 64.99479 60.315624 65.52604Q59.3625 66.05729 58.2375 66.05729Q57.01875 66.05729 56.065624 65.479164Q55.1125 64.885414 54.6125 63.885414Q54.128124 62.86979 54.128124 61.729164ZM55.3 61.74479Q55.3 63.30729 56.128124 64.197914Q56.971874 65.08854 58.2375 65.08854Q59.51875 65.08854 60.346874 64.197914Q61.175 63.291664 61.175 61.61979Q61.175 60.572914 60.815624 59.791664Q60.471874 59.010414 59.784374 58.58854Q59.096874 58.15104 58.253124 58.15104Q57.05 58.15104 56.175 58.979164Q55.3 59.80729 55.3 61.74479ZM66.34688 65.916664L66.34688 57.322914L67.39375 57.322914L67.39375 60.40104Q68.12813 59.55729 69.25313 59.55729Q69.95625 59.55729 70.45625 59.83854Q70.97188 60.104164 71.19063 60.58854Q71.40938 61.05729 71.40938 61.979164L71.40938 65.916664L70.3625 65.916664L70.3625 61.979164Q70.3625 61.18229 70.01875 60.822914Q69.675 60.46354 69.05 60.46354Q68.58125 60.46354 68.15938 60.71354Q67.75313 60.947914 67.56563 61.36979Q67.39375 61.77604 67.39375 62.510414L67.39375 65.916664L66.34688 65.916664ZM72.95625 62.80729Q72.95625 61.072914 73.90938 60.24479Q74.70625 59.55729 75.8625 59.55729Q77.14375 59.55729 77.95625 60.40104Q78.78438 61.229164 78.78438 62.71354Q78.78438 63.916664 78.425 64.604164Q78.06563 65.291664 77.3625 65.68229Q76.675 66.05729 75.8625 66.05729Q74.56563 66.05729 73.75313 65.229164Q72.95625 64.385414 72.95625 62.80729ZM74.03438 62.80729Q74.03438 63.99479 74.55 64.58854Q75.08125 65.18229 75.8625 65.18229Q76.65938 65.18229 77.175 64.58854Q77.69063 63.99479 77.69063 62.77604Q77.69063 61.61979 77.15938 61.02604Q76.64375 60.43229 75.8625 60.43229Q75.08125 60.43229 74.55 61.02604Q74.03438 61.604164 74.03438 62.80729ZM80.31563 65.916664L80.31563 57.322914L81.37813 57.322914L81.37813 65.916664L80.31563 65.916664ZM87.37813 65.916664L87.37813 65.135414Q86.78438 66.05729 85.64375 66.05729Q84.89375 66.05729 84.26875 65.65104Q83.64375 65.229164 83.3 64.49479Q82.95625 63.760414 82.95625 62.80729Q82.95625 61.885414 83.26875 61.11979Q83.58125 60.354164 84.20625 59.96354Q84.83125 59.55729 85.59688 59.55729Q86.15938 59.55729 86.59688 59.791664Q87.03438 60.02604 87.31563 60.40104L87.31563 57.322914L88.3625 57.322914L88.3625 65.916664L87.37813 65.916664ZM84.05 62.80729Q84.05 64.010414 84.55 64.604164Q85.05 65.18229 85.7375 65.18229Q86.425 65.18229 86.90938 64.61979Q87.39375 64.05729 87.39375 62.90104Q87.39375 61.61979 86.89375 61.02604Q86.40938 60.43229 85.69063 60.43229Q84.9875 60.43229 84.51875 61.010414Q84.05 61.572914 84.05 62.80729ZM94.31563 65.916664L93.33125 65.916664L93.33125 57.322914L94.39375 57.322914L94.39375 60.385414Q95.06563 59.55729 96.09688 59.55729Q96.675 59.55729 97.175 59.791664Q97.69063 60.010414 98.01875 60.43229Q98.3625 60.854164 98.55 61.447914Q98.7375 62.041664 98.7375 62.71354Q98.7375 64.30729 97.94063 65.18229Q97.14375 66.05729 96.05 66.05729Q94.94063 66.05729 94.31563 65.135414L94.31563 65.916664ZM94.3 62.760414Q94.3 63.86979 94.6125 64.36979Q95.1125 65.18229 95.95625 65.18229Q96.64375 65.18229 97.14375 64.58854Q97.65938 63.99479 97.65938 62.791664Q97.65938 61.572914 97.175 60.99479Q96.69063 60.416664 96.00313 60.416664Q95.31563 60.416664 94.8 61.02604Q94.3 61.61979 94.3 62.760414ZM100.3 68.30729L100.175 67.322914Q100.51875 67.416664 100.78438 67.416664Q101.12813 67.416664 101.33125 67.291664Q101.55 67.18229 101.69063 66.979164Q101.78438 66.80729 102.01875 66.18229Q102.03438 66.104164 102.1125 65.93229L99.7375 59.697914L100.87813 59.697914L102.175 63.291664Q102.425 63.979164 102.62813 64.74479Q102.81563 64.010414 103.06563 63.322914L104.39375 59.697914L105.44063 59.697914L103.08125 66.02604Q102.69063 67.041664 102.4875 67.43229Q102.20625 67.96354 101.83125 68.197914Q101.47188 68.447914 100.97188 68.447914Q100.675 68.447914 100.3 68.30729ZM109.97188 65.916664L107.69063 57.322914L108.8625 57.322914L110.175 62.96354Q110.37813 63.83854 110.53438 64.71354Q110.8625 63.33854 110.925 63.11979L112.55 57.322914L113.925 57.322914L115.15938 61.666664Q115.6125 63.291664 115.83125 64.71354Q115.9875 63.90104 116.25313 62.83854L117.59688 57.322914L118.7375 57.322914L116.39375 65.916664L115.28438 65.916664L113.4875 59.36979Q113.25313 58.55729 113.20625 58.36979Q113.08125 58.947914 112.95625 59.36979L111.14375 65.916664L109.97188 65.916664ZM119.53438 65.916664L119.53438 57.322914L125.33125 57.322914L125.33125 58.33854L120.675 58.33854L120.675 60.99479L124.70625 60.99479L124.70625 62.010414L120.675 62.010414L120.675 65.916664L119.53438 65.916664ZM128.65938 65.916664L128.65938 58.33854L125.83125 58.33854L125.83125 57.322914L132.64375 57.322914L132.64375 58.33854L129.8 58.33854L129.8 65.916664L128.65938 65.916664ZM138.06563 65.916664L135.70625 59.697914L136.81563 59.697914L138.15938 63.416664Q138.3625 64.02604 138.55 64.666664Q138.69063 64.18229 138.94063 63.49479L140.33125 59.697914L141.40938 59.697914L139.05 65.916664L138.06563 65.916664ZM145.40938 65.15104Q144.81563 65.65104 144.26875 65.854164Q143.7375 66.05729 143.1125 66.05729Q142.08125 66.05729 141.53438 65.55729Q140.9875 65.05729 140.9875 64.27604Q140.9875 63.822914 141.19063 63.447914Q141.39375 63.05729 141.7375 62.83854Q142.08125 62.604164 142.50313 62.49479Q142.8 62.40104 143.44063 62.322914Q144.70625 62.18229 145.31563 61.96354Q145.31563 61.74479 145.31563 61.697914Q145.31563 61.041664 145.01875 60.77604Q144.6125 60.43229 143.81563 60.43229Q143.08125 60.43229 142.72188 60.697914Q142.3625 60.947914 142.19063 61.604164L141.15938 61.46354Q141.3 60.80729 141.62813 60.40104Q141.95625 59.99479 142.56563 59.77604Q143.175 59.55729 143.97188 59.55729Q144.76875 59.55729 145.26875 59.74479Q145.76875 59.93229 146.00313 60.21354Q146.2375 60.49479 146.33125 60.93229Q146.37813 61.197914 146.37813 61.90104L146.37813 63.30729Q146.37813 64.77604 146.44063 65.166664Q146.51875 65.55729 146.72188 65.916664L145.6125 65.916664Q145.45625 65.58854 145.40938 65.15104ZM145.31563 62.791664Q144.7375 63.02604 143.59688 63.197914Q142.94063 63.291664 142.675 63.416664Q142.40938 63.52604 142.25313 63.74479Q142.1125 63.96354 142.1125 64.24479Q142.1125 64.666664 142.425 64.947914Q142.75313 65.229164 143.3625 65.229164Q143.97188 65.229164 144.44063 64.96354Q144.925 64.697914 145.14375 64.229164Q145.31563 63.86979 145.31563 63.18229L145.31563 62.791664ZM152.425 65.916664L152.425 64.99479Q151.69063 66.05729 150.44063 66.05729Q149.89375 66.05729 149.40938 65.854164Q148.94063 65.635414 148.70625 65.322914Q148.47188 64.99479 148.37813 64.52604Q148.31563 64.229164 148.31563 63.541664L148.31563 59.697914L149.37813 59.697914L149.37813 63.15104Q149.37813 63.96354 149.44063 64.260414Q149.53438 64.666664 149.84688 64.916664Q150.175 65.15104 150.65938 65.15104Q151.12813 65.15104 151.53438 64.916664Q151.95625 64.666664 152.12813 64.24479Q152.31563 63.822914 152.31563 63.02604L152.31563 59.697914L153.3625 59.697914L153.3625 65.916664L152.425 65.916664ZM155.31563 65.916664L155.31563 57.322914L156.37813 57.322914L156.37813 65.916664L155.31563 65.916664ZM160.64375 64.979164L160.8 65.90104Q160.34688 65.99479 160.00313 65.99479Q159.425 65.99479 159.1125 65.822914Q158.8 65.635414 158.65938 65.33854Q158.53438 65.041664 158.53438 64.08854L158.53438 60.510414L157.76875 60.510414L157.76875 59.697914L158.53438 59.697914L158.53438 58.15104L159.58125 57.52604L159.58125 59.697914L160.64375 59.697914L160.64375 60.510414L159.58125 60.510414L159.58125 64.15104Q159.58125 64.604164 159.62813 64.729164Q159.69063 64.854164 159.81563 64.93229Q159.94063 65.010414 160.175 65.010414Q160.3625 65.010414 160.64375 64.979164Z" fill-rule="nonzero"/><path fill="#0000ff" d="M30.55 85.916664C30.55 89.23038 27.863708 91.916664 24.55 91.916664C21.236292 91.916664 18.55 89.23038 18.55 85.916664C18.55 82.60296 21.236292 79.916664 24.55 79.916664C27.863708 79.916664 30.55 82.60296 30.55 85.916664Z" fill-rule="nonzero"/><path fill="#1a1a1a" d="M39.096874 87.15104L40.159374 87.05729Q40.2375 87.71354 40.51875 88.11979Q40.8 88.52604 41.378124 88.791664Q41.971874 89.041664 42.70625 89.041664Q43.346874 89.041664 43.846874 88.854164Q44.346874 88.65104 44.58125 88.322914Q44.83125 87.979164 44.83125 87.58854Q44.83125 87.18229 44.596874 86.885414Q44.3625 86.572914 43.83125 86.36979Q43.471874 86.229164 42.284374 85.947914Q41.1125 85.666664 40.64375 85.416664Q40.01875 85.08854 39.721874 84.61979Q39.425 84.135414 39.425 83.541664Q39.425 82.90104 39.784374 82.33854Q40.159374 81.760414 40.8625 81.479164Q41.58125 81.18229 42.440624 81.18229Q43.39375 81.18229 44.128124 81.49479Q44.8625 81.791664 45.253124 82.40104Q45.64375 82.99479 45.675 83.74479L44.58125 83.822914Q44.4875 83.010414 43.971874 82.604164Q43.471874 82.18229 42.4875 82.18229Q41.45625 82.18229 40.9875 82.55729Q40.51875 82.93229 40.51875 83.46354Q40.51875 83.93229 40.846874 84.229164Q41.175 84.52604 42.55 84.83854Q43.940624 85.15104 44.45625 85.385414Q45.20625 85.74479 45.565624 86.27604Q45.925 86.791664 45.925 87.49479Q45.925 88.18229 45.534374 88.791664Q45.14375 89.385414 44.409374 89.729164Q43.675 90.05729 42.753124 90.05729Q41.58125 90.05729 40.784374 89.729164Q40.003124 89.385414 39.55 88.697914Q39.1125 88.010414 39.096874 87.15104ZM49.659374 89.916664L49.659374 82.33854L46.83125 82.33854L46.83125 81.322914L53.64375 81.322914L53.64375 82.33854L50.8 82.33854L50.8 89.916664L49.659374 89.916664ZM54.128124 85.729164Q54.128124 83.58854 55.26875 82.385414Q56.425 81.166664 58.2375 81.166664Q59.440624 81.166664 60.39375 81.74479Q61.346874 82.30729 61.846874 83.322914Q62.346874 84.33854 62.346874 85.635414Q62.346874 86.93229 61.815624 87.96354Q61.284374 88.99479 60.315624 89.52604Q59.3625 90.05729 58.2375 90.05729Q57.01875 90.05729 56.065624 89.479164Q55.1125 88.885414 54.6125 87.885414Q54.128124 86.86979 54.128124 85.729164ZM55.3 85.74479Q55.3 87.30729 56.128124 88.197914Q56.971874 89.08854 58.2375 89.08854Q59.51875 89.08854 60.346874 88.197914Q61.175 87.291664 61.175 85.61979Q61.175 84.572914 60.815624 83.791664Q60.471874 83.010414 59.784374 82.58854Q59.096874 82.15104 58.253124 82.15104Q57.05 82.15104 56.175 82.979164Q55.3 83.80729 55.3 85.74479ZM66.34688 89.916664L66.34688 81.322914L67.39375 81.322914L67.39375 84.40104Q68.12813 83.55729 69.25313 83.55729Q69.95625 83.55729 70.45625 83.83854Q70.97188 84.104164 71.19063 84.58854Q71.40938 85.05729 71.40938 85.979164L71.40938 89.916664L70.3625 89.916664L70.3625 85.979164Q70.3625 85.18229 70.01875 84.822914Q69.675 84.46354 69.05 84.46354Q68.58125 84.46354 68.15938 84.71354Q67.75313 84.947914 67.56563 85.36979Q67.39375 85.77604 67.39375 86.510414L67.39375 89.916664L66.34688 89.916664ZM72.95625 86.80729Q72.95625 85.072914 73.90938 84.24479Q74.70625 83.55729 75.8625 83.55729Q77.14375 83.55729 77.95625 84.40104Q78.78438 85.229164 78.78438 86.71354Q78.78438 87.916664 78.425 88.604164Q78.06563 89.291664 77.3625 89.68229Q76.675 90.05729 75.8625 90.05729Q74.56563 90.05729 73.75313 89.229164Q72.95625 88.385414 72.95625 86.80729ZM74.03438 86.80729Q74.03438 87.99479 74.55 88.58854Q75.08125 89.18229 75.8625 89.18229Q76.65938 89.18229 77.175 88.58854Q77.69063 87.99479 77.69063 86.77604Q77.69063 85.61979 77.15938 85.02604Q76.64375 84.43229 75.8625 84.43229Q75.08125 84.43229 74.55 85.02604Q74.03438 85.604164 74.03438 86.80729ZM80.31563 89.916664L80.31563 81.322914L81.37813 81.322914L81.37813 89.916664L80.31563 89.916664ZM87.37813 89.916664L87.37813 89.135414Q86.78438 90.05729 85.64375 90.05729Q84.89375 90.05729 84.26875 89.65104Q83.64375 89.229164 83.3 88.49479Q82.95625 87.760414 82.95625 86.80729Q82.95625 85.885414 83.26875 85.11979Q83.58125 84.354164 84.20625 83.96354Q84.83125 83.55729 85.59688 83.55729Q86.15938 83.55729 86.59688 83.791664Q87.03438 84.02604 87.31563 84.40104L87.31563 81.322914L88.3625 81.322914L88.3625 89.916664L87.37813 89.916664ZM84.05 86.80729Q84.05 88.010414 84.55 88.604164Q85.05 89.18229 85.7375 89.18229Q86.425 89.18229 86.90938 88.61979Q87.39375 88.05729 87.39375 86.90104Q87.39375 85.61979 86.89375 85.02604Q86.40938 84.43229 85.69063 84.43229Q84.9875 84.43229 84.51875 85.010414Q84.05 85.572914 84.05 86.80729ZM94.31563 89.916664L93.33125 89.916664L93.33125 81.322914L94.39375 81.322914L94.39375 84.385414Q95.06563 83.55729 96.09688 83.55729Q96.675 83.55729 97.175 83.791664Q97.69063 84.010414 98.01875 84.43229Q98.3625 84.854164 98.55 85.447914Q98.7375 86.041664 98.7375 86.71354Q98.7375 88.30729 97.94063 89.18229Q97.14375 90.05729 96.05 90.05729Q94.94063 90.05729 94.31563 89.135414L94.31563 89.916664ZM94.3 86.760414Q94.3 87.86979 94.6125 88.36979Q95.1125 89.18229 95.95625 89.18229Q96.64375 89.18229 97.14375 88.58854Q97.65938 87.99479 97.65938 86.791664Q97.65938 85.572914 97.175 84.99479Q96.69063 84.416664 96.00313 84.416664Q95.31563 84.416664 94.8 85.02604Q94.3 85.61979 94.3 86.760414ZM100.3 92.30729L100.175 91.322914Q100.51875 91.416664 100.78438 91.416664Q101.12813 91.416664 101.33125 91.291664Q101.55 91.18229 101.69063 90.979164Q101.78438 90.80729 102.01875 90.18229Q102.03438 90.104164 102.1125 89.93229L99.7375 83.697914L100.87813 83.697914L102.175 87.291664Q102.425 87.979164 102.62813 88.74479Q102.81563 88.010414 103.06563 87.322914L104.39375 83.697914L105.44063 83.697914L103.08125 90.02604Q102.69063 91.041664 102.4875 91.43229Q102.20625 91.96354 101.83125 92.197914Q101.47188 92.447914 100.97188 92.447914Q100.675 92.447914 100.3 92.30729ZM108.675 89.916664L108.675 81.322914L109.8 81.322914L109.8 89.916664L108.675 89.916664ZM111.47188 89.916664L111.47188 81.322914L112.62813 81.322914L117.14375 88.072914L117.14375 81.322914L118.2375 81.322914L118.2375 89.916664L117.06563 89.916664L112.55 83.166664L112.55 89.916664L111.47188 89.916664ZM122.65938 89.916664L122.65938 82.33854L119.83125 82.33854L119.83125 81.322914L126.64375 81.322914L126.64375 82.33854L123.8 82.33854L123.8 89.916664L122.65938 89.916664ZM132.06563 89.916664L129.70625 83.697914L130.81563 83.697914L132.15938 87.416664Q132.3625 88.02604 132.55 88.666664Q132.69063 88.18229 132.94063 87.49479L134.33125 83.697914L135.40938 83.697914L133.05 89.916664L132.06563 89.916664ZM139.40938 89.15104Q138.81563 89.65104 138.26875 89.854164Q137.7375 90.05729 137.1125 90.05729Q136.08125 90.05729 135.53438 89.55729Q134.9875 89.05729 134.9875 88.27604Q134.9875 87.822914 135.19063 87.447914Q135.39375 87.05729 135.7375 86.83854Q136.08125 86.604164 136.50313 86.49479Q136.8 86.40104 137.44063 86.322914Q138.70625 86.18229 139.31563 85.96354Q139.31563 85.74479 139.31563 85.697914Q139.31563 85.041664 139.01875 84.77604Q138.6125 84.43229 137.81563 84.43229Q137.08125 84.43229 136.72188 84.697914Q136.3625 84.947914 136.19063 85.604164L135.15938 85.46354Q135.3 84.80729 135.62813 84.40104Q135.95625 83.99479 136.56563 83.77604Q137.175 83.55729 137.97188 83.55729Q138.76875 83.55729 139.26875 83.74479Q139.76875 83.93229 140.00313 84.21354Q140.2375 84.49479 140.33125 84.93229Q140.37813 85.197914 140.37813 85.90104L140.37813 87.30729Q140.37813 88.77604 140.44063 89.166664Q140.51875 89.55729 140.72188 89.916664L139.6125 89.916664Q139.45625 89.58854 139.40938 89.15104ZM139.31563 86.791664Q138.7375 87.02604 137.59688 87.197914Q136.94063 87.291664 136.675 87.416664Q136.40938 87.52604 136.25313 87.74479Q136.1125 87.96354 136.1125 88.24479Q136.1125 88.666664 136.425 88.947914Q136.75313 89.229164 137.3625 89.229164Q137.97188 89.229164 138.44063 88.96354Q138.925 88.697914 139.14375 88.229164Q139.31563 87.86979 139.31563 87.18229L139.31563 86.791664ZM146.425 89.916664L146.425 88.99479Q145.69063 90.05729 144.44063 90.05729Q143.89375 90.05729 143.40938 89.854164Q142.94063 89.635414 142.70625 89.322914Q142.47188 88.99479 142.37813 88.52604Q142.31563 88.229164 142.31563 87.541664L142.31563 83.697914L143.37813 83.697914L143.37813 87.15104Q143.37813 87.96354 143.44063 88.260414Q143.53438 88.666664 143.84688 88.916664Q144.175 89.15104 144.65938 89.15104Q145.12813 89.15104 145.53438 88.916664Q145.95625 88.666664 146.12813 88.24479Q146.31563 87.822914 146.31563 87.02604L146.31563 83.697914L147.3625 83.697914L147.3625 89.916664L146.425 89.916664ZM149.31563 89.916664L149.31563 81.322914L150.37813 81.322914L150.37813 89.916664L149.31563 89.916664ZM154.64375 88.979164L154.8 89.90104Q154.34688 89.99479 154.00313 89.99479Q153.425 89.99479 153.1125 89.822914Q152.8 89.635414 152.65938 89.33854Q152.53438 89.041664 152.53438 88.08854L152.53438 84.510414L151.76875 84.510414L151.76875 83.697914L152.53438 83.697914L152.53438 82.15104L153.58125 81.52604L153.58125 83.697914L154.64375 83.697914L154.64375 84.510414L153.58125 84.510414L153.58125 88.15104Q153.58125 88.604164 153.62813 88.729164Q153.69063 88.854164 153.81563 88.93229Q153.94063 89.010414 154.175 89.010414Q154.3625 89.010414 154.64375 88.979164Z" fill-rule="nonzero"/><path fill="#757575" d="M19.45625 32.95625L21.2375 32.8Q21.3625 33.8625 21.815624 34.55Q22.284374 35.2375 23.253124 35.675Q24.2375 36.096874 25.471874 36.096874Q26.55 36.096874 27.378124 35.784374Q28.20625 35.45625 28.6125 34.89375Q29.01875 34.33125 29.01875 33.659374Q29.01875 32.9875 28.628124 32.4875Q28.2375 31.9875 27.346874 31.64375Q26.76875 31.409374 24.784374 30.940624Q22.815624 30.471874 22.034374 30.05Q21.003124 29.51875 20.503124 28.721874Q20.003124 27.925 20.003124 26.940624Q20.003124 25.846874 20.6125 24.909374Q21.221874 23.971874 22.409374 23.4875Q23.596874 22.9875 25.034374 22.9875Q26.628124 22.9875 27.846874 23.503124Q29.065624 24.01875 29.70625 25.01875Q30.3625 26.003124 30.409374 27.26875L28.596874 27.409374Q28.45625 26.05 27.6125 25.3625Q26.76875 24.659374 25.1125 24.659374Q23.39375 24.659374 22.596874 25.3Q21.815624 25.925 21.815624 26.8Q21.815624 27.58125 22.378124 28.08125Q22.925 28.58125 25.2375 29.096874Q27.55 29.6125 28.409374 30.003124Q29.659374 30.58125 30.253124 31.471874Q30.846874 32.346874 30.846874 33.503124Q30.846874 34.64375 30.190624 35.659374Q29.534374 36.675 28.3 37.2375Q27.08125 37.8 25.55 37.8Q23.6125 37.8 22.3 37.2375Q20.9875 36.659374 20.2375 35.51875Q19.4875 34.378124 19.45625 32.95625ZM36.7375 37.55L36.7375 24.925L32.01875 24.925L32.01875 23.2375L43.3625 23.2375L43.3625 24.925L38.628124 24.925L38.628124 37.55L36.7375 37.55ZM44.51875 30.58125Q44.51875 27.01875 46.425 25.003124Q48.346874 22.971874 51.378124 22.971874Q53.3625 22.971874 54.940624 23.925Q56.534374 24.878124 57.3625 26.58125Q58.20625 28.26875 58.20625 30.409374Q58.20625 32.58125 57.33125 34.3Q56.45625 36.01875 54.83125 36.909374Q53.221874 37.8 51.3625 37.8Q49.346874 37.8 47.753124 36.83125Q46.159374 35.846874 45.33125 34.159374Q44.51875 32.45625 44.51875 30.58125ZM46.471874 30.6125Q46.471874 33.190624 47.8625 34.690624Q49.253124 36.175 51.346874 36.175Q53.4875 36.175 54.8625 34.675Q56.253124 33.159374 56.253124 30.39375Q56.253124 28.659374 55.659374 27.3625Q55.08125 26.05 53.940624 25.33125Q52.8 24.6125 51.378124 24.6125Q49.378124 24.6125 47.925 26.003124Q46.471874 27.378124 46.471874 30.6125ZM66.8625 37.55L66.8625 23.2375L68.62813 23.2375L68.62813 28.3625Q69.8625 26.940624 71.7375 26.940624Q72.87813 26.940624 73.72188 27.39375Q74.58125 27.846874 74.94063 28.659374Q75.31563 29.45625 75.31563 30.971874L75.31563 37.55L73.56563 37.55L73.56563 30.971874Q73.56563 29.659374 72.9875 29.065624Q72.40938 28.45625 71.37813 28.45625Q70.59688 28.45625 69.89375 28.8625Q69.20625 29.26875 68.90938 29.971874Q68.62813 30.659374 68.62813 31.878124L68.62813 37.55L66.8625 37.55ZM76.22188 32.3625Q76.22188 29.4875 77.81563 28.096874Q79.15938 26.940624 81.08125 26.940624Q83.22188 26.940624 84.56563 28.346874Q85.925 29.753124 85.925 32.221874Q85.925 34.221874 85.33125 35.378124Q84.7375 36.51875 83.58125 37.159374Q82.44063 37.784374 81.08125 37.784374Q78.89375 37.784374 77.55 36.39375Q76.22188 34.9875 76.22188 32.3625ZM78.01875 32.3625Q78.01875 34.3625 78.87813 35.346874Q79.75313 36.33125 81.08125 36.33125Q82.39375 36.33125 83.25313 35.346874Q84.12813 34.346874 84.12813 32.3Q84.12813 30.378124 83.25313 29.39375Q82.37813 28.39375 81.08125 28.39375Q79.75313 28.39375 78.87813 29.39375Q78.01875 30.378124 78.01875 32.3625ZM87.83125 37.55L87.83125 23.2375L89.58125 23.2375L89.58125 37.55L87.83125 37.55ZM98.59688 37.55L98.59688 36.2375Q97.6125 37.784374 95.69063 37.784374Q94.45625 37.784374 93.40938 37.096874Q92.37813 36.409374 91.8 35.190624Q91.2375 33.971874 91.2375 32.378124Q91.2375 30.815624 91.75313 29.55Q92.26875 28.284374 93.3 27.6125Q94.34688 26.940624 95.6125 26.940624Q96.55 26.940624 97.28438 27.346874Q98.01875 27.7375 98.4875 28.3625L98.4875 23.2375L100.22188 23.2375L100.22188 37.55L98.59688 37.55ZM93.03438 32.378124Q93.03438 34.3625 93.87813 35.346874Q94.72188 36.33125 95.8625 36.33125Q97.01875 36.33125 97.81563 35.39375Q98.62813 34.45625 98.62813 32.51875Q98.62813 30.39375 97.8 29.39375Q96.9875 28.39375 95.78438 28.39375Q94.6125 28.39375 93.81563 29.3625Q93.03438 30.315624 93.03438 32.378124ZM110.4875 37.55L108.8625 37.55L108.8625 23.2375L110.6125 23.2375L110.6125 28.346874Q111.7375 26.940624 113.45625 26.940624Q114.40938 26.940624 115.26875 27.33125Q116.12813 27.721874 116.675 28.425Q117.22188 29.1125 117.53438 30.096874Q117.84688 31.08125 117.84688 32.20625Q117.84688 34.878124 116.53438 36.33125Q115.22188 37.784374 113.37813 37.784374Q111.53438 37.784374 110.4875 36.253124L110.4875 37.55ZM110.47188 32.284374Q110.47188 34.14375 110.97188 34.9875Q111.81563 36.33125 113.22188 36.33125Q114.37813 36.33125 115.20625 35.33125Q116.05 34.33125 116.05 32.346874Q116.05 30.315624 115.2375 29.3625Q114.44063 28.39375 113.3 28.39375Q112.14375 28.39375 111.3 29.39375Q110.47188 30.39375 110.47188 32.284374ZM119.78438 41.55L119.59688 39.89375Q120.175 40.05 120.59688 40.05Q121.19063 40.05 121.53438 39.846874Q121.89375 39.659374 122.1125 39.315624Q122.28438 39.05 122.65938 38.003124Q122.70625 37.846874 122.81563 37.565624L118.87813 27.175L120.76875 27.175L122.925 33.190624Q123.34688 34.33125 123.675 35.58125Q123.9875 34.378124 124.39375 33.221874L126.6125 27.175L128.37813 27.175L124.425 37.721874Q123.8 39.440624 123.44063 40.08125Q122.97188 40.95625 122.3625 41.346874Q121.76875 41.753124 120.925 41.753124Q120.40938 41.753124 119.78438 41.55ZM140.19063 37.55L134.64375 23.2375L136.69063 23.2375L140.40938 33.628124Q140.8625 34.878124 141.15938 35.971874Q141.4875 34.8 141.94063 33.628124L145.8 23.2375L147.7375 23.2375L142.12813 37.55L140.19063 37.55ZM155.64375 36.26875Q154.65938 37.096874 153.75313 37.440624Q152.84688 37.784374 151.81563 37.784374Q150.1125 37.784374 149.19063 36.95625Q148.26875 36.1125 148.26875 34.815624Q148.26875 34.05 148.6125 33.425Q148.97188 32.8 149.53438 32.425Q150.09688 32.034374 150.8 31.83125Q151.31563 31.70625 152.3625 31.565624Q154.4875 31.315624 155.4875 30.971874Q155.50313 30.6125 155.50313 30.503124Q155.50313 29.440624 155.00313 28.9875Q154.33125 28.39375 153.00313 28.39375Q151.75313 28.39375 151.15938 28.83125Q150.58125 29.26875 150.3 30.378124L148.58125 30.14375Q148.81563 29.034374 149.34688 28.3625Q149.87813 27.675 150.89375 27.315624Q151.90938 26.940624 153.25313 26.940624Q154.58125 26.940624 155.40938 27.253124Q156.2375 27.565624 156.62813 28.05Q157.01875 28.51875 157.175 29.2375Q157.26875 29.690624 157.26875 30.8625L157.26875 33.20625Q157.26875 35.659374 157.37813 36.315624Q157.4875 36.95625 157.83125 37.55L155.9875 37.55Q155.72188 37.003124 155.64375 36.26875ZM155.4875 32.346874Q154.53438 32.7375 152.6125 33.003124Q151.53438 33.159374 151.08125 33.3625Q150.64375 33.55 150.39375 33.925Q150.14375 34.3 150.14375 34.76875Q150.14375 35.471874 150.675 35.940624Q151.20625 36.409374 152.2375 36.409374Q153.25313 36.409374 154.03438 35.971874Q154.83125 35.51875 155.20625 34.753124Q155.4875 34.14375 155.4875 32.9875L155.4875 32.346874ZM166.65938 37.55L166.65938 36.01875Q165.45625 37.784374 163.37813 37.784374Q162.45625 37.784374 161.65938 37.440624Q160.8625 37.08125 160.47188 36.55Q160.09688 36.01875 159.94063 35.2375Q159.83125 34.721874 159.83125 33.596874L159.83125 27.175L161.58125 27.175L161.58125 32.925Q161.58125 34.3 161.69063 34.784374Q161.8625 35.471874 162.39375 35.878124Q162.94063 36.26875 163.72188 36.26875Q164.51875 36.26875 165.20625 35.8625Q165.90938 35.45625 166.19063 34.76875Q166.4875 34.065624 166.4875 32.7375L166.4875 27.175L168.2375 27.175L168.2375 37.55L166.65938 37.55ZM169.83125 37.55L169.83125 23.2375L171.58125 23.2375L171.58125 37.55L169.83125 37.55ZM177.70625 35.971874L177.95625 37.534374Q177.22188 37.690624 176.62813 37.690624Q175.675 37.690624 175.14375 37.39375Q174.62813 37.08125 174.40938 36.596874Q174.19063 36.096874 174.19063 34.51875L174.19063 28.55L172.90938 28.55L172.90938 27.175L174.19063 27.175L174.19063 24.6125L175.94063 23.55L175.94063 27.175L177.70625 27.175L177.70625 28.55L175.94063 28.55L175.94063 34.6125Q175.94063 35.3625 176.03438 35.58125Q176.12813 35.784374 176.33125 35.925Q176.55 36.05 176.94063 36.05Q177.22188 36.05 177.70625 35.971874ZM179.15938 34.45625L180.90938 34.175Q181.05 35.221874 181.72188 35.784374Q182.39375 36.33125 183.59688 36.33125Q184.8 36.33125 185.37813 35.846874Q185.97188 35.346874 185.97188 34.690624Q185.97188 34.096874 185.45625 33.753124Q185.09688 33.51875 183.65938 33.159374Q181.72188 32.659374 180.97188 32.315624Q180.2375 31.95625 179.84688 31.33125Q179.45625 30.690624 179.45625 29.925Q179.45625 29.2375 179.76875 28.64375Q180.09688 28.05 180.64375 27.659374Q181.05 27.3625 181.75313 27.159374Q182.47188 26.940624 183.28438 26.940624Q184.50313 26.940624 185.425 27.3Q186.34688 27.64375 186.78438 28.253124Q187.22188 28.846874 187.39375 29.846874L185.675 30.08125Q185.55 29.284374 184.9875 28.846874Q184.425 28.39375 183.40938 28.39375Q182.19063 28.39375 181.675 28.8Q181.15938 29.190624 181.15938 29.721874Q181.15938 30.065624 181.37813 30.346874Q181.58125 30.628124 182.05 30.815624Q182.31563 30.909374 183.59688 31.253124Q185.47188 31.753124 186.20625 32.08125Q186.94063 32.39375 187.3625 33.003124Q187.78438 33.596874 187.78438 34.503124Q187.78438 35.378124 187.26875 36.159374Q186.75313 36.940624 185.78438 37.3625Q184.81563 37.784374 183.59688 37.784374Q181.58125 37.784374 180.51875 36.940624Q179.45625 36.096874 179.15938 34.45625Z" fill-rule="nonzero"/></svg>