<svg version="1.1" viewBox="0.0 0.0 600.0 371.0" fill="none" stroke="none" stroke-linecap="square" stroke-miterlimit="10" width="600" height="371" xmlns:xlink="http://www.w3.org/1999/xlink" xmlns="http://www.w3.org/2000/svg"><path fill="#ffffff" d="M0 0L600.0 0L600.0 371.0L0 371.0L0 0Z" fill-rule="nonzero"/><path fill="#fbbc04" d="M388.4177 54.916668C388.41772 54.916668 388.41776 54.916668 388.4178 54.916668L388.4178 129.3C388.41776 129.3 388.41776 129.3 388.41772 129.3Z" fill-rule="nonzero"/><path fill="#0000ff" d="M246.93225 157.71198C266.84824 96.41673 323.96808 54.916706 388.4177 54.916668L388.41772 129.3C356.19293 129.30002 327.63303 150.05003 317.67502 180.69766Z" fill-rule="nonzero"/><path fill="#9900ff" d="M388.4178 54.916668C452.8674 54.916668 509.98724 96.41666 529.90326 157.71188C549.81934 219.00711 528.00146 286.15552 475.86066 324.0381C423.71982 361.92062 353.1158 361.92065 300.97498 324.03812C248.83412 286.1556 227.01625 219.00722 246.93225 157.71198L317.67502 180.69766C307.717 211.34528 318.62595 244.91948 344.69638 263.86072C370.7668 282.802 406.06882 282.80197 432.13922 263.86072C458.20963 244.91943 469.11856 211.34523 459.16052 180.69762C449.2025 150.05 420.64258 129.3 388.4178 129.3Z" fill-rule="nonzero"/><path fill="#000000" d="M443.27982 294.62833Q442.5142 294.34708 442.1392 293.83145Q441.77982 293.31583 441.77982 292.58145Q441.77982 291.4877 442.56107 290.75333Q443.35794 290.00333 444.65482 290.00333Q445.96732 290.00333 446.7642 290.76895Q447.5767 291.53458 447.5767 292.62833Q447.5767 293.31583 447.2017 293.83145Q446.84232 294.34708 446.09232 294.62833Q447.0142 294.9252 447.49857 295.59708Q447.98294 296.26895 447.98294 297.20645Q447.98294 298.4877 447.0767 299.3627Q446.17044 300.2377 444.68607 300.2377Q443.2017 300.2377 442.27982 299.3627Q441.37357 298.47208 441.37357 297.15958Q441.37357 296.19083 441.87357 295.53458Q442.37357 294.8627 443.27982 294.62833ZM443.04544 292.5502Q443.04544 293.25333 443.49857 293.70645Q443.9517 294.15958 444.68607 294.15958Q445.40482 294.15958 445.85794 293.72208Q446.31107 293.26895 446.31107 292.6127Q446.31107 291.94083 445.84232 291.4877Q445.37357 291.01895 444.67044 291.01895Q443.96732 291.01895 443.49857 291.47208Q443.04544 291.90958 443.04544 292.5502ZM442.6392 297.1752Q442.6392 297.70645 442.8892 298.20645Q443.1392 298.69083 443.62357 298.95645Q444.12357 299.22208 444.7017 299.22208Q445.5767 299.22208 446.1392 298.65958Q446.71732 298.09708 446.71732 297.22208Q446.71732 296.33145 446.12357 295.75333Q445.54544 295.15958 444.65482 295.15958Q443.77982 295.15958 443.2017 295.7377Q442.6392 296.31583 442.6392 297.1752ZM449.3892 295.12833Q449.3892 293.34708 449.74857 292.26895Q450.12357 291.1752 450.84232 290.59708Q451.56107 290.00333 452.65482 290.00333Q453.46732 290.00333 454.0767 290.33145Q454.68607 290.65958 455.0767 291.26895Q455.48294 291.87833 455.7017 292.75333Q455.92044 293.62833 455.92044 295.12833Q455.92044 296.89395 455.56107 297.97208Q455.2017 299.0502 454.48294 299.64395Q453.7642 300.2377 452.65482 300.2377Q451.21732 300.2377 450.3892 299.19083Q449.3892 297.94083 449.3892 295.12833ZM450.65482 295.12833Q450.65482 297.59708 451.23294 298.40958Q451.81107 299.22208 452.65482 299.22208Q453.5142 299.22208 454.09232 298.40958Q454.67044 297.58145 454.67044 295.12833Q454.67044 292.64395 454.09232 291.83145Q453.5142 291.01895 452.6392 291.01895Q451.79544 291.01895 451.29544 291.7377Q450.65482 292.65958 450.65482 295.12833ZM457.62357 292.45645Q457.62357 291.37833 458.15482 290.62833Q458.7017 289.87833 459.73294 289.87833Q460.67044 289.87833 461.27982 290.5502Q461.90482 291.22208 461.90482 292.51895Q461.90482 293.8002 461.27982 294.4877Q460.65482 295.1752 459.74857 295.1752Q458.84232 295.1752 458.23294 294.50333Q457.62357 293.81583 457.62357 292.45645ZM459.7642 290.72208Q459.31107 290.72208 458.99857 291.12833Q458.7017 291.51895 458.7017 292.56583Q458.7017 293.53458 458.99857 293.9252Q459.31107 294.31583 459.7642 294.31583Q460.23294 294.31583 460.52982 293.9252Q460.84232 293.53458 460.84232 292.47208Q460.84232 291.50333 460.52982 291.1127Q460.21732 290.72208 459.7642 290.72208ZM459.7642 300.44083L465.24857 289.87833L466.24857 289.87833L460.79544 300.44083L459.7642 300.44083ZM464.10794 297.70645Q464.10794 296.62833 464.6392 295.89395Q465.18607 295.14395 466.21732 295.14395Q467.15482 295.14395 467.77982 295.81583Q468.40482 296.4877 468.40482 297.78458Q468.40482 299.06583 467.77982 299.75333Q467.15482 300.44083 466.21732 300.44083Q465.31107 300.44083 464.7017 299.76895Q464.10794 299.08145 464.10794 297.70645ZM466.24857 295.9877Q465.77982 295.9877 465.48294 296.39395Q465.18607 296.78458 465.18607 297.83145Q465.18607 298.8002 465.48294 299.19083Q465.79544 299.58145 466.24857 299.58145Q466.71732 299.58145 467.0142 299.19083Q467.3267 298.8002 467.3267 297.7377Q467.3267 296.76895 467.0142 296.37833Q466.71732 295.9877 466.24857 295.9877Z" fill-rule="nonzero"/><path fill="#000000" d="M315.07132 116.113365L315.07132 117.300865L308.44632 117.300865Q308.4307 116.863365 308.58694 116.44149Q308.85257 115.769615 309.39944 115.113365Q309.96194 114.457115 311.00882 113.59774Q312.64944 112.25399 313.21194 111.47274Q313.79007 110.69149 313.79007 109.988365Q313.79007 109.25399 313.25882 108.75399Q312.7432 108.25399 311.91507 108.25399Q311.02444 108.25399 310.47757 108.78524Q309.94632 109.31649 309.94632 110.269615L308.6807 110.12899Q308.8057 108.72274 309.64944 107.988365Q310.50882 107.238365 311.9307 107.238365Q313.38382 107.238365 314.21194 108.03524Q315.0557 108.832115 315.0557 110.019615Q315.0557 110.62899 314.8057 111.207115Q314.57132 111.78524 313.9932 112.425865Q313.4307 113.06649 312.10257 114.19149Q310.9932 115.113365 310.6807 115.457115Q310.3682 115.78524 310.16507 116.113365L315.07132 116.113365ZM316.60257 112.363365Q316.60257 110.582115 316.96194 109.50399Q317.33694 108.41024 318.0557 107.832115Q318.77444 107.238365 319.8682 107.238365Q320.6807 107.238365 321.29007 107.56649Q321.89944 107.894615 322.29007 108.50399Q322.69632 109.113365 322.91507 109.988365Q323.13382 110.863365 323.13382 112.363365Q323.13382 114.12899 322.77444 115.207115Q322.41507 116.28524 321.69632 116.87899Q320.97757 117.47274 319.8682 117.47274Q318.4307 117.47274 317.60257 116.425865Q316.60257 115.175865 316.60257 112.363365ZM317.8682 112.363365Q317.8682 114.832115 318.44632 115.644615Q319.02444 116.457115 319.8682 116.457115Q320.72757 116.457115 321.3057 115.644615Q321.88382 114.81649 321.88382 112.363365Q321.88382 109.87899 321.3057 109.06649Q320.72757 108.25399 319.85257 108.25399Q319.00882 108.25399 318.50882 108.97274Q317.8682 109.894615 317.8682 112.363365ZM324.83694 109.69149Q324.83694 108.613365 325.3682 107.863365Q325.91507 107.113365 326.94632 107.113365Q327.88382 107.113365 328.4932 107.78524Q329.1182 108.457115 329.1182 109.75399Q329.1182 111.03524 328.4932 111.72274Q327.8682 112.41024 326.96194 112.41024Q326.0557 112.41024 325.44632 111.738365Q324.83694 111.050865 324.83694 109.69149ZM326.97757 107.957115Q326.52444 107.957115 326.21194 108.363365Q325.91507 108.75399 325.91507 109.800865Q325.91507 110.769615 326.21194 111.16024Q326.52444 111.550865 326.97757 111.550865Q327.44632 111.550865 327.7432 111.16024Q328.0557 110.769615 328.0557 109.707115Q328.0557 108.738365 327.7432 108.34774Q327.4307 107.957115 326.97757 107.957115ZM326.97757 117.675865L332.46194 107.113365L333.46194 107.113365L328.00882 117.675865L326.97757 117.675865ZM331.32132 114.94149Q331.32132 113.863365 331.85257 113.12899Q332.39944 112.37899 333.4307 112.37899Q334.3682 112.37899 334.9932 113.050865Q335.6182 113.72274 335.6182 115.019615Q335.6182 116.300865 334.9932 116.988365Q334.3682 117.675865 333.4307 117.675865Q332.52444 117.675865 331.91507 117.00399Q331.32132 116.31649 331.32132 114.94149ZM333.46194 113.22274Q332.9932 113.22274 332.69632 113.62899Q332.39944 114.019615 332.39944 115.06649Q332.39944 116.03524 332.69632 116.425865Q333.00882 116.81649 333.46194 116.81649Q333.9307 116.81649 334.22757 116.425865Q334.54007 116.03524 334.54007 114.97274Q334.54007 114.00399 334.22757 113.613365Q333.9307 113.22274 333.46194 113.22274Z" fill-rule="nonzero"/><path fill="#9900ff" d="M30.55 61.916668C30.55 65.23038 27.863708 67.916664 24.55 67.916664C21.236292 67.916664 18.55 65.23038 18.55 61.916668C18.55 58.60296 21.236292 55.916668 24.55 55.916668C27.863708 55.916668 30.55 58.60296 30.55 61.916668Z" fill-rule="nonzero"/><path fill="#1a1a1a" d="M39.096874 63.15104L40.159374 63.05729Q40.2375 63.71354 40.51875 64.11979Q40.8 64.52604 41.378124 64.791664Q41.971874 65.041664 42.70625 65.041664Q43.346874 65.041664 43.846874 64.854164Q44.346874 64.65104 44.58125 64.322914Q44.83125 63.979164 44.83125 63.58854Q44.83125 63.18229 44.596874 62.885414Q44.3625 62.572914 43.83125 62.36979Q43.471874 62.229164 42.284374 61.947914Q41.1125 61.666664 40.64375 61.416664Q40.01875 61.08854 39.721874 60.61979Q39.425 60.135414 39.425 59.541664Q39.425 58.90104 39.784374 58.33854Q40.159374 57.760414 40.8625 57.479164Q41.58125 57.18229 42.440624 57.18229Q43.39375 57.18229 44.128124 57.49479Q44.8625 57.791664 45.253124 58.40104Q45.64375 58.99479 45.675 59.74479L44.58125 59.822914Q44.4875 59.010414 43.971874 58.604164Q43.471874 58.18229 42.4875 58.18229Q41.45625 58.18229 40.9875 58.55729Q40.51875 58.93229 40.51875 59.46354Q40.51875 59.93229 40.846874 60.229164Q41.175 60.52604 42.55 60.83854Q43.940624 61.15104 44.45625 61.385414Q45.20625 61.74479 45.565624 62.27604Q45.925 62.791664 45.925 63.49479Q45.925 64.18229 45.534374 64.791664Q45.14375 65.385414 44.409374 65.729164Q43.675 66.05729 42.753124 66.05729Q41.58125 66.05729 40.784374 65.729164Q40.003124 65.385414 39.55 64.697914Q39.1125 64.010414 39.096874 63.15104ZM49.659374 65.916664L49.659374 58.33854L46.83125 58.33854L46.83125 57.322914L53.64375 57.322914L53.64375 58.33854L50.8 58.33854L50.8 65.916664L49.659374 65.916664ZM54.128124 61.729164Q54.128124 59.58854 55.26875 58.385414Q56.425 57.166664 58.2375 57.166664Q59.440624 57.166664 60.39375 57.74479Q61.346874 58.30729 61.846874 59.322914Q62.346874 60.33854 62.346874 61.635414Q62.346874 62.93229 61.815624 63.96354Q61.284374 64.99479 60.315624 65.52604Q59.3625 66.05729 58.2375 66.05729Q57.01875 66.05729 56.065624 65.479164Q55.1125 64.885414 54.6125 63.885414Q54.128124 62.86979 54.128124 61.729164ZM55.3 61.74479Q55.3 63.30729 56.128124 64.197914Q56.971874 65.08854 58.2375 65.08854Q59.51875 65.08854 60.346874 64.197914Q61.175 63.291664 61.175 61.61979Q61.175 60.572914 60.815624 59.791664Q60.471874 59.010414 59.784374 58.58854Q59.096874 58.15104 58.253124 58.15104Q57.05 58.15104 56.175 58.979164Q55.3 59.80729 55.3 61.74479ZM66.34688 65.916664L66.34688 57.322914L67.39375 57.322914L67.39375 60.40104Q68.12813 59.55729 69.25313 59.55729Q69.95625 59.55729 70.45625 59.83854Q70.97188 60.104164 71.19063 60.58854Q71.40938 61.05729 71.40938 61.979164L71.40938 65.916664L70.3625 65.916664L70.3625 61.979164Q70.3625 61.18229 70.01875 60.822914Q69.675 60.46354 69.05 60.46354Q68.58125 60.46354 68.15938 60.71354Q67.75313 60.947914 67.56563 61.36979Q67.39375 61.77604 67.39375 62.510414L67.39375 65.916664L66.34688 65.916664ZM72.95625 62.80729Q72.95625 61.072914 73.90938 60.24479Q74.70625 59.55729 75.8625 59.55729Q77.14375 59.55729 77.95625 60.40104Q78.78438 61.229164 78.78438 62.71354Q78.78438 63.916664 78.425 64.604164Q78.06563 65.291664 77.3625 65.68229Q76.675 66.05729 75.8625 66.05729Q74.56563 66.05729 73.75313 65.229164Q72.95625 64.385414 72.95625 62.80729ZM74.03438 62.80729Q74.03438 63.99479 74.55 64.58854Q75.08125 65.18229 75.8625 65.18229Q76.65938 65.18229 77.175 64.58854Q77.69063 63.99479 77.69063 62.77604Q77.69063 61.61979 77.15938 61.02604Q76.64375 60.43229 75.8625 60.43229Q75.08125 60.43229 74.55 61.02604Q74.03438 61.604164 74.03438 62.80729ZM80.31563 65.916664L80.31563 57.322914L81.37813 57.322914L81.37813 65.916664L80.31563 65.916664ZM87.37813 65.916664L87.37813 65.135414Q86.78438 66.05729 85.64375 66.05729Q84.89375 66.05729 84.26875 65.65104Q83.64375 65.229164 83.3 64.49479Q82.95625 63.760414 82.95625 62.80729Q82.95625 61.885414 83.26875 61.11979Q83.58125 60.354164 84.20625 59.96354Q84.83125 59.55729 85.59688 59.55729Q86.15938 59.55729 86.59688 59.791664Q87.03438 60.02604 87.31563 60.40104L87.31563 57.322914L88.3625 57.322914L88.3625 65.916664L87.37813 65.916664ZM84.05 62.80729Q84.05 64.010414 84.55 64.604164Q85.05 65.18229 85.7375 65.18229Q86.425 65.18229 86.90938 64.61979Q87.39375 64.05729 87.39375 62.90104Q87.39375 61.61979 86.89375 61.02604Q86.40938 60.43229 85.69063 60.43229Q84.9875 60.43229 84.51875 61.010414Q84.05 61.572914 84.05 62.80729ZM94.31563 65.916664L93.33125 65.916664L93.33125 57.322914L94.39375 57.322914L94.39375 60.385414Q95.06563 59.55729 96.09688 59.55729Q96.675 59.55729 97.175 59.791664Q97.69063 60.010414 98.01875 60.43229Q98.3625 60.854164 98.55 61.447914Q98.7375 62.041664 98.7375 62.71354Q98.7375 64.30729 97.94063 65.18229Q97.14375 66.05729 96.05 66.05729Q94.94063 66.05729 94.31563 65.135414L94.31563 65.916664ZM94.3 62.760414Q94.3 63.86979 94.6125 64.36979Q95.1125 65.18229 95.95625 65.18229Q96.64375 65.18229 97.14375 64.58854Q97.65938 63.99479 97.65938 62.791664Q97.65938 61.572914 97.175 60.99479Q96.69063 60.416664 96.00313 60.416664Q95.31563 60.416664 94.8 61.02604Q94.3 61.61979 94.3 62.760414ZM100.3 68.30729L100.175 67.322914Q100.51875 67.416664 100.78438 67.416664Q101.12813 67.416664 101.33125 67.291664Q101.55 67.18229 101.69063 66.979164Q101.78438 66.80729 102.01875 66.18229Q102.03438 66.104164 102.1125 65.93229L99.7375 59.697914L100.87813 59.697914L102.175 63.291664Q102.425 63.979164 102.62813 64.74479Q102.81563 64.010414 103.06563 63.322914L104.39375 59.697914L105.44063 59.697914L103.08125 66.02604Q102.69063 67.041664 102.4875 67.43229Q102.20625 67.96354 101.83125 68.197914Q101.47188 68.447914 100.97188 68.447914Q100.675 68.447914 100.3 68.30729ZM109.4875 65.916664L107.58125 59.697914L108.675 59.697914L109.65938 63.291664L110.03438 64.61979Q110.06563 64.52604 110.3625 63.33854L111.34688 59.697914L112.425 59.697914L113.3625 63.30729L113.675 64.49479L114.03438 63.291664L115.09688 59.697914L116.12813 59.697914L114.175 65.916664L113.08125 65.916664L112.09688 62.18229L111.84688 61.135414L110.59688 65.916664L109.4875 65.916664ZM117.53438 65.916664L117.53438 57.322914L123.33125 57.322914L123.33125 58.33854L118.675 58.33854L118.675 60.99479L122.70625 60.99479L122.70625 62.010414L118.675 62.010414L118.675 65.916664L117.53438 65.916664ZM123.95625 62.80729Q123.95625 61.072914 124.90938 60.24479Q125.70625 59.55729 126.8625 59.55729Q128.14375 59.55729 128.95625 60.40104Q129.78438 61.229164 129.78438 62.71354Q129.78438 63.916664 129.425 64.604164Q129.06563 65.291664 128.3625 65.68229Q127.675 66.05729 126.8625 66.05729Q125.56563 66.05729 124.75313 65.229164Q123.95625 64.385414 123.95625 62.80729ZM125.03438 62.80729Q125.03438 63.99479 125.55 64.58854Q126.08125 65.18229 126.8625 65.18229Q127.65938 65.18229 128.175 64.58854Q128.69063 63.99479 128.69063 62.77604Q128.69063 61.61979 128.15938 61.02604Q127.64375 60.43229 126.8625 60.43229Q126.08125 60.43229 125.55 61.02604Q125.03438 61.604164 125.03438 62.80729ZM131.33125 65.916664L131.33125 59.697914L132.28438 59.697914L132.28438 60.635414Q132.64375 59.979164 132.94063 59.77604Q133.25313 59.55729 133.62813 59.55729Q134.15938 59.55729 134.70625 59.885414L134.34688 60.86979Q133.95625 60.635414 133.58125 60.635414Q133.22188 60.635414 132.94063 60.854164Q132.675 61.05729 132.56563 61.43229Q132.37813 61.99479 132.37813 62.65104L132.37813 65.916664L131.33125 65.916664ZM139.40938 63.635414L140.44063 63.77604Q140.26875 64.83854 139.56563 65.447914Q138.8625 66.05729 137.84688 66.05729Q136.56563 66.05729 135.78438 65.229164Q135.01875 64.385414 135.01875 62.822914Q135.01875 61.822914 135.34688 61.072914Q135.69063 60.30729 136.3625 59.93229Q137.05 59.55729 137.8625 59.55729Q138.8625 59.55729 139.50313 60.072914Q140.15938 60.572914 140.34688 61.52604L139.31563 61.68229Q139.175 61.05729 138.8 60.74479Q138.425 60.416664 137.89375 60.416664Q137.09688 60.416664 136.59688 60.99479Q136.09688 61.55729 136.09688 62.791664Q136.09688 64.05729 136.58125 64.61979Q137.06563 65.18229 137.83125 65.18229Q138.45625 65.18229 138.8625 64.80729Q139.28438 64.43229 139.40938 63.635414ZM145.59688 63.916664L146.69063 64.041664Q146.44063 64.99479 145.7375 65.52604Q145.03438 66.05729 143.95625 66.05729Q142.59688 66.05729 141.78438 65.21354Q140.9875 64.36979 140.9875 62.854164Q140.9875 61.291664 141.8 60.43229Q142.6125 59.55729 143.89375 59.55729Q145.14375 59.55729 145.925 60.40104Q146.72188 61.24479 146.72188 62.791664Q146.72188 62.885414 146.72188 63.072914L142.08125 63.072914Q142.14375 64.104164 142.65938 64.65104Q143.175 65.18229 143.95625 65.18229Q144.53438 65.18229 144.94063 64.885414Q145.3625 64.572914 145.59688 63.916664ZM142.14375 62.21354L145.6125 62.21354Q145.55 61.416664 145.22188 61.02604Q144.70625 60.416664 143.90938 60.416664Q143.175 60.416664 142.675 60.90104Q142.19063 61.385414 142.14375 62.21354ZM153.06563 65.916664L150.70625 59.697914L151.81563 59.697914L153.15938 63.416664Q153.3625 64.02604 153.55 64.666664Q153.69063 64.18229 153.94063 63.49479L155.33125 59.697914L156.40938 59.697914L154.05 65.916664L153.06563 65.916664ZM160.40938 65.15104Q159.81563 65.65104 159.26875 65.854164Q158.7375 66.05729 158.1125 66.05729Q157.08125 66.05729 156.53438 65.55729Q155.9875 65.05729 155.9875 64.27604Q155.9875 63.822914 156.19063 63.447914Q156.39375 63.05729 156.7375 62.83854Q157.08125 62.604164 157.50313 62.49479Q157.8 62.40104 158.44063 62.322914Q159.70625 62.18229 160.31563 61.96354Q160.31563 61.74479 160.31563 61.697914Q160.31563 61.041664 160.01875 60.77604Q159.6125 60.43229 158.81563 60.43229Q158.08125 60.43229 157.72188 60.697914Q157.3625 60.947914 157.19063 61.604164L156.15938 61.46354Q156.3 60.80729 156.62813 60.40104Q156.95625 59.99479 157.56563 59.77604Q158.175 59.55729 158.97188 59.55729Q159.76875 59.55729 160.26875 59.74479Q160.76875 59.93229 161.00313 60.21354Q161.2375 60.49479 161.33125 60.93229Q161.37813 61.197914 161.37813 61.90104L161.37813 63.30729Q161.37813 64.77604 161.44063 65.166664Q161.51875 65.55729 161.72188 65.916664L160.6125 65.916664Q160.45625 65.58854 160.40938 65.15104ZM160.31563 62.791664Q159.7375 63.02604 158.59688 63.197914Q157.94063 63.291664 157.675 63.416664Q157.40938 63.52604 157.25313 63.74479Q157.1125 63.96354 157.1125 64.24479Q157.1125 64.666664 157.425 64.947914Q157.75313 65.229164 158.3625 65.229164Q158.97188 65.229164 159.44063 64.96354Q159.925 64.697914 160.14375 64.229164Q160.31563 63.86979 160.31563 63.18229L160.31563 62.791664ZM167.425 65.916664L167.425 64.99479Q166.69063 66.05729 165.44063 66.05729Q164.89375 66.05729 164.40938 65.854164Q163.94063 65.635414 163.70625 65.322914Q163.47188 64.99479 163.37813 64.52604Q163.31563 64.229164 163.31563 63.541664L163.31563 59.697914L164.37813 59.697914L164.37813 63.15104Q164.37813 63.96354 164.44063 64.260414Q164.53438 64.666664 164.84688 64.916664Q165.175 65.15104 165.65938 65.15104Q166.12813 65.15104 166.53438 64.916664Q166.95625 64.666664 167.12813 64.24479Q167.31563 63.822914 167.31563 63.02604L167.31563 59.697914L168.3625 59.697914L168.3625 65.916664L167.425 65.916664ZM170.31563 65.916664L170.31563 57.322914L171.37813 57.322914L171.37813 65.916664L170.31563 65.916664ZM175.64375 64.979164L175.8 65.90104Q175.34688 65.99479 175.00313 65.99479Q174.425 65.99479 174.1125 65.822914Q173.8 65.635414 173.65938 65.33854Q173.53438 65.041664 173.53438 64.08854L173.53438 60.510414L172.76875 60.510414L172.76875 59.697914L173.53438 59.697914L173.53438 58.15104L174.58125 57.52604L174.58125 59.697914L175.64375 59.697914L175.64375 60.510414L174.58125 60.510414L174.58125 64.15104Q174.58125 64.604164 174.62813 64.729164Q174.69063 64.854164 174.81563 64.93229Q174.94063 65.010414 175.175 65.010414Q175.3625 65.010414 175.64375 64.979164Z" fill-rule="nonzero"/><path fill="#0000ff" d="M30.55 85.916664C30.55 89.23038 27.863708 91.916664 24.55 91.916664C21.236292 91.916664 18.55 89.23038 18.55 85.916664C18.55 82.60296 21.236292 79.916664 24.55 79.916664C27.863708 79.916664 30.55 82.60296 30.55 85.916664Z" fill-rule="nonzero"/><path fill="#1a1a1a" d="M39.096874 87.15104L40.159374 87.05729Q40.2375 87.71354 40.51875 88.11979Q40.8 88.52604 41.378124 88.791664Q41.971874 89.041664 42.70625 89.041664Q43.346874 89.041664 43.846874 88.854164Q44.346874 88.65104 44.58125 88.322914Q44.83125 87.979164 44.83125 87.58854Q44.83125 87.18229 44.596874 86.885414Q44.3625 86.572914 43.83125 86.36979Q43.471874 86.229164 42.284374 85.947914Q41.1125 85.666664 40.64375 85.416664Q40.01875 85.08854 39.721874 84.61979Q39.425 84.135414 39.425 83.541664Q39.425 82.90104 39.784374 82.33854Q40.159374 81.760414 40.8625 81.479164Q41.58125 81.18229 42.440624 81.18229Q43.39375 81.18229 44.128124 81.49479Q44.8625 81.791664 45.253124 82.40104Q45.64375 82.99479 45.675 83.74479L44.58125 83.822914Q44.4875 83.010414 43.971874 82.604164Q43.471874 82.18229 42.4875 82.18229Q41.45625 82.18229 40.9875 82.55729Q40.51875 82.93229 40.51875 83.46354Q40.51875 83.93229 40.846874 84.229164Q41.175 84.52604 42.55 84.83854Q43.940624 85.15104 44.45625 85.385414Q45.20625 85.74479 45.565624 86.27604Q45.925 86.791664 45.925 87.49479Q45.925 88.18229 45.534374 88.791664Q45.14375 89.385414 44.409374 89.729164Q43.675 90.05729 42.753124 90.05729Q41.58125 90.05729 40.784374 89.729164Q40.003124 89.385414 39.55 88.697914Q39.1125 88.010414 39.096874 87.15104ZM49.659374 89.916664L49.659374 82.33854L46.83125 82.33854L46.83125 81.322914L53.64375 81.322914L53.64375 82.33854L50.8 82.33854L50.8 89.916664L49.659374 89.916664ZM54.128124 85.729164Q54.128124 83.58854 55.26875 82.385414Q56.425 81.166664 58.2375 81.166664Q59.440624 81.166664 60.39375 81.74479Q61.346874 82.30729 61.846874 83.322914Q62.346874 84.33854 62.346874 85.635414Q62.346874 86.93229 61.815624 87.96354Q61.284374 88.99479 60.315624 89.52604Q59.3625 90.05729 58.2375 90.05729Q57.01875 90.05729 56.065624 89.479164Q55.1125 88.885414 54.6125 87.885414Q54.128124 86.86979 54.128124 85.729164ZM55.3 85.74479Q55.3 87.30729 56.128124 88.197914Q56.971874 89.08854 58.2375 89.08854Q59.51875 89.08854 60.346874 88.197914Q61.175 87.291664 61.175 85.61979Q61.175 84.572914 60.815624 83.791664Q60.471874 83.010414 59.784374 82.58854Q59.096874 82.15104 58.253124 82.15104Q57.05 82.15104 56.175 82.979164Q55.3 83.80729 55.3 85.74479ZM66.34688 89.916664L66.34688 81.322914L67.39375 81.322914L67.39375 84.40104Q68.12813 83.55729 69.25313 83.55729Q69.95625 83.55729 70.45625 83.83854Q70.97188 84.104164 71.19063 84.58854Q71.40938 85.05729 71.40938 85.979164L71.40938 89.916664L70.3625 89.916664L70.3625 85.979164Q70.3625 85.18229 70.01875 84.822914Q69.675 84.46354 69.05 84.46354Q68.58125 84.46354 68.15938 84.71354Q67.75313 84.947914 67.56563 85.36979Q67.39375 85.77604 67.39375 86.510414L67.39375 89.916664L66.34688 89.916664ZM72.95625 86.80729Q72.95625 85.072914 73.90938 84.24479Q74.70625 83.55729 75.8625 83.55729Q77.14375 83.55729 77.95625 84.40104Q78.78438 85.229164 78.78438 86.71354Q78.78438 87.916664 78.425 88.604164Q78.06563 89.291664 77.3625 89.68229Q76.675 90.05729 75.8625 90.05729Q74.56563 90.05729 73.75313 89.229164Q72.95625 88.385414 72.95625 86.80729ZM74.03438 86.80729Q74.03438 87.99479 74.55 88.58854Q75.08125 89.18229 75.8625 89.18229Q76.65938 89.18229 77.175 88.58854Q77.69063 87.99479 77.69063 86.77604Q77.69063 85.61979 77.15938 85.02604Q76.64375 84.43229 75.8625 84.43229Q75.08125 84.43229 74.55 85.02604Q74.03438 85.604164 74.03438 86.80729ZM80.31563 89.916664L80.31563 81.322914L81.37813 81.322914L81.37813 89.916664L80.31563 89.916664ZM87.37813 89.916664L87.37813 89.135414Q86.78438 90.05729 85.64375 90.05729Q84.89375 90.05729 84.26875 89.65104Q83.64375 89.229164 83.3 88.49479Q82.95625 87.760414 82.95625 86.80729Q82.95625 85.885414 83.26875 85.11979Q83.58125 84.354164 84.20625 83.96354Q84.83125 83.55729 85.59688 83.55729Q86.15938 83.55729 86.59688 83.791664Q87.03438 84.02604 87.31563 84.40104L87.31563 81.322914L88.3625 81.322914L88.3625 89.916664L87.37813 89.916664ZM84.05 86.80729Q84.05 88.010414 84.55 88.604164Q85.05 89.18229 85.7375 89.18229Q86.425 89.18229 86.90938 88.61979Q87.39375 88.05729 87.39375 86.90104Q87.39375 85.61979 86.89375 85.02604Q86.40938 84.43229 85.69063 84.43229Q84.9875 84.43229 84.51875 85.010414Q84.05 85.572914 84.05 86.80729ZM94.31563 89.916664L93.33125 89.916664L93.33125 81.322914L94.39375 81.322914L94.39375 84.385414Q95.06563 83.55729 96.09688 83.55729Q96.675 83.55729 97.175 83.791664Q97.69063 84.010414 98.01875 84.43229Q98.3625 84.854164 98.55 85.447914Q98.7375 86.041664 98.7375 86.71354Q98.7375 88.30729 97.94063 89.18229Q97.14375 90.05729 96.05 90.05729Q94.94063 90.05729 94.31563 89.135414L94.31563 89.916664ZM94.3 86.760414Q94.3 87.86979 94.6125 88.36979Q95.1125 89.18229 95.95625 89.18229Q96.64375 89.18229 97.14375 88.58854Q97.65938 87.99479 97.65938 86.791664Q97.65938 85.572914 97.175 84.99479Q96.69063 84.416664 96.00313 84.416664Q95.31563 84.416664 94.8 85.02604Q94.3 85.61979 94.3 86.760414ZM100.3 92.30729L100.175 91.322914Q100.51875 91.416664 100.78438 91.416664Q101.12813 91.416664 101.33125 91.291664Q101.55 91.18229 101.69063 90.979164Q101.78438 90.80729 102.01875 90.18229Q102.03438 90.104164 102.1125 89.93229L99.7375 83.697914L100.87813 83.697914L102.175 87.291664Q102.425 87.979164 102.62813 88.74479Q102.81563 88.010414 103.06563 87.322914L104.39375 83.697914L105.44063 83.697914L103.08125 90.02604Q102.69063 91.041664 102.4875 91.43229Q102.20625 91.96354 101.83125 92.197914Q101.47188 92.447914 100.97188 92.447914Q100.675 92.447914 100.3 92.30729ZM107.925 88.05729L108.95625 87.90104Q109.05 88.52604 109.44063 88.854164Q109.84688 89.18229 110.58125 89.18229Q111.3 89.18229 111.64375 88.90104Q112.00313 88.604164 112.00313 88.197914Q112.00313 87.83854 111.69063 87.635414Q111.47188 87.49479 110.6125 87.27604Q109.45625 86.979164 109.00313 86.77604Q108.56563 86.55729 108.33125 86.18229Q108.09688 85.80729 108.09688 85.33854Q108.09688 84.93229 108.28438 84.572914Q108.47188 84.21354 108.8 83.979164Q109.05 83.80729 109.47188 83.68229Q109.89375 83.55729 110.39375 83.55729Q111.1125 83.55729 111.65938 83.77604Q112.22188 83.979164 112.4875 84.33854Q112.75313 84.697914 112.84688 85.291664L111.81563 85.43229Q111.75313 84.96354 111.40938 84.697914Q111.08125 84.416664 110.45625 84.416664Q109.7375 84.416664 109.425 84.666664Q109.1125 84.90104 109.1125 85.229164Q109.1125 85.43229 109.2375 85.58854Q109.37813 85.760414 109.64375 85.86979Q109.8 85.93229 110.58125 86.135414Q111.70625 86.447914 112.14375 86.635414Q112.58125 86.822914 112.83125 87.18229Q113.08125 87.541664 113.08125 88.08854Q113.08125 88.61979 112.76875 89.08854Q112.47188 89.541664 111.89375 89.80729Q111.31563 90.05729 110.58125 90.05729Q109.3625 90.05729 108.72188 89.55729Q108.09688 89.041664 107.925 88.05729ZM115.425 89.916664L115.425 81.322914L116.56563 81.322914L116.56563 85.58854L120.83125 81.322914L122.37813 81.322914L118.76875 84.80729L122.53438 89.916664L121.03438 89.916664L117.97188 85.572914L116.56563 86.93229L116.56563 89.916664L115.425 89.916664ZM123.34688 82.541664L123.34688 81.322914L124.40938 81.322914L124.40938 82.541664L123.34688 82.541664ZM123.34688 89.916664L123.34688 83.697914L124.40938 83.697914L124.40938 89.916664L123.34688 89.916664ZM126.34688 89.916664L126.34688 83.697914L127.28438 83.697914L127.28438 84.572914Q127.97188 83.55729 129.26875 83.55729Q129.83125 83.55729 130.3 83.760414Q130.78438 83.96354 131.01875 84.291664Q131.25313 84.61979 131.34688 85.05729Q131.39375 85.354164 131.39375 86.08854L131.39375 89.916664L130.34688 89.916664L130.34688 86.135414Q130.34688 85.479164 130.22188 85.166664Q130.09688 84.854164 129.78438 84.666664Q129.47188 84.46354 129.05 84.46354Q128.37813 84.46354 127.87813 84.90104Q127.39375 85.322914 127.39375 86.510414L127.39375 89.916664L126.34688 89.916664ZM133.14375 90.43229L134.175 90.58854Q134.2375 91.05729 134.53438 91.27604Q134.925 91.572914 135.59688 91.572914Q136.33125 91.572914 136.72188 91.27604Q137.12813 90.979164 137.26875 90.46354Q137.3625 90.135414 137.34688 89.104164Q136.65938 89.916664 135.62813 89.916664Q134.34688 89.916664 133.64375 88.99479Q132.94063 88.05729 132.94063 86.77604Q132.94063 85.885414 133.25313 85.135414Q133.58125 84.36979 134.19063 83.96354Q134.8 83.55729 135.62813 83.55729Q136.7375 83.55729 137.45625 84.447914L137.45625 83.697914L138.425 83.697914L138.425 89.072914Q138.425 90.52604 138.12813 91.135414Q137.83125 91.74479 137.19063 92.08854Q136.55 92.447914 135.6125 92.447914Q134.50313 92.447914 133.81563 91.947914Q133.12813 91.447914 133.14375 90.43229ZM134.01875 86.697914Q134.01875 87.916664 134.50313 88.479164Q134.9875 89.041664 135.72188 89.041664Q136.45625 89.041664 136.94063 88.479164Q137.44063 87.916664 137.44063 86.729164Q137.44063 85.58854 136.925 85.010414Q136.425 84.43229 135.70625 84.43229Q135.00313 84.43229 134.50313 85.010414Q134.01875 85.572914 134.01875 86.697914ZM145.06563 89.916664L142.70625 83.697914L143.81563 83.697914L145.15938 87.416664Q145.3625 88.02604 145.55 88.666664Q145.69063 88.18229 145.94063 87.49479L147.33125 83.697914L148.40938 83.697914L146.05 89.916664L145.06563 89.916664ZM152.40938 89.15104Q151.81563 89.65104 151.26875 89.854164Q150.7375 90.05729 150.1125 90.05729Q149.08125 90.05729 148.53438 89.55729Q147.9875 89.05729 147.9875 88.27604Q147.9875 87.822914 148.19063 87.447914Q148.39375 87.05729 148.7375 86.83854Q149.08125 86.604164 149.50313 86.49479Q149.8 86.40104 150.44063 86.322914Q151.70625 86.18229 152.31563 85.96354Q152.31563 85.74479 152.31563 85.697914Q152.31563 85.041664 152.01875 84.77604Q151.6125 84.43229 150.81563 84.43229Q150.08125 84.43229 149.72188 84.697914Q149.3625 84.947914 149.19063 85.604164L148.15938 85.46354Q148.3 84.80729 148.62813 84.40104Q148.95625 83.99479 149.56563 83.77604Q150.175 83.55729 150.97188 83.55729Q151.76875 83.55729 152.26875 83.74479Q152.76875 83.93229 153.00313 84.21354Q153.2375 84.49479 153.33125 84.93229Q153.37813 85.197914 153.37813 85.90104L153.37813 87.30729Q153.37813 88.77604 153.44063 89.166664Q153.51875 89.55729 153.72188 89.916664L152.6125 89.916664Q152.45625 89.58854 152.40938 89.15104ZM152.31563 86.791664Q151.7375 87.02604 150.59688 87.197914Q149.94063 87.291664 149.675 87.416664Q149.40938 87.52604 149.25313 87.74479Q149.1125 87.96354 149.1125 88.24479Q149.1125 88.666664 149.425 88.947914Q149.75313 89.229164 150.3625 89.229164Q150.97188 89.229164 151.44063 88.96354Q151.925 88.697914 152.14375 88.229164Q152.31563 87.86979 152.31563 87.18229L152.31563 86.791664ZM159.425 89.916664L159.425 88.99479Q158.69063 90.05729 157.44063 90.05729Q156.89375 90.05729 156.40938 89.854164Q155.94063 89.635414 155.70625 89.322914Q155.47188 88.99479 155.37813 88.52604Q155.31563 88.229164 155.31563 87.541664L155.31563 83.697914L156.37813 83.697914L156.37813 87.15104Q156.37813 87.96354 156.44063 88.260414Q156.53438 88.666664 156.84688 88.916664Q157.175 89.15104 157.65938 89.15104Q158.12813 89.15104 158.53438 88.916664Q158.95625 88.666664 159.12813 88.24479Q159.31563 87.822914 159.31563 87.02604L159.31563 83.697914L160.3625 83.697914L160.3625 89.916664L159.425 89.916664ZM162.31563 89.916664L162.31563 81.322914L163.37813 81.322914L163.37813 89.916664L162.31563 89.916664ZM167.64375 88.979164L167.8 89.90104Q167.34688 89.99479 167.00313 89.99479Q166.425 89.99479 166.1125 89.822914Q165.8 89.635414 165.65938 89.33854Q165.53438 89.041664 165.53438 88.08854L165.53438 84.510414L164.76875 84.510414L164.76875 83.697914L165.53438 83.697914L165.53438 82.15104L166.58125 81.52604L166.58125 83.697914L167.64375 83.697914L167.64375 84.510414L166.58125 84.510414L166.58125 88.15104Q166.58125 88.604164 166.62813 88.729164Q166.69063 88.854164 166.81563 88.93229Q166.94063 89.010414 167.175 89.010414Q167.3625 89.010414 167.64375 88.979164Z" fill-rule="nonzero"/><path fill="#fbbc04" d="M30.55 109.916664C30.55 113.23038 27.863708 115.916664 24.55 115.916664C21.236292 115.916664 18.55 113.23038 18.55 109.916664C18.55 106.60296 21.236292 103.916664 24.55 103.916664C27.863708 103.916664 30.55 106.60296 30.55 109.916664Z" fill-rule="nonzero"/><path fill="#1a1a1a" d="M39.096874 111.15104L40.159374 111.05729Q40.2375 111.71354 40.51875 112.11979Q40.8 112.52604 41.378124 112.791664Q41.971874 113.041664 42.70625 113.041664Q43.346874 113.041664 43.846874 112.854164Q44.346874 112.65104 44.58125 112.322914Q44.83125 111.979164 44.83125 111.58854Q44.83125 111.18229 44.596874 110.885414Q44.3625 110.572914 43.83125 110.36979Q43.471874 110.229164 42.284374 109.947914Q41.1125 109.666664 40.64375 109.416664Q40.01875 109.08854 39.721874 108.61979Q39.425 108.135414 39.425 107.541664Q39.425 106.90104 39.784374 106.33854Q40.159374 105.760414 40.8625 105.479164Q41.58125 105.18229 42.440624 105.18229Q43.39375 105.18229 44.128124 105.49479Q44.8625 105.791664 45.253124 106.40104Q45.64375 106.99479 45.675 107.74479L44.58125 107.822914Q44.4875 107.010414 43.971874 106.604164Q43.471874 106.18229 42.4875 106.18229Q41.45625 106.18229 40.9875 106.55729Q40.51875 106.93229 40.51875 107.46354Q40.51875 107.93229 40.846874 108.229164Q41.175 108.52604 42.55 108.83854Q43.940624 109.15104 44.45625 109.385414Q45.20625 109.74479 45.565624 110.27604Q45.925 110.791664 45.925 111.49479Q45.925 112.18229 45.534374 112.791664Q45.14375 113.385414 44.409374 113.729164Q43.675 114.05729 42.753124 114.05729Q41.58125 114.05729 40.784374 113.729164Q40.003124 113.385414 39.55 112.697914Q39.1125 112.010414 39.096874 111.15104ZM49.659374 113.916664L49.659374 106.33854L46.83125 106.33854L46.83125 105.322914L53.64375 105.322914L53.64375 106.33854L50.8 106.33854L50.8 113.916664L49.659374 113.916664ZM54.128124 109.729164Q54.128124 107.58854 55.26875 106.385414Q56.425 105.166664 58.2375 105.166664Q59.440624 105.166664 60.39375 105.74479Q61.346874 106.30729 61.846874 107.322914Q62.346874 108.33854 62.346874 109.635414Q62.346874 110.93229 61.815624 111.96354Q61.284374 112.99479 60.315624 113.52604Q59.3625 114.05729 58.2375 114.05729Q57.01875 114.05729 56.065624 113.479164Q55.1125 112.885414 54.6125 111.885414Q54.128124 110.86979 54.128124 109.729164ZM55.3 109.74479Q55.3 111.30729 56.128124 112.197914Q56.971874 113.08854 58.2375 113.08854Q59.51875 113.08854 60.346874 112.197914Q61.175 111.291664 61.175 109.61979Q61.175 108.572914 60.815624 107.791664Q60.471874 107.010414 59.784374 106.58854Q59.096874 106.15104 58.253124 106.15104Q57.05 106.15104 56.175 106.979164Q55.3 107.80729 55.3 109.74479ZM66.34688 113.916664L66.34688 105.322914L67.39375 105.322914L67.39375 108.40104Q68.12813 107.55729 69.25313 107.55729Q69.95625 107.55729 70.45625 107.83854Q70.97188 108.104164 71.19063 108.58854Q71.40938 109.05729 71.40938 109.979164L71.40938 113.916664L70.3625 113.916664L70.3625 109.979164Q70.3625 109.18229 70.01875 108.822914Q69.675 108.46354 69.05 108.46354Q68.58125 108.46354 68.15938 108.71354Q67.75313 108.947914 67.56563 109.36979Q67.39375 109.77604 67.39375 110.510414L67.39375 113.916664L66.34688 113.916664ZM72.95625 110.80729Q72.95625 109.072914 73.90938 108.24479Q74.70625 107.55729 75.8625 107.55729Q77.14375 107.55729 77.95625 108.40104Q78.78438 109.229164 78.78438 110.71354Q78.78438 111.916664 78.425 112.604164Q78.06563 113.291664 77.3625 113.68229Q76.675 114.05729 75.8625 114.05729Q74.56563 114.05729 73.75313 113.229164Q72.95625 112.385414 72.95625 110.80729ZM74.03438 110.80729Q74.03438 111.99479 74.55 112.58854Q75.08125 113.18229 75.8625 113.18229Q76.65938 113.18229 77.175 112.58854Q77.69063 111.99479 77.69063 110.77604Q77.69063 109.61979 77.15938 109.02604Q76.64375 108.43229 75.8625 108.43229Q75.08125 108.43229 74.55 109.02604Q74.03438 109.604164 74.03438 110.80729ZM80.31563 113.916664L80.31563 105.322914L81.37813 105.322914L81.37813 113.916664L80.31563 113.916664ZM87.37813 113.916664L87.37813 113.135414Q86.78438 114.05729 85.64375 114.05729Q84.89375 114.05729 84.26875 113.65104Q83.64375 113.229164 83.3 112.49479Q82.95625 111.760414 82.95625 110.80729Q82.95625 109.885414 83.26875 109.11979Q83.58125 108.354164 84.20625 107.96354Q84.83125 107.55729 85.59688 107.55729Q86.15938 107.55729 86.59688 107.791664Q87.03438 108.02604 87.31563 108.40104L87.31563 105.322914L88.3625 105.322914L88.3625 113.916664L87.37813 113.916664ZM84.05 110.80729Q84.05 112.010414 84.55 112.604164Q85.05 113.18229 85.7375 113.18229Q86.425 113.18229 86.90938 112.61979Q87.39375 112.05729 87.39375 110.90104Q87.39375 109.61979 86.89375 109.02604Q86.40938 108.43229 85.69063 108.43229Q84.9875 108.43229 84.51875 109.010414Q84.05 109.572914 84.05 110.80729ZM94.31563 113.916664L93.33125 113.916664L93.33125 105.322914L94.39375 105.322914L94.39375 108.385414Q95.06563 107.55729 96.09688 107.55729Q96.675 107.55729 97.175 107.791664Q97.69063 108.010414 98.01875 108.43229Q98.3625 108.854164 98.55 109.447914Q98.7375 110.041664 98.7375 110.71354Q98.7375 112.30729 97.94063 113.18229Q97.14375 114.05729 96.05 114.05729Q94.94063 114.05729 94.31563 113.135414L94.31563 113.916664ZM94.3 110.760414Q94.3 111.86979 94.6125 112.36979Q95.1125 113.18229 95.95625 113.18229Q96.64375 113.18229 97.14375 112.58854Q97.65938 111.99479 97.65938 110.791664Q97.65938 109.572914 97.175 108.99479Q96.69063 108.416664 96.00313 108.416664Q95.31563 108.416664 94.8 109.02604Q94.3 109.61979 94.3 110.760414ZM100.3 116.30729L100.175 115.322914Q100.51875 115.416664 100.78438 115.416664Q101.12813 115.416664 101.33125 115.291664Q101.55 115.18229 101.69063 114.979164Q101.78438 114.80729 102.01875 114.18229Q102.03438 114.104164 102.1125 113.93229L99.7375 107.697914L100.87813 107.697914L102.175 111.291664Q102.425 111.979164 102.62813 112.74479Q102.81563 112.010414 103.06563 111.322914L104.39375 107.697914L105.44063 107.697914L103.08125 114.02604Q102.69063 115.041664 102.4875 115.43229Q102.20625 115.96354 101.83125 116.197914Q101.47188 116.447914 100.97188 116.447914Q100.675 116.447914 100.3 116.30729ZM112.37813 113.916664L112.37813 113.135414Q111.78438 114.05729 110.64375 114.05729Q109.89375 114.05729 109.26875 113.65104Q108.64375 113.229164 108.3 112.49479Q107.95625 111.760414 107.95625 110.80729Q107.95625 109.885414 108.26875 109.11979Q108.58125 108.354164 109.20625 107.96354Q109.83125 107.55729 110.59688 107.55729Q111.15938 107.55729 111.59688 107.791664Q112.03438 108.02604 112.31563 108.40104L112.31563 105.322914L113.3625 105.322914L113.3625 113.916664L112.37813 113.916664ZM109.05 110.80729Q109.05 112.010414 109.55 112.604164Q110.05 113.18229 110.7375 113.18229Q111.425 113.18229 111.90938 112.61979Q112.39375 112.05729 112.39375 110.90104Q112.39375 109.61979 111.89375 109.02604Q111.40938 108.43229 110.69063 108.43229Q109.9875 108.43229 109.51875 109.010414Q109.05 109.572914 109.05 110.80729ZM119.50313 110.541664L119.50313 109.541664L123.12813 109.52604L123.12813 112.71354Q122.3 113.385414 121.40938 113.729164Q120.51875 114.05729 119.58125 114.05729Q118.31563 114.05729 117.26875 113.52604Q116.2375 112.979164 115.70625 111.96354Q115.19063 110.93229 115.19063 109.666664Q115.19063 108.40104 115.70625 107.322914Q116.2375 106.229164 117.22188 105.71354Q118.20625 105.18229 119.4875 105.18229Q120.425 105.18229 121.175 105.479164Q121.925 105.77604 122.34688 106.322914Q122.78438 106.854164 123.00313 107.729164L121.9875 108.010414Q121.78438 107.354164 121.4875 106.979164Q121.20625 106.604164 120.675 106.385414Q120.14375 106.15104 119.50313 106.15104Q118.72188 106.15104 118.14375 106.385414Q117.58125 106.61979 117.22188 107.010414Q116.87813 107.40104 116.69063 107.86979Q116.3625 108.666664 116.3625 109.58854Q116.3625 110.74479 116.75313 111.52604Q117.15938 112.291664 117.90938 112.666664Q118.65938 113.041664 119.51875 113.041664Q120.25313 113.041664 120.95625 112.760414Q121.65938 112.46354 122.01875 112.15104L122.01875 110.541664L119.50313 110.541664ZM128.425 113.916664L128.425 112.99479Q127.69063 114.05729 126.44063 114.05729Q125.89375 114.05729 125.40938 113.854164Q124.94063 113.635414 124.70625 113.322914Q124.47188 112.99479 124.37813 112.52604Q124.31563 112.229164 124.31563 111.541664L124.31563 107.697914L125.37813 107.697914L125.37813 111.15104Q125.37813 111.96354 125.44063 112.260414Q125.53438 112.666664 125.84688 112.916664Q126.175 113.15104 126.65938 113.15104Q127.12813 113.15104 127.53438 112.916664Q127.95625 112.666664 128.12813 112.24479Q128.31563 111.822914 128.31563 111.02604L128.31563 107.697914L129.3625 107.697914L129.3625 113.916664L128.425 113.916664ZM131.34688 106.541664L131.34688 105.322914L132.40938 105.322914L132.40938 106.541664L131.34688 106.541664ZM131.34688 113.916664L131.34688 107.697914L132.40938 107.697914L132.40938 113.916664L131.34688 113.916664ZM134.31563 113.916664L134.31563 105.322914L135.37813 105.322914L135.37813 113.916664L134.31563 113.916664ZM141.37813 113.916664L141.37813 113.135414Q140.78438 114.05729 139.64375 114.05729Q138.89375 114.05729 138.26875 113.65104Q137.64375 113.229164 137.3 112.49479Q136.95625 111.760414 136.95625 110.80729Q136.95625 109.885414 137.26875 109.11979Q137.58125 108.354164 138.20625 107.96354Q138.83125 107.55729 139.59688 107.55729Q140.15938 107.55729 140.59688 107.791664Q141.03438 108.02604 141.31563 108.40104L141.31563 105.322914L142.3625 105.322914L142.3625 113.916664L141.37813 113.916664ZM138.05 110.80729Q138.05 112.010414 138.55 112.604164Q139.05 113.18229 139.7375 113.18229Q140.425 113.18229 140.90938 112.61979Q141.39375 112.05729 141.39375 110.90104Q141.39375 109.61979 140.89375 109.02604Q140.40938 108.43229 139.69063 108.43229Q138.9875 108.43229 138.51875 109.010414Q138.05 109.572914 138.05 110.80729ZM149.06563 113.916664L146.70625 107.697914L147.81563 107.697914L149.15938 111.416664Q149.3625 112.02604 149.55 112.666664Q149.69063 112.18229 149.94063 111.49479L151.33125 107.697914L152.40938 107.697914L150.05 113.916664L149.06563 113.916664ZM156.40938 113.15104Q155.81563 113.65104 155.26875 113.854164Q154.7375 114.05729 154.1125 114.05729Q153.08125 114.05729 152.53438 113.55729Q151.9875 113.05729 151.9875 112.27604Q151.9875 111.822914 152.19063 111.447914Q152.39375 111.05729 152.7375 110.83854Q153.08125 110.604164 153.50313 110.49479Q153.8 110.40104 154.44063 110.322914Q155.70625 110.18229 156.31563 109.96354Q156.31563 109.74479 156.31563 109.697914Q156.31563 109.041664 156.01875 108.77604Q155.6125 108.43229 154.81563 108.43229Q154.08125 108.43229 153.72188 108.697914Q153.3625 108.947914 153.19063 109.604164L152.15938 109.46354Q152.3 108.80729 152.62813 108.40104Q152.95625 107.99479 153.56563 107.77604Q154.175 107.55729 154.97188 107.55729Q155.76875 107.55729 156.26875 107.74479Q156.76875 107.93229 157.00313 108.21354Q157.2375 108.49479 157.33125 108.93229Q157.37813 109.197914 157.37813 109.90104L157.37813 111.30729Q157.37813 112.77604 157.44063 113.166664Q157.51875 113.55729 157.72188 113.916664L156.6125 113.916664Q156.45625 113.58854 156.40938 113.15104ZM156.31563 110.791664Q155.7375 111.02604 154.59688 111.197914Q153.94063 111.291664 153.675 111.416664Q153.40938 111.52604 153.25313 111.74479Q153.1125 111.96354 153.1125 112.24479Q153.1125 112.666664 153.425 112.947914Q153.75313 113.229164 154.3625 113.229164Q154.97188 113.229164 155.44063 112.96354Q155.925 112.697914 156.14375 112.229164Q156.31563 111.86979 156.31563 111.18229L156.31563 110.791664ZM163.425 113.916664L163.425 112.99479Q162.69063 114.05729 161.44063 114.05729Q160.89375 114.05729 160.40938 113.854164Q159.94063 113.635414 159.70625 113.322914Q159.47188 112.99479 159.37813 112.52604Q159.31563 112.229164 159.31563 111.541664L159.31563 107.697914L160.37813 107.697914L160.37813 111.15104Q160.37813 111.96354 160.44063 112.260414Q160.53438 112.666664 160.84688 112.916664Q161.175 113.15104 161.65938 113.15104Q162.12813 113.15104 162.53438 112.916664Q162.95625 112.666664 163.12813 112.24479Q163.31563 111.822914 163.31563 111.02604L163.31563 107.697914L164.3625 107.697914L164.3625 113.916664L163.425 113.916664ZM166.31563 113.916664L166.31563 105.322914L167.37813 105.322914L167.37813 113.916664L166.31563 113.916664ZM171.64375 112.979164L171.8 113.90104Q171.34688 113.99479 171.00313 113.99479Q170.425 113.99479 170.1125 113.822914Q169.8 113.635414 169.65938 113.33854Q169.53438 113.041664 169.53438 112.08854L169.53438 108.510414L168.76875 108.510414L168.76875 107.697914L169.53438 107.697914L169.53438 106.15104L170.58125 105.52604L170.58125 107.697914L171.64375 107.697914L171.64375 108.510414L170.58125 108.510414L170.58125 112.15104Q170.58125 112.604164 170.62813 112.729164Q170.69063 112.854164 170.81563 112.93229Q170.94063 113.010414 171.175 113.010414Q171.3625 113.010414 171.64375 112.979164Z" fill-rule="nonzero"/><path fill="#757575" d="M19.45625 32.95625L21.2375 32.8Q21.3625 33.8625 21.815624 34.55Q22.284374 35.2375 23.253124 35.675Q24.2375 36.096874 25.471874 36.096874Q26.55 36.096874 27.378124 35.784374Q28.20625 35.45625 28.6125 34.89375Q29.01875 34.33125 29.01875 33.659374Q29.01875 32.9875 28.628124 32.4875Q28.2375 31.9875 27.346874 31.64375Q26.76875 31.409374 24.784374 30.940624Q22.815624 30.471874 22.034374 30.05Q21.003124 29.51875 20.503124 28.721874Q20.003124 27.925 20.003124 26.940624Q20.003124 25.846874 20.6125 24.909374Q21.221874 23.971874 22.409374 23.4875Q23.596874 22.9875 25.034374 22.9875Q26.628124 22.9875 27.846874 23.503124Q29.065624 24.01875 29.70625 25.01875Q30.3625 26.003124 30.409374 27.26875L28.596874 27.409374Q28.45625 26.05 27.6125 25.3625Q26.76875 24.659374 25.1125 24.659374Q23.39375 24.659374 22.596874 25.3Q21.815624 25.925 21.815624 26.8Q21.815624 27.58125 22.378124 28.08125Q22.925 28.58125 25.2375 29.096874Q27.55 29.6125 28.409374 30.003124Q29.659374 30.58125 30.253124 31.471874Q30.846874 32.346874 30.846874 33.503124Q30.846874 34.64375 30.190624 35.659374Q29.534374 36.675 28.3 37.2375Q27.08125 37.8 25.55 37.8Q23.6125 37.8 22.3 37.2375Q20.9875 36.659374 20.2375 35.51875Q19.4875 34.378124 19.45625 32.95625ZM36.7375 37.55L36.7375 24.925L32.01875 24.925L32.01875 23.2375L43.3625 23.2375L43.3625 24.925L38.628124 24.925L38.628124 37.55L36.7375 37.55ZM44.51875 30.58125Q44.51875 27.01875 46.425 25.003124Q48.346874 22.971874 51.378124 22.971874Q53.3625 22.971874 54.940624 23.925Q56.534374 24.878124 57.3625 26.58125Q58.20625 28.26875 58.20625 30.409374Q58.20625 32.58125 57.33125 34.3Q56.45625 36.01875 54.83125 36.909374Q53.221874 37.8 51.3625 37.8Q49.346874 37.8 47.753124 36.83125Q46.159374 35.846874 45.33125 34.159374Q44.51875 32.45625 44.51875 30.58125ZM46.471874 30.6125Q46.471874 33.190624 47.8625 34.690624Q49.253124 36.175 51.346874 36.175Q53.4875 36.175 54.8625 34.675Q56.253124 33.159374 56.253124 30.39375Q56.253124 28.659374 55.659374 27.3625Q55.08125 26.05 53.940624 25.33125Q52.8 24.6125 51.378124 24.6125Q49.378124 24.6125 47.925 26.003124Q46.471874 27.378124 46.471874 30.6125ZM66.8625 37.55L66.8625 23.2375L68.62813 23.2375L68.62813 28.3625Q69.8625 26.940624 71.7375 26.940624Q72.87813 26.940624 73.72188 27.39375Q74.58125 27.846874 74.94063 28.659374Q75.31563 29.45625 75.31563 30.971874L75.31563 37.55L73.56563 37.55L73.56563 30.971874Q73.56563 29.659374 72.9875 29.065624Q72.40938 28.45625 71.37813 28.45625Q70.59688 28.45625 69.89375 28.8625Q69.20625 29.26875 68.90938 29.971874Q68.62813 30.659374 68.62813 31.878124L68.62813 37.55L66.8625 37.55ZM76.22188 32.3625Q76.22188 29.4875 77.81563 28.096874Q79.15938 26.940624 81.08125 26.940624Q83.22188 26.940624 84.56563 28.346874Q85.925 29.753124 85.925 32.221874Q85.925 34.221874 85.33125 35.378124Q84.7375 36.51875 83.58125 37.159374Q82.44063 37.784374 81.08125 37.784374Q78.89375 37.784374 77.55 36.39375Q76.22188 34.9875 76.22188 32.3625ZM78.01875 32.3625Q78.01875 34.3625 78.87813 35.346874Q79.75313 36.33125 81.08125 36.33125Q82.39375 36.33125 83.25313 35.346874Q84.12813 34.346874 84.12813 32.3Q84.12813 30.378124 83.25313 29.39375Q82.37813 28.39375 81.08125 28.39375Q79.75313 28.39375 78.87813 29.39375Q78.01875 30.378124 78.01875 32.3625ZM87.83125 37.55L87.83125 23.2375L89.58125 23.2375L89.58125 37.55L87.83125 37.55ZM98.59688 37.55L98.59688 36.2375Q97.6125 37.784374 95.69063 37.784374Q94.45625 37.784374 93.40938 37.096874Q92.37813 36.409374 91.8 35.190624Q91.2375 33.971874 91.2375 32.378124Q91.2375 30.815624 91.75313 29.55Q92.26875 28.284374 93.3 27.6125Q94.34688 26.940624 95.6125 26.940624Q96.55 26.940624 97.28438 27.346874Q98.01875 27.7375 98.4875 28.3625L98.4875 23.2375L100.22188 23.2375L100.22188 37.55L98.59688 37.55ZM93.03438 32.378124Q93.03438 34.3625 93.87813 35.346874Q94.72188 36.33125 95.8625 36.33125Q97.01875 36.33125 97.81563 35.39375Q98.62813 34.45625 98.62813 32.51875Q98.62813 30.39375 97.8 29.39375Q96.9875 28.39375 95.78438 28.39375Q94.6125 28.39375 93.81563 29.3625Q93.03438 30.315624 93.03438 32.378124ZM110.4875 37.55L108.8625 37.55L108.8625 23.2375L110.6125 23.2375L110.6125 28.346874Q111.7375 26.940624 113.45625 26.940624Q114.40938 26.940624 115.26875 27.33125Q116.12813 27.721874 116.675 28.425Q117.22188 29.1125 117.53438 30.096874Q117.84688 31.08125 117.84688 32.20625Q117.84688 34.878124 116.53438 36.33125Q115.22188 37.784374 113.37813 37.784374Q111.53438 37.784374 110.4875 36.253124L110.4875 37.55ZM110.47188 32.284374Q110.47188 34.14375 110.97188 34.9875Q111.81563 36.33125 113.22188 36.33125Q114.37813 36.33125 115.20625 35.33125Q116.05 34.33125 116.05 32.346874Q116.05 30.315624 115.2375 29.3625Q114.44063 28.39375 113.3 28.39375Q112.14375 28.39375 111.3 29.39375Q110.47188 30.39375 110.47188 32.284374ZM119.78438 41.55L119.59688 39.89375Q120.175 40.05 120.59688 40.05Q121.19063 40.05 121.53438 39.846874Q121.89375 39.659374 122.1125 39.315624Q122.28438 39.05 122.65938 38.003124Q122.70625 37.846874 122.81563 37.565624L118.87813 27.175L120.76875 27.175L122.925 33.190624Q123.34688 34.33125 123.675 35.58125Q123.9875 34.378124 124.39375 33.221874L126.6125 27.175L128.37813 27.175L124.425 37.721874Q123.8 39.440624 123.44063 40.08125Q122.97188 40.95625 122.3625 41.346874Q121.76875 41.753124 120.925 41.753124Q120.40938 41.753124 119.78438 41.55ZM140.19063 37.55L134.64375 23.2375L136.69063 23.2375L140.40938 33.628124Q140.8625 34.878124 141.15938 35.971874Q141.4875 34.8 141.94063 33.628124L145.8 23.2375L147.7375 23.2375L142.12813 37.55L140.19063 37.55ZM155.64375 36.26875Q154.65938 37.096874 153.75313 37.440624Q152.84688 37.784374 151.81563 37.784374Q150.1125 37.784374 149.19063 36.95625Q148.26875 36.1125 148.26875 34.815624Q148.26875 34.05 148.6125 33.425Q148.97188 32.8 149.53438 32.425Q150.09688 32.034374 150.8 31.83125Q151.31563 31.70625 152.3625 31.565624Q154.4875 31.315624 155.4875 30.971874Q155.50313 30.6125 155.50313 30.503124Q155.50313 29.440624 155.00313 28.9875Q154.33125 28.39375 153.00313 28.39375Q151.75313 28.39375 151.15938 28.83125Q150.58125 29.26875 150.3 30.378124L148.58125 30.14375Q148.81563 29.034374 149.34688 28.3625Q149.87813 27.675 150.89375 27.315624Q151.90938 26.940624 153.25313 26.940624Q154.58125 26.940624 155.40938 27.253124Q156.2375 27.565624 156.62813 28.05Q157.01875 28.51875 157.175 29.2375Q157.26875 29.690624 157.26875 30.8625L157.26875 33.20625Q157.26875 35.659374 157.37813 36.315624Q157.4875 36.95625 157.83125 37.55L155.9875 37.55Q155.72188 37.003124 155.64375 36.26875ZM155.4875 32.346874Q154.53438 32.7375 152.6125 33.003124Q151.53438 33.159374 151.08125 33.3625Q150.64375 33.55 150.39375 33.925Q150.14375 34.3 150.14375 34.76875Q150.14375 35.471874 150.675 35.940624Q151.20625 36.409374 152.2375 36.409374Q153.25313 36.409374 154.03438 35.971874Q154.83125 35.51875 155.20625 34.753124Q155.4875 34.14375 155.4875 32.9875L155.4875 32.346874ZM166.65938 37.55L166.65938 36.01875Q165.45625 37.784374 163.37813 37.784374Q162.45625 37.784374 161.65938 37.440624Q160.8625 37.08125 160.47188 36.55Q160.09688 36.01875 159.94063 35.2375Q159.83125 34.721874 159.83125 33.596874L159.83125 27.175L161.58125 27.175L161.58125 32.925Q161.58125 34.3 161.69063 34.784374Q161.8625 35.471874 162.39375 35.878124Q162.94063 36.26875 163.72188 36.26875Q164.51875 36.26875 165.20625 35.8625Q165.90938 35.45625 166.19063 34.76875Q166.4875 34.065624 166.4875 32.7375L166.4875 27.175L168.2375 27.175L168.2375 37.55L166.65938 37.55ZM169.83125 37.55L169.83125 23.2375L171.58125 23.2375L171.58125 37.55L169.83125 37.55ZM177.70625 35.971874L177.95625 37.534374Q177.22188 37.690624 176.62813 37.690624Q175.675 37.690624 175.14375 37.39375Q174.62813 37.08125 174.40938 36.596874Q174.19063 36.096874 174.19063 34.51875L174.19063 28.55L172.90938 28.55L172.90938 27.175L174.19063 27.175L174.19063 24.6125L175.94063 23.55L175.94063 27.175L177.70625 27.175L177.70625 28.55L175.94063 28.55L175.94063 34.6125Q175.94063 35.3625 176.03438 35.58125Q176.12813 35.784374 176.33125 35.925Q176.55 36.05 176.94063 36.05Q177.22188 36.05 177.70625 35.971874ZM179.15938 34.45625L180.90938 34.175Q181.05 35.221874 181.72188 35.784374Q182.39375 36.33125 183.59688 36.33125Q184.8 36.33125 185.37813 35.846874Q185.97188 35.346874 185.97188 34.690624Q185.97188 34.096874 185.45625 33.753124Q185.09688 33.51875 183.65938 33.159374Q181.72188 32.659374 180.97188 32.315624Q180.2375 31.95625 179.84688 31.33125Q179.45625 30.690624 179.45625 29.925Q179.45625 29.2375 179.76875 28.64375Q180.09688 28.05 180.64375 27.659374Q181.05 27.3625 181.75313 27.159374Q182.47188 26.940624 183.28438 26.940624Q184.50313 26.940624 185.425 27.3Q186.34688 27.64375 186.78438 28.253124Q187.22188 28.846874 187.39375 29.846874L185.675 30.08125Q185.55 29.284374 184.9875 28.846874Q184.425 28.39375 183.40938 28.39375Q182.19063 28.39375 181.675 28.8Q181.15938 29.190624 181.15938 29.721874Q181.15938 30.065624 181.37813 30.346874Q181.58125 30.628124 182.05 30.815624Q182.31563 30.909374 183.59688 31.253124Q185.47188 31.753124 186.20625 32.08125Q186.94063 32.39375 187.3625 33.003124Q187.78438 33.596874 187.78438 34.503124Q187.78438 35.378124 187.26875 36.159374Q186.75313 36.940624 185.78438 37.3625Q184.81563 37.784374 183.59688 37.784374Q181.58125 37.784374 180.51875 36.940624Q179.45625 36.096874 179.15938 34.45625Z" fill-rule="nonzero"/></svg>