<svg version="1.1" viewBox="0.0 0.0 656.0 447.0" fill="none" stroke="none" stroke-linecap="square" stroke-miterlimit="10" width="656" height="447" xmlns:xlink="http://www.w3.org/1999/xlink" xmlns="http://www.w3.org/2000/svg"><path fill="#ffffff" d="M0 0L656.0 0L656.0 447.0L0 447.0L0 0Z" fill-rule="nonzero"/><path fill="#0000ff" d="M383.11334 61.25C383.1137 61.25 383.1141 61.25 383.11447 61.25L383.1139 152.1C383.1137 152.1 383.11353 152.1 383.11334 152.1Z" fill-rule="nonzero"/><path fill="#9900ff" d="M383.1149 15.825C383.1153 15.825 383.11566 15.825 383.11606 15.825L383.1149 106.675C383.11472 106.675 383.11453 106.675 383.11432 106.675Z" fill-rule="nonzero"/><path fill="#00ff00" d="M383.11548 83.6C483.4654 83.60126 564.81415 164.9518 564.8132 265.30173C564.81226 365.65164 483.46198 447.00064 383.11206 447.0C282.76215 446.99936 201.41287 365.64935 201.4132 265.29944C201.41351 164.94951 282.76328 83.6 383.1132 83.6L383.1132 174.45C332.93823 174.45 292.26334 215.12476 292.26318 265.2997C292.26303 315.47467 332.93765 356.1497 383.1126 356.15C433.28757 356.15033 473.9627 315.4758 473.9632 265.30084C473.96365 215.1259 433.2893 174.45064 383.11435 174.45Z" fill-rule="nonzero"/><path fill="#ffffff" d="M348.26852 415.40152L346.48727 415.40152L346.48727 414.33902Q346.04977 414.96402 345.4404 415.27652Q344.83102 415.5734 344.22165 415.5734Q342.97165 415.5734 342.08102 414.55777Q341.1904 413.54214 341.1904 411.74527Q341.1904 409.90152 342.04977 408.9484Q342.92477 407.97964 344.2529 407.97964Q345.47165 407.97964 346.36227 408.99527L346.36227 405.3859L348.26852 405.3859L348.26852 415.40152ZM343.14352 411.62027Q343.14352 412.77652 343.47165 413.29214Q343.9404 414.04214 344.76852 414.04214Q345.42477 414.04214 345.89352 413.47964Q346.36227 412.91714 346.36227 411.79214Q346.36227 410.54214 345.90915 409.99527Q345.45602 409.4484 344.7529 409.4484Q344.0654 409.4484 343.59665 409.99527Q343.14352 410.52652 343.14352 411.62027ZM355.29977 411.71402L355.29977 410.02652L359.65915 410.02652L359.65915 414.02652Q359.01852 414.6359 357.8154 415.10464Q356.61227 415.5734 355.36227 415.5734Q353.79977 415.5734 352.6279 414.91714Q351.45602 414.24527 350.86227 413.02652Q350.28415 411.79214 350.28415 410.35464Q350.28415 408.79214 350.9404 407.5734Q351.59665 406.35464 352.86227 405.71402Q353.83102 405.21402 355.2529 405.21402Q357.1279 405.21402 358.17477 405.99527Q359.22165 406.77652 359.51852 408.15152L357.51852 408.52652Q357.29977 407.79214 356.70602 407.37027Q356.1279 406.93277 355.2529 406.93277Q353.9404 406.93277 353.14352 407.77652Q352.36227 408.62027 352.36227 410.27652Q352.36227 412.05777 353.15915 412.9484Q353.95602 413.83902 355.23727 413.83902Q355.8779 413.83902 356.51852 413.58902Q357.15915 413.33902 357.61227 412.99527L357.61227 411.71402L355.29977 411.71402ZM366.39352 415.40152L366.39352 414.30777Q366.0029 414.90152 365.34665 415.24527Q364.70602 415.5734 363.98727 415.5734Q363.2529 415.5734 362.67477 415.24527Q362.09665 414.91714 361.83102 414.33902Q361.58102 413.7609 361.58102 412.72964L361.58102 408.1359L363.5029 408.1359L363.5029 411.47964Q363.5029 413.0109 363.59665 413.35464Q363.70602 413.6984 363.98727 413.90152Q364.26852 414.10464 364.70602 414.10464Q365.1904 414.10464 365.58102 413.83902Q365.97165 413.55777 366.11227 413.16714Q366.2529 412.7609 366.2529 411.1984L366.2529 408.1359L368.17477 408.1359L368.17477 415.40152L366.39352 415.40152ZM370.61227 407.15152L370.61227 405.3859L372.53415 405.3859L372.53415 407.15152L370.61227 407.15152ZM370.61227 415.40152L370.61227 408.1359L372.53415 408.1359L372.53415 415.40152L370.61227 415.40152ZM374.61227 415.40152L374.61227 405.3859L376.53415 405.3859L376.53415 415.40152L374.61227 415.40152ZM385.26852 415.40152L383.48727 415.40152L383.48727 414.33902Q383.04977 414.96402 382.4404 415.27652Q381.83102 415.5734 381.22165 415.5734Q379.97165 415.5734 379.08102 414.55777Q378.1904 413.54214 378.1904 411.74527Q378.1904 409.90152 379.04977 408.9484Q379.92477 407.97964 381.2529 407.97964Q382.47165 407.97964 383.36227 408.99527L383.36227 405.3859L385.26852 405.3859L385.26852 415.40152ZM380.14352 411.62027Q380.14352 412.77652 380.47165 413.29214Q380.9404 414.04214 381.76852 414.04214Q382.42477 414.04214 382.89352 413.47964Q383.36227 412.91714 383.36227 411.79214Q383.36227 410.54214 382.90915 409.99527Q382.45602 409.4484 381.7529 409.4484Q381.0654 409.4484 380.59665 409.99527Q380.14352 410.52652 380.14352 411.62027ZM394.1904 415.40152L390.61227 405.3859L392.79977 405.3859L395.33102 412.79214L397.78415 405.3859L399.9404 405.3859L396.34665 415.40152L394.1904 415.40152ZM402.04977 410.35464L400.3154 410.04214Q400.59665 408.99527 401.3154 408.49527Q402.03415 407.97964 403.45602 407.97964Q404.73727 407.97964 405.36227 408.29214Q406.0029 408.58902 406.2529 409.05777Q406.5029 409.52652 406.5029 410.77652L406.48727 413.0109Q406.48727 413.97964 406.58102 414.43277Q406.67477 414.8859 406.92477 415.40152L405.03415 415.40152Q404.95602 415.21402 404.84665 414.83902Q404.79977 414.66714 404.76852 414.60464Q404.28415 415.08902 403.72165 415.33902Q403.15915 415.5734 402.51852 415.5734Q401.40915 415.5734 400.7529 414.96402Q400.11227 414.35464 400.11227 413.41714Q400.11227 412.80777 400.40915 412.3234Q400.70602 411.83902 401.22165 411.58902Q401.7529 411.3234 402.7529 411.1359Q404.09665 410.8859 404.6279 410.66714L404.6279 410.47964Q404.6279 409.91714 404.34665 409.68277Q404.08102 409.4484 403.3154 409.4484Q402.79977 409.4484 402.51852 409.65152Q402.23727 409.85464 402.04977 410.35464ZM404.6279 411.91714Q404.2529 412.04214 403.45602 412.21402Q402.65915 412.3859 402.40915 412.54214Q402.03415 412.80777 402.03415 413.21402Q402.03415 413.62027 402.33102 413.91714Q402.6279 414.21402 403.09665 414.21402Q403.61227 414.21402 404.09665 413.87027Q404.4404 413.60464 404.54977 413.22964Q404.6279 412.99527 404.6279 412.29214L404.6279 411.91714ZM413.39352 415.40152L413.39352 414.30777Q413.0029 414.90152 412.34665 415.24527Q411.70602 415.5734 410.98727 415.5734Q410.2529 415.5734 409.67477 415.24527Q409.09665 414.91714 408.83102 414.33902Q408.58102 413.7609 408.58102 412.72964L408.58102 408.1359L410.5029 408.1359L410.5029 411.47964Q410.5029 413.0109 410.59665 413.35464Q410.70602 413.6984 410.98727 413.90152Q411.26852 414.10464 411.70602 414.10464Q412.1904 414.10464 412.58102 413.83902Q412.97165 413.55777 413.11227 413.16714Q413.2529 412.7609 413.2529 411.1984L413.2529 408.1359L415.17477 408.1359L415.17477 415.40152L413.39352 415.40152ZM417.61227 415.40152L417.61227 405.3859L419.53415 405.3859L419.53415 415.40152L417.61227 415.40152ZM424.9404 408.1359L424.9404 409.66714L423.6279 409.66714L423.6279 412.60464Q423.6279 413.47964 423.65915 413.6359Q423.70602 413.77652 423.83102 413.8859Q423.97165 413.97964 424.17477 413.97964Q424.4404 413.97964 424.9404 413.79214L425.09665 415.27652Q424.4404 415.5734 423.58102 415.5734Q423.0654 415.5734 422.64352 415.40152Q422.23727 415.21402 422.03415 414.9484Q421.84665 414.66714 421.76852 414.1984Q421.70602 413.85464 421.70602 412.83902L421.70602 409.66714L420.83102 409.66714L420.83102 408.1359L421.70602 408.1359L421.70602 406.6984L423.6279 405.5734L423.6279 408.1359L424.9404 408.1359Z" fill-rule="nonzero"/><path fill="#0000ff" d="M34.35 68.25C34.35 71.563705 31.663708 74.25 28.35 74.25C25.036291 74.25 22.35 71.563705 22.35 68.25C22.35 64.936295 25.036291 62.25 28.35 62.25C31.663708 62.25 34.35 64.936295 34.35 68.25Z" fill-rule="nonzero"/><path fill="#1a1a1a" d="M43.475 72.25L43.475 63.65625L44.6 63.65625L44.6 72.25L43.475 72.25ZM46.271873 72.25L46.271873 63.65625L47.428123 63.65625L51.94375 70.40625L51.94375 63.65625L53.0375 63.65625L53.0375 72.25L51.865623 72.25L47.35 65.5L47.35 72.25L46.271873 72.25ZM57.459373 72.25L57.459373 64.671875L54.63125 64.671875L54.63125 63.65625L61.44375 63.65625L61.44375 64.671875L58.6 64.671875L58.6 72.25L57.459373 72.25ZM67.725 72.25L64.39687 63.65625L65.63125 63.65625L67.86562 69.90625Q68.13125 70.65625 68.31875 71.3125Q68.52187 70.609375 68.7875 69.90625L71.1 63.65625L72.25625 63.65625L68.89687 72.25L67.725 72.25ZM76.20937 71.484375Q75.61562 71.984375 75.06875 72.1875Q74.5375 72.390625 73.9125 72.390625Q72.88125 72.390625 72.33437 71.890625Q71.7875 71.390625 71.7875 70.609375Q71.7875 70.15625 71.99062 69.78125Q72.19375 69.390625 72.5375 69.171875Q72.88125 68.9375 73.30312 68.828125Q73.6 68.734375 74.24062 68.65625Q75.50625 68.515625 76.11562 68.296875Q76.11562 68.078125 76.11562 68.03125Q76.11562 67.375 75.81875 67.109375Q75.4125 66.765625 74.61562 66.765625Q73.88125 66.765625 73.52187 67.03125Q73.1625 67.28125 72.99062 67.9375L71.95937 67.796875Q72.1 67.140625 72.42812 66.734375Q72.75625 66.328125 73.36562 66.109375Q73.975 65.890625 74.77187 65.890625Q75.56875 65.890625 76.06875 66.078125Q76.56875 66.265625 76.80312 66.546875Q77.0375 66.828125 77.13125 67.265625Q77.17812 67.53125 77.17812 68.234375L77.17812 69.640625Q77.17812 71.109375 77.24062 71.5Q77.31875 71.890625 77.52187 72.25L76.4125 72.25Q76.25625 71.921875 76.20937 71.484375ZM76.11562 69.125Q75.5375 69.359375 74.39687 69.53125Q73.74062 69.625 73.475 69.75Q73.20937 69.859375 73.05312 70.078125Q72.9125 70.296875 72.9125 70.578125Q72.9125 71.0 73.225 71.28125Q73.55312 71.5625 74.1625 71.5625Q74.77187 71.5625 75.24062 71.296875Q75.725 71.03125 75.94375 70.5625Q76.11562 70.203125 76.11562 69.515625L76.11562 69.125ZM83.225 72.25L83.225 71.328125Q82.49062 72.390625 81.24062 72.390625Q80.69375 72.390625 80.20937 72.1875Q79.74062 71.96875 79.50625 71.65625Q79.27187 71.328125 79.17812 70.859375Q79.11562 70.5625 79.11562 69.875L79.11562 66.03125L80.17812 66.03125L80.17812 69.484375Q80.17812 70.296875 80.24062 70.59375Q80.33437 71.0 80.64687 71.25Q80.975 71.484375 81.45937 71.484375Q81.92812 71.484375 82.33437 71.25Q82.75625 71.0 82.92812 70.578125Q83.11562 70.15625 83.11562 69.359375L83.11562 66.03125L84.1625 66.03125L84.1625 72.25L83.225 72.25ZM86.11562 72.25L86.11562 63.65625L87.17812 63.65625L87.17812 72.25L86.11562 72.25ZM91.44375 71.3125L91.6 72.234375Q91.14687 72.328125 90.80312 72.328125Q90.225 72.328125 89.9125 72.15625Q89.6 71.96875 89.45937 71.671875Q89.33437 71.375 89.33437 70.421875L89.33437 66.84375L88.56875 66.84375L88.56875 66.03125L89.33437 66.03125L89.33437 64.484375L90.38125 63.859375L90.38125 66.03125L91.44375 66.03125L91.44375 66.84375L90.38125 66.84375L90.38125 70.484375Q90.38125 70.9375 90.42812 71.0625Q90.49062 71.1875 90.61562 71.265625Q90.74062 71.34375 90.975 71.34375Q91.1625 71.34375 91.44375 71.3125Z" fill-rule="nonzero"/><path fill="#9900ff" d="M34.35 92.25C34.35 95.563705 31.663708 98.25 28.35 98.25C25.036291 98.25 22.35 95.563705 22.35 92.25C22.35 88.936295 25.036291 86.25 28.35 86.25C31.663708 86.25 34.35 88.936295 34.35 92.25Z" fill-rule="nonzero"/><path fill="#1a1a1a" d="M44.771873 96.25L42.490623 87.65625L43.6625 87.65625L44.975 93.296875Q45.178123 94.171875 45.334373 95.046875Q45.6625 93.671875 45.725 93.453125L47.35 87.65625L48.725 87.65625L49.959373 92.0Q50.4125 93.625 50.63125 95.046875Q50.7875 94.234375 51.053123 93.171875L52.396873 87.65625L53.5375 87.65625L51.19375 96.25L50.084373 96.25L48.2875 89.703125Q48.053123 88.890625 48.00625 88.703125Q47.88125 89.28125 47.75625 89.703125L45.94375 96.25L44.771873 96.25ZM54.334373 96.25L54.334373 87.65625L60.13125 87.65625L60.13125 88.671875L55.475 88.671875L55.475 91.328125L59.50625 91.328125L59.50625 92.34375L55.475 92.34375L55.475 96.25L54.334373 96.25ZM63.459373 96.25L63.459373 88.671875L60.63125 88.671875L60.63125 87.65625L67.44375 87.65625L67.44375 88.671875L64.6 88.671875L64.6 96.25L63.459373 96.25ZM73.725 96.25L70.39687 87.65625L71.63125 87.65625L73.86562 93.90625Q74.13125 94.65625 74.31875 95.3125Q74.52187 94.609375 74.7875 93.90625L77.1 87.65625L78.25625 87.65625L74.89687 96.25L73.725 96.25ZM82.20937 95.484375Q81.61562 95.984375 81.06875 96.1875Q80.5375 96.390625 79.9125 96.390625Q78.88125 96.390625 78.33437 95.890625Q77.7875 95.390625 77.7875 94.609375Q77.7875 94.15625 77.99062 93.78125Q78.19375 93.390625 78.5375 93.171875Q78.88125 92.9375 79.30312 92.828125Q79.6 92.734375 80.24062 92.65625Q81.50625 92.515625 82.11562 92.296875Q82.11562 92.078125 82.11562 92.03125Q82.11562 91.375 81.81875 91.109375Q81.4125 90.765625 80.61562 90.765625Q79.88125 90.765625 79.52187 91.03125Q79.1625 91.28125 78.99062 91.9375L77.95937 91.796875Q78.1 91.140625 78.42812 90.734375Q78.75625 90.328125 79.36562 90.109375Q79.975 89.890625 80.77187 89.890625Q81.56875 89.890625 82.06875 90.078125Q82.56875 90.265625 82.80312 90.546875Q83.0375 90.828125 83.13125 91.265625Q83.17812 91.53125 83.17812 92.234375L83.17812 93.640625Q83.17812 95.109375 83.24062 95.5Q83.31875 95.890625 83.52187 96.25L82.4125 96.25Q82.25625 95.921875 82.20937 95.484375ZM82.11562 93.125Q81.5375 93.359375 80.39687 93.53125Q79.74062 93.625 79.475 93.75Q79.20937 93.859375 79.05312 94.078125Q78.9125 94.296875 78.9125 94.578125Q78.9125 95.0 79.225 95.28125Q79.55312 95.5625 80.1625 95.5625Q80.77187 95.5625 81.24062 95.296875Q81.725 95.03125 81.94375 94.5625Q82.11562 94.203125 82.11562 93.515625L82.11562 93.125ZM89.225 96.25L89.225 95.328125Q88.49062 96.390625 87.24062 96.390625Q86.69375 96.390625 86.20937 96.1875Q85.74062 95.96875 85.50625 95.65625Q85.27187 95.328125 85.17812 94.859375Q85.11562 94.5625 85.11562 93.875L85.11562 90.03125L86.17812 90.03125L86.17812 93.484375Q86.17812 94.296875 86.24062 94.59375Q86.33437 95.0 86.64687 95.25Q86.975 95.484375 87.45937 95.484375Q87.92812 95.484375 88.33437 95.25Q88.75625 95.0 88.92812 94.578125Q89.11562 94.15625 89.11562 93.359375L89.11562 90.03125L90.1625 90.03125L90.1625 96.25L89.225 96.25ZM92.11562 96.25L92.11562 87.65625L93.17812 87.65625L93.17812 96.25L92.11562 96.25ZM97.44375 95.3125L97.6 96.234375Q97.14687 96.328125 96.80312 96.328125Q96.225 96.328125 95.9125 96.15625Q95.6 95.96875 95.45937 95.671875Q95.33437 95.375 95.33437 94.421875L95.33437 90.84375L94.56875 90.84375L94.56875 90.03125L95.33437 90.03125L95.33437 88.484375L96.38125 87.859375L96.38125 90.03125L97.44375 90.03125L97.44375 90.84375L96.38125 90.84375L96.38125 94.484375Q96.38125 94.9375 96.42812 95.0625Q96.49062 95.1875 96.61562 95.265625Q96.74062 95.34375 96.975 95.34375Q97.1625 95.34375 97.44375 95.3125Z" fill-rule="nonzero"/><path fill="#00ff00" d="M34.35 116.25C34.35 119.563705 31.663708 122.25 28.35 122.25C25.036291 122.25 22.35 119.563705 22.35 116.25C22.35 112.936295 25.036291 110.25 28.35 110.25C31.663708 110.25 34.35 112.936295 34.35 116.25Z" fill-rule="nonzero"/><path fill="#1a1a1a" d="M47.178123 120.25L47.178123 119.46875Q46.584373 120.390625 45.44375 120.390625Q44.69375 120.390625 44.06875 119.984375Q43.44375 119.5625 43.1 118.828125Q42.75625 118.09375 42.75625 117.140625Q42.75625 116.21875 43.06875 115.453125Q43.38125 114.6875 44.00625 114.296875Q44.63125 113.890625 45.396873 113.890625Q45.959373 113.890625 46.396873 114.125Q46.834373 114.359375 47.115623 114.734375L47.115623 111.65625L48.1625 111.65625L48.1625 120.25L47.178123 120.25ZM43.85 117.140625Q43.85 118.34375 44.35 118.9375Q44.85 119.515625 45.5375 119.515625Q46.225 119.515625 46.709373 118.953125Q47.19375 118.390625 47.19375 117.234375Q47.19375 115.953125 46.69375 115.359375Q46.209373 114.765625 45.490623 114.765625Q44.7875 114.765625 44.31875 115.34375Q43.85 115.90625 43.85 117.140625ZM54.303123 116.875L54.303123 115.875L57.928123 115.859375L57.928123 119.046875Q57.1 119.71875 56.209373 120.0625Q55.31875 120.390625 54.38125 120.390625Q53.115623 120.390625 52.06875 119.859375Q51.0375 119.3125 50.50625 118.296875Q49.990623 117.265625 49.990623 116.0Q49.990623 114.734375 50.50625 113.65625Q51.0375 112.5625 52.021873 112.046875Q53.00625 111.515625 54.2875 111.515625Q55.225 111.515625 55.975 111.8125Q56.725 112.109375 57.146873 112.65625Q57.584373 113.1875 57.803123 114.0625L56.7875 114.34375Q56.584373 113.6875 56.2875 113.3125Q56.00625 112.9375 55.475 112.71875Q54.94375 112.484375 54.303123 112.484375Q53.521873 112.484375 52.94375 112.71875Q52.38125 112.953125 52.021873 113.34375Q51.678123 113.734375 51.490623 114.203125Q51.1625 115.0 51.1625 115.921875Q51.1625 117.078125 51.553123 117.859375Q51.959373 118.625 52.709373 119.0Q53.459373 119.375 54.31875 119.375Q55.053123 119.375 55.75625 119.09375Q56.459373 118.796875 56.81875 118.484375L56.81875 116.875L54.303123 116.875ZM63.225 120.25L63.225 119.328125Q62.490623 120.390625 61.240623 120.390625Q60.69375 120.390625 60.209373 120.1875Q59.740623 119.96875 59.50625 119.65625Q59.271873 119.328125 59.178123 118.859375Q59.115623 118.5625 59.115623 117.875L59.115623 114.03125L60.178123 114.03125L60.178123 117.484375Q60.178123 118.296875 60.240623 118.59375Q60.334373 119.0 60.646873 119.25Q60.975 119.484375 61.459373 119.484375Q61.928123 119.484375 62.334373 119.25Q62.75625 119.0 62.928123 118.578125Q63.115623 118.15625 63.115623 117.359375L63.115623 114.03125L64.1625 114.03125L64.1625 120.25L63.225 120.25ZM66.14687 112.875L66.14687 111.65625L67.20937 111.65625L67.20937 112.875L66.14687 112.875ZM66.14687 120.25L66.14687 114.03125L67.20937 114.03125L67.20937 120.25L66.14687 120.25ZM69.11562 120.25L69.11562 111.65625L70.17812 111.65625L70.17812 120.25L69.11562 120.25ZM76.17812 120.25L76.17812 119.46875Q75.58437 120.390625 74.44375 120.390625Q73.69375 120.390625 73.06875 119.984375Q72.44375 119.5625 72.1 118.828125Q71.75625 118.09375 71.75625 117.140625Q71.75625 116.21875 72.06875 115.453125Q72.38125 114.6875 73.00625 114.296875Q73.63125 113.890625 74.39687 113.890625Q74.95937 113.890625 75.39687 114.125Q75.83437 114.359375 76.11562 114.734375L76.11562 111.65625L77.1625 111.65625L77.1625 120.25L76.17812 120.25ZM72.85 117.140625Q72.85 118.34375 73.35 118.9375Q73.85 119.515625 74.5375 119.515625Q75.225 119.515625 75.70937 118.953125Q76.19375 118.390625 76.19375 117.234375Q76.19375 115.953125 75.69375 115.359375Q75.20937 114.765625 74.49062 114.765625Q73.7875 114.765625 73.31875 115.34375Q72.85 115.90625 72.85 117.140625ZM84.725 120.25L81.39687 111.65625L82.63125 111.65625L84.86562 117.90625Q85.13125 118.65625 85.31875 119.3125Q85.52187 118.609375 85.7875 117.90625L88.1 111.65625L89.25625 111.65625L85.89687 120.25L84.725 120.25ZM93.20937 119.484375Q92.61562 119.984375 92.06875 120.1875Q91.5375 120.390625 90.9125 120.390625Q89.88125 120.390625 89.33437 119.890625Q88.7875 119.390625 88.7875 118.609375Q88.7875 118.15625 88.99062 117.78125Q89.19375 117.390625 89.5375 117.171875Q89.88125 116.9375 90.30312 116.828125Q90.6 116.734375 91.24062 116.65625Q92.50625 116.515625 93.11562 116.296875Q93.11562 116.078125 93.11562 116.03125Q93.11562 115.375 92.81875 115.109375Q92.4125 114.765625 91.61562 114.765625Q90.88125 114.765625 90.52187 115.03125Q90.1625 115.28125 89.99062 115.9375L88.95937 115.796875Q89.1 115.140625 89.42812 114.734375Q89.75625 114.328125 90.36562 114.109375Q90.975 113.890625 91.77187 113.890625Q92.56875 113.890625 93.06875 114.078125Q93.56875 114.265625 93.80312 114.546875Q94.0375 114.828125 94.13125 115.265625Q94.17812 115.53125 94.17812 116.234375L94.17812 117.640625Q94.17812 119.109375 94.24062 119.5Q94.31875 119.890625 94.52187 120.25L93.4125 120.25Q93.25625 119.921875 93.20937 119.484375ZM93.11562 117.125Q92.5375 117.359375 91.39687 117.53125Q90.74062 117.625 90.475 117.75Q90.20937 117.859375 90.05312 118.078125Q89.9125 118.296875 89.9125 118.578125Q89.9125 119.0 90.225 119.28125Q90.55312 119.5625 91.1625 119.5625Q91.77187 119.5625 92.24062 119.296875Q92.725 119.03125 92.94375 118.5625Q93.11562 118.203125 93.11562 117.515625L93.11562 117.125ZM100.225 120.25L100.225 119.328125Q99.49062 120.390625 98.24062 120.390625Q97.69375 120.390625 97.20937 120.1875Q96.74062 119.96875 96.50625 119.65625Q96.27187 119.328125 96.17812 118.859375Q96.11562 118.5625 96.11562 117.875L96.11562 114.03125L97.17812 114.03125L97.17812 117.484375Q97.17812 118.296875 97.24062 118.59375Q97.33437 119.0 97.64687 119.25Q97.975 119.484375 98.45937 119.484375Q98.92812 119.484375 99.33437 119.25Q99.75625 119.0 99.92812 118.578125Q100.11562 118.15625 100.11562 117.359375L100.11562 114.03125L101.1625 114.03125L101.1625 120.25L100.225 120.25ZM103.11562 120.25L103.11562 111.65625L104.17812 111.65625L104.17812 120.25L103.11562 120.25ZM108.44375 119.3125L108.6 120.234375Q108.14687 120.328125 107.80312 120.328125Q107.225 120.328125 106.9125 120.15625Q106.6 119.96875 106.45937 119.671875Q106.33437 119.375 106.33437 118.421875L106.33437 114.84375L105.56875 114.84375L105.56875 114.03125L106.33437 114.03125L106.33437 112.484375L107.38125 111.859375L107.38125 114.03125L108.44375 114.03125L108.44375 114.84375L107.38125 114.84375L107.38125 118.484375Q107.38125 118.9375 107.42812 119.0625Q107.49062 119.1875 107.61562 119.265625Q107.74062 119.34375 107.975 119.34375Q108.1625 119.34375 108.44375 119.3125Z" fill-rule="nonzero"/><path fill="#757575" d="M27.990625 41.35L22.44375 27.037498L24.490625 27.037498L28.209375 37.428123Q28.6625 38.678123 28.959375 39.771873Q29.2875 38.6 29.740625 37.428123L33.6 27.037498L35.5375 27.037498L29.928125 41.35L27.990625 41.35ZM43.44375 40.06875Q42.459373 40.896873 41.553123 41.240623Q40.646873 41.584373 39.615623 41.584373Q37.9125 41.584373 36.990623 40.75625Q36.06875 39.9125 36.06875 38.615623Q36.06875 37.85 36.4125 37.225Q36.771873 36.6 37.334373 36.225Q37.896873 35.834373 38.6 35.63125Q39.115623 35.50625 40.1625 35.365623Q42.2875 35.115623 43.2875 34.771873Q43.303123 34.4125 43.303123 34.303123Q43.303123 33.240623 42.803123 32.7875Q42.13125 32.19375 40.803123 32.19375Q39.553123 32.19375 38.959373 32.63125Q38.38125 33.06875 38.1 34.178123L36.38125 33.94375Q36.615623 32.834373 37.146873 32.1625Q37.678123 31.474998 38.69375 31.115623Q39.709373 30.740623 41.053123 30.740623Q42.38125 30.740623 43.209373 31.053123Q44.0375 31.365623 44.428123 31.849998Q44.81875 32.31875 44.975 33.0375Q45.06875 33.490623 45.06875 34.6625L45.06875 37.00625Q45.06875 39.459373 45.178123 40.115623Q45.2875 40.75625 45.63125 41.35L43.7875 41.35Q43.521873 40.803123 43.44375 40.06875ZM43.2875 36.146873Q42.334373 36.5375 40.4125 36.803123Q39.334373 36.959373 38.88125 37.1625Q38.44375 37.35 38.19375 37.725Q37.94375 38.1 37.94375 38.56875Q37.94375 39.271873 38.475 39.740623Q39.00625 40.209373 40.0375 40.209373Q41.053123 40.209373 41.834373 39.771873Q42.63125 39.31875 43.00625 38.553123Q43.2875 37.94375 43.2875 36.7875L43.2875 36.146873ZM47.63125 41.35L47.63125 27.037498L49.38125 27.037498L49.38125 41.35L47.63125 41.35ZM58.459373 41.35L58.459373 39.81875Q57.25625 41.584373 55.178123 41.584373Q54.25625 41.584373 53.459373 41.240623Q52.6625 40.88125 52.271873 40.35Q51.896873 39.81875 51.740623 39.0375Q51.63125 38.521873 51.63125 37.396873L51.63125 30.974998L53.38125 30.974998L53.38125 36.725Q53.38125 38.1 53.490623 38.584373Q53.6625 39.271873 54.19375 39.678123Q54.740623 40.06875 55.521873 40.06875Q56.31875 40.06875 57.00625 39.6625Q57.709373 39.25625 57.990623 38.56875Q58.2875 37.865623 58.2875 36.5375L58.2875 30.974998L60.0375 30.974998L60.0375 41.35L58.459373 41.35ZM68.77187 38.00625L70.58437 38.240623Q70.1625 39.81875 68.99062 40.709373Q67.83437 41.584373 66.02187 41.584373Q63.75625 41.584373 62.4125 40.19375Q61.084373 38.7875 61.084373 36.25625Q61.084373 33.63125 62.428123 32.19375Q63.771873 30.740623 65.92812 30.740623Q68.00625 30.740623 69.31875 32.1625Q70.64687 33.56875 70.64687 36.146873Q70.64687 36.303123 70.63125 36.615623L62.896873 36.615623Q62.990623 38.31875 63.865623 39.225Q64.74062 40.13125 66.0375 40.13125Q67.00625 40.13125 67.67812 39.63125Q68.36562 39.115623 68.77187 38.00625ZM62.990623 35.1625L68.7875 35.1625Q68.67812 33.865623 68.13125 33.209373Q67.2875 32.19375 65.94375 32.19375Q64.74062 32.19375 63.9125 33.00625Q63.084373 33.803123 62.990623 35.1625ZM77.95937 38.25625L79.70937 37.975Q79.85 39.021873 80.52187 39.584373Q81.19375 40.13125 82.39687 40.13125Q83.6 40.13125 84.17812 39.646873Q84.77187 39.146873 84.77187 38.490623Q84.77187 37.896873 84.25625 37.553123Q83.89687 37.31875 82.45937 36.959373Q80.52187 36.459373 79.77187 36.115623Q79.0375 35.75625 78.64687 35.13125Q78.25625 34.490623 78.25625 33.725Q78.25625 33.0375 78.56875 32.44375Q78.89687 31.849998 79.44375 31.459373Q79.85 31.162498 80.55312 30.959373Q81.27187 30.740623 82.08437 30.740623Q83.30312 30.740623 84.225 31.099998Q85.14687 31.443748 85.58437 32.053123Q86.02187 32.646873 86.19375 33.646873L84.475 33.88125Q84.35 33.084373 83.7875 32.646873Q83.225 32.19375 82.20937 32.19375Q80.99062 32.19375 80.475 32.6Q79.95937 32.990623 79.95937 33.521873Q79.95937 33.865623 80.17812 34.146873Q80.38125 34.428123 80.85 34.615623Q81.11562 34.709373 82.39687 35.053123Q84.27187 35.553123 85.00625 35.88125Q85.74062 36.19375 86.1625 36.803123Q86.58437 37.396873 86.58437 38.303123Q86.58437 39.178123 86.06875 39.959373Q85.55312 40.740623 84.58437 41.1625Q83.61562 41.584373 82.39687 41.584373Q80.38125 41.584373 79.31875 40.740623Q78.25625 39.896873 77.95937 38.25625ZM92.50625 39.771873L92.75625 41.334373Q92.02187 41.490623 91.42812 41.490623Q90.475 41.490623 89.94375 41.19375Q89.42812 40.88125 89.20937 40.396873Q88.99062 39.896873 88.99062 38.31875L88.99062 32.35L87.70937 32.35L87.70937 30.974998L88.99062 30.974998L88.99062 28.412498L90.74062 27.349998L90.74062 30.974998L92.50625 30.974998L92.50625 32.35L90.74062 32.35L90.74062 38.4125Q90.74062 39.1625 90.83437 39.38125Q90.92812 39.584373 91.13125 39.725Q91.35 39.85 91.74062 39.85Q92.02187 39.85 92.50625 39.771873ZM94.02187 36.1625Q94.02187 33.2875 95.61562 31.896873Q96.95937 30.740623 98.88125 30.740623Q101.02187 30.740623 102.36562 32.146873Q103.725 33.553123 103.725 36.021873Q103.725 38.021873 103.13125 39.178123Q102.5375 40.31875 101.38125 40.959373Q100.24062 41.584373 98.88125 41.584373Q96.69375 41.584373 95.35 40.19375Q94.02187 38.7875 94.02187 36.1625ZM95.81875 36.1625Q95.81875 38.1625 96.67812 39.146873Q97.55312 40.13125 98.88125 40.13125Q100.19375 40.13125 101.05312 39.146873Q101.92812 38.146873 101.92812 36.1Q101.92812 34.178123 101.05312 33.19375Q100.17812 32.19375 98.88125 32.19375Q97.55312 32.19375 96.67812 33.19375Q95.81875 34.178123 95.81875 36.1625ZM105.64687 41.35L105.64687 30.974998L107.225 30.974998L107.225 32.553123Q107.83437 31.443748 108.35 31.099998Q108.86562 30.740623 109.475 30.740623Q110.36562 30.740623 111.2875 31.303123L110.67812 32.94375Q110.0375 32.553123 109.39687 32.553123Q108.81875 32.553123 108.35 32.9125Q107.89687 33.25625 107.69375 33.865623Q107.4125 34.803123 107.4125 35.9125L107.4125 41.35L105.64687 41.35ZM119.44375 40.06875Q118.45937 40.896873 117.55312 41.240623Q116.64687 41.584373 115.61562 41.584373Q113.9125 41.584373 112.99062 40.75625Q112.06875 39.9125 112.06875 38.615623Q112.06875 37.85 112.4125 37.225Q112.77187 36.6 113.33437 36.225Q113.89687 35.834373 114.6 35.63125Q115.11562 35.50625 116.1625 35.365623Q118.2875 35.115623 119.2875 34.771873Q119.30312 34.4125 119.30312 34.303123Q119.30312 33.240623 118.80312 32.7875Q118.13125 32.19375 116.80312 32.19375Q115.55312 32.19375 114.95937 32.63125Q114.38125 33.06875 114.1 34.178123L112.38125 33.94375Q112.61562 32.834373 113.14687 32.1625Q113.67812 31.474998 114.69375 31.115623Q115.70937 30.740623 117.05312 30.740623Q118.38125 30.740623 119.20937 31.053123Q120.0375 31.365623 120.42812 31.849998Q120.81875 32.31875 120.975 33.0375Q121.06875 33.490623 121.06875 34.6625L121.06875 37.00625Q121.06875 39.459373 121.17812 40.115623Q121.2875 40.75625 121.63125 41.35L119.7875 41.35Q119.52187 40.803123 119.44375 40.06875ZM119.2875 36.146873Q118.33437 36.5375 116.4125 36.803123Q115.33437 36.959373 114.88125 37.1625Q114.44375 37.35 114.19375 37.725Q113.94375 38.1 113.94375 38.56875Q113.94375 39.271873 114.475 39.740623Q115.00625 40.209373 116.0375 40.209373Q117.05312 40.209373 117.83437 39.771873Q118.63125 39.31875 119.00625 38.553123Q119.2875 37.94375 119.2875 36.7875L119.2875 36.146873ZM123.35 42.209373L125.05312 42.459373Q125.1625 43.25625 125.64687 43.615623Q126.30312 44.1 127.44375 44.1Q128.6625 44.1 129.31876 43.615623Q129.99063 43.13125 130.225 42.25625Q130.36563 41.709373 130.35 39.990623Q129.19376 41.35 127.475 41.35Q125.33437 41.35 124.1625 39.803123Q122.99062 38.25625 122.99062 36.1Q122.99062 34.615623 123.52187 33.365623Q124.06875 32.115623 125.08437 31.428123Q126.11562 30.740623 127.49062 30.740623Q129.31876 30.740623 130.52188 32.225L130.52188 30.974998L132.13126 30.974998L132.13126 39.94375Q132.13126 42.365623 131.63126 43.365623Q131.14688 44.38125 130.06876 44.959373Q129.00626 45.553123 127.44375 45.553123Q125.6 45.553123 124.44375 44.725Q123.30312 43.896873 123.35 42.209373ZM124.80312 35.975Q124.80312 38.021873 125.61562 38.959373Q126.42812 39.896873 127.64687 39.896873Q128.85 39.896873 129.6625 38.959373Q130.49063 38.021873 130.49063 36.0375Q130.49063 34.13125 129.64688 33.1625Q128.80313 32.19375 127.61562 32.19375Q126.44375 32.19375 125.61562 33.146873Q124.80312 34.1 124.80312 35.975ZM141.77188 38.00625L143.58438 38.240623Q143.1625 39.81875 141.99063 40.709373Q140.83438 41.584373 139.02188 41.584373Q136.75626 41.584373 135.4125 40.19375Q134.08438 38.7875 134.08438 36.25625Q134.08438 33.63125 135.42813 32.19375Q136.77188 30.740623 138.92813 30.740623Q141.00626 30.740623 142.31876 32.1625Q143.64688 33.56875 143.64688 36.146873Q143.64688 36.303123 143.63126 36.615623L135.89688 36.615623Q135.99063 38.31875 136.86563 39.225Q137.74063 40.13125 139.0375 40.13125Q140.00626 40.13125 140.67813 39.63125Q141.36563 39.115623 141.77188 38.00625ZM135.99063 35.1625L141.7875 35.1625Q141.67813 33.865623 141.13126 33.209373Q140.2875 32.19375 138.94376 32.19375Q137.74063 32.19375 136.9125 33.00625Q136.08438 33.803123 135.99063 35.1625ZM158.44376 40.06875Q157.45938 40.896873 156.55313 41.240623Q155.64688 41.584373 154.61563 41.584373Q152.9125 41.584373 151.99063 40.75625Q151.06876 39.9125 151.06876 38.615623Q151.06876 37.85 151.4125 37.225Q151.77188 36.6 152.33438 36.225Q152.89688 35.834373 153.6 35.63125Q154.11563 35.50625 155.1625 35.365623Q157.2875 35.115623 158.2875 34.771873Q158.30313 34.4125 158.30313 34.303123Q158.30313 33.240623 157.80313 32.7875Q157.13126 32.19375 155.80313 32.19375Q154.55313 32.19375 153.95938 32.63125Q153.38126 33.06875 153.1 34.178123L151.38126 33.94375Q151.61563 32.834373 152.14688 32.1625Q152.67813 31.474998 153.69376 31.115623Q154.70938 30.740623 156.05313 30.740623Q157.38126 30.740623 158.20938 31.053123Q159.0375 31.365623 159.42813 31.849998Q159.81876 32.31875 159.975 33.0375Q160.06876 33.490623 160.06876 34.6625L160.06876 37.00625Q160.06876 39.459373 160.17813 40.115623Q160.2875 40.75625 160.63126 41.35L158.7875 41.35Q158.52188 40.803123 158.44376 40.06875ZM158.2875 36.146873Q157.33438 36.5375 155.4125 36.803123Q154.33438 36.959373 153.88126 37.1625Q153.44376 37.35 153.19376 37.725Q152.94376 38.1 152.94376 38.56875Q152.94376 39.271873 153.475 39.740623Q154.00626 40.209373 155.0375 40.209373Q156.05313 40.209373 156.83438 39.771873Q157.63126 39.31875 158.00626 38.553123Q158.2875 37.94375 158.2875 36.7875L158.2875 36.146873ZM166.50626 39.771873L166.75626 41.334373Q166.02188 41.490623 165.42813 41.490623Q164.475 41.490623 163.94376 41.19375Q163.42813 40.88125 163.20938 40.396873Q162.99063 39.896873 162.99063 38.31875L162.99063 32.35L161.70938 32.35L161.70938 30.974998L162.99063 30.974998L162.99063 28.412498L164.74063 27.349998L164.74063 30.974998L166.50626 30.974998L166.50626 32.35L164.74063 32.35L164.74063 38.4125Q164.74063 39.1625 164.83438 39.38125Q164.92813 39.584373 165.13126 39.725Q165.35 39.85 165.74063 39.85Q166.02188 39.85 166.50626 39.771873ZM174.88126 41.35L174.88126 27.037498L176.81876 27.037498L184.33438 38.271873L184.33438 27.037498L186.14688 27.037498L186.14688 41.35L184.20938 41.35L176.69376 30.099998L176.69376 41.35L174.88126 41.35ZM187.99063 41.35L187.99063 27.037498L197.64688 27.037498L197.64688 28.724998L189.88126 28.724998L189.88126 33.1625L196.6 33.1625L196.6 34.85L189.88126 34.85L189.88126 41.35L187.99063 41.35ZM203.5375 41.35L203.5375 28.724998L198.81876 28.724998L198.81876 27.037498L210.1625 27.037498L210.1625 28.724998L205.42813 28.724998L205.42813 41.35L203.5375 41.35ZM216.95938 38.25625L218.70938 37.975Q218.85 39.021873 219.52188 39.584373Q220.19376 40.13125 221.39688 40.13125Q222.6 40.13125 223.17813 39.646873Q223.77188 39.146873 223.77188 38.490623Q223.77188 37.896873 223.25626 37.553123Q222.89688 37.31875 221.45938 36.959373Q219.52188 36.459373 218.77188 36.115623Q218.0375 35.75625 217.64688 35.13125Q217.25626 34.490623 217.25626 33.725Q217.25626 33.0375 217.56876 32.44375Q217.89688 31.849998 218.44376 31.459373Q218.85 31.162498 219.55313 30.959373Q220.27188 30.740623 221.08438 30.740623Q222.30313 30.740623 223.225 31.099998Q224.14688 31.443748 224.58438 32.053123Q225.02188 32.646873 225.19376 33.646873L223.475 33.88125Q223.35 33.084373 222.7875 32.646873Q222.225 32.19375 221.20938 32.19375Q219.99063 32.19375 219.475 32.6Q218.95938 32.990623 218.95938 33.521873Q218.95938 33.865623 219.17813 34.146873Q219.38126 34.428123 219.85 34.615623Q220.11563 34.709373 221.39688 35.053123Q223.27188 35.553123 224.00626 35.88125Q224.74063 36.19375 225.1625 36.803123Q225.58438 37.396873 225.58438 38.303123Q225.58438 39.178123 225.06876 39.959373Q224.55313 40.740623 223.58438 41.1625Q222.61563 41.584373 221.39688 41.584373Q219.38126 41.584373 218.31876 40.740623Q217.25626 39.896873 216.95938 38.25625ZM234.44376 40.06875Q233.45938 40.896873 232.55313 41.240623Q231.64688 41.584373 230.61563 41.584373Q228.9125 41.584373 227.99063 40.75625Q227.06876 39.9125 227.06876 38.615623Q227.06876 37.85 227.4125 37.225Q227.77188 36.6 228.33438 36.225Q228.89688 35.834373 229.6 35.63125Q230.11563 35.50625 231.1625 35.365623Q233.2875 35.115623 234.2875 34.771873Q234.30313 34.4125 234.30313 34.303123Q234.30313 33.240623 233.80313 32.7875Q233.13126 32.19375 231.80313 32.19375Q230.55313 32.19375 229.95938 32.63125Q229.38126 33.06875 229.1 34.178123L227.38126 33.94375Q227.61563 32.834373 228.14688 32.1625Q228.67813 31.474998 229.69376 31.115623Q230.70938 30.740623 232.05313 30.740623Q233.38126 30.740623 234.20938 31.053123Q235.0375 31.365623 235.42813 31.849998Q235.81876 32.31875 235.975 33.0375Q236.06876 33.490623 236.06876 34.6625L236.06876 37.00625Q236.06876 39.459373 236.17813 40.115623Q236.2875 40.75625 236.63126 41.35L234.7875 41.35Q234.52188 40.803123 234.44376 40.06875ZM234.2875 36.146873Q233.33438 36.5375 231.4125 36.803123Q230.33438 36.959373 229.88126 37.1625Q229.44376 37.35 229.19376 37.725Q228.94376 38.1 228.94376 38.56875Q228.94376 39.271873 229.475 39.740623Q230.00626 40.209373 231.0375 40.209373Q232.05313 40.209373 232.83438 39.771873Q233.63126 39.31875 234.00626 38.553123Q234.2875 37.94375 234.2875 36.7875L234.2875 36.146873ZM238.63126 41.35L238.63126 27.037498L240.38126 27.037498L240.38126 41.35L238.63126 41.35ZM249.77188 38.00625L251.58438 38.240623Q251.1625 39.81875 249.99063 40.709373Q248.83438 41.584373 247.02188 41.584373Q244.75626 41.584373 243.4125 40.19375Q242.08438 38.7875 242.08438 36.25625Q242.08438 33.63125 243.42813 32.19375Q244.77188 30.740623 246.92813 30.740623Q249.00626 30.740623 250.31876 32.1625Q251.64688 33.56875 251.64688 36.146873Q251.64688 36.303123 251.63126 36.615623L243.89688 36.615623Q243.99063 38.31875 244.86563 39.225Q245.74063 40.13125 247.0375 40.13125Q248.00626 40.13125 248.67813 39.63125Q249.36563 39.115623 249.77188 38.00625ZM243.99063 35.1625L249.7875 35.1625Q249.67813 33.865623 249.13126 33.209373Q248.2875 32.19375 246.94376 32.19375Q245.74063 32.19375 244.9125 33.00625Q244.08438 33.803123 243.99063 35.1625ZM252.95938 38.25625L254.70938 37.975Q254.85 39.021873 255.52188 39.584373Q256.19376 40.13125 257.39688 40.13125Q258.6 40.13125 259.17813 39.646873Q259.77188 39.146873 259.77188 38.490623Q259.77188 37.896873 259.25626 37.553123Q258.89688 37.31875 257.45938 36.959373Q255.52188 36.459373 254.77188 36.115623Q254.0375 35.75625 253.64688 35.13125Q253.25626 34.490623 253.25626 33.725Q253.25626 33.0375 253.56876 32.44375Q253.89688 31.849998 254.44376 31.459373Q254.85 31.162498 255.55313 30.959373Q256.27188 30.740623 257.08438 30.740623Q258.30313 30.740623 259.225 31.099998Q260.14688 31.443748 260.58438 32.053123Q261.02188 32.646873 261.19376 33.646873L259.475 33.88125Q259.35 33.084373 258.7875 32.646873Q258.225 32.19375 257.20938 32.19375Q255.99063 32.19375 255.475 32.6Q254.95938 32.990623 254.95938 33.521873Q254.95938 33.865623 255.17813 34.146873Q255.38126 34.428123 255.85 34.615623Q256.11563 34.709373 257.39688 35.053123Q259.27188 35.553123 260.00626 35.88125Q260.74063 36.19375 261.1625 36.803123Q261.58438 37.396873 261.58438 38.303123Q261.58438 39.178123 261.06876 39.959373Q260.55313 40.740623 259.58438 41.1625Q258.61563 41.584373 257.39688 41.584373Q255.38126 41.584373 254.31876 40.740623Q253.25626 39.896873 252.95938 38.25625Z" fill-rule="nonzero"/></svg>