<svg version="1.1" viewBox="0.0 0.0 656.0 447.0" fill="none" stroke="none" stroke-linecap="square" stroke-miterlimit="10" width="656" height="447" xmlns:xlink="http://www.w3.org/1999/xlink" xmlns="http://www.w3.org/2000/svg"><path fill="#ffffff" d="M0 0L656.0 0L656.0 447.0L0 447.0L0 0Z" fill-rule="nonzero"/><path fill="#00b300" d="M325.7412 182.30061L215.49243 126.230316L215.49243 153.48532L325.7412 209.55562Z" fill-rule="nonzero"/><path fill="#00b300" d="M325.7412 182.30061C334.28806 174.06601 347.95004 169.19322 362.4908 169.19322L362.4908 196.44823C347.95004 196.44823 334.28806 201.32101 325.7412 209.55562Z" fill-rule="nonzero"/><path fill="#00ff00" d="M215.49243 126.230316C249.67982 93.29187 304.32773 73.80072 362.4908 73.80072L362.4908 169.19322C347.95004 169.19322 334.28806 174.06601 325.7412 182.30061Z" fill-rule="nonzero"/><path fill="#6b00b3" d="M295.04584 234.17424L165.44063 263.65216L165.44063 290.90714L295.04584 261.42923Z" fill-rule="nonzero"/><path fill="#6b00b3" d="M165.44063 290.90714C159.54866 278.21362 156.54759 264.95004 156.54759 251.60327L156.54759 224.34828C156.54759 237.69504 159.54866 250.95862 165.44063 263.65216Z" fill-rule="nonzero"/><path fill="#6b00b3" d="M292.8226 224.34828C292.8226 217.6333 295.85947 211.0907 301.498 205.65817L301.498 232.91318C295.85947 238.3457 292.8226 244.8883 292.8226 251.60327Z" fill-rule="nonzero"/><path fill="#9900ff" d="M165.44063 263.65216C147.46724 224.93068 157.0618 182.5263 191.2492 149.58788L301.498 205.65817C292.95114 213.89279 290.5525 224.49388 295.04584 234.17424Z" fill-rule="nonzero"/><path fill="#0000b3" d="M564.81335 256.5775C564.81335 319.14133 499.814 372.41443 411.53748 382.20157C323.26096 391.9887 237.92534 355.38312 210.30637 295.88138L210.30637 268.62637C237.92534 328.1281 323.26096 364.7337 411.53748 354.9466C499.814 345.15945 564.81335 291.88632 564.81335 229.3225Z" fill-rule="nonzero"/><path fill="#0000b3" d="M383.11334 197.525C408.20087 197.525 428.53833 211.76123 428.53833 229.3225L428.53833 256.5775C428.53833 239.01622 408.20087 224.78 383.11334 224.78Z" fill-rule="nonzero"/><path fill="#0000ff" d="M383.11334 102.1325C476.11078 102.1325 554.0971 151.28592 563.81793 216.02753C573.5388 280.76913 511.85614 340.19843 420.8909 353.7331C329.92566 367.26776 239.04416 330.53845 210.30637 268.62637L339.9116 239.14847C347.09604 254.6265 369.8164 263.8088 392.5577 260.42514C415.29904 257.04147 430.7197 242.18416 428.2895 225.99875C425.85928 209.81335 406.3627 197.525 383.11334 197.525Z" fill-rule="nonzero"/><path fill="#ffffff" d="M479.2096 281.41092L479.2096 279.61404L485.78772 279.61404L485.78772 281.0203Q484.9596 281.81717 484.11584 283.31717Q483.28772 284.80154 482.8346 286.48904Q482.3971 288.17654 482.41272 289.50467L480.55334 289.50467Q480.60022 287.42654 481.41272 285.2703Q482.22522 283.09842 483.5846 281.41092L479.2096 281.41092ZM490.4596 279.44217Q491.91272 279.44217 492.74084 280.47342Q493.7096 281.7078 493.7096 284.56717Q493.7096 287.41092 492.72522 288.6453Q491.91272 289.67654 490.4596 289.67654Q488.99084 289.67654 488.10022 288.55154Q487.2096 287.42654 487.2096 284.53592Q487.2096 281.7078 488.19397 280.47342Q489.00647 279.44217 490.4596 279.44217ZM490.4596 281.03592Q490.11584 281.03592 489.8346 281.25467Q489.56897 281.47342 489.41272 282.05154Q489.2096 282.80154 489.2096 284.56717Q489.2096 286.3328 489.38147 286.98904Q489.56897 287.6453 489.8346 287.86404Q490.11584 288.0828 490.4596 288.0828Q490.80334 288.0828 491.06897 287.86404Q491.35022 287.6453 491.50647 287.06717Q491.7096 286.3328 491.7096 284.56717Q491.7096 282.80154 491.5221 282.1453Q491.35022 281.47342 491.06897 281.25467Q490.80334 281.03592 490.4596 281.03592ZM495.22522 281.9578Q495.22522 280.61404 495.81897 279.97342Q496.41272 279.31717 497.41272 279.31717Q498.4596 279.31717 499.05334 279.9578Q499.6471 280.59842 499.6471 281.9578Q499.6471 283.30154 499.05334 283.9578Q498.4596 284.59842 497.4596 284.59842Q496.41272 284.59842 495.81897 283.9578Q495.22522 283.31717 495.22522 281.9578ZM496.72522 281.94217Q496.72522 282.92654 496.94397 283.25467Q497.11584 283.50467 497.41272 283.50467Q497.72522 283.50467 497.8971 283.25467Q498.11584 282.92654 498.11584 281.94217Q498.11584 280.97342 497.8971 280.6453Q497.72522 280.37967 497.41272 280.37967Q497.11584 280.37967 496.94397 280.62967Q496.72522 280.97342 496.72522 281.94217ZM498.88147 289.8953L497.4596 289.8953L502.80334 279.31717L504.17834 279.31717L498.88147 289.8953ZM501.99084 287.25467Q501.99084 285.91092 502.56897 285.2703Q503.16272 284.61404 504.19397 284.61404Q505.22522 284.61404 505.81897 285.2703Q506.41272 285.91092 506.41272 287.25467Q506.41272 288.61404 505.81897 289.2703Q505.22522 289.91092 504.2096 289.91092Q503.16272 289.91092 502.56897 289.2703Q501.99084 288.61404 501.99084 287.25467ZM503.47522 287.25467Q503.47522 288.22342 503.7096 288.55154Q503.88147 288.80154 504.17834 288.80154Q504.49084 288.80154 504.6471 288.56717Q504.88147 288.22342 504.88147 287.25467Q504.88147 286.2703 504.66272 285.94217Q504.49084 285.69217 504.17834 285.69217Q503.86584 285.69217 503.7096 285.94217Q503.47522 286.2703 503.47522 287.25467Z" fill-rule="nonzero"/><path fill="#ffffff" d="M190.29767 213.77498L188.3758 213.77498L188.3758 206.5406Q187.3133 207.52498 185.89142 207.99373L185.89142 206.24373Q186.64142 206.00935 187.51642 205.32185Q188.40704 204.63435 188.73517 203.71248L190.29767 203.71248L190.29767 213.77498ZM193.40704 211.19685L195.3133 210.99373Q195.40704 211.64998 195.79767 212.02498Q196.20392 212.39998 196.73517 212.39998Q197.32892 212.39998 197.7508 211.9156Q198.17267 211.43123 198.17267 210.44685Q198.17267 209.52498 197.7508 209.07185Q197.34454 208.6031 196.67267 208.6031Q195.84454 208.6031 195.1883 209.33748L193.64142 209.1031L194.6258 203.88435L199.70392 203.88435L199.70392 205.68123L196.07892 205.68123L195.78204 207.38435Q196.42267 207.07185 197.09454 207.07185Q198.36017 207.07185 199.2508 208.00935Q200.14142 208.93123 200.14142 210.4156Q200.14142 211.64998 199.42267 212.61873Q198.45392 213.94685 196.71954 213.94685Q195.32892 213.94685 194.45392 213.21248Q193.57892 212.46248 193.40704 211.19685ZM201.39142 206.2281Q201.39142 204.88435 201.98517 204.24373Q202.57892 203.58748 203.57892 203.58748Q204.6258 203.58748 205.21954 204.2281Q205.8133 204.86873 205.8133 206.2281Q205.8133 207.57185 205.21954 208.2281Q204.6258 208.86873 203.6258 208.86873Q202.57892 208.86873 201.98517 208.2281Q201.39142 207.58748 201.39142 206.2281ZM202.89142 206.21248Q202.89142 207.19685 203.11017 207.52498Q203.28204 207.77498 203.57892 207.77498Q203.89142 207.77498 204.0633 207.52498Q204.28204 207.19685 204.28204 206.21248Q204.28204 205.24373 204.0633 204.9156Q203.89142 204.64998 203.57892 204.64998Q203.28204 204.64998 203.11017 204.89998Q202.89142 205.24373 202.89142 206.21248ZM205.04767 214.1656L203.6258 214.1656L208.96954 203.58748L210.34454 203.58748L205.04767 214.1656ZM208.15704 211.52498Q208.15704 210.18123 208.73517 209.5406Q209.32892 208.88435 210.36017 208.88435Q211.39142 208.88435 211.98517 209.5406Q212.57892 210.18123 212.57892 211.52498Q212.57892 212.88435 211.98517 213.5406Q211.39142 214.18123 210.3758 214.18123Q209.32892 214.18123 208.73517 213.5406Q208.15704 212.88435 208.15704 211.52498ZM209.64142 211.52498Q209.64142 212.49373 209.8758 212.82185Q210.04767 213.07185 210.34454 213.07185Q210.65704 213.07185 210.8133 212.83748Q211.04767 212.49373 211.04767 211.52498Q211.04767 210.5406 210.82892 210.21248Q210.65704 209.96248 210.34454 209.96248Q210.03204 209.96248 209.8758 210.21248Q209.64142 210.5406 209.64142 211.52498Z" fill-rule="nonzero"/><path fill="#ffffff" d="M294.2094 122.4661L292.28754 122.4661L292.28754 115.23173Q291.22504 116.2161 289.80316 116.68485L289.80316 114.93485Q290.55316 114.70048 291.42816 114.01298Q292.3188 113.32548 292.6469 112.4036L294.2094 112.4036L294.2094 122.4661ZM297.3188 119.88798L299.22504 119.68485Q299.3188 120.3411 299.7094 120.7161Q300.11566 121.0911 300.6469 121.0911Q301.24066 121.0911 301.66254 120.60673Q302.0844 120.12235 302.0844 119.13798Q302.0844 118.2161 301.66254 117.76298Q301.2563 117.29423 300.5844 117.29423Q299.7563 117.29423 299.10004 118.0286L297.55316 117.79423L298.53754 112.57548L303.61566 112.57548L303.61566 114.37235L299.99066 114.37235L299.6938 116.07548Q300.3344 115.76298 301.0063 115.76298Q302.2719 115.76298 303.16254 116.70048Q304.05316 117.62235 304.05316 119.10673Q304.05316 120.3411 303.3344 121.30985Q302.36566 122.63798 300.6313 122.63798Q299.24066 122.63798 298.36566 121.9036Q297.49066 121.1536 297.3188 119.88798ZM305.30316 114.91923Q305.30316 113.57548 305.8969 112.93485Q306.49066 112.2786 307.49066 112.2786Q308.53754 112.2786 309.1313 112.91923Q309.72504 113.55985 309.72504 114.91923Q309.72504 116.26298 309.1313 116.91923Q308.53754 117.55985 307.53754 117.55985Q306.49066 117.55985 305.8969 116.91923Q305.30316 116.2786 305.30316 114.91923ZM306.80316 114.9036Q306.80316 115.88798 307.0219 116.2161Q307.1938 116.4661 307.49066 116.4661Q307.80316 116.4661 307.97504 116.2161Q308.1938 115.88798 308.1938 114.9036Q308.1938 113.93485 307.97504 113.60673Q307.80316 113.3411 307.49066 113.3411Q307.1938 113.3411 307.0219 113.5911Q306.80316 113.93485 306.80316 114.9036ZM308.9594 122.85673L307.53754 122.85673L312.8813 112.2786L314.2563 112.2786L308.9594 122.85673ZM312.0688 120.2161Q312.0688 118.87235 312.6469 118.23173Q313.24066 117.57548 314.2719 117.57548Q315.30316 117.57548 315.8969 118.23173Q316.49066 118.87235 316.49066 120.2161Q316.49066 121.57548 315.8969 122.23173Q315.30316 122.87235 314.28754 122.87235Q313.24066 122.87235 312.6469 122.23173Q312.0688 121.57548 312.0688 120.2161ZM313.55316 120.2161Q313.55316 121.18485 313.78754 121.51298Q313.9594 121.76298 314.2563 121.76298Q314.5688 121.76298 314.72504 121.5286Q314.9594 121.18485 314.9594 120.2161Q314.9594 119.23173 314.74066 118.9036Q314.5688 118.6536 314.2563 118.6536Q313.9438 118.6536 313.78754 118.9036Q313.55316 119.23173 313.55316 120.2161Z" fill-rule="nonzero"/><path fill="#0000ff" d="M34.35 68.25C34.35 71.563705 31.663708 74.25 28.35 74.25C25.036291 74.25 22.35 71.563705 22.35 68.25C22.35 64.936295 25.036291 62.25 28.35 62.25C31.663708 62.25 34.35 64.936295 34.35 68.25Z" fill-rule="nonzero"/><path fill="#1a1a1a" d="M43.475 72.25L43.475 63.65625L44.6 63.65625L44.6 72.25L43.475 72.25ZM46.271873 72.25L46.271873 63.65625L47.428123 63.65625L51.94375 70.40625L51.94375 63.65625L53.0375 63.65625L53.0375 72.25L51.865623 72.25L47.35 65.5L47.35 72.25L46.271873 72.25ZM57.459373 72.25L57.459373 64.671875L54.63125 64.671875L54.63125 63.65625L61.44375 63.65625L61.44375 64.671875L58.6 64.671875L58.6 72.25L57.459373 72.25ZM67.725 72.25L64.39687 63.65625L65.63125 63.65625L67.86562 69.90625Q68.13125 70.65625 68.31875 71.3125Q68.52187 70.609375 68.7875 69.90625L71.1 63.65625L72.25625 63.65625L68.89687 72.25L67.725 72.25ZM76.20937 71.484375Q75.61562 71.984375 75.06875 72.1875Q74.5375 72.390625 73.9125 72.390625Q72.88125 72.390625 72.33437 71.890625Q71.7875 71.390625 71.7875 70.609375Q71.7875 70.15625 71.99062 69.78125Q72.19375 69.390625 72.5375 69.171875Q72.88125 68.9375 73.30312 68.828125Q73.6 68.734375 74.24062 68.65625Q75.50625 68.515625 76.11562 68.296875Q76.11562 68.078125 76.11562 68.03125Q76.11562 67.375 75.81875 67.109375Q75.4125 66.765625 74.61562 66.765625Q73.88125 66.765625 73.52187 67.03125Q73.1625 67.28125 72.99062 67.9375L71.95937 67.796875Q72.1 67.140625 72.42812 66.734375Q72.75625 66.328125 73.36562 66.109375Q73.975 65.890625 74.77187 65.890625Q75.56875 65.890625 76.06875 66.078125Q76.56875 66.265625 76.80312 66.546875Q77.0375 66.828125 77.13125 67.265625Q77.17812 67.53125 77.17812 68.234375L77.17812 69.640625Q77.17812 71.109375 77.24062 71.5Q77.31875 71.890625 77.52187 72.25L76.4125 72.25Q76.25625 71.921875 76.20937 71.484375ZM76.11562 69.125Q75.5375 69.359375 74.39687 69.53125Q73.74062 69.625 73.475 69.75Q73.20937 69.859375 73.05312 70.078125Q72.9125 70.296875 72.9125 70.578125Q72.9125 71.0 73.225 71.28125Q73.55312 71.5625 74.1625 71.5625Q74.77187 71.5625 75.24062 71.296875Q75.725 71.03125 75.94375 70.5625Q76.11562 70.203125 76.11562 69.515625L76.11562 69.125ZM83.225 72.25L83.225 71.328125Q82.49062 72.390625 81.24062 72.390625Q80.69375 72.390625 80.20937 72.1875Q79.74062 71.96875 79.50625 71.65625Q79.27187 71.328125 79.17812 70.859375Q79.11562 70.5625 79.11562 69.875L79.11562 66.03125L80.17812 66.03125L80.17812 69.484375Q80.17812 70.296875 80.24062 70.59375Q80.33437 71.0 80.64687 71.25Q80.975 71.484375 81.45937 71.484375Q81.92812 71.484375 82.33437 71.25Q82.75625 71.0 82.92812 70.578125Q83.11562 70.15625 83.11562 69.359375L83.11562 66.03125L84.1625 66.03125L84.1625 72.25L83.225 72.25ZM86.11562 72.25L86.11562 63.65625L87.17812 63.65625L87.17812 72.25L86.11562 72.25ZM91.44375 71.3125L91.6 72.234375Q91.14687 72.328125 90.80312 72.328125Q90.225 72.328125 89.9125 72.15625Q89.6 71.96875 89.45937 71.671875Q89.33437 71.375 89.33437 70.421875L89.33437 66.84375L88.56875 66.84375L88.56875 66.03125L89.33437 66.03125L89.33437 64.484375L90.38125 63.859375L90.38125 66.03125L91.44375 66.03125L91.44375 66.84375L90.38125 66.84375L90.38125 70.484375Q90.38125 70.9375 90.42812 71.0625Q90.49062 71.1875 90.61562 71.265625Q90.74062 71.34375 90.975 71.34375Q91.1625 71.34375 91.44375 71.3125Z" fill-rule="nonzero"/><path fill="#9900ff" d="M34.35 92.25C34.35 95.563705 31.663708 98.25 28.35 98.25C25.036291 98.25 22.35 95.563705 22.35 92.25C22.35 88.936295 25.036291 86.25 28.35 86.25C31.663708 86.25 34.35 88.936295 34.35 92.25Z" fill-rule="nonzero"/><path fill="#1a1a1a" d="M44.771873 96.25L42.490623 87.65625L43.6625 87.65625L44.975 93.296875Q45.178123 94.171875 45.334373 95.046875Q45.6625 93.671875 45.725 93.453125L47.35 87.65625L48.725 87.65625L49.959373 92.0Q50.4125 93.625 50.63125 95.046875Q50.7875 94.234375 51.053123 93.171875L52.396873 87.65625L53.5375 87.65625L51.19375 96.25L50.084373 96.25L48.2875 89.703125Q48.053123 88.890625 48.00625 88.703125Q47.88125 89.28125 47.75625 89.703125L45.94375 96.25L44.771873 96.25ZM54.334373 96.25L54.334373 87.65625L60.13125 87.65625L60.13125 88.671875L55.475 88.671875L55.475 91.328125L59.50625 91.328125L59.50625 92.34375L55.475 92.34375L55.475 96.25L54.334373 96.25ZM63.459373 96.25L63.459373 88.671875L60.63125 88.671875L60.63125 87.65625L67.44375 87.65625L67.44375 88.671875L64.6 88.671875L64.6 96.25L63.459373 96.25ZM73.725 96.25L70.39687 87.65625L71.63125 87.65625L73.86562 93.90625Q74.13125 94.65625 74.31875 95.3125Q74.52187 94.609375 74.7875 93.90625L77.1 87.65625L78.25625 87.65625L74.89687 96.25L73.725 96.25ZM82.20937 95.484375Q81.61562 95.984375 81.06875 96.1875Q80.5375 96.390625 79.9125 96.390625Q78.88125 96.390625 78.33437 95.890625Q77.7875 95.390625 77.7875 94.609375Q77.7875 94.15625 77.99062 93.78125Q78.19375 93.390625 78.5375 93.171875Q78.88125 92.9375 79.30312 92.828125Q79.6 92.734375 80.24062 92.65625Q81.50625 92.515625 82.11562 92.296875Q82.11562 92.078125 82.11562 92.03125Q82.11562 91.375 81.81875 91.109375Q81.4125 90.765625 80.61562 90.765625Q79.88125 90.765625 79.52187 91.03125Q79.1625 91.28125 78.99062 91.9375L77.95937 91.796875Q78.1 91.140625 78.42812 90.734375Q78.75625 90.328125 79.36562 90.109375Q79.975 89.890625 80.77187 89.890625Q81.56875 89.890625 82.06875 90.078125Q82.56875 90.265625 82.80312 90.546875Q83.0375 90.828125 83.13125 91.265625Q83.17812 91.53125 83.17812 92.234375L83.17812 93.640625Q83.17812 95.109375 83.24062 95.5Q83.31875 95.890625 83.52187 96.25L82.4125 96.25Q82.25625 95.921875 82.20937 95.484375ZM82.11562 93.125Q81.5375 93.359375 80.39687 93.53125Q79.74062 93.625 79.475 93.75Q79.20937 93.859375 79.05312 94.078125Q78.9125 94.296875 78.9125 94.578125Q78.9125 95.0 79.225 95.28125Q79.55312 95.5625 80.1625 95.5625Q80.77187 95.5625 81.24062 95.296875Q81.725 95.03125 81.94375 94.5625Q82.11562 94.203125 82.11562 93.515625L82.11562 93.125ZM89.225 96.25L89.225 95.328125Q88.49062 96.390625 87.24062 96.390625Q86.69375 96.390625 86.20937 96.1875Q85.74062 95.96875 85.50625 95.65625Q85.27187 95.328125 85.17812 94.859375Q85.11562 94.5625 85.11562 93.875L85.11562 90.03125L86.17812 90.03125L86.17812 93.484375Q86.17812 94.296875 86.24062 94.59375Q86.33437 95.0 86.64687 95.25Q86.975 95.484375 87.45937 95.484375Q87.92812 95.484375 88.33437 95.25Q88.75625 95.0 88.92812 94.578125Q89.11562 94.15625 89.11562 93.359375L89.11562 90.03125L90.1625 90.03125L90.1625 96.25L89.225 96.25ZM92.11562 96.25L92.11562 87.65625L93.17812 87.65625L93.17812 96.25L92.11562 96.25ZM97.44375 95.3125L97.6 96.234375Q97.14687 96.328125 96.80312 96.328125Q96.225 96.328125 95.9125 96.15625Q95.6 95.96875 95.45937 95.671875Q95.33437 95.375 95.33437 94.421875L95.33437 90.84375L94.56875 90.84375L94.56875 90.03125L95.33437 90.03125L95.33437 88.484375L96.38125 87.859375L96.38125 90.03125L97.44375 90.03125L97.44375 90.84375L96.38125 90.84375L96.38125 94.484375Q96.38125 94.9375 96.42812 95.0625Q96.49062 95.1875 96.61562 95.265625Q96.74062 95.34375 96.975 95.34375Q97.1625 95.34375 97.44375 95.3125Z" fill-rule="nonzero"/><path fill="#00ff00" d="M34.35 116.25C34.35 119.563705 31.663708 122.25 28.35 122.25C25.036291 122.25 22.35 119.563705 22.35 116.25C22.35 112.936295 25.036291 110.25 28.35 110.25C31.663708 110.25 34.35 112.936295 34.35 116.25Z" fill-rule="nonzero"/><path fill="#1a1a1a" d="M47.178123 120.25L47.178123 119.46875Q46.584373 120.390625 45.44375 120.390625Q44.69375 120.390625 44.06875 119.984375Q43.44375 119.5625 43.1 118.828125Q42.75625 118.09375 42.75625 117.140625Q42.75625 116.21875 43.06875 115.453125Q43.38125 114.6875 44.00625 114.296875Q44.63125 113.890625 45.396873 113.890625Q45.959373 113.890625 46.396873 114.125Q46.834373 114.359375 47.115623 114.734375L47.115623 111.65625L48.1625 111.65625L48.1625 120.25L47.178123 120.25ZM43.85 117.140625Q43.85 118.34375 44.35 118.9375Q44.85 119.515625 45.5375 119.515625Q46.225 119.515625 46.709373 118.953125Q47.19375 118.390625 47.19375 117.234375Q47.19375 115.953125 46.69375 115.359375Q46.209373 114.765625 45.490623 114.765625Q44.7875 114.765625 44.31875 115.34375Q43.85 115.90625 43.85 117.140625ZM54.303123 116.875L54.303123 115.875L57.928123 115.859375L57.928123 119.046875Q57.1 119.71875 56.209373 120.0625Q55.31875 120.390625 54.38125 120.390625Q53.115623 120.390625 52.06875 119.859375Q51.0375 119.3125 50.50625 118.296875Q49.990623 117.265625 49.990623 116.0Q49.990623 114.734375 50.50625 113.65625Q51.0375 112.5625 52.021873 112.046875Q53.00625 111.515625 54.2875 111.515625Q55.225 111.515625 55.975 111.8125Q56.725 112.109375 57.146873 112.65625Q57.584373 113.1875 57.803123 114.0625L56.7875 114.34375Q56.584373 113.6875 56.2875 113.3125Q56.00625 112.9375 55.475 112.71875Q54.94375 112.484375 54.303123 112.484375Q53.521873 112.484375 52.94375 112.71875Q52.38125 112.953125 52.021873 113.34375Q51.678123 113.734375 51.490623 114.203125Q51.1625 115.0 51.1625 115.921875Q51.1625 117.078125 51.553123 117.859375Q51.959373 118.625 52.709373 119.0Q53.459373 119.375 54.31875 119.375Q55.053123 119.375 55.75625 119.09375Q56.459373 118.796875 56.81875 118.484375L56.81875 116.875L54.303123 116.875ZM63.225 120.25L63.225 119.328125Q62.490623 120.390625 61.240623 120.390625Q60.69375 120.390625 60.209373 120.1875Q59.740623 119.96875 59.50625 119.65625Q59.271873 119.328125 59.178123 118.859375Q59.115623 118.5625 59.115623 117.875L59.115623 114.03125L60.178123 114.03125L60.178123 117.484375Q60.178123 118.296875 60.240623 118.59375Q60.334373 119.0 60.646873 119.25Q60.975 119.484375 61.459373 119.484375Q61.928123 119.484375 62.334373 119.25Q62.75625 119.0 62.928123 118.578125Q63.115623 118.15625 63.115623 117.359375L63.115623 114.03125L64.1625 114.03125L64.1625 120.25L63.225 120.25ZM66.14687 112.875L66.14687 111.65625L67.20937 111.65625L67.20937 112.875L66.14687 112.875ZM66.14687 120.25L66.14687 114.03125L67.20937 114.03125L67.20937 120.25L66.14687 120.25ZM69.11562 120.25L69.11562 111.65625L70.17812 111.65625L70.17812 120.25L69.11562 120.25ZM76.17812 120.25L76.17812 119.46875Q75.58437 120.390625 74.44375 120.390625Q73.69375 120.390625 73.06875 119.984375Q72.44375 119.5625 72.1 118.828125Q71.75625 118.09375 71.75625 117.140625Q71.75625 116.21875 72.06875 115.453125Q72.38125 114.6875 73.00625 114.296875Q73.63125 113.890625 74.39687 113.890625Q74.95937 113.890625 75.39687 114.125Q75.83437 114.359375 76.11562 114.734375L76.11562 111.65625L77.1625 111.65625L77.1625 120.25L76.17812 120.25ZM72.85 117.140625Q72.85 118.34375 73.35 118.9375Q73.85 119.515625 74.5375 119.515625Q75.225 119.515625 75.70937 118.953125Q76.19375 118.390625 76.19375 117.234375Q76.19375 115.953125 75.69375 115.359375Q75.20937 114.765625 74.49062 114.765625Q73.7875 114.765625 73.31875 115.34375Q72.85 115.90625 72.85 117.140625ZM84.725 120.25L81.39687 111.65625L82.63125 111.65625L84.86562 117.90625Q85.13125 118.65625 85.31875 119.3125Q85.52187 118.609375 85.7875 117.90625L88.1 111.65625L89.25625 111.65625L85.89687 120.25L84.725 120.25ZM93.20937 119.484375Q92.61562 119.984375 92.06875 120.1875Q91.5375 120.390625 90.9125 120.390625Q89.88125 120.390625 89.33437 119.890625Q88.7875 119.390625 88.7875 118.609375Q88.7875 118.15625 88.99062 117.78125Q89.19375 117.390625 89.5375 117.171875Q89.88125 116.9375 90.30312 116.828125Q90.6 116.734375 91.24062 116.65625Q92.50625 116.515625 93.11562 116.296875Q93.11562 116.078125 93.11562 116.03125Q93.11562 115.375 92.81875 115.109375Q92.4125 114.765625 91.61562 114.765625Q90.88125 114.765625 90.52187 115.03125Q90.1625 115.28125 89.99062 115.9375L88.95937 115.796875Q89.1 115.140625 89.42812 114.734375Q89.75625 114.328125 90.36562 114.109375Q90.975 113.890625 91.77187 113.890625Q92.56875 113.890625 93.06875 114.078125Q93.56875 114.265625 93.80312 114.546875Q94.0375 114.828125 94.13125 115.265625Q94.17812 115.53125 94.17812 116.234375L94.17812 117.640625Q94.17812 119.109375 94.24062 119.5Q94.31875 119.890625 94.52187 120.25L93.4125 120.25Q93.25625 119.921875 93.20937 119.484375ZM93.11562 117.125Q92.5375 117.359375 91.39687 117.53125Q90.74062 117.625 90.475 117.75Q90.20937 117.859375 90.05312 118.078125Q89.9125 118.296875 89.9125 118.578125Q89.9125 119.0 90.225 119.28125Q90.55312 119.5625 91.1625 119.5625Q91.77187 119.5625 92.24062 119.296875Q92.725 119.03125 92.94375 118.5625Q93.11562 118.203125 93.11562 117.515625L93.11562 117.125ZM100.225 120.25L100.225 119.328125Q99.49062 120.390625 98.24062 120.390625Q97.69375 120.390625 97.20937 120.1875Q96.74062 119.96875 96.50625 119.65625Q96.27187 119.328125 96.17812 118.859375Q96.11562 118.5625 96.11562 117.875L96.11562 114.03125L97.17812 114.03125L97.17812 117.484375Q97.17812 118.296875 97.24062 118.59375Q97.33437 119.0 97.64687 119.25Q97.975 119.484375 98.45937 119.484375Q98.92812 119.484375 99.33437 119.25Q99.75625 119.0 99.92812 118.578125Q100.11562 118.15625 100.11562 117.359375L100.11562 114.03125L101.1625 114.03125L101.1625 120.25L100.225 120.25ZM103.11562 120.25L103.11562 111.65625L104.17812 111.65625L104.17812 120.25L103.11562 120.25ZM108.44375 119.3125L108.6 120.234375Q108.14687 120.328125 107.80312 120.328125Q107.225 120.328125 106.9125 120.15625Q106.6 119.96875 106.45937 119.671875Q106.33437 119.375 106.33437 118.421875L106.33437 114.84375L105.56875 114.84375L105.56875 114.03125L106.33437 114.03125L106.33437 112.484375L107.38125 111.859375L107.38125 114.03125L108.44375 114.03125L108.44375 114.84375L107.38125 114.84375L107.38125 118.484375Q107.38125 118.9375 107.42812 119.0625Q107.49062 119.1875 107.61562 119.265625Q107.74062 119.34375 107.975 119.34375Q108.1625 119.34375 108.44375 119.3125Z" fill-rule="nonzero"/><path fill="#757575" d="M27.990625 41.35L22.44375 27.037498L24.490625 27.037498L28.209375 37.428123Q28.6625 38.678123 28.959375 39.771873Q29.2875 38.6 29.740625 37.428123L33.6 27.037498L35.5375 27.037498L29.928125 41.35L27.990625 41.35ZM43.44375 40.06875Q42.459373 40.896873 41.553123 41.240623Q40.646873 41.584373 39.615623 41.584373Q37.9125 41.584373 36.990623 40.75625Q36.06875 39.9125 36.06875 38.615623Q36.06875 37.85 36.4125 37.225Q36.771873 36.6 37.334373 36.225Q37.896873 35.834373 38.6 35.63125Q39.115623 35.50625 40.1625 35.365623Q42.2875 35.115623 43.2875 34.771873Q43.303123 34.4125 43.303123 34.303123Q43.303123 33.240623 42.803123 32.7875Q42.13125 32.19375 40.803123 32.19375Q39.553123 32.19375 38.959373 32.63125Q38.38125 33.06875 38.1 34.178123L36.38125 33.94375Q36.615623 32.834373 37.146873 32.1625Q37.678123 31.474998 38.69375 31.115623Q39.709373 30.740623 41.053123 30.740623Q42.38125 30.740623 43.209373 31.053123Q44.0375 31.365623 44.428123 31.849998Q44.81875 32.31875 44.975 33.0375Q45.06875 33.490623 45.06875 34.6625L45.06875 37.00625Q45.06875 39.459373 45.178123 40.115623Q45.2875 40.75625 45.63125 41.35L43.7875 41.35Q43.521873 40.803123 43.44375 40.06875ZM43.2875 36.146873Q42.334373 36.5375 40.4125 36.803123Q39.334373 36.959373 38.88125 37.1625Q38.44375 37.35 38.19375 37.725Q37.94375 38.1 37.94375 38.56875Q37.94375 39.271873 38.475 39.740623Q39.00625 40.209373 40.0375 40.209373Q41.053123 40.209373 41.834373 39.771873Q42.63125 39.31875 43.00625 38.553123Q43.2875 37.94375 43.2875 36.7875L43.2875 36.146873ZM47.63125 41.35L47.63125 27.037498L49.38125 27.037498L49.38125 41.35L47.63125 41.35ZM58.459373 41.35L58.459373 39.81875Q57.25625 41.584373 55.178123 41.584373Q54.25625 41.584373 53.459373 41.240623Q52.6625 40.88125 52.271873 40.35Q51.896873 39.81875 51.740623 39.0375Q51.63125 38.521873 51.63125 37.396873L51.63125 30.974998L53.38125 30.974998L53.38125 36.725Q53.38125 38.1 53.490623 38.584373Q53.6625 39.271873 54.19375 39.678123Q54.740623 40.06875 55.521873 40.06875Q56.31875 40.06875 57.00625 39.6625Q57.709373 39.25625 57.990623 38.56875Q58.2875 37.865623 58.2875 36.5375L58.2875 30.974998L60.0375 30.974998L60.0375 41.35L58.459373 41.35ZM68.77187 38.00625L70.58437 38.240623Q70.1625 39.81875 68.99062 40.709373Q67.83437 41.584373 66.02187 41.584373Q63.75625 41.584373 62.4125 40.19375Q61.084373 38.7875 61.084373 36.25625Q61.084373 33.63125 62.428123 32.19375Q63.771873 30.740623 65.92812 30.740623Q68.00625 30.740623 69.31875 32.1625Q70.64687 33.56875 70.64687 36.146873Q70.64687 36.303123 70.63125 36.615623L62.896873 36.615623Q62.990623 38.31875 63.865623 39.225Q64.74062 40.13125 66.0375 40.13125Q67.00625 40.13125 67.67812 39.63125Q68.36562 39.115623 68.77187 38.00625ZM62.990623 35.1625L68.7875 35.1625Q68.67812 33.865623 68.13125 33.209373Q67.2875 32.19375 65.94375 32.19375Q64.74062 32.19375 63.9125 33.00625Q63.084373 33.803123 62.990623 35.1625ZM77.95937 38.25625L79.70937 37.975Q79.85 39.021873 80.52187 39.584373Q81.19375 40.13125 82.39687 40.13125Q83.6 40.13125 84.17812 39.646873Q84.77187 39.146873 84.77187 38.490623Q84.77187 37.896873 84.25625 37.553123Q83.89687 37.31875 82.45937 36.959373Q80.52187 36.459373 79.77187 36.115623Q79.0375 35.75625 78.64687 35.13125Q78.25625 34.490623 78.25625 33.725Q78.25625 33.0375 78.56875 32.44375Q78.89687 31.849998 79.44375 31.459373Q79.85 31.162498 80.55312 30.959373Q81.27187 30.740623 82.08437 30.740623Q83.30312 30.740623 84.225 31.099998Q85.14687 31.443748 85.58437 32.053123Q86.02187 32.646873 86.19375 33.646873L84.475 33.88125Q84.35 33.084373 83.7875 32.646873Q83.225 32.19375 82.20937 32.19375Q80.99062 32.19375 80.475 32.6Q79.95937 32.990623 79.95937 33.521873Q79.95937 33.865623 80.17812 34.146873Q80.38125 34.428123 80.85 34.615623Q81.11562 34.709373 82.39687 35.053123Q84.27187 35.553123 85.00625 35.88125Q85.74062 36.19375 86.1625 36.803123Q86.58437 37.396873 86.58437 38.303123Q86.58437 39.178123 86.06875 39.959373Q85.55312 40.740623 84.58437 41.1625Q83.61562 41.584373 82.39687 41.584373Q80.38125 41.584373 79.31875 40.740623Q78.25625 39.896873 77.95937 38.25625ZM92.50625 39.771873L92.75625 41.334373Q92.02187 41.490623 91.42812 41.490623Q90.475 41.490623 89.94375 41.19375Q89.42812 40.88125 89.20937 40.396873Q88.99062 39.896873 88.99062 38.31875L88.99062 32.35L87.70937 32.35L87.70937 30.974998L88.99062 30.974998L88.99062 28.412498L90.74062 27.349998L90.74062 30.974998L92.50625 30.974998L92.50625 32.35L90.74062 32.35L90.74062 38.4125Q90.74062 39.1625 90.83437 39.38125Q90.92812 39.584373 91.13125 39.725Q91.35 39.85 91.74062 39.85Q92.02187 39.85 92.50625 39.771873ZM94.02187 36.1625Q94.02187 33.2875 95.61562 31.896873Q96.95937 30.740623 98.88125 30.740623Q101.02187 30.740623 102.36562 32.146873Q103.725 33.553123 103.725 36.021873Q103.725 38.021873 103.13125 39.178123Q102.5375 40.31875 101.38125 40.959373Q100.24062 41.584373 98.88125 41.584373Q96.69375 41.584373 95.35 40.19375Q94.02187 38.7875 94.02187 36.1625ZM95.81875 36.1625Q95.81875 38.1625 96.67812 39.146873Q97.55312 40.13125 98.88125 40.13125Q100.19375 40.13125 101.05312 39.146873Q101.92812 38.146873 101.92812 36.1Q101.92812 34.178123 101.05312 33.19375Q100.17812 32.19375 98.88125 32.19375Q97.55312 32.19375 96.67812 33.19375Q95.81875 34.178123 95.81875 36.1625ZM105.64687 41.35L105.64687 30.974998L107.225 30.974998L107.225 32.553123Q107.83437 31.443748 108.35 31.099998Q108.86562 30.740623 109.475 30.740623Q110.36562 30.740623 111.2875 31.303123L110.67812 32.94375Q110.0375 32.553123 109.39687 32.553123Q108.81875 32.553123 108.35 32.9125Q107.89687 33.25625 107.69375 33.865623Q107.4125 34.803123 107.4125 35.9125L107.4125 41.35L105.64687 41.35ZM119.44375 40.06875Q118.45937 40.896873 117.55312 41.240623Q116.64687 41.584373 115.61562 41.584373Q113.9125 41.584373 112.99062 40.75625Q112.06875 39.9125 112.06875 38.615623Q112.06875 37.85 112.4125 37.225Q112.77187 36.6 113.33437 36.225Q113.89687 35.834373 114.6 35.63125Q115.11562 35.50625 116.1625 35.365623Q118.2875 35.115623 119.2875 34.771873Q119.30312 34.4125 119.30312 34.303123Q119.30312 33.240623 118.80312 32.7875Q118.13125 32.19375 116.80312 32.19375Q115.55312 32.19375 114.95937 32.63125Q114.38125 33.06875 114.1 34.178123L112.38125 33.94375Q112.61562 32.834373 113.14687 32.1625Q113.67812 31.474998 114.69375 31.115623Q115.70937 30.740623 117.05312 30.740623Q118.38125 30.740623 119.20937 31.053123Q120.0375 31.365623 120.42812 31.849998Q120.81875 32.31875 120.975 33.0375Q121.06875 33.490623 121.06875 34.6625L121.06875 37.00625Q121.06875 39.459373 121.17812 40.115623Q121.2875 40.75625 121.63125 41.35L119.7875 41.35Q119.52187 40.803123 119.44375 40.06875ZM119.2875 36.146873Q118.33437 36.5375 116.4125 36.803123Q115.33437 36.959373 114.88125 37.1625Q114.44375 37.35 114.19375 37.725Q113.94375 38.1 113.94375 38.56875Q113.94375 39.271873 114.475 39.740623Q115.00625 40.209373 116.0375 40.209373Q117.05312 40.209373 117.83437 39.771873Q118.63125 39.31875 119.00625 38.553123Q119.2875 37.94375 119.2875 36.7875L119.2875 36.146873ZM123.35 42.209373L125.05312 42.459373Q125.1625 43.25625 125.64687 43.615623Q126.30312 44.1 127.44375 44.1Q128.6625 44.1 129.31876 43.615623Q129.99063 43.13125 130.225 42.25625Q130.36563 41.709373 130.35 39.990623Q129.19376 41.35 127.475 41.35Q125.33437 41.35 124.1625 39.803123Q122.99062 38.25625 122.99062 36.1Q122.99062 34.615623 123.52187 33.365623Q124.06875 32.115623 125.08437 31.428123Q126.11562 30.740623 127.49062 30.740623Q129.31876 30.740623 130.52188 32.225L130.52188 30.974998L132.13126 30.974998L132.13126 39.94375Q132.13126 42.365623 131.63126 43.365623Q131.14688 44.38125 130.06876 44.959373Q129.00626 45.553123 127.44375 45.553123Q125.6 45.553123 124.44375 44.725Q123.30312 43.896873 123.35 42.209373ZM124.80312 35.975Q124.80312 38.021873 125.61562 38.959373Q126.42812 39.896873 127.64687 39.896873Q128.85 39.896873 129.6625 38.959373Q130.49063 38.021873 130.49063 36.0375Q130.49063 34.13125 129.64688 33.1625Q128.80313 32.19375 127.61562 32.19375Q126.44375 32.19375 125.61562 33.146873Q124.80312 34.1 124.80312 35.975ZM141.77188 38.00625L143.58438 38.240623Q143.1625 39.81875 141.99063 40.709373Q140.83438 41.584373 139.02188 41.584373Q136.75626 41.584373 135.4125 40.19375Q134.08438 38.7875 134.08438 36.25625Q134.08438 33.63125 135.42813 32.19375Q136.77188 30.740623 138.92813 30.740623Q141.00626 30.740623 142.31876 32.1625Q143.64688 33.56875 143.64688 36.146873Q143.64688 36.303123 143.63126 36.615623L135.89688 36.615623Q135.99063 38.31875 136.86563 39.225Q137.74063 40.13125 139.0375 40.13125Q140.00626 40.13125 140.67813 39.63125Q141.36563 39.115623 141.77188 38.00625ZM135.99063 35.1625L141.7875 35.1625Q141.67813 33.865623 141.13126 33.209373Q140.2875 32.19375 138.94376 32.19375Q137.74063 32.19375 136.9125 33.00625Q136.08438 33.803123 135.99063 35.1625ZM158.44376 40.06875Q157.45938 40.896873 156.55313 41.240623Q155.64688 41.584373 154.61563 41.584373Q152.9125 41.584373 151.99063 40.75625Q151.06876 39.9125 151.06876 38.615623Q151.06876 37.85 151.4125 37.225Q151.77188 36.6 152.33438 36.225Q152.89688 35.834373 153.6 35.63125Q154.11563 35.50625 155.1625 35.365623Q157.2875 35.115623 158.2875 34.771873Q158.30313 34.4125 158.30313 34.303123Q158.30313 33.240623 157.80313 32.7875Q157.13126 32.19375 155.80313 32.19375Q154.55313 32.19375 153.95938 32.63125Q153.38126 33.06875 153.1 34.178123L151.38126 33.94375Q151.61563 32.834373 152.14688 32.1625Q152.67813 31.474998 153.69376 31.115623Q154.70938 30.740623 156.05313 30.740623Q157.38126 30.740623 158.20938 31.053123Q159.0375 31.365623 159.42813 31.849998Q159.81876 32.31875 159.975 33.0375Q160.06876 33.490623 160.06876 34.6625L160.06876 37.00625Q160.06876 39.459373 160.17813 40.115623Q160.2875 40.75625 160.63126 41.35L158.7875 41.35Q158.52188 40.803123 158.44376 40.06875ZM158.2875 36.146873Q157.33438 36.5375 155.4125 36.803123Q154.33438 36.959373 153.88126 37.1625Q153.44376 37.35 153.19376 37.725Q152.94376 38.1 152.94376 38.56875Q152.94376 39.271873 153.475 39.740623Q154.00626 40.209373 155.0375 40.209373Q156.05313 40.209373 156.83438 39.771873Q157.63126 39.31875 158.00626 38.553123Q158.2875 37.94375 158.2875 36.7875L158.2875 36.146873ZM166.50626 39.771873L166.75626 41.334373Q166.02188 41.490623 165.42813 41.490623Q164.475 41.490623 163.94376 41.19375Q163.42813 40.88125 163.20938 40.396873Q162.99063 39.896873 162.99063 38.31875L162.99063 32.35L161.70938 32.35L161.70938 30.974998L162.99063 30.974998L162.99063 28.412498L164.74063 27.349998L164.74063 30.974998L166.50626 30.974998L166.50626 32.35L164.74063 32.35L164.74063 38.4125Q164.74063 39.1625 164.83438 39.38125Q164.92813 39.584373 165.13126 39.725Q165.35 39.85 165.74063 39.85Q166.02188 39.85 166.50626 39.771873ZM175.20938 41.35L175.20938 27.037498L177.11563 27.037498L177.11563 41.35L175.20938 41.35ZM180.88126 41.35L180.88126 27.037498L182.81876 27.037498L190.33438 38.271873L190.33438 27.037498L192.14688 27.037498L192.14688 41.35L190.20938 41.35L182.69376 30.099998L182.69376 41.35L180.88126 41.35ZM197.5375 41.35L197.5375 28.724998L192.81876 28.724998L192.81876 27.037498L204.1625 27.037498L204.1625 28.724998L199.42813 28.724998L199.42813 41.35L197.5375 41.35ZM210.95938 38.25625L212.70938 37.975Q212.85 39.021873 213.52188 39.584373Q214.19376 40.13125 215.39688 40.13125Q216.6 40.13125 217.17813 39.646873Q217.77188 39.146873 217.77188 38.490623Q217.77188 37.896873 217.25626 37.553123Q216.89688 37.31875 215.45938 36.959373Q213.52188 36.459373 212.77188 36.115623Q212.0375 35.75625 211.64688 35.13125Q211.25626 34.490623 211.25626 33.725Q211.25626 33.0375 211.56876 32.44375Q211.89688 31.849998 212.44376 31.459373Q212.85 31.162498 213.55313 30.959373Q214.27188 30.740623 215.08438 30.740623Q216.30313 30.740623 217.225 31.099998Q218.14688 31.443748 218.58438 32.053123Q219.02188 32.646873 219.19376 33.646873L217.475 33.88125Q217.35 33.084373 216.7875 32.646873Q216.225 32.19375 215.20938 32.19375Q213.99063 32.19375 213.475 32.6Q212.95938 32.990623 212.95938 33.521873Q212.95938 33.865623 213.17813 34.146873Q213.38126 34.428123 213.85 34.615623Q214.11563 34.709373 215.39688 35.053123Q217.27188 35.553123 218.00626 35.88125Q218.74063 36.19375 219.1625 36.803123Q219.58438 37.396873 219.58438 38.303123Q219.58438 39.178123 219.06876 39.959373Q218.55313 40.740623 217.58438 41.1625Q216.61563 41.584373 215.39688 41.584373Q213.38126 41.584373 212.31876 40.740623Q211.25626 39.896873 210.95938 38.25625ZM228.44376 40.06875Q227.45938 40.896873 226.55313 41.240623Q225.64688 41.584373 224.61563 41.584373Q222.9125 41.584373 221.99063 40.75625Q221.06876 39.9125 221.06876 38.615623Q221.06876 37.85 221.4125 37.225Q221.77188 36.6 222.33438 36.225Q222.89688 35.834373 223.6 35.63125Q224.11563 35.50625 225.1625 35.365623Q227.2875 35.115623 228.2875 34.771873Q228.30313 34.4125 228.30313 34.303123Q228.30313 33.240623 227.80313 32.7875Q227.13126 32.19375 225.80313 32.19375Q224.55313 32.19375 223.95938 32.63125Q223.38126 33.06875 223.1 34.178123L221.38126 33.94375Q221.61563 32.834373 222.14688 32.1625Q222.67813 31.474998 223.69376 31.115623Q224.70938 30.740623 226.05313 30.740623Q227.38126 30.740623 228.20938 31.053123Q229.0375 31.365623 229.42813 31.849998Q229.81876 32.31875 229.975 33.0375Q230.06876 33.490623 230.06876 34.6625L230.06876 37.00625Q230.06876 39.459373 230.17813 40.115623Q230.2875 40.75625 230.63126 41.35L228.7875 41.35Q228.52188 40.803123 228.44376 40.06875ZM228.2875 36.146873Q227.33438 36.5375 225.4125 36.803123Q224.33438 36.959373 223.88126 37.1625Q223.44376 37.35 223.19376 37.725Q222.94376 38.1 222.94376 38.56875Q222.94376 39.271873 223.475 39.740623Q224.00626 40.209373 225.0375 40.209373Q226.05313 40.209373 226.83438 39.771873Q227.63126 39.31875 228.00626 38.553123Q228.2875 37.94375 228.2875 36.7875L228.2875 36.146873ZM232.63126 41.35L232.63126 27.037498L234.38126 27.037498L234.38126 41.35L232.63126 41.35ZM243.77188 38.00625L245.58438 38.240623Q245.1625 39.81875 243.99063 40.709373Q242.83438 41.584373 241.02188 41.584373Q238.75626 41.584373 237.4125 40.19375Q236.08438 38.7875 236.08438 36.25625Q236.08438 33.63125 237.42813 32.19375Q238.77188 30.740623 240.92813 30.740623Q243.00626 30.740623 244.31876 32.1625Q245.64688 33.56875 245.64688 36.146873Q245.64688 36.303123 245.63126 36.615623L237.89688 36.615623Q237.99063 38.31875 238.86563 39.225Q239.74063 40.13125 241.0375 40.13125Q242.00626 40.13125 242.67813 39.63125Q243.36563 39.115623 243.77188 38.00625ZM237.99063 35.1625L243.7875 35.1625Q243.67813 33.865623 243.13126 33.209373Q242.2875 32.19375 240.94376 32.19375Q239.74063 32.19375 238.9125 33.00625Q238.08438 33.803123 237.99063 35.1625ZM246.95938 38.25625L248.70938 37.975Q248.85 39.021873 249.52188 39.584373Q250.19376 40.13125 251.39688 40.13125Q252.6 40.13125 253.17813 39.646873Q253.77188 39.146873 253.77188 38.490623Q253.77188 37.896873 253.25626 37.553123Q252.89688 37.31875 251.45938 36.959373Q249.52188 36.459373 248.77188 36.115623Q248.0375 35.75625 247.64688 35.13125Q247.25626 34.490623 247.25626 33.725Q247.25626 33.0375 247.56876 32.44375Q247.89688 31.849998 248.44376 31.459373Q248.85 31.162498 249.55313 30.959373Q250.27188 30.740623 251.08438 30.740623Q252.30313 30.740623 253.225 31.099998Q254.14688 31.443748 254.58438 32.053123Q255.02188 32.646873 255.19376 33.646873L253.475 33.88125Q253.35 33.084373 252.7875 32.646873Q252.225 32.19375 251.20938 32.19375Q249.99063 32.19375 249.475 32.6Q248.95938 32.990623 248.95938 33.521873Q248.95938 33.865623 249.17813 34.146873Q249.38126 34.428123 249.85 34.615623Q250.11563 34.709373 251.39688 35.053123Q253.27188 35.553123 254.00626 35.88125Q254.74063 36.19375 255.1625 36.803123Q255.58438 37.396873 255.58438 38.303123Q255.58438 39.178123 255.06876 39.959373Q254.55313 40.740623 253.58438 41.1625Q252.61563 41.584373 251.39688 41.584373Q249.38126 41.584373 248.31876 40.740623Q247.25626 39.896873 246.95938 38.25625Z" fill-rule="nonzero"/></svg>