<svg version="1.1" viewBox="0.0 0.0 600.0 371.0" fill="none" stroke="none" stroke-linecap="square" stroke-miterlimit="10" width="600" height="371" xmlns:xlink="http://www.w3.org/1999/xlink" xmlns="http://www.w3.org/2000/svg"><path fill="#ffffff" d="M0 0L600.0 0L600.0 371.0L0 371.0L0 0Z" fill-rule="nonzero"/><path fill="#0000ff" d="M389.98398 54.919598C390.29526 54.917645 390.6065 54.916668 390.9178 54.916668L390.9178 129.3C390.76215 129.3 390.6065 129.30049 390.4509 129.30147Z" fill-rule="nonzero"/><path fill="#9900ff" d="M390.9178 54.916668C472.9882 54.916668 539.5555 121.37958 539.68427 203.44989C539.81305 285.5202 473.45468 352.19168 391.38467 352.44928C309.31467 352.70685 242.53912 286.4532 242.15276 204.38368C241.7664 122.31418 307.9152 55.434742 389.98398 54.919598L390.4509 129.30147C349.41647 129.55904 316.3421 162.99875 316.53528 204.03351C316.72845 245.06825 350.1162 278.1951 391.1512 278.0663C432.18622 277.9375 465.36542 244.60176 465.30103 203.5666C465.23663 162.53145 431.95297 129.3 390.9178 129.3Z" fill-rule="nonzero"/><path fill="#000000" d="M378.5198 330.80768L377.28543 330.80768L377.28543 322.96393Q376.84793 323.3858 376.11356 323.8233Q375.3948 324.24518 374.8323 324.4483L374.8323 323.2608Q375.86356 322.77643 376.62918 322.08893Q377.41043 321.40143 377.72293 320.74518L378.5198 320.74518L378.5198 330.80768ZM381.87918 325.87018Q381.87918 324.08893 382.23856 323.0108Q382.61356 321.91705 383.3323 321.33893Q384.05106 320.74518 385.1448 320.74518Q385.9573 320.74518 386.56668 321.0733Q387.17606 321.40143 387.56668 322.0108Q387.97293 322.62018 388.19168 323.49518Q388.41043 324.37018 388.41043 325.87018Q388.41043 327.6358 388.05106 328.71393Q387.69168 329.79205 386.97293 330.3858Q386.25418 330.97955 385.1448 330.97955Q383.7073 330.97955 382.87918 329.93268Q381.87918 328.68268 381.87918 325.87018ZM383.1448 325.87018Q383.1448 328.33893 383.72293 329.15143Q384.30106 329.96393 385.1448 329.96393Q386.00418 329.96393 386.5823 329.15143Q387.16043 328.3233 387.16043 325.87018Q387.16043 323.3858 386.5823 322.5733Q386.00418 321.7608 385.12918 321.7608Q384.28543 321.7608 383.78543 322.47955Q383.1448 323.40143 383.1448 325.87018ZM389.87918 325.87018Q389.87918 324.08893 390.23856 323.0108Q390.61356 321.91705 391.3323 321.33893Q392.05106 320.74518 393.1448 320.74518Q393.9573 320.74518 394.56668 321.0733Q395.17606 321.40143 395.56668 322.0108Q395.97293 322.62018 396.19168 323.49518Q396.41043 324.37018 396.41043 325.87018Q396.41043 327.6358 396.05106 328.71393Q395.69168 329.79205 394.97293 330.3858Q394.25418 330.97955 393.1448 330.97955Q391.7073 330.97955 390.87918 329.93268Q389.87918 328.68268 389.87918 325.87018ZM391.1448 325.87018Q391.1448 328.33893 391.72293 329.15143Q392.30106 329.96393 393.1448 329.96393Q394.00418 329.96393 394.5823 329.15143Q395.16043 328.3233 395.16043 325.87018Q395.16043 323.3858 394.5823 322.5733Q394.00418 321.7608 393.12918 321.7608Q392.28543 321.7608 391.78543 322.47955Q391.1448 323.40143 391.1448 325.87018ZM398.11356 323.1983Q398.11356 322.12018 398.6448 321.37018Q399.19168 320.62018 400.22293 320.62018Q401.16043 320.62018 401.7698 321.29205Q402.3948 321.96393 402.3948 323.2608Q402.3948 324.54205 401.7698 325.22955Q401.1448 325.91705 400.23856 325.91705Q399.3323 325.91705 398.72293 325.24518Q398.11356 324.55768 398.11356 323.1983ZM400.25418 321.46393Q399.80106 321.46393 399.48856 321.87018Q399.19168 322.2608 399.19168 323.30768Q399.19168 324.27643 399.48856 324.66705Q399.80106 325.05768 400.25418 325.05768Q400.72293 325.05768 401.0198 324.66705Q401.3323 324.27643 401.3323 323.21393Q401.3323 322.24518 401.0198 321.85455Q400.7073 321.46393 400.25418 321.46393ZM400.25418 331.18268L405.73856 320.62018L406.73856 320.62018L401.28543 331.18268L400.25418 331.18268ZM404.59793 328.4483Q404.59793 327.37018 405.12918 326.6358Q405.67606 325.8858 406.7073 325.8858Q407.6448 325.8858 408.2698 326.55768Q408.8948 327.22955 408.8948 328.52643Q408.8948 329.80768 408.2698 330.49518Q407.6448 331.18268 406.7073 331.18268Q405.80106 331.18268 405.19168 330.5108Q404.59793 329.8233 404.59793 328.4483ZM406.73856 326.72955Q406.2698 326.72955 405.97293 327.1358Q405.67606 327.52643 405.67606 328.5733Q405.67606 329.54205 405.97293 329.93268Q406.28543 330.3233 406.73856 330.3233Q407.2073 330.3233 407.50418 329.93268Q407.81668 329.54205 407.81668 328.47955Q407.81668 327.5108 407.50418 327.12018Q407.2073 326.72955 406.73856 326.72955Z" fill-rule="nonzero"/><path fill="#9900ff" d="M30.55 61.916668C30.55 65.23038 27.863708 67.916664 24.55 67.916664C21.236292 67.916664 18.55 65.23038 18.55 61.916668C18.55 58.60296 21.236292 55.916668 24.55 55.916668C27.863708 55.916668 30.55 58.60296 30.55 61.916668Z" fill-rule="nonzero"/><path fill="#1a1a1a" d="M39.440624 65.916664L39.440624 57.322914L41.159374 57.322914L43.190624 63.40104Q43.471874 64.260414 43.596874 64.68229Q43.7375 64.21354 44.05 63.30729L46.1125 57.322914L47.64375 57.322914L47.64375 65.916664L46.55 65.916664L46.55 58.729164L44.05 65.916664L43.01875 65.916664L40.534374 58.604164L40.534374 65.916664L39.440624 65.916664ZM52.596874 63.916664L53.690624 64.041664Q53.440624 64.99479 52.7375 65.52604Q52.034374 66.05729 50.95625 66.05729Q49.596874 66.05729 48.784374 65.21354Q47.9875 64.36979 47.9875 62.854164Q47.9875 61.291664 48.8 60.43229Q49.6125 59.55729 50.89375 59.55729Q52.14375 59.55729 52.925 60.40104Q53.721874 61.24479 53.721874 62.791664Q53.721874 62.885414 53.721874 63.072914L49.08125 63.072914Q49.14375 64.104164 49.659374 64.65104Q50.175 65.18229 50.95625 65.18229Q51.534374 65.18229 51.940624 64.885414Q52.3625 64.572914 52.596874 63.916664ZM49.14375 62.21354L52.6125 62.21354Q52.55 61.416664 52.221874 61.02604Q51.70625 60.416664 50.909374 60.416664Q50.175 60.416664 49.675 60.90104Q49.190624 61.385414 49.14375 62.21354ZM55.346874 65.916664L55.346874 59.697914L56.284374 59.697914L56.284374 60.572914Q56.58125 60.104164 57.065624 59.83854Q57.55 59.55729 58.175 59.55729Q58.8625 59.55729 59.3 59.83854Q59.753124 60.11979 59.925 60.635414Q60.675 59.55729 61.846874 59.55729Q62.784374 59.55729 63.26875 60.072914Q63.76875 60.572914 63.76875 61.65104L63.76875 65.916664L62.721874 65.916664L62.721874 61.99479Q62.721874 61.36979 62.6125 61.08854Q62.51875 60.80729 62.253124 60.635414Q61.9875 60.46354 61.6125 60.46354Q60.95625 60.46354 60.51875 60.90104Q60.096874 61.33854 60.096874 62.30729L60.096874 65.916664L59.034374 65.916664L59.034374 61.86979Q59.034374 61.166664 58.76875 60.822914Q58.51875 60.46354 57.940624 60.46354Q57.4875 60.46354 57.1125 60.697914Q56.7375 60.93229 56.565624 61.385414Q56.39375 61.83854 56.39375 62.68229L56.39375 65.916664L55.346874 65.916664ZM67.31563 65.916664L66.33125 65.916664L66.33125 57.322914L67.39375 57.322914L67.39375 60.385414Q68.06563 59.55729 69.09688 59.55729Q69.675 59.55729 70.175 59.791664Q70.69063 60.010414 71.01875 60.43229Q71.3625 60.854164 71.55 61.447914Q71.7375 62.041664 71.7375 62.71354Q71.7375 64.30729 70.94063 65.18229Q70.14375 66.05729 69.05 66.05729Q67.94063 66.05729 67.31563 65.135414L67.31563 65.916664ZM67.3 62.760414Q67.3 63.86979 67.6125 64.36979Q68.1125 65.18229 68.95625 65.18229Q69.64375 65.18229 70.14375 64.58854Q70.65938 63.99479 70.65938 62.791664Q70.65938 61.572914 70.175 60.99479Q69.69063 60.416664 69.00313 60.416664Q68.31563 60.416664 67.8 61.02604Q67.3 61.61979 67.3 62.760414ZM77.59688 63.916664L78.69063 64.041664Q78.44063 64.99479 77.7375 65.52604Q77.03438 66.05729 75.95625 66.05729Q74.59688 66.05729 73.78438 65.21354Q72.9875 64.36979 72.9875 62.854164Q72.9875 61.291664 73.8 60.43229Q74.6125 59.55729 75.89375 59.55729Q77.14375 59.55729 77.925 60.40104Q78.72188 61.24479 78.72188 62.791664Q78.72188 62.885414 78.72188 63.072914L74.08125 63.072914Q74.14375 64.104164 74.65938 64.65104Q75.175 65.18229 75.95625 65.18229Q76.53438 65.18229 76.94063 64.885414Q77.3625 64.572914 77.59688 63.916664ZM74.14375 62.21354L77.6125 62.21354Q77.55 61.416664 77.22188 61.02604Q76.70625 60.416664 75.90938 60.416664Q75.175 60.416664 74.675 60.90104Q74.19063 61.385414 74.14375 62.21354ZM80.33125 65.916664L80.33125 59.697914L81.28438 59.697914L81.28438 60.635414Q81.64375 59.979164 81.94063 59.77604Q82.25313 59.55729 82.62813 59.55729Q83.15938 59.55729 83.70625 59.885414L83.34688 60.86979Q82.95625 60.635414 82.58125 60.635414Q82.22188 60.635414 81.94063 60.854164Q81.675 61.05729 81.56563 61.43229Q81.37813 61.99479 81.37813 62.65104L81.37813 65.916664L80.33125 65.916664ZM83.925 64.05729L84.95625 63.90104Q85.05 64.52604 85.44063 64.854164Q85.84688 65.18229 86.58125 65.18229Q87.3 65.18229 87.64375 64.90104Q88.00313 64.604164 88.00313 64.197914Q88.00313 63.83854 87.69063 63.635414Q87.47188 63.49479 86.6125 63.27604Q85.45625 62.979164 85.00313 62.77604Q84.56563 62.55729 84.33125 62.18229Q84.09688 61.80729 84.09688 61.33854Q84.09688 60.93229 84.28438 60.572914Q84.47188 60.21354 84.8 59.979164Q85.05 59.80729 85.47188 59.68229Q85.89375 59.55729 86.39375 59.55729Q87.1125 59.55729 87.65938 59.77604Q88.22188 59.979164 88.4875 60.33854Q88.75313 60.697914 88.84688 61.291664L87.81563 61.43229Q87.75313 60.96354 87.40938 60.697914Q87.08125 60.416664 86.45625 60.416664Q85.7375 60.416664 85.425 60.666664Q85.1125 60.90104 85.1125 61.229164Q85.1125 61.43229 85.2375 61.58854Q85.37813 61.760414 85.64375 61.86979Q85.8 61.93229 86.58125 62.135414Q87.70625 62.447914 88.14375 62.635414Q88.58125 62.822914 88.83125 63.18229Q89.08125 63.541664 89.08125 64.08854Q89.08125 64.61979 88.76875 65.08854Q88.47188 65.541664 87.89375 65.80729Q87.31563 66.05729 86.58125 66.05729Q85.3625 66.05729 84.72188 65.55729Q84.09688 65.041664 83.925 64.05729ZM98.40938 65.15104Q97.81563 65.65104 97.26875 65.854164Q96.7375 66.05729 96.1125 66.05729Q95.08125 66.05729 94.53438 65.55729Q93.9875 65.05729 93.9875 64.27604Q93.9875 63.822914 94.19063 63.447914Q94.39375 63.05729 94.7375 62.83854Q95.08125 62.604164 95.50313 62.49479Q95.8 62.40104 96.44063 62.322914Q97.70625 62.18229 98.31563 61.96354Q98.31563 61.74479 98.31563 61.697914Q98.31563 61.041664 98.01875 60.77604Q97.6125 60.43229 96.81563 60.43229Q96.08125 60.43229 95.72188 60.697914Q95.3625 60.947914 95.19063 61.604164L94.15938 61.46354Q94.3 60.80729 94.62813 60.40104Q94.95625 59.99479 95.56563 59.77604Q96.175 59.55729 96.97188 59.55729Q97.76875 59.55729 98.26875 59.74479Q98.76875 59.93229 99.00313 60.21354Q99.2375 60.49479 99.33125 60.93229Q99.37813 61.197914 99.37813 61.90104L99.37813 63.30729Q99.37813 64.77604 99.44063 65.166664Q99.51875 65.55729 99.72188 65.916664L98.6125 65.916664Q98.45625 65.58854 98.40938 65.15104ZM98.31563 62.791664Q97.7375 63.02604 96.59688 63.197914Q95.94063 63.291664 95.675 63.416664Q95.40938 63.52604 95.25313 63.74479Q95.1125 63.96354 95.1125 64.24479Q95.1125 64.666664 95.425 64.947914Q95.75313 65.229164 96.3625 65.229164Q96.97188 65.229164 97.44063 64.96354Q97.925 64.697914 98.14375 64.229164Q98.31563 63.86979 98.31563 63.18229L98.31563 62.791664ZM101.34688 65.916664L101.34688 59.697914L102.28438 59.697914L102.28438 60.572914Q102.97188 59.55729 104.26875 59.55729Q104.83125 59.55729 105.3 59.760414Q105.78438 59.96354 106.01875 60.291664Q106.25313 60.61979 106.34688 61.05729Q106.39375 61.354164 106.39375 62.08854L106.39375 65.916664L105.34688 65.916664L105.34688 62.135414Q105.34688 61.479164 105.22188 61.166664Q105.09688 60.854164 104.78438 60.666664Q104.47188 60.46354 104.05 60.46354Q103.37813 60.46354 102.87813 60.90104Q102.39375 61.322914 102.39375 62.510414L102.39375 65.916664L101.34688 65.916664ZM112.37813 65.916664L112.37813 65.135414Q111.78438 66.05729 110.64375 66.05729Q109.89375 66.05729 109.26875 65.65104Q108.64375 65.229164 108.3 64.49479Q107.95625 63.760414 107.95625 62.80729Q107.95625 61.885414 108.26875 61.11979Q108.58125 60.354164 109.20625 59.96354Q109.83125 59.55729 110.59688 59.55729Q111.15938 59.55729 111.59688 59.791664Q112.03438 60.02604 112.31563 60.40104L112.31563 57.322914L113.3625 57.322914L113.3625 65.916664L112.37813 65.916664ZM109.05 62.80729Q109.05 64.010414 109.55 64.604164Q110.05 65.18229 110.7375 65.18229Q111.425 65.18229 111.90938 64.61979Q112.39375 64.05729 112.39375 62.90104Q112.39375 61.61979 111.89375 61.02604Q111.40938 60.43229 110.69063 60.43229Q109.9875 60.43229 109.51875 61.010414Q109.05 61.572914 109.05 62.80729ZM124.6125 62.90104L125.7375 63.197914Q125.37813 64.58854 124.45625 65.322914Q123.53438 66.05729 122.19063 66.05729Q120.8 66.05729 119.925 65.49479Q119.05 64.93229 118.59688 63.86979Q118.14375 62.791664 118.14375 61.55729Q118.14375 60.21354 118.65938 59.21354Q119.175 58.21354 120.1125 57.697914Q121.06563 57.18229 122.20625 57.18229Q123.4875 57.18229 124.3625 57.83854Q125.25313 58.49479 125.59688 59.68229L124.47188 59.947914Q124.175 59.010414 123.59688 58.58854Q123.03438 58.15104 122.175 58.15104Q121.19063 58.15104 120.51875 58.635414Q119.8625 59.104164 119.58125 59.90104Q119.31563 60.697914 119.31563 61.55729Q119.31563 62.65104 119.62813 63.46354Q119.95625 64.27604 120.62813 64.68229Q121.3 65.08854 122.09688 65.08854Q123.05 65.08854 123.70625 64.541664Q124.37813 63.99479 124.6125 62.90104ZM126.95625 62.80729Q126.95625 61.072914 127.90938 60.24479Q128.70625 59.55729 129.8625 59.55729Q131.14375 59.55729 131.95625 60.40104Q132.78438 61.229164 132.78438 62.71354Q132.78438 63.916664 132.425 64.604164Q132.06563 65.291664 131.3625 65.68229Q130.675 66.05729 129.8625 66.05729Q128.56563 66.05729 127.75313 65.229164Q126.95625 64.385414 126.95625 62.80729ZM128.03438 62.80729Q128.03438 63.99479 128.55 64.58854Q129.08125 65.18229 129.8625 65.18229Q130.65938 65.18229 131.175 64.58854Q131.69063 63.99479 131.69063 62.77604Q131.69063 61.61979 131.15938 61.02604Q130.64375 60.43229 129.8625 60.43229Q129.08125 60.43229 128.55 61.02604Q128.03438 61.604164 128.03438 62.80729ZM134.34688 65.916664L134.34688 59.697914L135.28438 59.697914L135.28438 60.572914Q135.58125 60.104164 136.06563 59.83854Q136.55 59.55729 137.175 59.55729Q137.8625 59.55729 138.3 59.83854Q138.75313 60.11979 138.925 60.635414Q139.675 59.55729 140.84688 59.55729Q141.78438 59.55729 142.26875 60.072914Q142.76875 60.572914 142.76875 61.65104L142.76875 65.916664L141.72188 65.916664L141.72188 61.99479Q141.72188 61.36979 141.6125 61.08854Q141.51875 60.80729 141.25313 60.635414Q140.9875 60.46354 140.6125 60.46354Q139.95625 60.46354 139.51875 60.90104Q139.09688 61.33854 139.09688 62.30729L139.09688 65.916664L138.03438 65.916664L138.03438 61.86979Q138.03438 61.166664 137.76875 60.822914Q137.51875 60.46354 136.94063 60.46354Q136.4875 60.46354 136.1125 60.697914Q135.7375 60.93229 135.56563 61.385414Q135.39375 61.83854 135.39375 62.68229L135.39375 65.916664L134.34688 65.916664ZM145.34688 65.916664L145.34688 59.697914L146.28438 59.697914L146.28438 60.572914Q146.58125 60.104164 147.06563 59.83854Q147.55 59.55729 148.175 59.55729Q148.8625 59.55729 149.3 59.83854Q149.75313 60.11979 149.925 60.635414Q150.675 59.55729 151.84688 59.55729Q152.78438 59.55729 153.26875 60.072914Q153.76875 60.572914 153.76875 61.65104L153.76875 65.916664L152.72188 65.916664L152.72188 61.99479Q152.72188 61.36979 152.6125 61.08854Q152.51875 60.80729 152.25313 60.635414Q151.9875 60.46354 151.6125 60.46354Q150.95625 60.46354 150.51875 60.90104Q150.09688 61.33854 150.09688 62.30729L150.09688 65.916664L149.03438 65.916664L149.03438 61.86979Q149.03438 61.166664 148.76875 60.822914Q148.51875 60.46354 147.94063 60.46354Q147.4875 60.46354 147.1125 60.697914Q146.7375 60.93229 146.56563 61.385414Q146.39375 61.83854 146.39375 62.68229L146.39375 65.916664L145.34688 65.916664ZM160.425 65.916664L160.425 64.99479Q159.69063 66.05729 158.44063 66.05729Q157.89375 66.05729 157.40938 65.854164Q156.94063 65.635414 156.70625 65.322914Q156.47188 64.99479 156.37813 64.52604Q156.31563 64.229164 156.31563 63.541664L156.31563 59.697914L157.37813 59.697914L157.37813 63.15104Q157.37813 63.96354 157.44063 64.260414Q157.53438 64.666664 157.84688 64.916664Q158.175 65.15104 158.65938 65.15104Q159.12813 65.15104 159.53438 64.916664Q159.95625 64.666664 160.12813 64.24479Q160.31563 63.822914 160.31563 63.02604L160.31563 59.697914L161.3625 59.697914L161.3625 65.916664L160.425 65.916664ZM163.34688 65.916664L163.34688 59.697914L164.28438 59.697914L164.28438 60.572914Q164.97188 59.55729 166.26875 59.55729Q166.83125 59.55729 167.3 59.760414Q167.78438 59.96354 168.01875 60.291664Q168.25313 60.61979 168.34688 61.05729Q168.39375 61.354164 168.39375 62.08854L168.39375 65.916664L167.34688 65.916664L167.34688 62.135414Q167.34688 61.479164 167.22188 61.166664Q167.09688 60.854164 166.78438 60.666664Q166.47188 60.46354 166.05 60.46354Q165.37813 60.46354 164.87813 60.90104Q164.39375 61.322914 164.39375 62.510414L164.39375 65.916664L163.34688 65.916664ZM170.34688 58.541664L170.34688 57.322914L171.40938 57.322914L171.40938 58.541664L170.34688 58.541664ZM170.34688 65.916664L170.34688 59.697914L171.40938 59.697914L171.40938 65.916664L170.34688 65.916664ZM175.64375 64.979164L175.8 65.90104Q175.34688 65.99479 175.00313 65.99479Q174.425 65.99479 174.1125 65.822914Q173.8 65.635414 173.65938 65.33854Q173.53438 65.041664 173.53438 64.08854L173.53438 60.510414L172.76875 60.510414L172.76875 59.697914L173.53438 59.697914L173.53438 58.15104L174.58125 57.52604L174.58125 59.697914L175.64375 59.697914L175.64375 60.510414L174.58125 60.510414L174.58125 64.15104Q174.58125 64.604164 174.62813 64.729164Q174.69063 64.854164 174.81563 64.93229Q174.94063 65.010414 175.175 65.010414Q175.3625 65.010414 175.64375 64.979164ZM176.3 68.30729L176.175 67.322914Q176.51875 67.416664 176.78438 67.416664Q177.12813 67.416664 177.33125 67.291664Q177.55 67.18229 177.69063 66.979164Q177.78438 66.80729 178.01875 66.18229Q178.03438 66.104164 178.1125 65.93229L175.7375 59.697914L176.87813 59.697914L178.175 63.291664Q178.425 63.979164 178.62813 64.74479Q178.81563 64.010414 179.06563 63.322914L180.39375 59.697914L181.44063 59.697914L179.08125 66.02604Q178.69063 67.041664 178.4875 67.43229Q178.20625 67.96354 177.83125 68.197914Q177.47188 68.447914 176.97188 68.447914Q176.675 68.447914 176.3 68.30729Z" fill-rule="nonzero"/><path fill="#0000ff" d="M30.55 85.916664C30.55 89.23038 27.863708 91.916664 24.55 91.916664C21.236292 91.916664 18.55 89.23038 18.55 85.916664C18.55 82.60296 21.236292 79.916664 24.55 79.916664C27.863708 79.916664 30.55 82.60296 30.55 85.916664Z" fill-rule="nonzero"/><path fill="#1a1a1a" d="M39.471874 89.916664L39.471874 81.322914L42.721874 81.322914Q43.565624 81.322914 44.01875 81.40104Q44.659374 81.510414 45.08125 81.80729Q45.51875 82.104164 45.76875 82.635414Q46.034374 83.166664 46.034374 83.80729Q46.034374 84.90104 45.33125 85.666664Q44.64375 86.416664 42.815624 86.416664L40.6125 86.416664L40.6125 89.916664L39.471874 89.916664ZM40.6125 85.416664L42.83125 85.416664Q43.940624 85.416664 44.39375 85.010414Q44.8625 84.58854 44.8625 83.83854Q44.8625 83.30729 44.58125 82.93229Q44.315624 82.541664 43.878124 82.416664Q43.58125 82.33854 42.815624 82.33854L40.6125 82.33854L40.6125 85.416664ZM51.409374 89.15104Q50.815624 89.65104 50.26875 89.854164Q49.7375 90.05729 49.1125 90.05729Q48.08125 90.05729 47.534374 89.55729Q46.9875 89.05729 46.9875 88.27604Q46.9875 87.822914 47.190624 87.447914Q47.39375 87.05729 47.7375 86.83854Q48.08125 86.604164 48.503124 86.49479Q48.8 86.40104 49.440624 86.322914Q50.70625 86.18229 51.315624 85.96354Q51.315624 85.74479 51.315624 85.697914Q51.315624 85.041664 51.01875 84.77604Q50.6125 84.43229 49.815624 84.43229Q49.08125 84.43229 48.721874 84.697914Q48.3625 84.947914 48.190624 85.604164L47.159374 85.46354Q47.3 84.80729 47.628124 84.40104Q47.95625 83.99479 48.565624 83.77604Q49.175 83.55729 49.971874 83.55729Q50.76875 83.55729 51.26875 83.74479Q51.76875 83.93229 52.003124 84.21354Q52.2375 84.49479 52.33125 84.93229Q52.378124 85.197914 52.378124 85.90104L52.378124 87.30729Q52.378124 88.77604 52.440624 89.166664Q52.51875 89.55729 52.721874 89.916664L51.6125 89.916664Q51.45625 89.58854 51.409374 89.15104ZM51.315624 86.791664Q50.7375 87.02604 49.596874 87.197914Q48.940624 87.291664 48.675 87.416664Q48.409374 87.52604 48.253124 87.74479Q48.1125 87.96354 48.1125 88.24479Q48.1125 88.666664 48.425 88.947914Q48.753124 89.229164 49.3625 89.229164Q49.971874 89.229164 50.440624 88.96354Q50.925 88.697914 51.14375 88.229164Q51.315624 87.86979 51.315624 87.18229L51.315624 86.791664ZM54.33125 89.916664L54.33125 83.697914L55.284374 83.697914L55.284374 84.635414Q55.64375 83.979164 55.940624 83.77604Q56.253124 83.55729 56.628124 83.55729Q57.159374 83.55729 57.70625 83.885414L57.346874 84.86979Q56.95625 84.635414 56.58125 84.635414Q56.221874 84.635414 55.940624 84.854164Q55.675 85.05729 55.565624 85.43229Q55.378124 85.99479 55.378124 86.65104L55.378124 89.916664L54.33125 89.916664ZM60.64375 88.979164L60.8 89.90104Q60.346874 89.99479 60.003124 89.99479Q59.425 89.99479 59.1125 89.822914Q58.8 89.635414 58.659374 89.33854Q58.534374 89.041664 58.534374 88.08854L58.534374 84.510414L57.76875 84.510414L57.76875 83.697914L58.534374 83.697914L58.534374 82.15104L59.58125 81.52604L59.58125 83.697914L60.64375 83.697914L60.64375 84.510414L59.58125 84.510414L59.58125 88.15104Q59.58125 88.604164 59.628124 88.729164Q59.690624 88.854164 59.815624 88.93229Q59.940624 89.010414 60.175 89.010414Q60.3625 89.010414 60.64375 88.979164ZM61.346874 89.916664L61.346874 83.697914L62.284374 83.697914L62.284374 84.572914Q62.971874 83.55729 64.26875 83.55729Q64.83125 83.55729 65.3 83.760414Q65.78438 83.96354 66.01875 84.291664Q66.25313 84.61979 66.34688 85.05729Q66.39375 85.354164 66.39375 86.08854L66.39375 89.916664L65.34688 89.916664L65.34688 86.135414Q65.34688 85.479164 65.22188 85.166664Q65.09688 84.854164 64.78438 84.666664Q64.47188 84.46354 64.05 84.46354Q63.378124 84.46354 62.878124 84.90104Q62.39375 85.322914 62.39375 86.510414L62.39375 89.916664L61.346874 89.916664ZM72.59688 87.916664L73.69063 88.041664Q73.44063 88.99479 72.7375 89.52604Q72.03438 90.05729 70.95625 90.05729Q69.59688 90.05729 68.78438 89.21354Q67.9875 88.36979 67.9875 86.854164Q67.9875 85.291664 68.8 84.43229Q69.6125 83.55729 70.89375 83.55729Q72.14375 83.55729 72.925 84.40104Q73.72188 85.24479 73.72188 86.791664Q73.72188 86.885414 73.72188 87.072914L69.08125 87.072914Q69.14375 88.104164 69.65938 88.65104Q70.175 89.18229 70.95625 89.18229Q71.53438 89.18229 71.94063 88.885414Q72.3625 88.572914 72.59688 87.916664ZM69.14375 86.21354L72.6125 86.21354Q72.55 85.416664 72.22188 85.02604Q71.70625 84.416664 70.90938 84.416664Q70.175 84.416664 69.675 84.90104Q69.19063 85.385414 69.14375 86.21354ZM75.33125 89.916664L75.33125 83.697914L76.28438 83.697914L76.28438 84.635414Q76.64375 83.979164 76.94063 83.77604Q77.25313 83.55729 77.62813 83.55729Q78.15938 83.55729 78.70625 83.885414L78.34688 84.86979Q77.95625 84.635414 77.58125 84.635414Q77.22188 84.635414 76.94063 84.854164Q76.675 85.05729 76.56563 85.43229Q76.37813 85.99479 76.37813 86.65104L76.37813 89.916664L75.33125 89.916664ZM78.925 88.05729L79.95625 87.90104Q80.05 88.52604 80.44063 88.854164Q80.84688 89.18229 81.58125 89.18229Q82.3 89.18229 82.64375 88.90104Q83.00313 88.604164 83.00313 88.197914Q83.00313 87.83854 82.69063 87.635414Q82.47188 87.49479 81.6125 87.27604Q80.45625 86.979164 80.00313 86.77604Q79.56563 86.55729 79.33125 86.18229Q79.09688 85.80729 79.09688 85.33854Q79.09688 84.93229 79.28438 84.572914Q79.47188 84.21354 79.8 83.979164Q80.05 83.80729 80.47188 83.68229Q80.89375 83.55729 81.39375 83.55729Q82.1125 83.55729 82.65938 83.77604Q83.22188 83.979164 83.4875 84.33854Q83.75313 84.697914 83.84688 85.291664L82.81563 85.43229Q82.75313 84.96354 82.40938 84.697914Q82.08125 84.416664 81.45625 84.416664Q80.7375 84.416664 80.425 84.666664Q80.1125 84.90104 80.1125 85.229164Q80.1125 85.43229 80.2375 85.58854Q80.37813 85.760414 80.64375 85.86979Q80.8 85.93229 81.58125 86.135414Q82.70625 86.447914 83.14375 86.635414Q83.58125 86.822914 83.83125 87.18229Q84.08125 87.541664 84.08125 88.08854Q84.08125 88.61979 83.76875 89.08854Q83.47188 89.541664 82.89375 89.80729Q82.31563 90.05729 81.58125 90.05729Q80.3625 90.05729 79.72188 89.55729Q79.09688 89.041664 78.925 88.05729Z" fill-rule="nonzero"/><path fill="#757575" d="M21.784374 37.55L18.6125 27.175L20.425 27.175L22.08125 33.159374L22.690624 35.39375Q22.7375 35.221874 23.221874 33.253124L24.878124 27.175L26.690624 27.175L28.2375 33.190624L28.753124 35.175L29.346874 33.175L31.128124 27.175L32.83125 27.175L29.596874 37.55L27.76875 37.55L26.1125 31.33125L25.721874 29.565624L23.6125 37.55L21.784374 37.55ZM35.190624 37.55L35.190624 23.2375L44.846874 23.2375L44.846874 24.925L37.08125 24.925L37.08125 29.3625L43.8 29.3625L43.8 31.05L37.08125 31.05L37.08125 37.55L35.190624 37.55ZM46.221874 32.3625Q46.221874 29.4875 47.815624 28.096874Q49.159374 26.940624 51.08125 26.940624Q53.221874 26.940624 54.565624 28.346874Q55.925 29.753124 55.925 32.221874Q55.925 34.221874 55.33125 35.378124Q54.7375 36.51875 53.58125 37.159374Q52.440624 37.784374 51.08125 37.784374Q48.89375 37.784374 47.55 36.39375Q46.221874 34.9875 46.221874 32.3625ZM48.01875 32.3625Q48.01875 34.3625 48.878124 35.346874Q49.753124 36.33125 51.08125 36.33125Q52.39375 36.33125 53.253124 35.346874Q54.128124 34.346874 54.128124 32.3Q54.128124 30.378124 53.253124 29.39375Q52.378124 28.39375 51.08125 28.39375Q49.753124 28.39375 48.878124 29.39375Q48.01875 30.378124 48.01875 32.3625ZM57.846874 37.55L57.846874 27.175L59.425 27.175L59.425 28.753124Q60.034374 27.64375 60.55 27.3Q61.065624 26.940624 61.675 26.940624Q62.565624 26.940624 63.4875 27.503124L62.878124 29.14375Q62.2375 28.753124 61.596874 28.753124Q61.01875 28.753124 60.55 29.1125Q60.096874 29.45625 59.89375 30.065624Q59.6125 31.003124 59.6125 32.1125L59.6125 37.55L57.846874 37.55ZM71.64375 33.753124L73.3625 33.971874Q73.08125 35.76875 71.90938 36.784374Q70.75313 37.784374 69.05 37.784374Q66.925 37.784374 65.62813 36.39375Q64.33125 35.003124 64.33125 32.409374Q64.33125 30.721874 64.87813 29.471874Q65.44063 28.20625 66.58125 27.58125Q67.72188 26.940624 69.06563 26.940624Q70.75313 26.940624 71.81563 27.8Q72.89375 28.659374 73.20625 30.221874L71.4875 30.4875Q71.25313 29.440624 70.62813 28.925Q70.00313 28.39375 69.12813 28.39375Q67.8 28.39375 66.97188 29.346874Q66.14375 30.3 66.14375 32.346874Q66.14375 34.440624 66.94063 35.39375Q67.7375 36.33125 69.03438 36.33125Q70.06563 36.33125 70.75313 35.70625Q71.45625 35.065624 71.64375 33.753124ZM81.97188 34.20625L83.78438 34.440624Q83.3625 36.01875 82.19063 36.909374Q81.03438 37.784374 79.22188 37.784374Q76.95625 37.784374 75.6125 36.39375Q74.28438 34.9875 74.28438 32.45625Q74.28438 29.83125 75.62813 28.39375Q76.97188 26.940624 79.12813 26.940624Q81.20625 26.940624 82.51875 28.3625Q83.84688 29.76875 83.84688 32.346874Q83.84688 32.503124 83.83125 32.815624L76.09688 32.815624Q76.19063 34.51875 77.06563 35.425Q77.94063 36.33125 79.2375 36.33125Q80.20625 36.33125 80.87813 35.83125Q81.56563 35.315624 81.97188 34.20625ZM76.19063 31.3625L81.9875 31.3625Q81.87813 30.065624 81.33125 29.409374Q80.4875 28.39375 79.14375 28.39375Q77.94063 28.39375 77.1125 29.20625Q76.28438 30.003124 76.19063 31.3625ZM98.64375 36.26875Q97.65938 37.096874 96.75313 37.440624Q95.84688 37.784374 94.81563 37.784374Q93.1125 37.784374 92.19063 36.95625Q91.26875 36.1125 91.26875 34.815624Q91.26875 34.05 91.6125 33.425Q91.97188 32.8 92.53438 32.425Q93.09688 32.034374 93.8 31.83125Q94.31563 31.70625 95.3625 31.565624Q97.4875 31.315624 98.4875 30.971874Q98.50313 30.6125 98.50313 30.503124Q98.50313 29.440624 98.00313 28.9875Q97.33125 28.39375 96.00313 28.39375Q94.75313 28.39375 94.15938 28.83125Q93.58125 29.26875 93.3 30.378124L91.58125 30.14375Q91.81563 29.034374 92.34688 28.3625Q92.87813 27.675 93.89375 27.315624Q94.90938 26.940624 96.25313 26.940624Q97.58125 26.940624 98.40938 27.253124Q99.2375 27.565624 99.62813 28.05Q100.01875 28.51875 100.175 29.2375Q100.26875 29.690624 100.26875 30.8625L100.26875 33.20625Q100.26875 35.659374 100.37813 36.315624Q100.4875 36.95625 100.83125 37.55L98.9875 37.55Q98.72188 37.003124 98.64375 36.26875ZM98.4875 32.346874Q97.53438 32.7375 95.6125 33.003124Q94.53438 33.159374 94.08125 33.3625Q93.64375 33.55 93.39375 33.925Q93.14375 34.3 93.14375 34.76875Q93.14375 35.471874 93.675 35.940624Q94.20625 36.409374 95.2375 36.409374Q96.25313 36.409374 97.03438 35.971874Q97.83125 35.51875 98.20625 34.753124Q98.4875 34.14375 98.4875 32.9875L98.4875 32.346874ZM102.83125 37.55L102.83125 23.2375L104.58125 23.2375L104.58125 37.55L102.83125 37.55ZM106.83125 37.55L106.83125 23.2375L108.58125 23.2375L108.58125 37.55L106.83125 37.55ZM110.22188 32.3625Q110.22188 29.4875 111.81563 28.096874Q113.15938 26.940624 115.08125 26.940624Q117.22188 26.940624 118.56563 28.346874Q119.925 29.753124 119.925 32.221874Q119.925 34.221874 119.33125 35.378124Q118.7375 36.51875 117.58125 37.159374Q116.44063 37.784374 115.08125 37.784374Q112.89375 37.784374 111.55 36.39375Q110.22188 34.9875 110.22188 32.3625ZM112.01875 32.3625Q112.01875 34.3625 112.87813 35.346874Q113.75313 36.33125 115.08125 36.33125Q116.39375 36.33125 117.25313 35.346874Q118.12813 34.346874 118.12813 32.3Q118.12813 30.378124 117.25313 29.39375Q116.37813 28.39375 115.08125 28.39375Q113.75313 28.39375 112.87813 29.39375Q112.01875 30.378124 112.01875 32.3625ZM128.64375 33.753124L130.3625 33.971874Q130.08125 35.76875 128.90938 36.784374Q127.75313 37.784374 126.05 37.784374Q123.925 37.784374 122.62813 36.39375Q121.33125 35.003124 121.33125 32.409374Q121.33125 30.721874 121.87813 29.471874Q122.44063 28.20625 123.58125 27.58125Q124.72188 26.940624 126.06563 26.940624Q127.75313 26.940624 128.81563 27.8Q129.89375 28.659374 130.20625 30.221874L128.4875 30.4875Q128.25313 29.440624 127.62813 28.925Q127.00313 28.39375 126.12813 28.39375Q124.8 28.39375 123.97188 29.346874Q123.14375 30.3 123.14375 32.346874Q123.14375 34.440624 123.94063 35.39375Q124.7375 36.33125 126.03438 36.33125Q127.06563 36.33125 127.75313 35.70625Q128.45625 35.065624 128.64375 33.753124ZM138.64375 36.26875Q137.65938 37.096874 136.75313 37.440624Q135.84688 37.784374 134.81563 37.784374Q133.1125 37.784374 132.19063 36.95625Q131.26875 36.1125 131.26875 34.815624Q131.26875 34.05 131.6125 33.425Q131.97188 32.8 132.53438 32.425Q133.09688 32.034374 133.8 31.83125Q134.31563 31.70625 135.3625 31.565624Q137.4875 31.315624 138.4875 30.971874Q138.50313 30.6125 138.50313 30.503124Q138.50313 29.440624 138.00313 28.9875Q137.33125 28.39375 136.00313 28.39375Q134.75313 28.39375 134.15938 28.83125Q133.58125 29.26875 133.3 30.378124L131.58125 30.14375Q131.81563 29.034374 132.34688 28.3625Q132.87813 27.675 133.89375 27.315624Q134.90938 26.940624 136.25313 26.940624Q137.58125 26.940624 138.40938 27.253124Q139.2375 27.565624 139.62813 28.05Q140.01875 28.51875 140.175 29.2375Q140.26875 29.690624 140.26875 30.8625L140.26875 33.20625Q140.26875 35.659374 140.37813 36.315624Q140.4875 36.95625 140.83125 37.55L138.9875 37.55Q138.72188 37.003124 138.64375 36.26875ZM138.4875 32.346874Q137.53438 32.7375 135.6125 33.003124Q134.53438 33.159374 134.08125 33.3625Q133.64375 33.55 133.39375 33.925Q133.14375 34.3 133.14375 34.76875Q133.14375 35.471874 133.675 35.940624Q134.20625 36.409374 135.2375 36.409374Q136.25313 36.409374 137.03438 35.971874Q137.83125 35.51875 138.20625 34.753124Q138.4875 34.14375 138.4875 32.9875L138.4875 32.346874ZM146.70625 35.971874L146.95625 37.534374Q146.22188 37.690624 145.62813 37.690624Q144.675 37.690624 144.14375 37.39375Q143.62813 37.08125 143.40938 36.596874Q143.19063 36.096874 143.19063 34.51875L143.19063 28.55L141.90938 28.55L141.90938 27.175L143.19063 27.175L143.19063 24.6125L144.94063 23.55L144.94063 27.175L146.70625 27.175L146.70625 28.55L144.94063 28.55L144.94063 34.6125Q144.94063 35.3625 145.03438 35.58125Q145.12813 35.784374 145.33125 35.925Q145.55 36.05 145.94063 36.05Q146.22188 36.05 146.70625 35.971874ZM148.87813 25.253124L148.87813 23.2375L150.64375 23.2375L150.64375 25.253124L148.87813 25.253124ZM148.87813 37.55L148.87813 27.175L150.64375 27.175L150.64375 37.55L148.87813 37.55ZM152.22188 32.3625Q152.22188 29.4875 153.81563 28.096874Q155.15938 26.940624 157.08125 26.940624Q159.22188 26.940624 160.56563 28.346874Q161.925 29.753124 161.925 32.221874Q161.925 34.221874 161.33125 35.378124Q160.7375 36.51875 159.58125 37.159374Q158.44063 37.784374 157.08125 37.784374Q154.89375 37.784374 153.55 36.39375Q152.22188 34.9875 152.22188 32.3625ZM154.01875 32.3625Q154.01875 34.3625 154.87813 35.346874Q155.75313 36.33125 157.08125 36.33125Q158.39375 36.33125 159.25313 35.346874Q160.12813 34.346874 160.12813 32.3Q160.12813 30.378124 159.25313 29.39375Q158.37813 28.39375 157.08125 28.39375Q155.75313 28.39375 154.87813 29.39375Q154.01875 30.378124 154.01875 32.3625ZM163.8625 37.55L163.8625 27.175L165.45625 27.175L165.45625 28.659374Q166.59688 26.940624 168.75313 26.940624Q169.69063 26.940624 170.47188 27.284374Q171.26875 27.6125 171.65938 28.159374Q172.05 28.70625 172.20625 29.45625Q172.3 29.95625 172.3 31.175L172.3 37.55L170.53438 37.55L170.53438 31.2375Q170.53438 30.159374 170.33125 29.628124Q170.12813 29.096874 169.59688 28.784374Q169.08125 28.471874 168.37813 28.471874Q167.25313 28.471874 166.44063 29.190624Q165.62813 29.89375 165.62813 31.878124L165.62813 37.55L163.8625 37.55Z" fill-rule="nonzero"/></svg>