<svg version="1.1" viewBox="0.0 0.0 656.0 447.0" fill="none" stroke="none" stroke-linecap="square" stroke-miterlimit="10" width="656" height="447" xmlns:xlink="http://www.w3.org/1999/xlink" xmlns="http://www.w3.org/2000/svg"><path fill="#ffffff" d="M0 0L656.0 0L656.0 447.0L0 447.0L0 0Z" fill-rule="nonzero"/><path fill="#00b300" d="M327.7412 182.30061L217.49243 126.230316L217.49243 153.48532L327.7412 209.55562Z" fill-rule="nonzero"/><path fill="#00b300" d="M327.7412 182.30061C336.28806 174.06601 349.95004 169.19322 364.4908 169.19322L364.4908 196.44823C349.95004 196.44823 336.28806 201.32101 327.7412 209.55562Z" fill-rule="nonzero"/><path fill="#00ff00" d="M217.49243 126.230316C251.67982 93.29187 306.32773 73.80072 364.4908 73.80072L364.4908 169.19322C349.95004 169.19322 336.28806 174.06601 327.7412 182.30061Z" fill-rule="nonzero"/><path fill="#6b00b3" d="M297.04584 234.17424L167.44063 263.65216L167.44063 290.90714L297.04584 261.42923Z" fill-rule="nonzero"/><path fill="#6b00b3" d="M167.44063 290.90714C161.54866 278.21362 158.54759 264.95004 158.54759 251.60327L158.54759 224.34828C158.54759 237.69504 161.54866 250.95862 167.44063 263.65216Z" fill-rule="nonzero"/><path fill="#6b00b3" d="M294.8226 224.34828C294.8226 217.6333 297.85947 211.0907 303.498 205.65817L303.498 232.91318C297.85947 238.3457 294.8226 244.8883 294.8226 251.60327Z" fill-rule="nonzero"/><path fill="#9900ff" d="M167.44063 263.65216C149.46724 224.93068 159.0618 182.5263 193.2492 149.58788L303.498 205.65817C294.95114 213.89279 292.5525 224.49388 297.04584 234.17424Z" fill-rule="nonzero"/><path fill="#0000b3" d="M566.81335 256.5775C566.81335 319.14133 501.814 372.41443 413.53748 382.20157C325.26096 391.9887 239.92534 355.38312 212.30637 295.88138L212.30637 268.62637C239.92534 328.1281 325.26096 364.7337 413.53748 354.9466C501.814 345.15945 566.81335 291.88632 566.81335 229.3225Z" fill-rule="nonzero"/><path fill="#0000b3" d="M385.11334 197.525C410.20087 197.525 430.53833 211.76123 430.53833 229.3225L430.53833 256.5775C430.53833 239.01622 410.20087 224.78 385.11334 224.78Z" fill-rule="nonzero"/><path fill="#0000ff" d="M385.11334 102.1325C478.11078 102.1325 556.0971 151.28592 565.81793 216.02753C575.5388 280.76913 513.85614 340.19843 422.8909 353.7331C331.92566 367.26776 241.04416 330.53845 212.30637 268.62637L341.9116 239.14847C349.09604 254.6265 371.8164 263.8088 394.5577 260.42514C417.29904 257.04147 432.7197 242.18416 430.2895 225.99875C427.85928 209.81335 408.3627 197.525 385.11334 197.525Z" fill-rule="nonzero"/><path fill="#ffffff" d="M481.2096 281.41092L481.2096 279.61404L487.78772 279.61404L487.78772 281.0203Q486.9596 281.81717 486.11584 283.31717Q485.28772 284.80154 484.8346 286.48904Q484.3971 288.17654 484.41272 289.50467L482.55334 289.50467Q482.60022 287.42654 483.41272 285.2703Q484.22522 283.09842 485.5846 281.41092L481.2096 281.41092ZM492.4596 279.44217Q493.91272 279.44217 494.74084 280.47342Q495.7096 281.7078 495.7096 284.56717Q495.7096 287.41092 494.72522 288.6453Q493.91272 289.67654 492.4596 289.67654Q490.99084 289.67654 490.10022 288.55154Q489.2096 287.42654 489.2096 284.53592Q489.2096 281.7078 490.19397 280.47342Q491.00647 279.44217 492.4596 279.44217ZM492.4596 281.03592Q492.11584 281.03592 491.8346 281.25467Q491.56897 281.47342 491.41272 282.05154Q491.2096 282.80154 491.2096 284.56717Q491.2096 286.3328 491.38147 286.98904Q491.56897 287.6453 491.8346 287.86404Q492.11584 288.0828 492.4596 288.0828Q492.80334 288.0828 493.06897 287.86404Q493.35022 287.6453 493.50647 287.06717Q493.7096 286.3328 493.7096 284.56717Q493.7096 282.80154 493.5221 282.1453Q493.35022 281.47342 493.06897 281.25467Q492.80334 281.03592 492.4596 281.03592ZM497.22522 281.9578Q497.22522 280.61404 497.81897 279.97342Q498.41272 279.31717 499.41272 279.31717Q500.4596 279.31717 501.05334 279.9578Q501.6471 280.59842 501.6471 281.9578Q501.6471 283.30154 501.05334 283.9578Q500.4596 284.59842 499.4596 284.59842Q498.41272 284.59842 497.81897 283.9578Q497.22522 283.31717 497.22522 281.9578ZM498.72522 281.94217Q498.72522 282.92654 498.94397 283.25467Q499.11584 283.50467 499.41272 283.50467Q499.72522 283.50467 499.8971 283.25467Q500.11584 282.92654 500.11584 281.94217Q500.11584 280.97342 499.8971 280.6453Q499.72522 280.37967 499.41272 280.37967Q499.11584 280.37967 498.94397 280.62967Q498.72522 280.97342 498.72522 281.94217ZM500.88147 289.8953L499.4596 289.8953L504.80334 279.31717L506.17834 279.31717L500.88147 289.8953ZM503.99084 287.25467Q503.99084 285.91092 504.56897 285.2703Q505.16272 284.61404 506.19397 284.61404Q507.22522 284.61404 507.81897 285.2703Q508.41272 285.91092 508.41272 287.25467Q508.41272 288.61404 507.81897 289.2703Q507.22522 289.91092 506.2096 289.91092Q505.16272 289.91092 504.56897 289.2703Q503.99084 288.61404 503.99084 287.25467ZM505.47522 287.25467Q505.47522 288.22342 505.7096 288.55154Q505.88147 288.80154 506.17834 288.80154Q506.49084 288.80154 506.6471 288.56717Q506.88147 288.22342 506.88147 287.25467Q506.88147 286.2703 506.66272 285.94217Q506.49084 285.69217 506.17834 285.69217Q505.86584 285.69217 505.7096 285.94217Q505.47522 286.2703 505.47522 287.25467Z" fill-rule="nonzero"/><path fill="#ffffff" d="M192.29767 213.77498L190.3758 213.77498L190.3758 206.5406Q189.3133 207.52498 187.89142 207.99373L187.89142 206.24373Q188.64142 206.00935 189.51642 205.32185Q190.40704 204.63435 190.73517 203.71248L192.29767 203.71248L192.29767 213.77498ZM195.40704 211.19685L197.3133 210.99373Q197.40704 211.64998 197.79767 212.02498Q198.20392 212.39998 198.73517 212.39998Q199.32892 212.39998 199.7508 211.9156Q200.17267 211.43123 200.17267 210.44685Q200.17267 209.52498 199.7508 209.07185Q199.34454 208.6031 198.67267 208.6031Q197.84454 208.6031 197.1883 209.33748L195.64142 209.1031L196.6258 203.88435L201.70392 203.88435L201.70392 205.68123L198.07892 205.68123L197.78204 207.38435Q198.42267 207.07185 199.09454 207.07185Q200.36017 207.07185 201.2508 208.00935Q202.14142 208.93123 202.14142 210.4156Q202.14142 211.64998 201.42267 212.61873Q200.45392 213.94685 198.71954 213.94685Q197.32892 213.94685 196.45392 213.21248Q195.57892 212.46248 195.40704 211.19685ZM203.39142 206.2281Q203.39142 204.88435 203.98517 204.24373Q204.57892 203.58748 205.57892 203.58748Q206.6258 203.58748 207.21954 204.2281Q207.8133 204.86873 207.8133 206.2281Q207.8133 207.57185 207.21954 208.2281Q206.6258 208.86873 205.6258 208.86873Q204.57892 208.86873 203.98517 208.2281Q203.39142 207.58748 203.39142 206.2281ZM204.89142 206.21248Q204.89142 207.19685 205.11017 207.52498Q205.28204 207.77498 205.57892 207.77498Q205.89142 207.77498 206.0633 207.52498Q206.28204 207.19685 206.28204 206.21248Q206.28204 205.24373 206.0633 204.9156Q205.89142 204.64998 205.57892 204.64998Q205.28204 204.64998 205.11017 204.89998Q204.89142 205.24373 204.89142 206.21248ZM207.04767 214.1656L205.6258 214.1656L210.96954 203.58748L212.34454 203.58748L207.04767 214.1656ZM210.15704 211.52498Q210.15704 210.18123 210.73517 209.5406Q211.32892 208.88435 212.36017 208.88435Q213.39142 208.88435 213.98517 209.5406Q214.57892 210.18123 214.57892 211.52498Q214.57892 212.88435 213.98517 213.5406Q213.39142 214.18123 212.3758 214.18123Q211.32892 214.18123 210.73517 213.5406Q210.15704 212.88435 210.15704 211.52498ZM211.64142 211.52498Q211.64142 212.49373 211.8758 212.82185Q212.04767 213.07185 212.34454 213.07185Q212.65704 213.07185 212.8133 212.83748Q213.04767 212.49373 213.04767 211.52498Q213.04767 210.5406 212.82892 210.21248Q212.65704 209.96248 212.34454 209.96248Q212.03204 209.96248 211.8758 210.21248Q211.64142 210.5406 211.64142 211.52498Z" fill-rule="nonzero"/><path fill="#ffffff" d="M296.2094 122.4661L294.28754 122.4661L294.28754 115.23173Q293.22504 116.2161 291.80316 116.68485L291.80316 114.93485Q292.55316 114.70048 293.42816 114.01298Q294.3188 113.32548 294.6469 112.4036L296.2094 112.4036L296.2094 122.4661ZM299.3188 119.88798L301.22504 119.68485Q301.3188 120.3411 301.7094 120.7161Q302.11566 121.0911 302.6469 121.0911Q303.24066 121.0911 303.66254 120.60673Q304.0844 120.12235 304.0844 119.13798Q304.0844 118.2161 303.66254 117.76298Q303.2563 117.29423 302.5844 117.29423Q301.7563 117.29423 301.10004 118.0286L299.55316 117.79423L300.53754 112.57548L305.61566 112.57548L305.61566 114.37235L301.99066 114.37235L301.6938 116.07548Q302.3344 115.76298 303.0063 115.76298Q304.2719 115.76298 305.16254 116.70048Q306.05316 117.62235 306.05316 119.10673Q306.05316 120.3411 305.3344 121.30985Q304.36566 122.63798 302.6313 122.63798Q301.24066 122.63798 300.36566 121.9036Q299.49066 121.1536 299.3188 119.88798ZM307.30316 114.91923Q307.30316 113.57548 307.8969 112.93485Q308.49066 112.2786 309.49066 112.2786Q310.53754 112.2786 311.1313 112.91923Q311.72504 113.55985 311.72504 114.91923Q311.72504 116.26298 311.1313 116.91923Q310.53754 117.55985 309.53754 117.55985Q308.49066 117.55985 307.8969 116.91923Q307.30316 116.2786 307.30316 114.91923ZM308.80316 114.9036Q308.80316 115.88798 309.0219 116.2161Q309.1938 116.4661 309.49066 116.4661Q309.80316 116.4661 309.97504 116.2161Q310.1938 115.88798 310.1938 114.9036Q310.1938 113.93485 309.97504 113.60673Q309.80316 113.3411 309.49066 113.3411Q309.1938 113.3411 309.0219 113.5911Q308.80316 113.93485 308.80316 114.9036ZM310.9594 122.85673L309.53754 122.85673L314.8813 112.2786L316.2563 112.2786L310.9594 122.85673ZM314.0688 120.2161Q314.0688 118.87235 314.6469 118.23173Q315.24066 117.57548 316.2719 117.57548Q317.30316 117.57548 317.8969 118.23173Q318.49066 118.87235 318.49066 120.2161Q318.49066 121.57548 317.8969 122.23173Q317.30316 122.87235 316.28754 122.87235Q315.24066 122.87235 314.6469 122.23173Q314.0688 121.57548 314.0688 120.2161ZM315.55316 120.2161Q315.55316 121.18485 315.78754 121.51298Q315.9594 121.76298 316.2563 121.76298Q316.5688 121.76298 316.72504 121.5286Q316.9594 121.18485 316.9594 120.2161Q316.9594 119.23173 316.74066 118.9036Q316.5688 118.6536 316.2563 118.6536Q315.9438 118.6536 315.78754 118.9036Q315.55316 119.23173 315.55316 120.2161Z" fill-rule="nonzero"/><path fill="#0000ff" d="M34.35 68.25C34.35 71.563705 31.663708 74.25 28.35 74.25C25.036291 74.25 22.35 71.563705 22.35 68.25C22.35 64.936295 25.036291 62.25 28.35 62.25C31.663708 62.25 34.35 64.936295 34.35 68.25Z" fill-rule="nonzero"/><path fill="#1a1a1a" d="M42.725 70.390625L43.75625 70.234375Q43.85 70.859375 44.240623 71.1875Q44.646873 71.515625 45.38125 71.515625Q46.1 71.515625 46.44375 71.234375Q46.803123 70.9375 46.803123 70.53125Q46.803123 70.171875 46.490623 69.96875Q46.271873 69.828125 45.4125 69.609375Q44.25625 69.3125 43.803123 69.109375Q43.365623 68.890625 43.13125 68.515625Q42.896873 68.140625 42.896873 67.671875Q42.896873 67.265625 43.084373 66.90625Q43.271873 66.546875 43.6 66.3125Q43.85 66.140625 44.271873 66.015625Q44.69375 65.890625 45.19375 65.890625Q45.9125 65.890625 46.459373 66.109375Q47.021873 66.3125 47.2875 66.671875Q47.553123 67.03125 47.646873 67.625L46.615623 67.765625Q46.553123 67.296875 46.209373 67.03125Q45.88125 66.75 45.25625 66.75Q44.5375 66.75 44.225 67.0Q43.9125 67.234375 43.9125 67.5625Q43.9125 67.765625 44.0375 67.921875Q44.178123 68.09375 44.44375 68.203125Q44.6 68.265625 45.38125 68.46875Q46.50625 68.78125 46.94375 68.96875Q47.38125 69.15625 47.63125 69.515625Q47.88125 69.875 47.88125 70.421875Q47.88125 70.953125 47.56875 71.421875Q47.271873 71.875 46.69375 72.140625Q46.115623 72.390625 45.38125 72.390625Q44.1625 72.390625 43.521873 71.890625Q42.896873 71.375 42.725 70.390625ZM50.225 72.25L50.225 63.65625L51.365623 63.65625L51.365623 67.921875L55.63125 63.65625L57.178123 63.65625L53.56875 67.140625L57.334373 72.25L55.834373 72.25L52.771873 67.90625L51.365623 69.265625L51.365623 72.25L50.225 72.25ZM58.146873 64.875L58.146873 63.65625L59.209373 63.65625L59.209373 64.875L58.146873 64.875ZM58.146873 72.25L58.146873 66.03125L59.209373 66.03125L59.209373 72.25L58.146873 72.25ZM61.146873 72.25L61.146873 66.03125L62.084373 66.03125L62.084373 66.90625Q62.771873 65.890625 64.06875 65.890625Q64.63125 65.890625 65.1 66.09375Q65.58437 66.296875 65.81875 66.625Q66.05312 66.953125 66.14687 67.390625Q66.19375 67.6875 66.19375 68.421875L66.19375 72.25L65.14687 72.25L65.14687 68.46875Q65.14687 67.8125 65.02187 67.5Q64.89687 67.1875 64.58437 67.0Q64.27187 66.796875 63.85 66.796875Q63.178123 66.796875 62.678123 67.234375Q62.19375 67.65625 62.19375 68.84375L62.19375 72.25L61.146873 72.25ZM67.94375 72.765625L68.975 72.921875Q69.0375 73.390625 69.33437 73.609375Q69.725 73.90625 70.39687 73.90625Q71.13125 73.90625 71.52187 73.609375Q71.92812 73.3125 72.06875 72.796875Q72.1625 72.46875 72.14687 71.4375Q71.45937 72.25 70.42812 72.25Q69.14687 72.25 68.44375 71.328125Q67.74062 70.390625 67.74062 69.109375Q67.74062 68.21875 68.05312 67.46875Q68.38125 66.703125 68.99062 66.296875Q69.6 65.890625 70.42812 65.890625Q71.5375 65.890625 72.25625 66.78125L72.25625 66.03125L73.225 66.03125L73.225 71.40625Q73.225 72.859375 72.92812 73.46875Q72.63125 74.078125 71.99062 74.421875Q71.35 74.78125 70.4125 74.78125Q69.30312 74.78125 68.61562 74.28125Q67.92812 73.78125 67.94375 72.765625ZM68.81875 69.03125Q68.81875 70.25 69.30312 70.8125Q69.7875 71.375 70.52187 71.375Q71.25625 71.375 71.74062 70.8125Q72.24062 70.25 72.24062 69.0625Q72.24062 67.921875 71.725 67.34375Q71.225 66.765625 70.50625 66.765625Q69.80312 66.765625 69.30312 67.34375Q68.81875 67.90625 68.81875 69.03125ZM80.725 72.25L77.39687 63.65625L78.63125 63.65625L80.86562 69.90625Q81.13125 70.65625 81.31875 71.3125Q81.52187 70.609375 81.7875 69.90625L84.1 63.65625L85.25625 63.65625L81.89687 72.25L80.725 72.25ZM89.20937 71.484375Q88.61562 71.984375 88.06875 72.1875Q87.5375 72.390625 86.9125 72.390625Q85.88125 72.390625 85.33437 71.890625Q84.7875 71.390625 84.7875 70.609375Q84.7875 70.15625 84.99062 69.78125Q85.19375 69.390625 85.5375 69.171875Q85.88125 68.9375 86.30312 68.828125Q86.6 68.734375 87.24062 68.65625Q88.50625 68.515625 89.11562 68.296875Q89.11562 68.078125 89.11562 68.03125Q89.11562 67.375 88.81875 67.109375Q88.4125 66.765625 87.61562 66.765625Q86.88125 66.765625 86.52187 67.03125Q86.1625 67.28125 85.99062 67.9375L84.95937 67.796875Q85.1 67.140625 85.42812 66.734375Q85.75625 66.328125 86.36562 66.109375Q86.975 65.890625 87.77187 65.890625Q88.56875 65.890625 89.06875 66.078125Q89.56875 66.265625 89.80312 66.546875Q90.0375 66.828125 90.13125 67.265625Q90.17812 67.53125 90.17812 68.234375L90.17812 69.640625Q90.17812 71.109375 90.24062 71.5Q90.31875 71.890625 90.52187 72.25L89.4125 72.25Q89.25625 71.921875 89.20937 71.484375ZM89.11562 69.125Q88.5375 69.359375 87.39687 69.53125Q86.74062 69.625 86.475 69.75Q86.20937 69.859375 86.05312 70.078125Q85.9125 70.296875 85.9125 70.578125Q85.9125 71.0 86.225 71.28125Q86.55312 71.5625 87.1625 71.5625Q87.77187 71.5625 88.24062 71.296875Q88.725 71.03125 88.94375 70.5625Q89.11562 70.203125 89.11562 69.515625L89.11562 69.125ZM96.225 72.25L96.225 71.328125Q95.49062 72.390625 94.24062 72.390625Q93.69375 72.390625 93.20937 72.1875Q92.74062 71.96875 92.50625 71.65625Q92.27187 71.328125 92.17812 70.859375Q92.11562 70.5625 92.11562 69.875L92.11562 66.03125L93.17812 66.03125L93.17812 69.484375Q93.17812 70.296875 93.24062 70.59375Q93.33437 71.0 93.64687 71.25Q93.975 71.484375 94.45937 71.484375Q94.92812 71.484375 95.33437 71.25Q95.75625 71.0 95.92812 70.578125Q96.11562 70.15625 96.11562 69.359375L96.11562 66.03125L97.1625 66.03125L97.1625 72.25L96.225 72.25ZM99.11562 72.25L99.11562 63.65625L100.17812 63.65625L100.17812 72.25L99.11562 72.25ZM104.44375 71.3125L104.6 72.234375Q104.14687 72.328125 103.80312 72.328125Q103.225 72.328125 102.9125 72.15625Q102.6 71.96875 102.45937 71.671875Q102.33437 71.375 102.33437 70.421875L102.33437 66.84375L101.56875 66.84375L101.56875 66.03125L102.33437 66.03125L102.33437 64.484375L103.38125 63.859375L103.38125 66.03125L104.44375 66.03125L104.44375 66.84375L103.38125 66.84375L103.38125 70.484375Q103.38125 70.9375 103.42812 71.0625Q103.49062 71.1875 103.61562 71.265625Q103.74062 71.34375 103.975 71.34375Q104.1625 71.34375 104.44375 71.3125Z" fill-rule="nonzero"/><path fill="#9900ff" d="M34.35 92.25C34.35 95.563705 31.663708 98.25 28.35 98.25C25.036291 98.25 22.35 95.563705 22.35 92.25C22.35 88.936295 25.036291 86.25 28.35 86.25C31.663708 86.25 34.35 88.936295 34.35 92.25Z" fill-rule="nonzero"/><path fill="#1a1a1a" d="M44.2875 96.25L42.38125 90.03125L43.475 90.03125L44.459373 93.625L44.834373 94.953125Q44.865623 94.859375 45.1625 93.671875L46.146873 90.03125L47.225 90.03125L48.1625 93.640625L48.475 94.828125L48.834373 93.625L49.896873 90.03125L50.928123 90.03125L48.975 96.25L47.88125 96.25L46.896873 92.515625L46.646873 91.46875L45.396873 96.25L44.2875 96.25ZM52.334373 96.25L52.334373 87.65625L58.13125 87.65625L58.13125 88.671875L53.475 88.671875L53.475 91.328125L57.50625 91.328125L57.50625 92.34375L53.475 92.34375L53.475 96.25L52.334373 96.25ZM58.75625 93.140625Q58.75625 91.40625 59.709373 90.578125Q60.50625 89.890625 61.6625 89.890625Q62.94375 89.890625 63.75625 90.734375Q64.58437 91.5625 64.58437 93.046875Q64.58437 94.25 64.225 94.9375Q63.865623 95.625 63.1625 96.015625Q62.475 96.390625 61.6625 96.390625Q60.365623 96.390625 59.553123 95.5625Q58.75625 94.71875 58.75625 93.140625ZM59.834373 93.140625Q59.834373 94.328125 60.35 94.921875Q60.88125 95.515625 61.6625 95.515625Q62.459373 95.515625 62.975 94.921875Q63.490623 94.328125 63.490623 93.109375Q63.490623 91.953125 62.959373 91.359375Q62.44375 90.765625 61.6625 90.765625Q60.88125 90.765625 60.35 91.359375Q59.834373 91.9375 59.834373 93.140625ZM66.13125 96.25L66.13125 90.03125L67.08437 90.03125L67.08437 90.96875Q67.44375 90.3125 67.74062 90.109375Q68.05312 89.890625 68.42812 89.890625Q68.95937 89.890625 69.50625 90.21875L69.14687 91.203125Q68.75625 90.96875 68.38125 90.96875Q68.02187 90.96875 67.74062 91.1875Q67.475 91.390625 67.36562 91.765625Q67.17812 92.328125 67.17812 92.984375L67.17812 96.25L66.13125 96.25ZM74.20937 93.96875L75.24062 94.109375Q75.06875 95.171875 74.36562 95.78125Q73.6625 96.390625 72.64687 96.390625Q71.36562 96.390625 70.58437 95.5625Q69.81875 94.71875 69.81875 93.15625Q69.81875 92.15625 70.14687 91.40625Q70.49062 90.640625 71.1625 90.265625Q71.85 89.890625 72.6625 89.890625Q73.6625 89.890625 74.30312 90.40625Q74.95937 90.90625 75.14687 91.859375L74.11562 92.015625Q73.975 91.390625 73.6 91.078125Q73.225 90.75 72.69375 90.75Q71.89687 90.75 71.39687 91.328125Q70.89687 91.890625 70.89687 93.125Q70.89687 94.390625 71.38125 94.953125Q71.86562 95.515625 72.63125 95.515625Q73.25625 95.515625 73.6625 95.140625Q74.08437 94.765625 74.20937 93.96875ZM80.39687 94.25L81.49062 94.375Q81.24062 95.328125 80.5375 95.859375Q79.83437 96.390625 78.75625 96.390625Q77.39687 96.390625 76.58437 95.546875Q75.7875 94.703125 75.7875 93.1875Q75.7875 91.625 76.6 90.765625Q77.4125 89.890625 78.69375 89.890625Q79.94375 89.890625 80.725 90.734375Q81.52187 91.578125 81.52187 93.125Q81.52187 93.21875 81.52187 93.40625L76.88125 93.40625Q76.94375 94.4375 77.45937 94.984375Q77.975 95.515625 78.75625 95.515625Q79.33437 95.515625 79.74062 95.21875Q80.1625 94.90625 80.39687 94.25ZM76.94375 92.546875L80.4125 92.546875Q80.35 91.75 80.02187 91.359375Q79.50625 90.75 78.70937 90.75Q77.975 90.75 77.475 91.234375Q76.99062 91.71875 76.94375 92.546875ZM88.725 96.25L85.39687 87.65625L86.63125 87.65625L88.86562 93.90625Q89.13125 94.65625 89.31875 95.3125Q89.52187 94.609375 89.7875 93.90625L92.1 87.65625L93.25625 87.65625L89.89687 96.25L88.725 96.25ZM97.20937 95.484375Q96.61562 95.984375 96.06875 96.1875Q95.5375 96.390625 94.9125 96.390625Q93.88125 96.390625 93.33437 95.890625Q92.7875 95.390625 92.7875 94.609375Q92.7875 94.15625 92.99062 93.78125Q93.19375 93.390625 93.5375 93.171875Q93.88125 92.9375 94.30312 92.828125Q94.6 92.734375 95.24062 92.65625Q96.50625 92.515625 97.11562 92.296875Q97.11562 92.078125 97.11562 92.03125Q97.11562 91.375 96.81875 91.109375Q96.4125 90.765625 95.61562 90.765625Q94.88125 90.765625 94.52187 91.03125Q94.1625 91.28125 93.99062 91.9375L92.95937 91.796875Q93.1 91.140625 93.42812 90.734375Q93.75625 90.328125 94.36562 90.109375Q94.975 89.890625 95.77187 89.890625Q96.56875 89.890625 97.06875 90.078125Q97.56875 90.265625 97.80312 90.546875Q98.0375 90.828125 98.13125 91.265625Q98.17812 91.53125 98.17812 92.234375L98.17812 93.640625Q98.17812 95.109375 98.24062 95.5Q98.31875 95.890625 98.52187 96.25L97.4125 96.25Q97.25625 95.921875 97.20937 95.484375ZM97.11562 93.125Q96.5375 93.359375 95.39687 93.53125Q94.74062 93.625 94.475 93.75Q94.20937 93.859375 94.05312 94.078125Q93.9125 94.296875 93.9125 94.578125Q93.9125 95.0 94.225 95.28125Q94.55312 95.5625 95.1625 95.5625Q95.77187 95.5625 96.24062 95.296875Q96.725 95.03125 96.94375 94.5625Q97.11562 94.203125 97.11562 93.515625L97.11562 93.125ZM104.225 96.25L104.225 95.328125Q103.49062 96.390625 102.24062 96.390625Q101.69375 96.390625 101.20937 96.1875Q100.74062 95.96875 100.50625 95.65625Q100.27187 95.328125 100.17812 94.859375Q100.11562 94.5625 100.11562 93.875L100.11562 90.03125L101.17812 90.03125L101.17812 93.484375Q101.17812 94.296875 101.24062 94.59375Q101.33437 95.0 101.64687 95.25Q101.975 95.484375 102.45937 95.484375Q102.92812 95.484375 103.33437 95.25Q103.75625 95.0 103.92812 94.578125Q104.11562 94.15625 104.11562 93.359375L104.11562 90.03125L105.1625 90.03125L105.1625 96.25L104.225 96.25ZM107.11562 96.25L107.11562 87.65625L108.17812 87.65625L108.17812 96.25L107.11562 96.25ZM112.44375 95.3125L112.6 96.234375Q112.14687 96.328125 111.80312 96.328125Q111.225 96.328125 110.9125 96.15625Q110.6 95.96875 110.45937 95.671875Q110.33437 95.375 110.33437 94.421875L110.33437 90.84375L109.56875 90.84375L109.56875 90.03125L110.33437 90.03125L110.33437 88.484375L111.38125 87.859375L111.38125 90.03125L112.44375 90.03125L112.44375 90.84375L111.38125 90.84375L111.38125 94.484375Q111.38125 94.9375 111.42812 95.0625Q111.49062 95.1875 111.61562 95.265625Q111.74062 95.34375 111.975 95.34375Q112.1625 95.34375 112.44375 95.3125Z" fill-rule="nonzero"/><path fill="#00ff00" d="M34.35 116.25C34.35 119.563705 31.663708 122.25 28.35 122.25C25.036291 122.25 22.35 119.563705 22.35 116.25C22.35 112.936295 25.036291 110.25 28.35 110.25C31.663708 110.25 34.35 112.936295 34.35 116.25Z" fill-rule="nonzero"/><path fill="#1a1a1a" d="M47.178123 120.25L47.178123 119.46875Q46.584373 120.390625 45.44375 120.390625Q44.69375 120.390625 44.06875 119.984375Q43.44375 119.5625 43.1 118.828125Q42.75625 118.09375 42.75625 117.140625Q42.75625 116.21875 43.06875 115.453125Q43.38125 114.6875 44.00625 114.296875Q44.63125 113.890625 45.396873 113.890625Q45.959373 113.890625 46.396873 114.125Q46.834373 114.359375 47.115623 114.734375L47.115623 111.65625L48.1625 111.65625L48.1625 120.25L47.178123 120.25ZM43.85 117.140625Q43.85 118.34375 44.35 118.9375Q44.85 119.515625 45.5375 119.515625Q46.225 119.515625 46.709373 118.953125Q47.19375 118.390625 47.19375 117.234375Q47.19375 115.953125 46.69375 115.359375Q46.209373 114.765625 45.490623 114.765625Q44.7875 114.765625 44.31875 115.34375Q43.85 115.90625 43.85 117.140625ZM54.303123 116.875L54.303123 115.875L57.928123 115.859375L57.928123 119.046875Q57.1 119.71875 56.209373 120.0625Q55.31875 120.390625 54.38125 120.390625Q53.115623 120.390625 52.06875 119.859375Q51.0375 119.3125 50.50625 118.296875Q49.990623 117.265625 49.990623 116.0Q49.990623 114.734375 50.50625 113.65625Q51.0375 112.5625 52.021873 112.046875Q53.00625 111.515625 54.2875 111.515625Q55.225 111.515625 55.975 111.8125Q56.725 112.109375 57.146873 112.65625Q57.584373 113.1875 57.803123 114.0625L56.7875 114.34375Q56.584373 113.6875 56.2875 113.3125Q56.00625 112.9375 55.475 112.71875Q54.94375 112.484375 54.303123 112.484375Q53.521873 112.484375 52.94375 112.71875Q52.38125 112.953125 52.021873 113.34375Q51.678123 113.734375 51.490623 114.203125Q51.1625 115.0 51.1625 115.921875Q51.1625 117.078125 51.553123 117.859375Q51.959373 118.625 52.709373 119.0Q53.459373 119.375 54.31875 119.375Q55.053123 119.375 55.75625 119.09375Q56.459373 118.796875 56.81875 118.484375L56.81875 116.875L54.303123 116.875ZM63.225 120.25L63.225 119.328125Q62.490623 120.390625 61.240623 120.390625Q60.69375 120.390625 60.209373 120.1875Q59.740623 119.96875 59.50625 119.65625Q59.271873 119.328125 59.178123 118.859375Q59.115623 118.5625 59.115623 117.875L59.115623 114.03125L60.178123 114.03125L60.178123 117.484375Q60.178123 118.296875 60.240623 118.59375Q60.334373 119.0 60.646873 119.25Q60.975 119.484375 61.459373 119.484375Q61.928123 119.484375 62.334373 119.25Q62.75625 119.0 62.928123 118.578125Q63.115623 118.15625 63.115623 117.359375L63.115623 114.03125L64.1625 114.03125L64.1625 120.25L63.225 120.25ZM66.14687 112.875L66.14687 111.65625L67.20937 111.65625L67.20937 112.875L66.14687 112.875ZM66.14687 120.25L66.14687 114.03125L67.20937 114.03125L67.20937 120.25L66.14687 120.25ZM69.11562 120.25L69.11562 111.65625L70.17812 111.65625L70.17812 120.25L69.11562 120.25ZM76.17812 120.25L76.17812 119.46875Q75.58437 120.390625 74.44375 120.390625Q73.69375 120.390625 73.06875 119.984375Q72.44375 119.5625 72.1 118.828125Q71.75625 118.09375 71.75625 117.140625Q71.75625 116.21875 72.06875 115.453125Q72.38125 114.6875 73.00625 114.296875Q73.63125 113.890625 74.39687 113.890625Q74.95937 113.890625 75.39687 114.125Q75.83437 114.359375 76.11562 114.734375L76.11562 111.65625L77.1625 111.65625L77.1625 120.25L76.17812 120.25ZM72.85 117.140625Q72.85 118.34375 73.35 118.9375Q73.85 119.515625 74.5375 119.515625Q75.225 119.515625 75.70937 118.953125Q76.19375 118.390625 76.19375 117.234375Q76.19375 115.953125 75.69375 115.359375Q75.20937 114.765625 74.49062 114.765625Q73.7875 114.765625 73.31875 115.34375Q72.85 115.90625 72.85 117.140625ZM84.725 120.25L81.39687 111.65625L82.63125 111.65625L84.86562 117.90625Q85.13125 118.65625 85.31875 119.3125Q85.52187 118.609375 85.7875 117.90625L88.1 111.65625L89.25625 111.65625L85.89687 120.25L84.725 120.25ZM93.20937 119.484375Q92.61562 119.984375 92.06875 120.1875Q91.5375 120.390625 90.9125 120.390625Q89.88125 120.390625 89.33437 119.890625Q88.7875 119.390625 88.7875 118.609375Q88.7875 118.15625 88.99062 117.78125Q89.19375 117.390625 89.5375 117.171875Q89.88125 116.9375 90.30312 116.828125Q90.6 116.734375 91.24062 116.65625Q92.50625 116.515625 93.11562 116.296875Q93.11562 116.078125 93.11562 116.03125Q93.11562 115.375 92.81875 115.109375Q92.4125 114.765625 91.61562 114.765625Q90.88125 114.765625 90.52187 115.03125Q90.1625 115.28125 89.99062 115.9375L88.95937 115.796875Q89.1 115.140625 89.42812 114.734375Q89.75625 114.328125 90.36562 114.109375Q90.975 113.890625 91.77187 113.890625Q92.56875 113.890625 93.06875 114.078125Q93.56875 114.265625 93.80312 114.546875Q94.0375 114.828125 94.13125 115.265625Q94.17812 115.53125 94.17812 116.234375L94.17812 117.640625Q94.17812 119.109375 94.24062 119.5Q94.31875 119.890625 94.52187 120.25L93.4125 120.25Q93.25625 119.921875 93.20937 119.484375ZM93.11562 117.125Q92.5375 117.359375 91.39687 117.53125Q90.74062 117.625 90.475 117.75Q90.20937 117.859375 90.05312 118.078125Q89.9125 118.296875 89.9125 118.578125Q89.9125 119.0 90.225 119.28125Q90.55312 119.5625 91.1625 119.5625Q91.77187 119.5625 92.24062 119.296875Q92.725 119.03125 92.94375 118.5625Q93.11562 118.203125 93.11562 117.515625L93.11562 117.125ZM100.225 120.25L100.225 119.328125Q99.49062 120.390625 98.24062 120.390625Q97.69375 120.390625 97.20937 120.1875Q96.74062 119.96875 96.50625 119.65625Q96.27187 119.328125 96.17812 118.859375Q96.11562 118.5625 96.11562 117.875L96.11562 114.03125L97.17812 114.03125L97.17812 117.484375Q97.17812 118.296875 97.24062 118.59375Q97.33437 119.0 97.64687 119.25Q97.975 119.484375 98.45937 119.484375Q98.92812 119.484375 99.33437 119.25Q99.75625 119.0 99.92812 118.578125Q100.11562 118.15625 100.11562 117.359375L100.11562 114.03125L101.1625 114.03125L101.1625 120.25L100.225 120.25ZM103.11562 120.25L103.11562 111.65625L104.17812 111.65625L104.17812 120.25L103.11562 120.25ZM108.44375 119.3125L108.6 120.234375Q108.14687 120.328125 107.80312 120.328125Q107.225 120.328125 106.9125 120.15625Q106.6 119.96875 106.45937 119.671875Q106.33437 119.375 106.33437 118.421875L106.33437 114.84375L105.56875 114.84375L105.56875 114.03125L106.33437 114.03125L106.33437 112.484375L107.38125 111.859375L107.38125 114.03125L108.44375 114.03125L108.44375 114.84375L107.38125 114.84375L107.38125 118.484375Q107.38125 118.9375 107.42812 119.0625Q107.49062 119.1875 107.61562 119.265625Q107.74062 119.34375 107.975 119.34375Q108.1625 119.34375 108.44375 119.3125Z" fill-rule="nonzero"/><path fill="#757575" d="M27.990625 41.35L22.44375 27.037498L24.490625 27.037498L28.209375 37.428123Q28.6625 38.678123 28.959375 39.771873Q29.2875 38.6 29.740625 37.428123L33.6 27.037498L35.5375 27.037498L29.928125 41.35L27.990625 41.35ZM43.44375 40.06875Q42.459373 40.896873 41.553123 41.240623Q40.646873 41.584373 39.615623 41.584373Q37.9125 41.584373 36.990623 40.75625Q36.06875 39.9125 36.06875 38.615623Q36.06875 37.85 36.4125 37.225Q36.771873 36.6 37.334373 36.225Q37.896873 35.834373 38.6 35.63125Q39.115623 35.50625 40.1625 35.365623Q42.2875 35.115623 43.2875 34.771873Q43.303123 34.4125 43.303123 34.303123Q43.303123 33.240623 42.803123 32.7875Q42.13125 32.19375 40.803123 32.19375Q39.553123 32.19375 38.959373 32.63125Q38.38125 33.06875 38.1 34.178123L36.38125 33.94375Q36.615623 32.834373 37.146873 32.1625Q37.678123 31.474998 38.69375 31.115623Q39.709373 30.740623 41.053123 30.740623Q42.38125 30.740623 43.209373 31.053123Q44.0375 31.365623 44.428123 31.849998Q44.81875 32.31875 44.975 33.0375Q45.06875 33.490623 45.06875 34.6625L45.06875 37.00625Q45.06875 39.459373 45.178123 40.115623Q45.2875 40.75625 45.63125 41.35L43.7875 41.35Q43.521873 40.803123 43.44375 40.06875ZM43.2875 36.146873Q42.334373 36.5375 40.4125 36.803123Q39.334373 36.959373 38.88125 37.1625Q38.44375 37.35 38.19375 37.725Q37.94375 38.1 37.94375 38.56875Q37.94375 39.271873 38.475 39.740623Q39.00625 40.209373 40.0375 40.209373Q41.053123 40.209373 41.834373 39.771873Q42.63125 39.31875 43.00625 38.553123Q43.2875 37.94375 43.2875 36.7875L43.2875 36.146873ZM47.63125 41.35L47.63125 27.037498L49.38125 27.037498L49.38125 41.35L47.63125 41.35ZM58.459373 41.35L58.459373 39.81875Q57.25625 41.584373 55.178123 41.584373Q54.25625 41.584373 53.459373 41.240623Q52.6625 40.88125 52.271873 40.35Q51.896873 39.81875 51.740623 39.0375Q51.63125 38.521873 51.63125 37.396873L51.63125 30.974998L53.38125 30.974998L53.38125 36.725Q53.38125 38.1 53.490623 38.584373Q53.6625 39.271873 54.19375 39.678123Q54.740623 40.06875 55.521873 40.06875Q56.31875 40.06875 57.00625 39.6625Q57.709373 39.25625 57.990623 38.56875Q58.2875 37.865623 58.2875 36.5375L58.2875 30.974998L60.0375 30.974998L60.0375 41.35L58.459373 41.35ZM68.77187 38.00625L70.58437 38.240623Q70.1625 39.81875 68.99062 40.709373Q67.83437 41.584373 66.02187 41.584373Q63.75625 41.584373 62.4125 40.19375Q61.084373 38.7875 61.084373 36.25625Q61.084373 33.63125 62.428123 32.19375Q63.771873 30.740623 65.92812 30.740623Q68.00625 30.740623 69.31875 32.1625Q70.64687 33.56875 70.64687 36.146873Q70.64687 36.303123 70.63125 36.615623L62.896873 36.615623Q62.990623 38.31875 63.865623 39.225Q64.74062 40.13125 66.0375 40.13125Q67.00625 40.13125 67.67812 39.63125Q68.36562 39.115623 68.77187 38.00625ZM62.990623 35.1625L68.7875 35.1625Q68.67812 33.865623 68.13125 33.209373Q67.2875 32.19375 65.94375 32.19375Q64.74062 32.19375 63.9125 33.00625Q63.084373 33.803123 62.990623 35.1625ZM77.95937 38.25625L79.70937 37.975Q79.85 39.021873 80.52187 39.584373Q81.19375 40.13125 82.39687 40.13125Q83.6 40.13125 84.17812 39.646873Q84.77187 39.146873 84.77187 38.490623Q84.77187 37.896873 84.25625 37.553123Q83.89687 37.31875 82.45937 36.959373Q80.52187 36.459373 79.77187 36.115623Q79.0375 35.75625 78.64687 35.13125Q78.25625 34.490623 78.25625 33.725Q78.25625 33.0375 78.56875 32.44375Q78.89687 31.849998 79.44375 31.459373Q79.85 31.162498 80.55312 30.959373Q81.27187 30.740623 82.08437 30.740623Q83.30312 30.740623 84.225 31.099998Q85.14687 31.443748 85.58437 32.053123Q86.02187 32.646873 86.19375 33.646873L84.475 33.88125Q84.35 33.084373 83.7875 32.646873Q83.225 32.19375 82.20937 32.19375Q80.99062 32.19375 80.475 32.6Q79.95937 32.990623 79.95937 33.521873Q79.95937 33.865623 80.17812 34.146873Q80.38125 34.428123 80.85 34.615623Q81.11562 34.709373 82.39687 35.053123Q84.27187 35.553123 85.00625 35.88125Q85.74062 36.19375 86.1625 36.803123Q86.58437 37.396873 86.58437 38.303123Q86.58437 39.178123 86.06875 39.959373Q85.55312 40.740623 84.58437 41.1625Q83.61562 41.584373 82.39687 41.584373Q80.38125 41.584373 79.31875 40.740623Q78.25625 39.896873 77.95937 38.25625ZM92.50625 39.771873L92.75625 41.334373Q92.02187 41.490623 91.42812 41.490623Q90.475 41.490623 89.94375 41.19375Q89.42812 40.88125 89.20937 40.396873Q88.99062 39.896873 88.99062 38.31875L88.99062 32.35L87.70937 32.35L87.70937 30.974998L88.99062 30.974998L88.99062 28.412498L90.74062 27.349998L90.74062 30.974998L92.50625 30.974998L92.50625 32.35L90.74062 32.35L90.74062 38.4125Q90.74062 39.1625 90.83437 39.38125Q90.92812 39.584373 91.13125 39.725Q91.35 39.85 91.74062 39.85Q92.02187 39.85 92.50625 39.771873ZM94.02187 36.1625Q94.02187 33.2875 95.61562 31.896873Q96.95937 30.740623 98.88125 30.740623Q101.02187 30.740623 102.36562 32.146873Q103.725 33.553123 103.725 36.021873Q103.725 38.021873 103.13125 39.178123Q102.5375 40.31875 101.38125 40.959373Q100.24062 41.584373 98.88125 41.584373Q96.69375 41.584373 95.35 40.19375Q94.02187 38.7875 94.02187 36.1625ZM95.81875 36.1625Q95.81875 38.1625 96.67812 39.146873Q97.55312 40.13125 98.88125 40.13125Q100.19375 40.13125 101.05312 39.146873Q101.92812 38.146873 101.92812 36.1Q101.92812 34.178123 101.05312 33.19375Q100.17812 32.19375 98.88125 32.19375Q97.55312 32.19375 96.67812 33.19375Q95.81875 34.178123 95.81875 36.1625ZM105.64687 41.35L105.64687 30.974998L107.225 30.974998L107.225 32.553123Q107.83437 31.443748 108.35 31.099998Q108.86562 30.740623 109.475 30.740623Q110.36562 30.740623 111.2875 31.303123L110.67812 32.94375Q110.0375 32.553123 109.39687 32.553123Q108.81875 32.553123 108.35 32.9125Q107.89687 33.25625 107.69375 33.865623Q107.4125 34.803123 107.4125 35.9125L107.4125 41.35L105.64687 41.35ZM119.44375 40.06875Q118.45937 40.896873 117.55312 41.240623Q116.64687 41.584373 115.61562 41.584373Q113.9125 41.584373 112.99062 40.75625Q112.06875 39.9125 112.06875 38.615623Q112.06875 37.85 112.4125 37.225Q112.77187 36.6 113.33437 36.225Q113.89687 35.834373 114.6 35.63125Q115.11562 35.50625 116.1625 35.365623Q118.2875 35.115623 119.2875 34.771873Q119.30312 34.4125 119.30312 34.303123Q119.30312 33.240623 118.80312 32.7875Q118.13125 32.19375 116.80312 32.19375Q115.55312 32.19375 114.95937 32.63125Q114.38125 33.06875 114.1 34.178123L112.38125 33.94375Q112.61562 32.834373 113.14687 32.1625Q113.67812 31.474998 114.69375 31.115623Q115.70937 30.740623 117.05312 30.740623Q118.38125 30.740623 119.20937 31.053123Q120.0375 31.365623 120.42812 31.849998Q120.81875 32.31875 120.975 33.0375Q121.06875 33.490623 121.06875 34.6625L121.06875 37.00625Q121.06875 39.459373 121.17812 40.115623Q121.2875 40.75625 121.63125 41.35L119.7875 41.35Q119.52187 40.803123 119.44375 40.06875ZM119.2875 36.146873Q118.33437 36.5375 116.4125 36.803123Q115.33437 36.959373 114.88125 37.1625Q114.44375 37.35 114.19375 37.725Q113.94375 38.1 113.94375 38.56875Q113.94375 39.271873 114.475 39.740623Q115.00625 40.209373 116.0375 40.209373Q117.05312 40.209373 117.83437 39.771873Q118.63125 39.31875 119.00625 38.553123Q119.2875 37.94375 119.2875 36.7875L119.2875 36.146873ZM123.35 42.209373L125.05312 42.459373Q125.1625 43.25625 125.64687 43.615623Q126.30312 44.1 127.44375 44.1Q128.6625 44.1 129.31876 43.615623Q129.99063 43.13125 130.225 42.25625Q130.36563 41.709373 130.35 39.990623Q129.19376 41.35 127.475 41.35Q125.33437 41.35 124.1625 39.803123Q122.99062 38.25625 122.99062 36.1Q122.99062 34.615623 123.52187 33.365623Q124.06875 32.115623 125.08437 31.428123Q126.11562 30.740623 127.49062 30.740623Q129.31876 30.740623 130.52188 32.225L130.52188 30.974998L132.13126 30.974998L132.13126 39.94375Q132.13126 42.365623 131.63126 43.365623Q131.14688 44.38125 130.06876 44.959373Q129.00626 45.553123 127.44375 45.553123Q125.6 45.553123 124.44375 44.725Q123.30312 43.896873 123.35 42.209373ZM124.80312 35.975Q124.80312 38.021873 125.61562 38.959373Q126.42812 39.896873 127.64687 39.896873Q128.85 39.896873 129.6625 38.959373Q130.49063 38.021873 130.49063 36.0375Q130.49063 34.13125 129.64688 33.1625Q128.80313 32.19375 127.61562 32.19375Q126.44375 32.19375 125.61562 33.146873Q124.80312 34.1 124.80312 35.975ZM141.77188 38.00625L143.58438 38.240623Q143.1625 39.81875 141.99063 40.709373Q140.83438 41.584373 139.02188 41.584373Q136.75626 41.584373 135.4125 40.19375Q134.08438 38.7875 134.08438 36.25625Q134.08438 33.63125 135.42813 32.19375Q136.77188 30.740623 138.92813 30.740623Q141.00626 30.740623 142.31876 32.1625Q143.64688 33.56875 143.64688 36.146873Q143.64688 36.303123 143.63126 36.615623L135.89688 36.615623Q135.99063 38.31875 136.86563 39.225Q137.74063 40.13125 139.0375 40.13125Q140.00626 40.13125 140.67813 39.63125Q141.36563 39.115623 141.77188 38.00625ZM135.99063 35.1625L141.7875 35.1625Q141.67813 33.865623 141.13126 33.209373Q140.2875 32.19375 138.94376 32.19375Q137.74063 32.19375 136.9125 33.00625Q136.08438 33.803123 135.99063 35.1625ZM150.95938 38.25625L152.70938 37.975Q152.85 39.021873 153.52188 39.584373Q154.19376 40.13125 155.39688 40.13125Q156.6 40.13125 157.17813 39.646873Q157.77188 39.146873 157.77188 38.490623Q157.77188 37.896873 157.25626 37.553123Q156.89688 37.31875 155.45938 36.959373Q153.52188 36.459373 152.77188 36.115623Q152.0375 35.75625 151.64688 35.13125Q151.25626 34.490623 151.25626 33.725Q151.25626 33.0375 151.56876 32.44375Q151.89688 31.849998 152.44376 31.459373Q152.85 31.162498 153.55313 30.959373Q154.27188 30.740623 155.08438 30.740623Q156.30313 30.740623 157.225 31.099998Q158.14688 31.443748 158.58438 32.053123Q159.02188 32.646873 159.19376 33.646873L157.475 33.88125Q157.35 33.084373 156.7875 32.646873Q156.225 32.19375 155.20938 32.19375Q153.99063 32.19375 153.475 32.6Q152.95938 32.990623 152.95938 33.521873Q152.95938 33.865623 153.17813 34.146873Q153.38126 34.428123 153.85 34.615623Q154.11563 34.709373 155.39688 35.053123Q157.27188 35.553123 158.00626 35.88125Q158.74063 36.19375 159.1625 36.803123Q159.58438 37.396873 159.58438 38.303123Q159.58438 39.178123 159.06876 39.959373Q158.55313 40.740623 157.58438 41.1625Q156.61563 41.584373 155.39688 41.584373Q153.38126 41.584373 152.31876 40.740623Q151.25626 39.896873 150.95938 38.25625ZM161.81876 41.35L161.81876 27.037498L163.70938 27.037498L163.70938 34.13125L170.81876 27.037498L173.38126 27.037498L167.38126 32.834373L173.64688 41.35L171.14688 41.35L166.05313 34.1L163.70938 36.38125L163.70938 41.35L161.81876 41.35ZM174.67813 29.053123L174.67813 27.037498L176.44376 27.037498L176.44376 29.053123L174.67813 29.053123ZM174.67813 41.35L174.67813 30.974998L176.44376 30.974998L176.44376 41.35L174.67813 41.35ZM178.6625 41.35L178.6625 30.974998L180.25626 30.974998L180.25626 32.459373Q181.39688 30.740623 183.55313 30.740623Q184.49063 30.740623 185.27188 31.084373Q186.06876 31.412498 186.45938 31.959373Q186.85 32.50625 187.00626 33.25625Q187.1 33.75625 187.1 34.975L187.1 41.35L185.33438 41.35L185.33438 35.0375Q185.33438 33.959373 185.13126 33.428123Q184.92813 32.896873 184.39688 32.584373Q183.88126 32.271873 183.17813 32.271873Q182.05313 32.271873 181.24063 32.990623Q180.42813 33.69375 180.42813 35.678123L180.42813 41.35L178.6625 41.35ZM188.35 42.209373L190.05313 42.459373Q190.1625 43.25625 190.64688 43.615623Q191.30313 44.1 192.44376 44.1Q193.6625 44.1 194.31876 43.615623Q194.99063 43.13125 195.225 42.25625Q195.36563 41.709373 195.35 39.990623Q194.19376 41.35 192.475 41.35Q190.33438 41.35 189.1625 39.803123Q187.99063 38.25625 187.99063 36.1Q187.99063 34.615623 188.52188 33.365623Q189.06876 32.115623 190.08438 31.428123Q191.11563 30.740623 192.49063 30.740623Q194.31876 30.740623 195.52188 32.225L195.52188 30.974998L197.13126 30.974998L197.13126 39.94375Q197.13126 42.365623 196.63126 43.365623Q196.14688 44.38125 195.06876 44.959373Q194.00626 45.553123 192.44376 45.553123Q190.6 45.553123 189.44376 44.725Q188.30313 43.896873 188.35 42.209373ZM189.80313 35.975Q189.80313 38.021873 190.61563 38.959373Q191.42813 39.896873 192.64688 39.896873Q193.85 39.896873 194.6625 38.959373Q195.49063 38.021873 195.49063 36.0375Q195.49063 34.13125 194.64688 33.1625Q193.80313 32.19375 192.61563 32.19375Q191.44376 32.19375 190.61563 33.146873Q189.80313 34.1 189.80313 35.975ZM204.95938 38.25625L206.70938 37.975Q206.85 39.021873 207.52188 39.584373Q208.19376 40.13125 209.39688 40.13125Q210.6 40.13125 211.17813 39.646873Q211.77188 39.146873 211.77188 38.490623Q211.77188 37.896873 211.25626 37.553123Q210.89688 37.31875 209.45938 36.959373Q207.52188 36.459373 206.77188 36.115623Q206.0375 35.75625 205.64688 35.13125Q205.25626 34.490623 205.25626 33.725Q205.25626 33.0375 205.56876 32.44375Q205.89688 31.849998 206.44376 31.459373Q206.85 31.162498 207.55313 30.959373Q208.27188 30.740623 209.08438 30.740623Q210.30313 30.740623 211.225 31.099998Q212.14688 31.443748 212.58438 32.053123Q213.02188 32.646873 213.19376 33.646873L211.475 33.88125Q211.35 33.084373 210.7875 32.646873Q210.225 32.19375 209.20938 32.19375Q207.99063 32.19375 207.475 32.6Q206.95938 32.990623 206.95938 33.521873Q206.95938 33.865623 207.17813 34.146873Q207.38126 34.428123 207.85 34.615623Q208.11563 34.709373 209.39688 35.053123Q211.27188 35.553123 212.00626 35.88125Q212.74063 36.19375 213.1625 36.803123Q213.58438 37.396873 213.58438 38.303123Q213.58438 39.178123 213.06876 39.959373Q212.55313 40.740623 211.58438 41.1625Q210.61563 41.584373 209.39688 41.584373Q207.38126 41.584373 206.31876 40.740623Q205.25626 39.896873 204.95938 38.25625ZM219.50626 39.771873L219.75626 41.334373Q219.02188 41.490623 218.42813 41.490623Q217.475 41.490623 216.94376 41.19375Q216.42813 40.88125 216.20938 40.396873Q215.99063 39.896873 215.99063 38.31875L215.99063 32.35L214.70938 32.35L214.70938 30.974998L215.99063 30.974998L215.99063 28.412498L217.74063 27.349998L217.74063 30.974998L219.50626 30.974998L219.50626 32.35L217.74063 32.35L217.74063 38.4125Q217.74063 39.1625 217.83438 39.38125Q217.92813 39.584373 218.13126 39.725Q218.35 39.85 218.74063 39.85Q219.02188 39.85 219.50626 39.771873ZM228.44376 40.06875Q227.45938 40.896873 226.55313 41.240623Q225.64688 41.584373 224.61563 41.584373Q222.9125 41.584373 221.99063 40.75625Q221.06876 39.9125 221.06876 38.615623Q221.06876 37.85 221.4125 37.225Q221.77188 36.6 222.33438 36.225Q222.89688 35.834373 223.6 35.63125Q224.11563 35.50625 225.1625 35.365623Q227.2875 35.115623 228.2875 34.771873Q228.30313 34.4125 228.30313 34.303123Q228.30313 33.240623 227.80313 32.7875Q227.13126 32.19375 225.80313 32.19375Q224.55313 32.19375 223.95938 32.63125Q223.38126 33.06875 223.1 34.178123L221.38126 33.94375Q221.61563 32.834373 222.14688 32.1625Q222.67813 31.474998 223.69376 31.115623Q224.70938 30.740623 226.05313 30.740623Q227.38126 30.740623 228.20938 31.053123Q229.0375 31.365623 229.42813 31.849998Q229.81876 32.31875 229.975 33.0375Q230.06876 33.490623 230.06876 34.6625L230.06876 37.00625Q230.06876 39.459373 230.17813 40.115623Q230.2875 40.75625 230.63126 41.35L228.7875 41.35Q228.52188 40.803123 228.44376 40.06875ZM228.2875 36.146873Q227.33438 36.5375 225.4125 36.803123Q224.33438 36.959373 223.88126 37.1625Q223.44376 37.35 223.19376 37.725Q222.94376 38.1 222.94376 38.56875Q222.94376 39.271873 223.475 39.740623Q224.00626 40.209373 225.0375 40.209373Q226.05313 40.209373 226.83438 39.771873Q227.63126 39.31875 228.00626 38.553123Q228.2875 37.94375 228.2875 36.7875L228.2875 36.146873ZM232.67813 41.35L232.67813 27.037498L234.44376 27.037498L234.44376 35.19375L238.6 30.974998L240.86563 30.974998L236.9125 34.81875L241.27188 41.35L239.1 41.35L235.67813 36.053123L234.44376 37.240623L234.44376 41.35L232.67813 41.35ZM242.67813 29.053123L242.67813 27.037498L244.44376 27.037498L244.44376 29.053123L242.67813 29.053123ZM242.67813 41.35L242.67813 30.974998L244.44376 30.974998L244.44376 41.35L242.67813 41.35ZM246.6625 41.35L246.6625 30.974998L248.25626 30.974998L248.25626 32.459373Q249.39688 30.740623 251.55313 30.740623Q252.49063 30.740623 253.27188 31.084373Q254.06876 31.412498 254.45938 31.959373Q254.85 32.50625 255.00626 33.25625Q255.1 33.75625 255.1 34.975L255.1 41.35L253.33438 41.35L253.33438 35.0375Q253.33438 33.959373 253.13126 33.428123Q252.92813 32.896873 252.39688 32.584373Q251.88126 32.271873 251.17813 32.271873Q250.05313 32.271873 249.24063 32.990623Q248.42813 33.69375 248.42813 35.678123L248.42813 41.35L246.6625 41.35ZM256.35 42.209373L258.05313 42.459373Q258.1625 43.25625 258.64688 43.615623Q259.30313 44.1 260.44376 44.1Q261.6625 44.1 262.31876 43.615623Q262.99063 43.13125 263.225 42.25625Q263.36563 41.709373 263.35 39.990623Q262.19376 41.35 260.475 41.35Q258.33438 41.35 257.1625 39.803123Q255.99063 38.25625 255.99063 36.1Q255.99063 34.615623 256.52188 33.365623Q257.06876 32.115623 258.08438 31.428123Q259.11563 30.740623 260.49063 30.740623Q262.31876 30.740623 263.52188 32.225L263.52188 30.974998L265.13126 30.974998L265.13126 39.94375Q265.13126 42.365623 264.63126 43.365623Q264.14688 44.38125 263.06876 44.959373Q262.00626 45.553123 260.44376 45.553123Q258.6 45.553123 257.44376 44.725Q256.30313 43.896873 256.35 42.209373ZM257.80313 35.975Q257.80313 38.021873 258.61563 38.959373Q259.42813 39.896873 260.64688 39.896873Q261.85 39.896873 262.6625 38.959373Q263.49063 38.021873 263.49063 36.0375Q263.49063 34.13125 262.64688 33.1625Q261.80313 32.19375 260.61563 32.19375Q259.44376 32.19375 258.61563 33.146873Q257.80313 34.1 257.80313 35.975Z" fill-rule="nonzero"/></svg>